G04 #@! TF.GenerationSoftware,KiCad,Pcbnew,8.0.4*
G04 #@! TF.CreationDate,2024-10-08T15:05:27-04:00*
G04 #@! TF.ProjectId,FULL BOARD,46554c4c-2042-44f4-9152-442e6b696361,rev?*
G04 #@! TF.SameCoordinates,Original*
G04 #@! TF.FileFunction,Soldermask,Top*
G04 #@! TF.FilePolarity,Negative*
%FSLAX46Y46*%
G04 Gerber Fmt 4.6, Leading zero omitted, Abs format (unit mm)*
G04 Created by KiCad (PCBNEW 8.0.4) date 2024-10-08 15:05:27*
%MOMM*%
%LPD*%
G01*
G04 APERTURE LIST*
G04 Aperture macros list*
%AMRoundRect*
0 Rectangle with rounded corners*
0 $1 Rounding radius*
0 $2 $3 $4 $5 $6 $7 $8 $9 X,Y pos of 4 corners*
0 Add a 4 corners polygon primitive as box body*
4,1,4,$2,$3,$4,$5,$6,$7,$8,$9,$2,$3,0*
0 Add four circle primitives for the rounded corners*
1,1,$1+$1,$2,$3*
1,1,$1+$1,$4,$5*
1,1,$1+$1,$6,$7*
1,1,$1+$1,$8,$9*
0 Add four rect primitives between the rounded corners*
20,1,$1+$1,$2,$3,$4,$5,0*
20,1,$1+$1,$4,$5,$6,$7,0*
20,1,$1+$1,$6,$7,$8,$9,0*
20,1,$1+$1,$8,$9,$2,$3,0*%
G04 Aperture macros list end*
%ADD10RoundRect,0.140000X0.170000X-0.140000X0.170000X0.140000X-0.170000X0.140000X-0.170000X-0.140000X0*%
%ADD11R,1.041400X3.200400*%
%ADD12RoundRect,0.250000X-0.450000X0.262500X-0.450000X-0.262500X0.450000X-0.262500X0.450000X0.262500X0*%
%ADD13C,1.600200*%
%ADD14RoundRect,0.140000X0.140000X0.170000X-0.140000X0.170000X-0.140000X-0.170000X0.140000X-0.170000X0*%
%ADD15R,1.599999X0.449999*%
%ADD16R,4.110000X4.359999*%
%ADD17C,0.499999*%
%ADD18RoundRect,0.250000X-0.475000X0.250000X-0.475000X-0.250000X0.475000X-0.250000X0.475000X0.250000X0*%
%ADD19C,1.750000*%
%ADD20C,4.000000*%
%ADD21C,2.500000*%
%ADD22C,1.270000*%
%ADD23RoundRect,0.243750X0.243750X0.456250X-0.243750X0.456250X-0.243750X-0.456250X0.243750X-0.456250X0*%
%ADD24RoundRect,0.140000X-0.170000X0.140000X-0.170000X-0.140000X0.170000X-0.140000X0.170000X0.140000X0*%
%ADD25RoundRect,0.243750X-0.243750X-0.456250X0.243750X-0.456250X0.243750X0.456250X-0.243750X0.456250X0*%
%ADD26C,2.006600*%
%ADD27R,3.302000X4.394200*%
%ADD28R,3.911600X6.197600*%
%ADD29RoundRect,0.250000X0.475000X-0.250000X0.475000X0.250000X-0.475000X0.250000X-0.475000X-0.250000X0*%
%ADD30RoundRect,0.140000X-0.140000X-0.170000X0.140000X-0.170000X0.140000X0.170000X-0.140000X0.170000X0*%
%ADD31RoundRect,0.250000X-0.262500X-0.450000X0.262500X-0.450000X0.262500X0.450000X-0.262500X0.450000X0*%
%ADD32RoundRect,0.250000X0.262500X0.450000X-0.262500X0.450000X-0.262500X-0.450000X0.262500X-0.450000X0*%
%ADD33RoundRect,0.250000X0.450000X-0.262500X0.450000X0.262500X-0.450000X0.262500X-0.450000X-0.262500X0*%
%ADD34RoundRect,0.075000X0.725000X0.075000X-0.725000X0.075000X-0.725000X-0.075000X0.725000X-0.075000X0*%
%ADD35RoundRect,0.075000X0.075000X0.725000X-0.075000X0.725000X-0.075000X-0.725000X0.075000X-0.725000X0*%
%ADD36R,0.800000X1.500000*%
%ADD37RoundRect,0.362500X-0.362500X-0.637500X0.362500X-0.637500X0.362500X0.637500X-0.362500X0.637500X0*%
%ADD38RoundRect,0.375000X-0.375000X0.625000X-0.375000X-0.625000X0.375000X-0.625000X0.375000X0.625000X0*%
%ADD39RoundRect,0.500000X-1.400000X0.500000X-1.400000X-0.500000X1.400000X-0.500000X1.400000X0.500000X0*%
%ADD40R,1.550000X1.300000*%
%ADD41R,0.300000X1.000000*%
%ADD42R,2.000000X1.300000*%
%ADD43R,1.600000X1.600000*%
%ADD44O,1.600000X1.600000*%
G04 APERTURE END LIST*
D10*
X96230800Y-142308200D03*
X96230800Y-141348200D03*
D11*
X192711600Y-109789600D03*
X192711600Y-103871400D03*
D12*
X101435200Y-146070000D03*
X101435200Y-147895000D03*
D13*
X179511600Y-53491400D03*
X179511600Y-56031400D03*
X176971600Y-53491400D03*
X176971600Y-56031400D03*
X174431600Y-53491400D03*
X174431600Y-56031400D03*
X171891600Y-53491400D03*
X171891600Y-56031400D03*
X169351600Y-53491400D03*
X169351600Y-56031400D03*
D14*
X100208200Y-135884600D03*
X99248200Y-135884600D03*
D15*
X89819200Y-138494999D03*
X89819200Y-137844998D03*
X89819200Y-137194999D03*
X89819200Y-136544998D03*
X89819200Y-135894999D03*
X89819200Y-135244998D03*
X89819200Y-134594999D03*
X89819200Y-133944998D03*
X89819200Y-133294999D03*
X89819200Y-132644998D03*
X89819200Y-131994999D03*
X89819200Y-131344998D03*
X89819200Y-130695000D03*
X89819200Y-130044998D03*
X89819200Y-129395000D03*
X89819200Y-128744998D03*
X82019200Y-128744998D03*
X82019200Y-129395000D03*
X82019200Y-130044998D03*
X82019200Y-130695000D03*
X82019200Y-131344998D03*
X82019200Y-131994999D03*
X82019200Y-132644998D03*
X82019200Y-133294999D03*
X82019200Y-133944998D03*
X82019200Y-134594999D03*
X82019200Y-135244998D03*
X82019200Y-135894999D03*
X82019200Y-136544998D03*
X82019200Y-137194999D03*
X82019200Y-137844998D03*
X82019200Y-138494999D03*
D16*
X85919200Y-133620000D03*
D17*
X87724200Y-135269999D03*
X87724200Y-134169999D03*
X87724200Y-133070001D03*
X87724200Y-131970001D03*
X85919200Y-135269999D03*
X85919200Y-134169999D03*
X85919200Y-133070001D03*
X85919200Y-131970001D03*
X84114200Y-135269999D03*
X84114200Y-134169999D03*
X84114200Y-133070001D03*
X84114200Y-131970001D03*
D18*
X75856900Y-73068800D03*
X75856900Y-74968800D03*
D19*
X243674000Y-229491400D03*
D20*
X248754000Y-229491400D03*
D19*
X253834000Y-229491400D03*
D21*
X244944000Y-226951400D03*
X251294000Y-224411400D03*
D19*
X148674000Y-229491400D03*
D20*
X153754000Y-229491400D03*
D19*
X158834000Y-229491400D03*
D21*
X149944000Y-226951400D03*
X156294000Y-224411400D03*
D22*
X88754033Y-173514000D03*
X86754032Y-173514000D03*
D23*
X229559000Y-102754000D03*
X227684000Y-102754000D03*
D19*
X118674000Y-229491400D03*
D20*
X123754000Y-229491400D03*
D19*
X128834000Y-229491400D03*
D21*
X119944000Y-226951400D03*
X126294000Y-224411400D03*
D10*
X96228200Y-147919000D03*
X96228200Y-146959000D03*
D24*
X74409600Y-135656000D03*
X74409600Y-136616000D03*
D19*
X178674000Y-199491400D03*
D20*
X183754000Y-199491400D03*
D19*
X188834000Y-199491400D03*
D21*
X179944000Y-196951400D03*
X186294000Y-194411400D03*
D25*
X101841600Y-50891400D03*
X103716600Y-50891400D03*
D19*
X83674000Y-199491400D03*
D20*
X88754000Y-199491400D03*
D19*
X93834000Y-199491400D03*
D21*
X84944000Y-196951400D03*
X91294000Y-194411400D03*
D26*
X83021600Y-45491400D03*
D27*
X83021600Y-58238510D03*
D28*
X89477400Y-49294800D03*
X76565800Y-49294800D03*
D29*
X93078100Y-75451400D03*
X93078100Y-73551400D03*
D19*
X208674000Y-199491400D03*
D20*
X213754000Y-199491400D03*
D19*
X218834000Y-199491400D03*
D21*
X209944000Y-196951400D03*
X216294000Y-194411400D03*
D10*
X189101600Y-103871400D03*
X189101600Y-102911400D03*
D30*
X95700000Y-130779200D03*
X96660000Y-130779200D03*
D31*
X219806500Y-115284000D03*
X221631500Y-115284000D03*
D30*
X95771000Y-135884600D03*
X96731000Y-135884600D03*
D32*
X112799000Y-136954000D03*
X110974000Y-136954000D03*
D19*
X118674000Y-169491400D03*
D20*
X123754000Y-169491400D03*
D19*
X128834000Y-169491400D03*
D21*
X119944000Y-166951400D03*
X126294000Y-164411400D03*
D19*
X118674000Y-199491400D03*
D20*
X123754000Y-199491400D03*
D19*
X128834000Y-199491400D03*
D21*
X119944000Y-196951400D03*
X126294000Y-194411400D03*
D23*
X229579000Y-109014000D03*
X227704000Y-109014000D03*
D33*
X148931600Y-54036400D03*
X148931600Y-52211400D03*
D19*
X148674000Y-139491400D03*
D20*
X153754000Y-139491400D03*
D19*
X158834000Y-139491400D03*
D21*
X149944000Y-136951400D03*
X156294000Y-134411400D03*
D19*
X148674000Y-169491400D03*
D20*
X153754000Y-169491400D03*
D19*
X158834000Y-169491400D03*
D21*
X149944000Y-166951400D03*
X156294000Y-164411400D03*
D31*
X219819000Y-109024000D03*
X221644000Y-109024000D03*
X219819000Y-102774000D03*
X221644000Y-102774000D03*
D10*
X74358800Y-132780600D03*
X74358800Y-131820600D03*
D19*
X208674000Y-229491400D03*
D20*
X213754000Y-229491400D03*
D19*
X218834000Y-229491400D03*
D21*
X209944000Y-226951400D03*
X216294000Y-224411400D03*
D12*
X101511400Y-140888400D03*
X101511400Y-142713400D03*
D32*
X172669000Y-136934000D03*
X170844000Y-136934000D03*
D24*
X74206400Y-127578800D03*
X74206400Y-128538800D03*
D19*
X208674000Y-139491400D03*
D20*
X213754000Y-139491400D03*
D19*
X218834000Y-139491400D03*
D21*
X209944000Y-136951400D03*
X216294000Y-134411400D03*
D22*
X250753968Y-173514000D03*
X248753967Y-173514000D03*
D19*
X118674000Y-139491400D03*
D20*
X123754000Y-139491400D03*
D19*
X128834000Y-139491400D03*
D21*
X119944000Y-136951400D03*
X126294000Y-134411400D03*
D34*
X181702000Y-112501000D03*
X181702000Y-112001000D03*
X181702000Y-111501000D03*
X181702000Y-111001000D03*
X181702000Y-110501000D03*
X181702000Y-110001000D03*
X181702000Y-109501000D03*
X181702000Y-109001000D03*
X181702000Y-108501000D03*
X181702000Y-108001000D03*
X181702000Y-107501000D03*
X181702000Y-107001000D03*
X181702000Y-106501000D03*
X181702000Y-106001000D03*
X181702000Y-105501000D03*
X181702000Y-105001000D03*
X181702000Y-104501000D03*
X181702000Y-104001000D03*
X181702000Y-103501000D03*
X181702000Y-103001000D03*
X181702000Y-102501000D03*
X181702000Y-102001000D03*
X181702000Y-101501000D03*
X181702000Y-101001000D03*
X181702000Y-100501000D03*
D35*
X180027000Y-98826000D03*
X179527000Y-98826000D03*
X179027000Y-98826000D03*
X178527000Y-98826000D03*
X178027000Y-98826000D03*
X177527000Y-98826000D03*
X177027000Y-98826000D03*
X176527000Y-98826000D03*
X176027000Y-98826000D03*
X175527000Y-98826000D03*
X175027000Y-98826000D03*
X174527000Y-98826000D03*
X174027000Y-98826000D03*
X173527000Y-98826000D03*
X173027000Y-98826000D03*
X172527000Y-98826000D03*
X172027000Y-98826000D03*
X171527000Y-98826000D03*
X171027000Y-98826000D03*
X170527000Y-98826000D03*
X170027000Y-98826000D03*
X169527000Y-98826000D03*
X169027000Y-98826000D03*
X168527000Y-98826000D03*
X168027000Y-98826000D03*
D34*
X166352000Y-100501000D03*
X166352000Y-101001000D03*
X166352000Y-101501000D03*
X166352000Y-102001000D03*
X166352000Y-102501000D03*
X166352000Y-103001000D03*
X166352000Y-103501000D03*
X166352000Y-104001000D03*
X166352000Y-104501000D03*
X166352000Y-105001000D03*
X166352000Y-105501000D03*
X166352000Y-106001000D03*
X166352000Y-106501000D03*
X166352000Y-107001000D03*
X166352000Y-107501000D03*
X166352000Y-108001000D03*
X166352000Y-108501000D03*
X166352000Y-109001000D03*
X166352000Y-109501000D03*
X166352000Y-110001000D03*
X166352000Y-110501000D03*
X166352000Y-111001000D03*
X166352000Y-111501000D03*
X166352000Y-112001000D03*
X166352000Y-112501000D03*
D35*
X168027000Y-114176000D03*
X168527000Y-114176000D03*
X169027000Y-114176000D03*
X169527000Y-114176000D03*
X170027000Y-114176000D03*
X170527000Y-114176000D03*
X171027000Y-114176000D03*
X171527000Y-114176000D03*
X172027000Y-114176000D03*
X172527000Y-114176000D03*
X173027000Y-114176000D03*
X173527000Y-114176000D03*
X174027000Y-114176000D03*
X174527000Y-114176000D03*
X175027000Y-114176000D03*
X175527000Y-114176000D03*
X176027000Y-114176000D03*
X176527000Y-114176000D03*
X177027000Y-114176000D03*
X177527000Y-114176000D03*
X178027000Y-114176000D03*
X178527000Y-114176000D03*
X179027000Y-114176000D03*
X179527000Y-114176000D03*
X180027000Y-114176000D03*
D36*
X242641600Y-53781400D03*
X243741600Y-53781400D03*
X244841600Y-53781400D03*
X245941600Y-53781400D03*
X247041600Y-53781400D03*
X248141600Y-53781400D03*
X249241600Y-53781400D03*
X250341600Y-53781400D03*
D37*
X238971600Y-51181400D03*
X238971600Y-59481400D03*
X252721600Y-51181400D03*
X252721600Y-59481400D03*
D38*
X87504100Y-80561400D03*
X85204100Y-80561400D03*
D39*
X85204100Y-86861400D03*
D38*
X82904100Y-80561400D03*
D40*
X139021600Y-56751400D03*
X131061600Y-56751400D03*
X139021600Y-52251400D03*
X131061600Y-52251400D03*
D19*
X83674000Y-229491400D03*
D20*
X88754000Y-229491400D03*
D19*
X93834000Y-229491400D03*
D21*
X84944000Y-226951400D03*
X91294000Y-224411400D03*
D24*
X143597600Y-52211400D03*
X143597600Y-53171400D03*
D19*
X148674000Y-199491400D03*
D20*
X153754000Y-199491400D03*
D19*
X158834000Y-199491400D03*
D21*
X149944000Y-196951400D03*
X156294000Y-194411400D03*
D10*
X85204100Y-74562200D03*
X85204100Y-73602200D03*
D19*
X243674000Y-199491400D03*
D20*
X248754000Y-199491400D03*
D19*
X253834000Y-199491400D03*
D21*
X244944000Y-196951400D03*
X251294000Y-194411400D03*
D32*
X142969000Y-136924000D03*
X141144000Y-136924000D03*
D24*
X189111600Y-109791400D03*
X189111600Y-110751400D03*
X80962300Y-73602200D03*
X80962300Y-74562200D03*
D14*
X96657400Y-126054800D03*
X95697400Y-126054800D03*
D41*
X206391576Y-49291401D03*
X206891575Y-49291401D03*
X207391577Y-49291401D03*
X207891576Y-49291401D03*
X208391577Y-49291401D03*
X208891576Y-49291401D03*
X209391575Y-49291401D03*
X209891577Y-49291401D03*
X210391576Y-49291401D03*
X210891575Y-49291401D03*
X211391576Y-49291401D03*
X211891575Y-49291401D03*
X212391577Y-49291401D03*
X212891576Y-49291401D03*
X213391575Y-49291401D03*
X213891576Y-49291401D03*
X214391575Y-49291401D03*
X214891577Y-49291401D03*
X215391576Y-49291401D03*
X215891575Y-49291401D03*
X216391577Y-49291401D03*
X216891575Y-49291401D03*
X217391577Y-49291401D03*
X217891576Y-49291401D03*
X218391575Y-49291401D03*
X218891577Y-49291401D03*
X219391576Y-49291401D03*
X219891577Y-49291401D03*
X220391576Y-49291401D03*
X220891575Y-49291401D03*
X221391577Y-49291401D03*
X221891576Y-49291401D03*
X222391577Y-49291401D03*
X222891576Y-49291401D03*
X223391575Y-49291401D03*
X223891577Y-49291401D03*
X224391576Y-49291401D03*
X224891577Y-49291401D03*
X225391576Y-49291401D03*
X225891575Y-49291401D03*
D42*
X204091596Y-51991400D03*
X228191558Y-51991400D03*
D24*
X74206400Y-122321000D03*
X74206400Y-123281000D03*
D19*
X208674000Y-169491400D03*
D20*
X213754000Y-169491400D03*
D19*
X218834000Y-169491400D03*
D21*
X209944000Y-166951400D03*
X216294000Y-164411400D03*
D19*
X178674000Y-169491400D03*
D20*
X183754000Y-169491400D03*
D19*
X188834000Y-169491400D03*
D21*
X179944000Y-166951400D03*
X186294000Y-164411400D03*
D18*
X252761600Y-65651400D03*
X252761600Y-67551400D03*
D23*
X229594000Y-115294000D03*
X227719000Y-115294000D03*
D19*
X178674000Y-229491400D03*
D20*
X183754000Y-229491400D03*
D19*
X188834000Y-229491400D03*
D21*
X179944000Y-226951400D03*
X186294000Y-224411400D03*
D12*
X93071600Y-67408900D03*
X93071600Y-69233900D03*
D19*
X178674000Y-139491400D03*
D20*
X183754000Y-139491400D03*
D19*
X188834000Y-139491400D03*
D21*
X179944000Y-136951400D03*
X186294000Y-134411400D03*
D24*
X74206400Y-117370600D03*
X74206400Y-118330600D03*
D32*
X202119000Y-136974000D03*
X200294000Y-136974000D03*
D12*
X177051000Y-117876000D03*
X177051000Y-119701000D03*
D10*
X74435000Y-140629200D03*
X74435000Y-139669200D03*
D43*
X98268000Y-216799400D03*
D44*
X98268000Y-224419400D03*
D43*
X98258000Y-202029400D03*
D44*
X98258000Y-194409400D03*
D43*
X163279000Y-172014000D03*
D44*
X163279000Y-164394000D03*
D43*
X133278000Y-172029400D03*
D44*
X133278000Y-164409400D03*
D43*
X193278000Y-142039400D03*
D44*
X193278000Y-134419400D03*
D43*
X239258000Y-216789400D03*
D44*
X239258000Y-224409400D03*
D43*
X223288000Y-202019400D03*
D44*
X223288000Y-194399400D03*
D43*
X223278000Y-172019400D03*
D44*
X223278000Y-164399400D03*
D43*
X133268000Y-142029400D03*
D44*
X133268000Y-134409400D03*
D43*
X133298000Y-232039400D03*
D44*
X133298000Y-224419400D03*
D43*
X163268000Y-232029400D03*
D44*
X163268000Y-224409400D03*
D43*
X133278000Y-202039400D03*
D44*
X133278000Y-194419400D03*
D43*
X193288000Y-202019400D03*
D44*
X193288000Y-194399400D03*
D43*
X223278000Y-142029400D03*
D44*
X223278000Y-134409400D03*
D43*
X193278000Y-172019400D03*
D44*
X193278000Y-164399400D03*
D43*
X163258000Y-142039400D03*
D44*
X163258000Y-134419400D03*
D43*
X193278000Y-232029400D03*
D44*
X193278000Y-224409400D03*
D43*
X163298000Y-202029400D03*
D44*
X163298000Y-194409400D03*
D43*
X239228000Y-202029400D03*
D44*
X239228000Y-194409400D03*
D43*
X223258000Y-232019400D03*
D44*
X223258000Y-224399400D03*
M02*
