M48
; DRILL file {KiCad 8.0.4} date 2024-10-08T15:05:41-0400
; FORMAT={-:-/ absolute / metric / decimal}
; #@! TF.CreationDate,2024-10-08T15:05:41-04:00
; #@! TF.GenerationSoftware,Kicad,Pcbnew,8.0.4
; #@! TF.FileFunction,Plated,1,2,PTH
FMAT,2
METRIC
; #@! TA.AperFunction,Plated,PTH,ComponentDrill
T1C0.203
; #@! TA.AperFunction,Plated,PTH,ViaDrill
T2C0.300
; #@! TA.AperFunction,Plated,PTH,ComponentDrill
T3C0.762
; #@! TA.AperFunction,Plated,PTH,ComponentDrill
T4C0.800
; #@! TA.AperFunction,Plated,PTH,ComponentDrill
T5C1.092
; #@! TA.AperFunction,Plated,PTH,ViaDrill
T6C1.118
; #@! TA.AperFunction,Plated,PTH,ComponentDrill
T7C1.500
%
G90
G05
T1
X84.114Y-131.97
X84.114Y-133.07
X84.114Y-134.17
X84.114Y-135.27
X85.919Y-131.97
X85.919Y-133.07
X85.919Y-134.17
X85.919Y-135.27
X87.724Y-131.97
X87.724Y-133.07
X87.724Y-134.17
X87.724Y-135.27
T2
X72.269Y-139.014
X73.019Y-141.264
X76.592Y-118.611
X76.592Y-132.018
X77.402Y-139.721
X78.575Y-124.124
X78.601Y-135.427
X79.902Y-131.301
X80.506Y-147.137
X80.531Y-139.136
X84.2Y-128.893
X91.301Y-114.701
X91.682Y-139.364
X93.434Y-124.734
X93.561Y-127.477
X100.114Y-127.401
X102.959Y-127.528
X104.813Y-107.005
X105.677Y-94.737
X113.551Y-126.766
X152.782Y-57.591
X155.619Y-101.674
X158.052Y-115.285
X159.296Y-108.63
X160.112Y-58.851
X160.806Y-99.912
X161.672Y-61.231
X163.397Y-63.844
X164.54Y-103.722
X165.875Y-125.242
X166.383Y-126.004
X167.087Y-126.708
X167.653Y-127.274
X168.034Y-95.905
X168.034Y-101.493
X168.288Y-111.526
X168.288Y-112.669
X168.415Y-108.732
X168.796Y-100.477
X170.027Y-95.93
X171.996Y-79.979
X178.702Y-110.002
X179.654Y-95.524
X179.714Y-102.005
X179.729Y-101.106
X180.15Y-103.398
X180.226Y-107.462
X180.226Y-108.351
X180.226Y-115.717
X181.431Y-98.871
X182.385Y-114.193
X182.955Y-99.099
X183.202Y-54.971
X183.731Y-91.714
X183.872Y-99.201
X185.952Y-100.858
X187.211Y-77.744
X187.222Y-51.093
X187.719Y-87.396
X187.719Y-99.588
X188.227Y-83.332
X189.243Y-81.554
X190.192Y-51.031
X190.767Y-89.174
X190.767Y-97.81
X191.275Y-83.332
X192.012Y-51.031
X193.053Y-79.268
X193.102Y-55.281
X193.561Y-86.126
X193.752Y-56.321
X195.796Y-91.714
X195.972Y-60.891
X196.101Y-87.904
X197.752Y-63.041
X198.844Y-64.324
X233.019Y-157.764
X236.019Y-156.764
X245.972Y-58.291
X248.162Y-61.641
T3
X86.754Y-173.514
X88.754Y-173.514
X248.754Y-173.514
X250.754Y-173.514
T4
X98.258Y-194.409
X98.258Y-202.029
X98.268Y-216.799
X98.268Y-224.419
X133.268Y-134.409
X133.268Y-142.029
X133.278Y-164.409
X133.278Y-172.029
X133.278Y-194.419
X133.278Y-202.039
X133.298Y-224.419
X133.298Y-232.039
X163.258Y-134.419
X163.258Y-142.039
X163.268Y-224.409
X163.268Y-232.029
X163.279Y-164.394
X163.279Y-172.014
X163.298Y-194.409
X163.298Y-202.029
X193.278Y-134.419
X193.278Y-142.039
X193.278Y-164.399
X193.278Y-172.019
X193.278Y-224.409
X193.278Y-232.029
X193.288Y-194.399
X193.288Y-202.019
X223.258Y-224.399
X223.258Y-232.019
X223.278Y-134.409
X223.278Y-142.029
X223.278Y-164.399
X223.278Y-172.019
X223.288Y-194.399
X223.288Y-202.019
X239.228Y-194.409
X239.228Y-202.029
X239.258Y-216.789
X239.258Y-224.409
T5
X169.352Y-53.491
X169.352Y-56.031
X171.892Y-53.491
X171.892Y-56.031
X174.432Y-53.491
X174.432Y-56.031
X176.972Y-53.491
X176.972Y-56.031
X179.512Y-53.491
X179.512Y-56.031
T6
X72.019Y-111.764
X73.366Y-83.221
X95.152Y-58.921
X97.542Y-45.661
X160.601Y-112.041
X163.767Y-97.404
X185.832Y-48.661
X187.542Y-45.671
X187.795Y-117.063
X195.332Y-51.631
X198.832Y-51.401
X210.032Y-58.311
T7
X84.944Y-196.951
X84.944Y-226.951
X91.294Y-194.411
X91.294Y-224.411
X119.944Y-136.951
X119.944Y-166.951
X119.944Y-196.951
X119.944Y-226.951
X126.294Y-134.411
X126.294Y-164.411
X126.294Y-194.411
X126.294Y-224.411
X149.944Y-136.951
X149.944Y-166.951
X149.944Y-196.951
X149.944Y-226.951
X156.294Y-134.411
X156.294Y-164.411
X156.294Y-194.411
X156.294Y-224.411
X179.944Y-136.951
X179.944Y-166.951
X179.944Y-196.951
X179.944Y-226.951
X186.294Y-134.411
X186.294Y-164.411
X186.294Y-194.411
X186.294Y-224.411
X209.944Y-136.951
X209.944Y-166.951
X209.944Y-196.951
X209.944Y-226.951
X216.294Y-134.411
X216.294Y-164.411
X216.294Y-194.411
X216.294Y-224.411
X244.944Y-196.951
X244.944Y-226.951
X251.294Y-194.411
X251.294Y-224.411
M30
