%TF.GenerationSoftware,KiCad,Pcbnew,8.0.4*%
%TF.CreationDate,2024-10-08T15:05:42-04:00*%
%TF.ProjectId,FULL BOARD,46554c4c-2042-44f4-9152-442e6b696361,rev?*%
%TF.SameCoordinates,Original*%
%TF.FileFunction,Drillmap*%
%TF.FilePolarity,Positive*%
%FSLAX45Y45*%
G04 Gerber Fmt 4.5, Leading zero omitted, Abs format (unit mm)*
G04 Created by KiCad (PCBNEW 8.0.4) date 2024-10-08 15:05:42*
%MOMM*%
%LPD*%
G01*
G04 APERTURE LIST*
%ADD10C,0.050000*%
%ADD11C,0.200000*%
%ADD12C,0.100000*%
%ADD13C,0.109220*%
%ADD14C,0.111760*%
%ADD15C,0.150000*%
G04 APERTURE END LIST*
D10*
X7266160Y-4625140D02*
G75*
G02*
X6946160Y-4625140I-160000J0D01*
G01*
X6946160Y-4625140D02*
G75*
G02*
X7266160Y-4625140I160000J0D01*
G01*
X26763160Y-4626140D02*
G75*
G02*
X26443160Y-4626140I-160000J0D01*
G01*
X26443160Y-4626140D02*
G75*
G02*
X26763160Y-4626140I160000J0D01*
G01*
X26353160Y-4376140D02*
X26853160Y-4376140D01*
X26853160Y-4376140D02*
X26853160Y-4876140D01*
X7265160Y-24124140D02*
G75*
G02*
X6945160Y-24124140I-160000J0D01*
G01*
X6945160Y-24124140D02*
G75*
G02*
X7265160Y-24124140I160000J0D01*
G01*
X26765160Y-24127140D02*
G75*
G02*
X26445160Y-24127140I-160000J0D01*
G01*
X26445160Y-24127140D02*
G75*
G02*
X26765160Y-24127140I160000J0D01*
G01*
X14035160Y-18447140D02*
G75*
G02*
X13715160Y-18447140I-160000J0D01*
G01*
X13715160Y-18447140D02*
G75*
G02*
X14035160Y-18447140I160000J0D01*
G01*
X20037160Y-18448140D02*
G75*
G02*
X19717160Y-18448140I-160000J0D01*
G01*
X19717160Y-18448140D02*
G75*
G02*
X20037160Y-18448140I160000J0D01*
G01*
X6855302Y-4376129D02*
X26855312Y-4376129D01*
X26855312Y-24376140D01*
X6855302Y-24376140D01*
X6855302Y-4376129D01*
D11*
D12*
X8401260Y-13186840D02*
X8421580Y-13207160D01*
X8421580Y-13186840D02*
X8401260Y-13207160D01*
X8401260Y-13296840D02*
X8421580Y-13317160D01*
X8421580Y-13296840D02*
X8401260Y-13317160D01*
X8401260Y-13406840D02*
X8421580Y-13427160D01*
X8421580Y-13406840D02*
X8401260Y-13427160D01*
X8401260Y-13516840D02*
X8421580Y-13537160D01*
X8421580Y-13516840D02*
X8401260Y-13537160D01*
X8581760Y-13186840D02*
X8602080Y-13207160D01*
X8602080Y-13186840D02*
X8581760Y-13207160D01*
X8581760Y-13296840D02*
X8602080Y-13317160D01*
X8602080Y-13296840D02*
X8581760Y-13317160D01*
X8581760Y-13406840D02*
X8602080Y-13427160D01*
X8602080Y-13406840D02*
X8581760Y-13427160D01*
X8581760Y-13516840D02*
X8602080Y-13537160D01*
X8602080Y-13516840D02*
X8581760Y-13537160D01*
X8762260Y-13186840D02*
X8782580Y-13207160D01*
X8782580Y-13186840D02*
X8762260Y-13207160D01*
X8762260Y-13296840D02*
X8782580Y-13317160D01*
X8782580Y-13296840D02*
X8762260Y-13317160D01*
X8762260Y-13406840D02*
X8782580Y-13427160D01*
X8782580Y-13406840D02*
X8762260Y-13427160D01*
X8762260Y-13516840D02*
X8782580Y-13537160D01*
X8782580Y-13516840D02*
X8762260Y-13537160D01*
X7241900Y-13901400D02*
G75*
G02*
X7211900Y-13901400I-15000J0D01*
G01*
X7211900Y-13901400D02*
G75*
G02*
X7241900Y-13901400I15000J0D01*
G01*
X7316900Y-14126400D02*
G75*
G02*
X7286900Y-14126400I-15000J0D01*
G01*
X7286900Y-14126400D02*
G75*
G02*
X7316900Y-14126400I15000J0D01*
G01*
X7674160Y-11861140D02*
G75*
G02*
X7644160Y-11861140I-15000J0D01*
G01*
X7644160Y-11861140D02*
G75*
G02*
X7674160Y-11861140I15000J0D01*
G01*
X7674160Y-13201800D02*
G75*
G02*
X7644160Y-13201800I-15000J0D01*
G01*
X7644160Y-13201800D02*
G75*
G02*
X7674160Y-13201800I15000J0D01*
G01*
X7755160Y-13972140D02*
G75*
G02*
X7725160Y-13972140I-15000J0D01*
G01*
X7725160Y-13972140D02*
G75*
G02*
X7755160Y-13972140I15000J0D01*
G01*
X7872520Y-12412440D02*
G75*
G02*
X7842520Y-12412440I-15000J0D01*
G01*
X7842520Y-12412440D02*
G75*
G02*
X7872520Y-12412440I15000J0D01*
G01*
X7875060Y-13542740D02*
G75*
G02*
X7845060Y-13542740I-15000J0D01*
G01*
X7845060Y-13542740D02*
G75*
G02*
X7875060Y-13542740I15000J0D01*
G01*
X8005160Y-13130140D02*
G75*
G02*
X7975160Y-13130140I-15000J0D01*
G01*
X7975160Y-13130140D02*
G75*
G02*
X8005160Y-13130140I15000J0D01*
G01*
X8065560Y-14713680D02*
G75*
G02*
X8035560Y-14713680I-15000J0D01*
G01*
X8035560Y-14713680D02*
G75*
G02*
X8065560Y-14713680I15000J0D01*
G01*
X8068100Y-13913580D02*
G75*
G02*
X8038100Y-13913580I-15000J0D01*
G01*
X8038100Y-13913580D02*
G75*
G02*
X8068100Y-13913580I15000J0D01*
G01*
X8434960Y-12889340D02*
G75*
G02*
X8404960Y-12889340I-15000J0D01*
G01*
X8404960Y-12889340D02*
G75*
G02*
X8434960Y-12889340I15000J0D01*
G01*
X9145060Y-11470100D02*
G75*
G02*
X9115060Y-11470100I-15000J0D01*
G01*
X9115060Y-11470100D02*
G75*
G02*
X9145060Y-11470100I15000J0D01*
G01*
X9183160Y-13936440D02*
G75*
G02*
X9153160Y-13936440I-15000J0D01*
G01*
X9153160Y-13936440D02*
G75*
G02*
X9183160Y-13936440I15000J0D01*
G01*
X9358420Y-12473400D02*
G75*
G02*
X9328420Y-12473400I-15000J0D01*
G01*
X9328420Y-12473400D02*
G75*
G02*
X9358420Y-12473400I15000J0D01*
G01*
X9371120Y-12747720D02*
G75*
G02*
X9341120Y-12747720I-15000J0D01*
G01*
X9341120Y-12747720D02*
G75*
G02*
X9371120Y-12747720I15000J0D01*
G01*
X10026440Y-12740100D02*
G75*
G02*
X9996440Y-12740100I-15000J0D01*
G01*
X9996440Y-12740100D02*
G75*
G02*
X10026440Y-12740100I15000J0D01*
G01*
X10310920Y-12752800D02*
G75*
G02*
X10280920Y-12752800I-15000J0D01*
G01*
X10280920Y-12752800D02*
G75*
G02*
X10310920Y-12752800I15000J0D01*
G01*
X10496340Y-10700480D02*
G75*
G02*
X10466340Y-10700480I-15000J0D01*
G01*
X10466340Y-10700480D02*
G75*
G02*
X10496340Y-10700480I15000J0D01*
G01*
X10582700Y-9473660D02*
G75*
G02*
X10552700Y-9473660I-15000J0D01*
G01*
X10552700Y-9473660D02*
G75*
G02*
X10582700Y-9473660I15000J0D01*
G01*
X11370100Y-12676600D02*
G75*
G02*
X11340100Y-12676600I-15000J0D01*
G01*
X11340100Y-12676600D02*
G75*
G02*
X11370100Y-12676600I15000J0D01*
G01*
X15293160Y-5759140D02*
G75*
G02*
X15263160Y-5759140I-15000J0D01*
G01*
X15263160Y-5759140D02*
G75*
G02*
X15293160Y-5759140I15000J0D01*
G01*
X15576900Y-10167400D02*
G75*
G02*
X15546900Y-10167400I-15000J0D01*
G01*
X15546900Y-10167400D02*
G75*
G02*
X15576900Y-10167400I15000J0D01*
G01*
X15820180Y-11528520D02*
G75*
G02*
X15790180Y-11528520I-15000J0D01*
G01*
X15790180Y-11528520D02*
G75*
G02*
X15820180Y-11528520I15000J0D01*
G01*
X15944640Y-10863040D02*
G75*
G02*
X15914640Y-10863040I-15000J0D01*
G01*
X15914640Y-10863040D02*
G75*
G02*
X15944640Y-10863040I15000J0D01*
G01*
X16026160Y-5885140D02*
G75*
G02*
X15996160Y-5885140I-15000J0D01*
G01*
X15996160Y-5885140D02*
G75*
G02*
X16026160Y-5885140I15000J0D01*
G01*
X16095600Y-9991200D02*
G75*
G02*
X16065600Y-9991200I-15000J0D01*
G01*
X16065600Y-9991200D02*
G75*
G02*
X16095600Y-9991200I15000J0D01*
G01*
X16182160Y-6123140D02*
G75*
G02*
X16152160Y-6123140I-15000J0D01*
G01*
X16152160Y-6123140D02*
G75*
G02*
X16182160Y-6123140I15000J0D01*
G01*
X16354680Y-6384400D02*
G75*
G02*
X16324680Y-6384400I-15000J0D01*
G01*
X16324680Y-6384400D02*
G75*
G02*
X16354680Y-6384400I15000J0D01*
G01*
X16468980Y-10372200D02*
G75*
G02*
X16438980Y-10372200I-15000J0D01*
G01*
X16438980Y-10372200D02*
G75*
G02*
X16468980Y-10372200I15000J0D01*
G01*
X16602500Y-12524200D02*
G75*
G02*
X16572500Y-12524200I-15000J0D01*
G01*
X16572500Y-12524200D02*
G75*
G02*
X16602500Y-12524200I15000J0D01*
G01*
X16653300Y-12600400D02*
G75*
G02*
X16623300Y-12600400I-15000J0D01*
G01*
X16623300Y-12600400D02*
G75*
G02*
X16653300Y-12600400I15000J0D01*
G01*
X16723731Y-12670831D02*
G75*
G02*
X16693731Y-12670831I-15000J0D01*
G01*
X16693731Y-12670831D02*
G75*
G02*
X16723731Y-12670831I15000J0D01*
G01*
X16780300Y-12727400D02*
G75*
G02*
X16750300Y-12727400I-15000J0D01*
G01*
X16750300Y-12727400D02*
G75*
G02*
X16780300Y-12727400I15000J0D01*
G01*
X16818400Y-9590500D02*
G75*
G02*
X16788400Y-9590500I-15000J0D01*
G01*
X16788400Y-9590500D02*
G75*
G02*
X16818400Y-9590500I15000J0D01*
G01*
X16818400Y-10149300D02*
G75*
G02*
X16788400Y-10149300I-15000J0D01*
G01*
X16788400Y-10149300D02*
G75*
G02*
X16818400Y-10149300I15000J0D01*
G01*
X16843800Y-11152600D02*
G75*
G02*
X16813800Y-11152600I-15000J0D01*
G01*
X16813800Y-11152600D02*
G75*
G02*
X16843800Y-11152600I15000J0D01*
G01*
X16843800Y-11266900D02*
G75*
G02*
X16813800Y-11266900I-15000J0D01*
G01*
X16813800Y-11266900D02*
G75*
G02*
X16843800Y-11266900I15000J0D01*
G01*
X16856500Y-10873200D02*
G75*
G02*
X16826500Y-10873200I-15000J0D01*
G01*
X16826500Y-10873200D02*
G75*
G02*
X16856500Y-10873200I15000J0D01*
G01*
X16894600Y-10047700D02*
G75*
G02*
X16864600Y-10047700I-15000J0D01*
G01*
X16864600Y-10047700D02*
G75*
G02*
X16894600Y-10047700I15000J0D01*
G01*
X17017700Y-9593040D02*
G75*
G02*
X16987700Y-9593040I-15000J0D01*
G01*
X16987700Y-9593040D02*
G75*
G02*
X17017700Y-9593040I15000J0D01*
G01*
X17214640Y-7997920D02*
G75*
G02*
X17184640Y-7997920I-15000J0D01*
G01*
X17184640Y-7997920D02*
G75*
G02*
X17214640Y-7997920I15000J0D01*
G01*
X17885200Y-11000200D02*
G75*
G02*
X17855200Y-11000200I-15000J0D01*
G01*
X17855200Y-11000200D02*
G75*
G02*
X17885200Y-11000200I15000J0D01*
G01*
X17980400Y-9552400D02*
G75*
G02*
X17950400Y-9552400I-15000J0D01*
G01*
X17950400Y-9552400D02*
G75*
G02*
X17980400Y-9552400I15000J0D01*
G01*
X17986390Y-10200510D02*
G75*
G02*
X17956390Y-10200510I-15000J0D01*
G01*
X17956390Y-10200510D02*
G75*
G02*
X17986390Y-10200510I15000J0D01*
G01*
X17987900Y-10110580D02*
G75*
G02*
X17957900Y-10110580I-15000J0D01*
G01*
X17957900Y-10110580D02*
G75*
G02*
X17987900Y-10110580I15000J0D01*
G01*
X18029980Y-10339800D02*
G75*
G02*
X17999980Y-10339800I-15000J0D01*
G01*
X17999980Y-10339800D02*
G75*
G02*
X18029980Y-10339800I15000J0D01*
G01*
X18037600Y-10746200D02*
G75*
G02*
X18007600Y-10746200I-15000J0D01*
G01*
X18007600Y-10746200D02*
G75*
G02*
X18037600Y-10746200I15000J0D01*
G01*
X18037600Y-10835100D02*
G75*
G02*
X18007600Y-10835100I-15000J0D01*
G01*
X18007600Y-10835100D02*
G75*
G02*
X18037600Y-10835100I15000J0D01*
G01*
X18037600Y-11571700D02*
G75*
G02*
X18007600Y-11571700I-15000J0D01*
G01*
X18007600Y-11571700D02*
G75*
G02*
X18037600Y-11571700I15000J0D01*
G01*
X18158080Y-9887060D02*
G75*
G02*
X18128080Y-9887060I-15000J0D01*
G01*
X18128080Y-9887060D02*
G75*
G02*
X18158080Y-9887060I15000J0D01*
G01*
X18253500Y-11419300D02*
G75*
G02*
X18223500Y-11419300I-15000J0D01*
G01*
X18223500Y-11419300D02*
G75*
G02*
X18253500Y-11419300I15000J0D01*
G01*
X18310480Y-9909920D02*
G75*
G02*
X18280480Y-9909920I-15000J0D01*
G01*
X18280480Y-9909920D02*
G75*
G02*
X18310480Y-9909920I15000J0D01*
G01*
X18335160Y-5497140D02*
G75*
G02*
X18305160Y-5497140I-15000J0D01*
G01*
X18305160Y-5497140D02*
G75*
G02*
X18335160Y-5497140I15000J0D01*
G01*
X18388120Y-9171400D02*
G75*
G02*
X18358120Y-9171400I-15000J0D01*
G01*
X18358120Y-9171400D02*
G75*
G02*
X18388120Y-9171400I15000J0D01*
G01*
X18402160Y-9920140D02*
G75*
G02*
X18372160Y-9920140I-15000J0D01*
G01*
X18372160Y-9920140D02*
G75*
G02*
X18402160Y-9920140I15000J0D01*
G01*
X18610200Y-10085800D02*
G75*
G02*
X18580200Y-10085800I-15000J0D01*
G01*
X18580200Y-10085800D02*
G75*
G02*
X18610200Y-10085800I15000J0D01*
G01*
X18736100Y-7774400D02*
G75*
G02*
X18706100Y-7774400I-15000J0D01*
G01*
X18706100Y-7774400D02*
G75*
G02*
X18736100Y-7774400I15000J0D01*
G01*
X18737200Y-5109320D02*
G75*
G02*
X18707200Y-5109320I-15000J0D01*
G01*
X18707200Y-5109320D02*
G75*
G02*
X18737200Y-5109320I15000J0D01*
G01*
X18786900Y-8739600D02*
G75*
G02*
X18756900Y-8739600I-15000J0D01*
G01*
X18756900Y-8739600D02*
G75*
G02*
X18786900Y-8739600I15000J0D01*
G01*
X18786900Y-9958800D02*
G75*
G02*
X18756900Y-9958800I-15000J0D01*
G01*
X18756900Y-9958800D02*
G75*
G02*
X18786900Y-9958800I15000J0D01*
G01*
X18837700Y-8333200D02*
G75*
G02*
X18807700Y-8333200I-15000J0D01*
G01*
X18807700Y-8333200D02*
G75*
G02*
X18837700Y-8333200I15000J0D01*
G01*
X18939300Y-8155400D02*
G75*
G02*
X18909300Y-8155400I-15000J0D01*
G01*
X18909300Y-8155400D02*
G75*
G02*
X18939300Y-8155400I15000J0D01*
G01*
X19034160Y-5103140D02*
G75*
G02*
X19004160Y-5103140I-15000J0D01*
G01*
X19004160Y-5103140D02*
G75*
G02*
X19034160Y-5103140I15000J0D01*
G01*
X19091700Y-8917400D02*
G75*
G02*
X19061700Y-8917400I-15000J0D01*
G01*
X19061700Y-8917400D02*
G75*
G02*
X19091700Y-8917400I15000J0D01*
G01*
X19091700Y-9781000D02*
G75*
G02*
X19061700Y-9781000I-15000J0D01*
G01*
X19061700Y-9781000D02*
G75*
G02*
X19091700Y-9781000I15000J0D01*
G01*
X19142500Y-8333200D02*
G75*
G02*
X19112500Y-8333200I-15000J0D01*
G01*
X19112500Y-8333200D02*
G75*
G02*
X19142500Y-8333200I15000J0D01*
G01*
X19216160Y-5103140D02*
G75*
G02*
X19186160Y-5103140I-15000J0D01*
G01*
X19186160Y-5103140D02*
G75*
G02*
X19216160Y-5103140I15000J0D01*
G01*
X19320300Y-7926800D02*
G75*
G02*
X19290300Y-7926800I-15000J0D01*
G01*
X19290300Y-7926800D02*
G75*
G02*
X19320300Y-7926800I15000J0D01*
G01*
X19325160Y-5528140D02*
G75*
G02*
X19295160Y-5528140I-15000J0D01*
G01*
X19295160Y-5528140D02*
G75*
G02*
X19325160Y-5528140I15000J0D01*
G01*
X19371100Y-8612600D02*
G75*
G02*
X19341100Y-8612600I-15000J0D01*
G01*
X19341100Y-8612600D02*
G75*
G02*
X19371100Y-8612600I15000J0D01*
G01*
X19390160Y-5632140D02*
G75*
G02*
X19360160Y-5632140I-15000J0D01*
G01*
X19360160Y-5632140D02*
G75*
G02*
X19390160Y-5632140I15000J0D01*
G01*
X19594620Y-9171400D02*
G75*
G02*
X19564620Y-9171400I-15000J0D01*
G01*
X19564620Y-9171400D02*
G75*
G02*
X19594620Y-9171400I15000J0D01*
G01*
X19612160Y-6089140D02*
G75*
G02*
X19582160Y-6089140I-15000J0D01*
G01*
X19582160Y-6089140D02*
G75*
G02*
X19612160Y-6089140I15000J0D01*
G01*
X19625100Y-8790400D02*
G75*
G02*
X19595100Y-8790400I-15000J0D01*
G01*
X19595100Y-8790400D02*
G75*
G02*
X19625100Y-8790400I15000J0D01*
G01*
X19790160Y-6304140D02*
G75*
G02*
X19760160Y-6304140I-15000J0D01*
G01*
X19760160Y-6304140D02*
G75*
G02*
X19790160Y-6304140I15000J0D01*
G01*
X19899420Y-6432400D02*
G75*
G02*
X19869420Y-6432400I-15000J0D01*
G01*
X19869420Y-6432400D02*
G75*
G02*
X19899420Y-6432400I15000J0D01*
G01*
X23316900Y-15776400D02*
G75*
G02*
X23286900Y-15776400I-15000J0D01*
G01*
X23286900Y-15776400D02*
G75*
G02*
X23316900Y-15776400I15000J0D01*
G01*
X23616900Y-15676400D02*
G75*
G02*
X23586900Y-15676400I-15000J0D01*
G01*
X23586900Y-15676400D02*
G75*
G02*
X23616900Y-15676400I15000J0D01*
G01*
X24612160Y-5829140D02*
G75*
G02*
X24582160Y-5829140I-15000J0D01*
G01*
X24582160Y-5829140D02*
G75*
G02*
X24612160Y-5829140I15000J0D01*
G01*
X24831160Y-6164140D02*
G75*
G02*
X24801160Y-6164140I-15000J0D01*
G01*
X24801160Y-6164140D02*
G75*
G02*
X24831160Y-6164140I15000J0D01*
G01*
X8675403Y-17313300D02*
X8675403Y-17389500D01*
X8637303Y-17351400D02*
X8713503Y-17351400D01*
X8875403Y-17313300D02*
X8875403Y-17389500D01*
X8837303Y-17351400D02*
X8913503Y-17351400D01*
X24875397Y-17313300D02*
X24875397Y-17389500D01*
X24837297Y-17351400D02*
X24913497Y-17351400D01*
X25075397Y-17313300D02*
X25075397Y-17389500D01*
X25037297Y-17351400D02*
X25113497Y-17351400D01*
X9854085Y-19469225D02*
X9854085Y-19412656D01*
X9797516Y-19412656D01*
X9797516Y-19469225D01*
X9854085Y-19469225D01*
X9854085Y-20231225D02*
X9854085Y-20174656D01*
X9797516Y-20174656D01*
X9797516Y-20231225D01*
X9854085Y-20231225D01*
X9855085Y-21708225D02*
X9855085Y-21651656D01*
X9798516Y-21651656D01*
X9798516Y-21708225D01*
X9855085Y-21708225D01*
X9855085Y-22470224D02*
X9855085Y-22413655D01*
X9798516Y-22413655D01*
X9798516Y-22470224D01*
X9855085Y-22470224D01*
X13355084Y-13469224D02*
X13355084Y-13412655D01*
X13298515Y-13412655D01*
X13298515Y-13469224D01*
X13355084Y-13469224D01*
X13355084Y-14231224D02*
X13355084Y-14174655D01*
X13298515Y-14174655D01*
X13298515Y-14231224D01*
X13355084Y-14231224D01*
X13356084Y-16469224D02*
X13356084Y-16412655D01*
X13299515Y-16412655D01*
X13299515Y-16469224D01*
X13356084Y-16469224D01*
X13356084Y-17231225D02*
X13356084Y-17174656D01*
X13299515Y-17174656D01*
X13299515Y-17231225D01*
X13356084Y-17231225D01*
X13356084Y-19470225D02*
X13356084Y-19413656D01*
X13299515Y-19413656D01*
X13299515Y-19470225D01*
X13356084Y-19470225D01*
X13356084Y-20232225D02*
X13356084Y-20175656D01*
X13299515Y-20175656D01*
X13299515Y-20232225D01*
X13356084Y-20232225D01*
X13358084Y-22470224D02*
X13358084Y-22413655D01*
X13301515Y-22413655D01*
X13301515Y-22470224D01*
X13358084Y-22470224D01*
X13358084Y-23232224D02*
X13358084Y-23175655D01*
X13301515Y-23175655D01*
X13301515Y-23232224D01*
X13358084Y-23232224D01*
X16354084Y-13470224D02*
X16354084Y-13413655D01*
X16297515Y-13413655D01*
X16297515Y-13470224D01*
X16354084Y-13470224D01*
X16354084Y-14232224D02*
X16354084Y-14175655D01*
X16297515Y-14175655D01*
X16297515Y-14232224D01*
X16354084Y-14232224D01*
X16355084Y-22469224D02*
X16355084Y-22412655D01*
X16298515Y-22412655D01*
X16298515Y-22469224D01*
X16355084Y-22469224D01*
X16355084Y-23231224D02*
X16355084Y-23174655D01*
X16298515Y-23174655D01*
X16298515Y-23231224D01*
X16355084Y-23231224D01*
X16356184Y-16467684D02*
X16356184Y-16411115D01*
X16299615Y-16411115D01*
X16299615Y-16467684D01*
X16356184Y-16467684D01*
X16356184Y-17229685D02*
X16356184Y-17173116D01*
X16299615Y-17173116D01*
X16299615Y-17229685D01*
X16356184Y-17229685D01*
X16358084Y-19469225D02*
X16358084Y-19412656D01*
X16301515Y-19412656D01*
X16301515Y-19469225D01*
X16358084Y-19469225D01*
X16358084Y-20231225D02*
X16358084Y-20174656D01*
X16301515Y-20174656D01*
X16301515Y-20231225D01*
X16358084Y-20231225D01*
X19356085Y-13470224D02*
X19356085Y-13413655D01*
X19299516Y-13413655D01*
X19299516Y-13470224D01*
X19356085Y-13470224D01*
X19356085Y-14232224D02*
X19356085Y-14175655D01*
X19299516Y-14175655D01*
X19299516Y-14232224D01*
X19356085Y-14232224D01*
X19356085Y-16468224D02*
X19356085Y-16411655D01*
X19299516Y-16411655D01*
X19299516Y-16468224D01*
X19356085Y-16468224D01*
X19356085Y-17230225D02*
X19356085Y-17173656D01*
X19299516Y-17173656D01*
X19299516Y-17230225D01*
X19356085Y-17230225D01*
X19356085Y-22469224D02*
X19356085Y-22412655D01*
X19299516Y-22412655D01*
X19299516Y-22469224D01*
X19356085Y-22469224D01*
X19356085Y-23231224D02*
X19356085Y-23174655D01*
X19299516Y-23174655D01*
X19299516Y-23231224D01*
X19356085Y-23231224D01*
X19357085Y-19468225D02*
X19357085Y-19411656D01*
X19300516Y-19411656D01*
X19300516Y-19468225D01*
X19357085Y-19468225D01*
X19357085Y-20230225D02*
X19357085Y-20173656D01*
X19300516Y-20173656D01*
X19300516Y-20230225D01*
X19357085Y-20230225D01*
X22354085Y-22468224D02*
X22354085Y-22411655D01*
X22297516Y-22411655D01*
X22297516Y-22468224D01*
X22354085Y-22468224D01*
X22354085Y-23230224D02*
X22354085Y-23173655D01*
X22297516Y-23173655D01*
X22297516Y-23230224D01*
X22354085Y-23230224D01*
X22356085Y-13469224D02*
X22356085Y-13412655D01*
X22299516Y-13412655D01*
X22299516Y-13469224D01*
X22356085Y-13469224D01*
X22356085Y-14231224D02*
X22356085Y-14174655D01*
X22299516Y-14174655D01*
X22299516Y-14231224D01*
X22356085Y-14231224D01*
X22356085Y-16468224D02*
X22356085Y-16411655D01*
X22299516Y-16411655D01*
X22299516Y-16468224D01*
X22356085Y-16468224D01*
X22356085Y-17230225D02*
X22356085Y-17173656D01*
X22299516Y-17173656D01*
X22299516Y-17230225D01*
X22356085Y-17230225D01*
X22357085Y-19468225D02*
X22357085Y-19411656D01*
X22300516Y-19411656D01*
X22300516Y-19468225D01*
X22357085Y-19468225D01*
X22357085Y-20230225D02*
X22357085Y-20173656D01*
X22300516Y-20173656D01*
X22300516Y-20230225D01*
X22357085Y-20230225D01*
X23951084Y-19469225D02*
X23951084Y-19412656D01*
X23894515Y-19412656D01*
X23894515Y-19469225D01*
X23951084Y-19469225D01*
X23951084Y-20231225D02*
X23951084Y-20174656D01*
X23894515Y-20174656D01*
X23894515Y-20231225D01*
X23951084Y-20231225D01*
X23954084Y-21707225D02*
X23954084Y-21650656D01*
X23897515Y-21650656D01*
X23897515Y-21707225D01*
X23954084Y-21707225D01*
X23954084Y-22469224D02*
X23954084Y-22412655D01*
X23897515Y-22412655D01*
X23897515Y-22469224D01*
X23954084Y-22469224D01*
D13*
X16935160Y-5403750D02*
X16989770Y-5349140D01*
X16935160Y-5294530D01*
X16880550Y-5349140D01*
X16935160Y-5403750D01*
X16935160Y-5657750D02*
X16989770Y-5603140D01*
X16935160Y-5548530D01*
X16880550Y-5603140D01*
X16935160Y-5657750D01*
X17189160Y-5403750D02*
X17243770Y-5349140D01*
X17189160Y-5294530D01*
X17134550Y-5349140D01*
X17189160Y-5403750D01*
X17189160Y-5657750D02*
X17243770Y-5603140D01*
X17189160Y-5548530D01*
X17134550Y-5603140D01*
X17189160Y-5657750D01*
X17443160Y-5403750D02*
X17497770Y-5349140D01*
X17443160Y-5294530D01*
X17388550Y-5349140D01*
X17443160Y-5403750D01*
X17443160Y-5657750D02*
X17497770Y-5603140D01*
X17443160Y-5548530D01*
X17388550Y-5603140D01*
X17443160Y-5657750D01*
X17697160Y-5403750D02*
X17751770Y-5349140D01*
X17697160Y-5294530D01*
X17642550Y-5349140D01*
X17697160Y-5403750D01*
X17697160Y-5657750D02*
X17751770Y-5603140D01*
X17697160Y-5548530D01*
X17642550Y-5603140D01*
X17697160Y-5657750D01*
X17951160Y-5403750D02*
X18005770Y-5349140D01*
X17951160Y-5294530D01*
X17896550Y-5349140D01*
X17951160Y-5403750D01*
X17951160Y-5657750D02*
X18005770Y-5603140D01*
X17951160Y-5548530D01*
X17896550Y-5603140D01*
X17951160Y-5657750D01*
D14*
X7146020Y-11120520D02*
X7257780Y-11232280D01*
X7257780Y-11120520D02*
X7146020Y-11232280D01*
X7257780Y-11176400D02*
G75*
G02*
X7146020Y-11176400I-55880J0D01*
G01*
X7146020Y-11176400D02*
G75*
G02*
X7257780Y-11176400I55880J0D01*
G01*
X7280730Y-8266260D02*
X7392490Y-8378020D01*
X7392490Y-8266260D02*
X7280730Y-8378020D01*
X7392490Y-8322140D02*
G75*
G02*
X7280730Y-8322140I-55880J0D01*
G01*
X7280730Y-8322140D02*
G75*
G02*
X7392490Y-8322140I55880J0D01*
G01*
X9459280Y-5836260D02*
X9571040Y-5948020D01*
X9571040Y-5836260D02*
X9459280Y-5948020D01*
X9571040Y-5892140D02*
G75*
G02*
X9459280Y-5892140I-55880J0D01*
G01*
X9459280Y-5892140D02*
G75*
G02*
X9571040Y-5892140I55880J0D01*
G01*
X9698280Y-4510260D02*
X9810040Y-4622020D01*
X9810040Y-4510260D02*
X9698280Y-4622020D01*
X9810040Y-4566140D02*
G75*
G02*
X9698280Y-4566140I-55880J0D01*
G01*
X9698280Y-4566140D02*
G75*
G02*
X9810040Y-4566140I55880J0D01*
G01*
X16004264Y-11148239D02*
X16116024Y-11259999D01*
X16116024Y-11148239D02*
X16004264Y-11259999D01*
X16116024Y-11204119D02*
G75*
G02*
X16004264Y-11204119I-55880J0D01*
G01*
X16004264Y-11204119D02*
G75*
G02*
X16116024Y-11204119I55880J0D01*
G01*
X16320800Y-9684520D02*
X16432560Y-9796280D01*
X16432560Y-9684520D02*
X16320800Y-9796280D01*
X16432560Y-9740400D02*
G75*
G02*
X16320800Y-9740400I-55880J0D01*
G01*
X16320800Y-9740400D02*
G75*
G02*
X16432560Y-9740400I55880J0D01*
G01*
X18527280Y-4810260D02*
X18639040Y-4922020D01*
X18639040Y-4810260D02*
X18527280Y-4922020D01*
X18639040Y-4866140D02*
G75*
G02*
X18527280Y-4866140I-55880J0D01*
G01*
X18527280Y-4866140D02*
G75*
G02*
X18639040Y-4866140I55880J0D01*
G01*
X18698280Y-4511260D02*
X18810040Y-4623020D01*
X18810040Y-4511260D02*
X18698280Y-4623020D01*
X18810040Y-4567140D02*
G75*
G02*
X18698280Y-4567140I-55880J0D01*
G01*
X18698280Y-4567140D02*
G75*
G02*
X18810040Y-4567140I55880J0D01*
G01*
X18723640Y-11650440D02*
X18835400Y-11762200D01*
X18835400Y-11650440D02*
X18723640Y-11762200D01*
X18835400Y-11706320D02*
G75*
G02*
X18723640Y-11706320I-55880J0D01*
G01*
X18723640Y-11706320D02*
G75*
G02*
X18835400Y-11706320I55880J0D01*
G01*
X19477280Y-5107260D02*
X19589040Y-5219020D01*
X19589040Y-5107260D02*
X19477280Y-5219020D01*
X19589040Y-5163140D02*
G75*
G02*
X19477280Y-5163140I-55880J0D01*
G01*
X19477280Y-5163140D02*
G75*
G02*
X19589040Y-5163140I55880J0D01*
G01*
X19827280Y-5084260D02*
X19939040Y-5196020D01*
X19939040Y-5084260D02*
X19827280Y-5196020D01*
X19939040Y-5140140D02*
G75*
G02*
X19827280Y-5140140I-55880J0D01*
G01*
X19827280Y-5140140D02*
G75*
G02*
X19939040Y-5140140I55880J0D01*
G01*
X20947280Y-5775260D02*
X21059040Y-5887020D01*
X21059040Y-5775260D02*
X20947280Y-5887020D01*
X21059040Y-5831140D02*
G75*
G02*
X20947280Y-5831140I-55880J0D01*
G01*
X20947280Y-5831140D02*
G75*
G02*
X21059040Y-5831140I55880J0D01*
G01*
D15*
X8419400Y-19620140D02*
X8569400Y-19770140D01*
X8569400Y-19620140D02*
X8419400Y-19770140D01*
X8494400Y-19620140D02*
X8494400Y-19770140D01*
X8419400Y-19695140D02*
X8569400Y-19695140D01*
X8419400Y-22620140D02*
X8569400Y-22770140D01*
X8569400Y-22620140D02*
X8419400Y-22770140D01*
X8494400Y-22620140D02*
X8494400Y-22770140D01*
X8419400Y-22695140D02*
X8569400Y-22695140D01*
X9054400Y-19366140D02*
X9204400Y-19516140D01*
X9204400Y-19366140D02*
X9054400Y-19516140D01*
X9129400Y-19366140D02*
X9129400Y-19516140D01*
X9054400Y-19441140D02*
X9204400Y-19441140D01*
X9054400Y-22366140D02*
X9204400Y-22516140D01*
X9204400Y-22366140D02*
X9054400Y-22516140D01*
X9129400Y-22366140D02*
X9129400Y-22516140D01*
X9054400Y-22441140D02*
X9204400Y-22441140D01*
X11919400Y-13620140D02*
X12069400Y-13770140D01*
X12069400Y-13620140D02*
X11919400Y-13770140D01*
X11994400Y-13620140D02*
X11994400Y-13770140D01*
X11919400Y-13695140D02*
X12069400Y-13695140D01*
X11919400Y-16620140D02*
X12069400Y-16770140D01*
X12069400Y-16620140D02*
X11919400Y-16770140D01*
X11994400Y-16620140D02*
X11994400Y-16770140D01*
X11919400Y-16695140D02*
X12069400Y-16695140D01*
X11919400Y-19620140D02*
X12069400Y-19770140D01*
X12069400Y-19620140D02*
X11919400Y-19770140D01*
X11994400Y-19620140D02*
X11994400Y-19770140D01*
X11919400Y-19695140D02*
X12069400Y-19695140D01*
X11919400Y-22620140D02*
X12069400Y-22770140D01*
X12069400Y-22620140D02*
X11919400Y-22770140D01*
X11994400Y-22620140D02*
X11994400Y-22770140D01*
X11919400Y-22695140D02*
X12069400Y-22695140D01*
X12554400Y-13366140D02*
X12704400Y-13516140D01*
X12704400Y-13366140D02*
X12554400Y-13516140D01*
X12629400Y-13366140D02*
X12629400Y-13516140D01*
X12554400Y-13441140D02*
X12704400Y-13441140D01*
X12554400Y-16366140D02*
X12704400Y-16516140D01*
X12704400Y-16366140D02*
X12554400Y-16516140D01*
X12629400Y-16366140D02*
X12629400Y-16516140D01*
X12554400Y-16441140D02*
X12704400Y-16441140D01*
X12554400Y-19366140D02*
X12704400Y-19516140D01*
X12704400Y-19366140D02*
X12554400Y-19516140D01*
X12629400Y-19366140D02*
X12629400Y-19516140D01*
X12554400Y-19441140D02*
X12704400Y-19441140D01*
X12554400Y-22366140D02*
X12704400Y-22516140D01*
X12704400Y-22366140D02*
X12554400Y-22516140D01*
X12629400Y-22366140D02*
X12629400Y-22516140D01*
X12554400Y-22441140D02*
X12704400Y-22441140D01*
X14919400Y-13620140D02*
X15069400Y-13770140D01*
X15069400Y-13620140D02*
X14919400Y-13770140D01*
X14994400Y-13620140D02*
X14994400Y-13770140D01*
X14919400Y-13695140D02*
X15069400Y-13695140D01*
X14919400Y-16620140D02*
X15069400Y-16770140D01*
X15069400Y-16620140D02*
X14919400Y-16770140D01*
X14994400Y-16620140D02*
X14994400Y-16770140D01*
X14919400Y-16695140D02*
X15069400Y-16695140D01*
X14919400Y-19620140D02*
X15069400Y-19770140D01*
X15069400Y-19620140D02*
X14919400Y-19770140D01*
X14994400Y-19620140D02*
X14994400Y-19770140D01*
X14919400Y-19695140D02*
X15069400Y-19695140D01*
X14919400Y-22620140D02*
X15069400Y-22770140D01*
X15069400Y-22620140D02*
X14919400Y-22770140D01*
X14994400Y-22620140D02*
X14994400Y-22770140D01*
X14919400Y-22695140D02*
X15069400Y-22695140D01*
X15554400Y-13366140D02*
X15704400Y-13516140D01*
X15704400Y-13366140D02*
X15554400Y-13516140D01*
X15629400Y-13366140D02*
X15629400Y-13516140D01*
X15554400Y-13441140D02*
X15704400Y-13441140D01*
X15554400Y-16366140D02*
X15704400Y-16516140D01*
X15704400Y-16366140D02*
X15554400Y-16516140D01*
X15629400Y-16366140D02*
X15629400Y-16516140D01*
X15554400Y-16441140D02*
X15704400Y-16441140D01*
X15554400Y-19366140D02*
X15704400Y-19516140D01*
X15704400Y-19366140D02*
X15554400Y-19516140D01*
X15629400Y-19366140D02*
X15629400Y-19516140D01*
X15554400Y-19441140D02*
X15704400Y-19441140D01*
X15554400Y-22366140D02*
X15704400Y-22516140D01*
X15704400Y-22366140D02*
X15554400Y-22516140D01*
X15629400Y-22366140D02*
X15629400Y-22516140D01*
X15554400Y-22441140D02*
X15704400Y-22441140D01*
X17919400Y-13620140D02*
X18069400Y-13770140D01*
X18069400Y-13620140D02*
X17919400Y-13770140D01*
X17994400Y-13620140D02*
X17994400Y-13770140D01*
X17919400Y-13695140D02*
X18069400Y-13695140D01*
X17919400Y-16620140D02*
X18069400Y-16770140D01*
X18069400Y-16620140D02*
X17919400Y-16770140D01*
X17994400Y-16620140D02*
X17994400Y-16770140D01*
X17919400Y-16695140D02*
X18069400Y-16695140D01*
X17919400Y-19620140D02*
X18069400Y-19770140D01*
X18069400Y-19620140D02*
X17919400Y-19770140D01*
X17994400Y-19620140D02*
X17994400Y-19770140D01*
X17919400Y-19695140D02*
X18069400Y-19695140D01*
X17919400Y-22620140D02*
X18069400Y-22770140D01*
X18069400Y-22620140D02*
X17919400Y-22770140D01*
X17994400Y-22620140D02*
X17994400Y-22770140D01*
X17919400Y-22695140D02*
X18069400Y-22695140D01*
X18554400Y-13366140D02*
X18704400Y-13516140D01*
X18704400Y-13366140D02*
X18554400Y-13516140D01*
X18629400Y-13366140D02*
X18629400Y-13516140D01*
X18554400Y-13441140D02*
X18704400Y-13441140D01*
X18554400Y-16366140D02*
X18704400Y-16516140D01*
X18704400Y-16366140D02*
X18554400Y-16516140D01*
X18629400Y-16366140D02*
X18629400Y-16516140D01*
X18554400Y-16441140D02*
X18704400Y-16441140D01*
X18554400Y-19366140D02*
X18704400Y-19516140D01*
X18704400Y-19366140D02*
X18554400Y-19516140D01*
X18629400Y-19366140D02*
X18629400Y-19516140D01*
X18554400Y-19441140D02*
X18704400Y-19441140D01*
X18554400Y-22366140D02*
X18704400Y-22516140D01*
X18704400Y-22366140D02*
X18554400Y-22516140D01*
X18629400Y-22366140D02*
X18629400Y-22516140D01*
X18554400Y-22441140D02*
X18704400Y-22441140D01*
X20919400Y-13620140D02*
X21069400Y-13770140D01*
X21069400Y-13620140D02*
X20919400Y-13770140D01*
X20994400Y-13620140D02*
X20994400Y-13770140D01*
X20919400Y-13695140D02*
X21069400Y-13695140D01*
X20919400Y-16620140D02*
X21069400Y-16770140D01*
X21069400Y-16620140D02*
X20919400Y-16770140D01*
X20994400Y-16620140D02*
X20994400Y-16770140D01*
X20919400Y-16695140D02*
X21069400Y-16695140D01*
X20919400Y-19620140D02*
X21069400Y-19770140D01*
X21069400Y-19620140D02*
X20919400Y-19770140D01*
X20994400Y-19620140D02*
X20994400Y-19770140D01*
X20919400Y-19695140D02*
X21069400Y-19695140D01*
X20919400Y-22620140D02*
X21069400Y-22770140D01*
X21069400Y-22620140D02*
X20919400Y-22770140D01*
X20994400Y-22620140D02*
X20994400Y-22770140D01*
X20919400Y-22695140D02*
X21069400Y-22695140D01*
X21554400Y-13366140D02*
X21704400Y-13516140D01*
X21704400Y-13366140D02*
X21554400Y-13516140D01*
X21629400Y-13366140D02*
X21629400Y-13516140D01*
X21554400Y-13441140D02*
X21704400Y-13441140D01*
X21554400Y-16366140D02*
X21704400Y-16516140D01*
X21704400Y-16366140D02*
X21554400Y-16516140D01*
X21629400Y-16366140D02*
X21629400Y-16516140D01*
X21554400Y-16441140D02*
X21704400Y-16441140D01*
X21554400Y-19366140D02*
X21704400Y-19516140D01*
X21704400Y-19366140D02*
X21554400Y-19516140D01*
X21629400Y-19366140D02*
X21629400Y-19516140D01*
X21554400Y-19441140D02*
X21704400Y-19441140D01*
X21554400Y-22366140D02*
X21704400Y-22516140D01*
X21704400Y-22366140D02*
X21554400Y-22516140D01*
X21629400Y-22366140D02*
X21629400Y-22516140D01*
X21554400Y-22441140D02*
X21704400Y-22441140D01*
X24419400Y-19620140D02*
X24569400Y-19770140D01*
X24569400Y-19620140D02*
X24419400Y-19770140D01*
X24494400Y-19620140D02*
X24494400Y-19770140D01*
X24419400Y-19695140D02*
X24569400Y-19695140D01*
X24419400Y-22620140D02*
X24569400Y-22770140D01*
X24569400Y-22620140D02*
X24419400Y-22770140D01*
X24494400Y-22620140D02*
X24494400Y-22770140D01*
X24419400Y-22695140D02*
X24569400Y-22695140D01*
X25054400Y-19366140D02*
X25204400Y-19516140D01*
X25204400Y-19366140D02*
X25054400Y-19516140D01*
X25129400Y-19366140D02*
X25129400Y-19516140D01*
X25054400Y-19441140D02*
X25204400Y-19441140D01*
X25054400Y-22366140D02*
X25204400Y-22516140D01*
X25204400Y-22366140D02*
X25054400Y-22516140D01*
X25129400Y-22366140D02*
X25129400Y-22516140D01*
X25054400Y-22441140D02*
X25204400Y-22441140D01*
D11*
X7113578Y-24690124D02*
X7113578Y-24490124D01*
X7113578Y-24490124D02*
X7161197Y-24490124D01*
X7161197Y-24490124D02*
X7189769Y-24499648D01*
X7189769Y-24499648D02*
X7208816Y-24518695D01*
X7208816Y-24518695D02*
X7218340Y-24537743D01*
X7218340Y-24537743D02*
X7227864Y-24575838D01*
X7227864Y-24575838D02*
X7227864Y-24604410D01*
X7227864Y-24604410D02*
X7218340Y-24642505D01*
X7218340Y-24642505D02*
X7208816Y-24661552D01*
X7208816Y-24661552D02*
X7189769Y-24680600D01*
X7189769Y-24680600D02*
X7161197Y-24690124D01*
X7161197Y-24690124D02*
X7113578Y-24690124D01*
X7313578Y-24690124D02*
X7313578Y-24556791D01*
X7313578Y-24594886D02*
X7323102Y-24575838D01*
X7323102Y-24575838D02*
X7332626Y-24566314D01*
X7332626Y-24566314D02*
X7351674Y-24556791D01*
X7351674Y-24556791D02*
X7370721Y-24556791D01*
X7437388Y-24690124D02*
X7437388Y-24556791D01*
X7437388Y-24490124D02*
X7427864Y-24499648D01*
X7427864Y-24499648D02*
X7437388Y-24509172D01*
X7437388Y-24509172D02*
X7446912Y-24499648D01*
X7446912Y-24499648D02*
X7437388Y-24490124D01*
X7437388Y-24490124D02*
X7437388Y-24509172D01*
X7561197Y-24690124D02*
X7542150Y-24680600D01*
X7542150Y-24680600D02*
X7532626Y-24661552D01*
X7532626Y-24661552D02*
X7532626Y-24490124D01*
X7665959Y-24690124D02*
X7646912Y-24680600D01*
X7646912Y-24680600D02*
X7637388Y-24661552D01*
X7637388Y-24661552D02*
X7637388Y-24490124D01*
X7894531Y-24690124D02*
X7894531Y-24490124D01*
X7894531Y-24490124D02*
X7961197Y-24632981D01*
X7961197Y-24632981D02*
X8027864Y-24490124D01*
X8027864Y-24490124D02*
X8027864Y-24690124D01*
X8208816Y-24690124D02*
X8208816Y-24585362D01*
X8208816Y-24585362D02*
X8199293Y-24566314D01*
X8199293Y-24566314D02*
X8180245Y-24556791D01*
X8180245Y-24556791D02*
X8142150Y-24556791D01*
X8142150Y-24556791D02*
X8123102Y-24566314D01*
X8208816Y-24680600D02*
X8189769Y-24690124D01*
X8189769Y-24690124D02*
X8142150Y-24690124D01*
X8142150Y-24690124D02*
X8123102Y-24680600D01*
X8123102Y-24680600D02*
X8113578Y-24661552D01*
X8113578Y-24661552D02*
X8113578Y-24642505D01*
X8113578Y-24642505D02*
X8123102Y-24623457D01*
X8123102Y-24623457D02*
X8142150Y-24613933D01*
X8142150Y-24613933D02*
X8189769Y-24613933D01*
X8189769Y-24613933D02*
X8208816Y-24604410D01*
X8304055Y-24556791D02*
X8304055Y-24756791D01*
X8304055Y-24566314D02*
X8323102Y-24556791D01*
X8323102Y-24556791D02*
X8361197Y-24556791D01*
X8361197Y-24556791D02*
X8380245Y-24566314D01*
X8380245Y-24566314D02*
X8389769Y-24575838D01*
X8389769Y-24575838D02*
X8399293Y-24594886D01*
X8399293Y-24594886D02*
X8399293Y-24652029D01*
X8399293Y-24652029D02*
X8389769Y-24671076D01*
X8389769Y-24671076D02*
X8380245Y-24680600D01*
X8380245Y-24680600D02*
X8361197Y-24690124D01*
X8361197Y-24690124D02*
X8323102Y-24690124D01*
X8323102Y-24690124D02*
X8304055Y-24680600D01*
X8485007Y-24671076D02*
X8494531Y-24680600D01*
X8494531Y-24680600D02*
X8485007Y-24690124D01*
X8485007Y-24690124D02*
X8475483Y-24680600D01*
X8475483Y-24680600D02*
X8485007Y-24671076D01*
X8485007Y-24671076D02*
X8485007Y-24690124D01*
X8485007Y-24566314D02*
X8494531Y-24575838D01*
X8494531Y-24575838D02*
X8485007Y-24585362D01*
X8485007Y-24585362D02*
X8475483Y-24575838D01*
X8475483Y-24575838D02*
X8485007Y-24566314D01*
X8485007Y-24566314D02*
X8485007Y-24585362D01*
D12*
X6832482Y-25008480D02*
X6852802Y-25028800D01*
X6852802Y-25008480D02*
X6832482Y-25028800D01*
D11*
X7151674Y-24910124D02*
X7170721Y-24910124D01*
X7170721Y-24910124D02*
X7189769Y-24919648D01*
X7189769Y-24919648D02*
X7199293Y-24929172D01*
X7199293Y-24929172D02*
X7208816Y-24948219D01*
X7208816Y-24948219D02*
X7218340Y-24986314D01*
X7218340Y-24986314D02*
X7218340Y-25033933D01*
X7218340Y-25033933D02*
X7208816Y-25072029D01*
X7208816Y-25072029D02*
X7199293Y-25091076D01*
X7199293Y-25091076D02*
X7189769Y-25100600D01*
X7189769Y-25100600D02*
X7170721Y-25110124D01*
X7170721Y-25110124D02*
X7151674Y-25110124D01*
X7151674Y-25110124D02*
X7132626Y-25100600D01*
X7132626Y-25100600D02*
X7123102Y-25091076D01*
X7123102Y-25091076D02*
X7113578Y-25072029D01*
X7113578Y-25072029D02*
X7104055Y-25033933D01*
X7104055Y-25033933D02*
X7104055Y-24986314D01*
X7104055Y-24986314D02*
X7113578Y-24948219D01*
X7113578Y-24948219D02*
X7123102Y-24929172D01*
X7123102Y-24929172D02*
X7132626Y-24919648D01*
X7132626Y-24919648D02*
X7151674Y-24910124D01*
X7304055Y-25091076D02*
X7313578Y-25100600D01*
X7313578Y-25100600D02*
X7304055Y-25110124D01*
X7304055Y-25110124D02*
X7294531Y-25100600D01*
X7294531Y-25100600D02*
X7304055Y-25091076D01*
X7304055Y-25091076D02*
X7304055Y-25110124D01*
X7389769Y-24929172D02*
X7399293Y-24919648D01*
X7399293Y-24919648D02*
X7418340Y-24910124D01*
X7418340Y-24910124D02*
X7465959Y-24910124D01*
X7465959Y-24910124D02*
X7485007Y-24919648D01*
X7485007Y-24919648D02*
X7494531Y-24929172D01*
X7494531Y-24929172D02*
X7504055Y-24948219D01*
X7504055Y-24948219D02*
X7504055Y-24967267D01*
X7504055Y-24967267D02*
X7494531Y-24995838D01*
X7494531Y-24995838D02*
X7380245Y-25110124D01*
X7380245Y-25110124D02*
X7504055Y-25110124D01*
X7627864Y-24910124D02*
X7646912Y-24910124D01*
X7646912Y-24910124D02*
X7665959Y-24919648D01*
X7665959Y-24919648D02*
X7675483Y-24929172D01*
X7675483Y-24929172D02*
X7685007Y-24948219D01*
X7685007Y-24948219D02*
X7694531Y-24986314D01*
X7694531Y-24986314D02*
X7694531Y-25033933D01*
X7694531Y-25033933D02*
X7685007Y-25072029D01*
X7685007Y-25072029D02*
X7675483Y-25091076D01*
X7675483Y-25091076D02*
X7665959Y-25100600D01*
X7665959Y-25100600D02*
X7646912Y-25110124D01*
X7646912Y-25110124D02*
X7627864Y-25110124D01*
X7627864Y-25110124D02*
X7608816Y-25100600D01*
X7608816Y-25100600D02*
X7599293Y-25091076D01*
X7599293Y-25091076D02*
X7589769Y-25072029D01*
X7589769Y-25072029D02*
X7580245Y-25033933D01*
X7580245Y-25033933D02*
X7580245Y-24986314D01*
X7580245Y-24986314D02*
X7589769Y-24948219D01*
X7589769Y-24948219D02*
X7599293Y-24929172D01*
X7599293Y-24929172D02*
X7608816Y-24919648D01*
X7608816Y-24919648D02*
X7627864Y-24910124D01*
X7761197Y-24910124D02*
X7885007Y-24910124D01*
X7885007Y-24910124D02*
X7818340Y-24986314D01*
X7818340Y-24986314D02*
X7846912Y-24986314D01*
X7846912Y-24986314D02*
X7865959Y-24995838D01*
X7865959Y-24995838D02*
X7875483Y-25005362D01*
X7875483Y-25005362D02*
X7885007Y-25024410D01*
X7885007Y-25024410D02*
X7885007Y-25072029D01*
X7885007Y-25072029D02*
X7875483Y-25091076D01*
X7875483Y-25091076D02*
X7865959Y-25100600D01*
X7865959Y-25100600D02*
X7846912Y-25110124D01*
X7846912Y-25110124D02*
X7789769Y-25110124D01*
X7789769Y-25110124D02*
X7770721Y-25100600D01*
X7770721Y-25100600D02*
X7761197Y-25091076D01*
X7970721Y-25110124D02*
X7970721Y-24976791D01*
X7970721Y-24995838D02*
X7980245Y-24986314D01*
X7980245Y-24986314D02*
X7999293Y-24976791D01*
X7999293Y-24976791D02*
X8027864Y-24976791D01*
X8027864Y-24976791D02*
X8046912Y-24986314D01*
X8046912Y-24986314D02*
X8056436Y-25005362D01*
X8056436Y-25005362D02*
X8056436Y-25110124D01*
X8056436Y-25005362D02*
X8065959Y-24986314D01*
X8065959Y-24986314D02*
X8085007Y-24976791D01*
X8085007Y-24976791D02*
X8113578Y-24976791D01*
X8113578Y-24976791D02*
X8132626Y-24986314D01*
X8132626Y-24986314D02*
X8142150Y-25005362D01*
X8142150Y-25005362D02*
X8142150Y-25110124D01*
X8237388Y-25110124D02*
X8237388Y-24976791D01*
X8237388Y-24995838D02*
X8246912Y-24986314D01*
X8246912Y-24986314D02*
X8265959Y-24976791D01*
X8265959Y-24976791D02*
X8294531Y-24976791D01*
X8294531Y-24976791D02*
X8313578Y-24986314D01*
X8313578Y-24986314D02*
X8323102Y-25005362D01*
X8323102Y-25005362D02*
X8323102Y-25110124D01*
X8323102Y-25005362D02*
X8332626Y-24986314D01*
X8332626Y-24986314D02*
X8351674Y-24976791D01*
X8351674Y-24976791D02*
X8380245Y-24976791D01*
X8380245Y-24976791D02*
X8399293Y-24986314D01*
X8399293Y-24986314D02*
X8408817Y-25005362D01*
X8408817Y-25005362D02*
X8408817Y-25110124D01*
X8799293Y-24900600D02*
X8627864Y-25157743D01*
X9056436Y-24910124D02*
X9075483Y-24910124D01*
X9075483Y-24910124D02*
X9094531Y-24919648D01*
X9094531Y-24919648D02*
X9104055Y-24929172D01*
X9104055Y-24929172D02*
X9113579Y-24948219D01*
X9113579Y-24948219D02*
X9123102Y-24986314D01*
X9123102Y-24986314D02*
X9123102Y-25033933D01*
X9123102Y-25033933D02*
X9113579Y-25072029D01*
X9113579Y-25072029D02*
X9104055Y-25091076D01*
X9104055Y-25091076D02*
X9094531Y-25100600D01*
X9094531Y-25100600D02*
X9075483Y-25110124D01*
X9075483Y-25110124D02*
X9056436Y-25110124D01*
X9056436Y-25110124D02*
X9037388Y-25100600D01*
X9037388Y-25100600D02*
X9027864Y-25091076D01*
X9027864Y-25091076D02*
X9018341Y-25072029D01*
X9018341Y-25072029D02*
X9008817Y-25033933D01*
X9008817Y-25033933D02*
X9008817Y-24986314D01*
X9008817Y-24986314D02*
X9018341Y-24948219D01*
X9018341Y-24948219D02*
X9027864Y-24929172D01*
X9027864Y-24929172D02*
X9037388Y-24919648D01*
X9037388Y-24919648D02*
X9056436Y-24910124D01*
X9208817Y-25091076D02*
X9218341Y-25100600D01*
X9218341Y-25100600D02*
X9208817Y-25110124D01*
X9208817Y-25110124D02*
X9199293Y-25100600D01*
X9199293Y-25100600D02*
X9208817Y-25091076D01*
X9208817Y-25091076D02*
X9208817Y-25110124D01*
X9342150Y-24910124D02*
X9361198Y-24910124D01*
X9361198Y-24910124D02*
X9380245Y-24919648D01*
X9380245Y-24919648D02*
X9389769Y-24929172D01*
X9389769Y-24929172D02*
X9399293Y-24948219D01*
X9399293Y-24948219D02*
X9408817Y-24986314D01*
X9408817Y-24986314D02*
X9408817Y-25033933D01*
X9408817Y-25033933D02*
X9399293Y-25072029D01*
X9399293Y-25072029D02*
X9389769Y-25091076D01*
X9389769Y-25091076D02*
X9380245Y-25100600D01*
X9380245Y-25100600D02*
X9361198Y-25110124D01*
X9361198Y-25110124D02*
X9342150Y-25110124D01*
X9342150Y-25110124D02*
X9323102Y-25100600D01*
X9323102Y-25100600D02*
X9313579Y-25091076D01*
X9313579Y-25091076D02*
X9304055Y-25072029D01*
X9304055Y-25072029D02*
X9294531Y-25033933D01*
X9294531Y-25033933D02*
X9294531Y-24986314D01*
X9294531Y-24986314D02*
X9304055Y-24948219D01*
X9304055Y-24948219D02*
X9313579Y-24929172D01*
X9313579Y-24929172D02*
X9323102Y-24919648D01*
X9323102Y-24919648D02*
X9342150Y-24910124D01*
X9532626Y-24910124D02*
X9551674Y-24910124D01*
X9551674Y-24910124D02*
X9570722Y-24919648D01*
X9570722Y-24919648D02*
X9580245Y-24929172D01*
X9580245Y-24929172D02*
X9589769Y-24948219D01*
X9589769Y-24948219D02*
X9599293Y-24986314D01*
X9599293Y-24986314D02*
X9599293Y-25033933D01*
X9599293Y-25033933D02*
X9589769Y-25072029D01*
X9589769Y-25072029D02*
X9580245Y-25091076D01*
X9580245Y-25091076D02*
X9570722Y-25100600D01*
X9570722Y-25100600D02*
X9551674Y-25110124D01*
X9551674Y-25110124D02*
X9532626Y-25110124D01*
X9532626Y-25110124D02*
X9513579Y-25100600D01*
X9513579Y-25100600D02*
X9504055Y-25091076D01*
X9504055Y-25091076D02*
X9494531Y-25072029D01*
X9494531Y-25072029D02*
X9485007Y-25033933D01*
X9485007Y-25033933D02*
X9485007Y-24986314D01*
X9485007Y-24986314D02*
X9494531Y-24948219D01*
X9494531Y-24948219D02*
X9504055Y-24929172D01*
X9504055Y-24929172D02*
X9513579Y-24919648D01*
X9513579Y-24919648D02*
X9532626Y-24910124D01*
X9713579Y-24995838D02*
X9694531Y-24986314D01*
X9694531Y-24986314D02*
X9685007Y-24976791D01*
X9685007Y-24976791D02*
X9675483Y-24957743D01*
X9675483Y-24957743D02*
X9675483Y-24948219D01*
X9675483Y-24948219D02*
X9685007Y-24929172D01*
X9685007Y-24929172D02*
X9694531Y-24919648D01*
X9694531Y-24919648D02*
X9713579Y-24910124D01*
X9713579Y-24910124D02*
X9751674Y-24910124D01*
X9751674Y-24910124D02*
X9770722Y-24919648D01*
X9770722Y-24919648D02*
X9780245Y-24929172D01*
X9780245Y-24929172D02*
X9789769Y-24948219D01*
X9789769Y-24948219D02*
X9789769Y-24957743D01*
X9789769Y-24957743D02*
X9780245Y-24976791D01*
X9780245Y-24976791D02*
X9770722Y-24986314D01*
X9770722Y-24986314D02*
X9751674Y-24995838D01*
X9751674Y-24995838D02*
X9713579Y-24995838D01*
X9713579Y-24995838D02*
X9694531Y-25005362D01*
X9694531Y-25005362D02*
X9685007Y-25014886D01*
X9685007Y-25014886D02*
X9675483Y-25033933D01*
X9675483Y-25033933D02*
X9675483Y-25072029D01*
X9675483Y-25072029D02*
X9685007Y-25091076D01*
X9685007Y-25091076D02*
X9694531Y-25100600D01*
X9694531Y-25100600D02*
X9713579Y-25110124D01*
X9713579Y-25110124D02*
X9751674Y-25110124D01*
X9751674Y-25110124D02*
X9770722Y-25100600D01*
X9770722Y-25100600D02*
X9780245Y-25091076D01*
X9780245Y-25091076D02*
X9789769Y-25072029D01*
X9789769Y-25072029D02*
X9789769Y-25033933D01*
X9789769Y-25033933D02*
X9780245Y-25014886D01*
X9780245Y-25014886D02*
X9770722Y-25005362D01*
X9770722Y-25005362D02*
X9751674Y-24995838D01*
X9913579Y-24910124D02*
X9932626Y-24910124D01*
X9932626Y-24910124D02*
X9951674Y-24919648D01*
X9951674Y-24919648D02*
X9961198Y-24929172D01*
X9961198Y-24929172D02*
X9970722Y-24948219D01*
X9970722Y-24948219D02*
X9980245Y-24986314D01*
X9980245Y-24986314D02*
X9980245Y-25033933D01*
X9980245Y-25033933D02*
X9970722Y-25072029D01*
X9970722Y-25072029D02*
X9961198Y-25091076D01*
X9961198Y-25091076D02*
X9951674Y-25100600D01*
X9951674Y-25100600D02*
X9932626Y-25110124D01*
X9932626Y-25110124D02*
X9913579Y-25110124D01*
X9913579Y-25110124D02*
X9894531Y-25100600D01*
X9894531Y-25100600D02*
X9885007Y-25091076D01*
X9885007Y-25091076D02*
X9875483Y-25072029D01*
X9875483Y-25072029D02*
X9865960Y-25033933D01*
X9865960Y-25033933D02*
X9865960Y-24986314D01*
X9865960Y-24986314D02*
X9875483Y-24948219D01*
X9875483Y-24948219D02*
X9885007Y-24929172D01*
X9885007Y-24929172D02*
X9894531Y-24919648D01*
X9894531Y-24919648D02*
X9913579Y-24910124D01*
X10056436Y-24910124D02*
X10056436Y-24948219D01*
X10132626Y-24910124D02*
X10132626Y-24948219D01*
X10427865Y-25186314D02*
X10418341Y-25176791D01*
X10418341Y-25176791D02*
X10399293Y-25148219D01*
X10399293Y-25148219D02*
X10389769Y-25129172D01*
X10389769Y-25129172D02*
X10380245Y-25100600D01*
X10380245Y-25100600D02*
X10370722Y-25052981D01*
X10370722Y-25052981D02*
X10370722Y-25014886D01*
X10370722Y-25014886D02*
X10380245Y-24967267D01*
X10380245Y-24967267D02*
X10389769Y-24938695D01*
X10389769Y-24938695D02*
X10399293Y-24919648D01*
X10399293Y-24919648D02*
X10418341Y-24891076D01*
X10418341Y-24891076D02*
X10427865Y-24881552D01*
X10608817Y-25110124D02*
X10494531Y-25110124D01*
X10551674Y-25110124D02*
X10551674Y-24910124D01*
X10551674Y-24910124D02*
X10532626Y-24938695D01*
X10532626Y-24938695D02*
X10513579Y-24957743D01*
X10513579Y-24957743D02*
X10494531Y-24967267D01*
X10685007Y-24929172D02*
X10694531Y-24919648D01*
X10694531Y-24919648D02*
X10713579Y-24910124D01*
X10713579Y-24910124D02*
X10761198Y-24910124D01*
X10761198Y-24910124D02*
X10780245Y-24919648D01*
X10780245Y-24919648D02*
X10789769Y-24929172D01*
X10789769Y-24929172D02*
X10799293Y-24948219D01*
X10799293Y-24948219D02*
X10799293Y-24967267D01*
X10799293Y-24967267D02*
X10789769Y-24995838D01*
X10789769Y-24995838D02*
X10675484Y-25110124D01*
X10675484Y-25110124D02*
X10799293Y-25110124D01*
X11037388Y-25110124D02*
X11037388Y-24910124D01*
X11123103Y-25110124D02*
X11123103Y-25005362D01*
X11123103Y-25005362D02*
X11113579Y-24986314D01*
X11113579Y-24986314D02*
X11094531Y-24976791D01*
X11094531Y-24976791D02*
X11065960Y-24976791D01*
X11065960Y-24976791D02*
X11046912Y-24986314D01*
X11046912Y-24986314D02*
X11037388Y-24995838D01*
X11246912Y-25110124D02*
X11227864Y-25100600D01*
X11227864Y-25100600D02*
X11218341Y-25091076D01*
X11218341Y-25091076D02*
X11208817Y-25072029D01*
X11208817Y-25072029D02*
X11208817Y-25014886D01*
X11208817Y-25014886D02*
X11218341Y-24995838D01*
X11218341Y-24995838D02*
X11227864Y-24986314D01*
X11227864Y-24986314D02*
X11246912Y-24976791D01*
X11246912Y-24976791D02*
X11275484Y-24976791D01*
X11275484Y-24976791D02*
X11294531Y-24986314D01*
X11294531Y-24986314D02*
X11304055Y-24995838D01*
X11304055Y-24995838D02*
X11313579Y-25014886D01*
X11313579Y-25014886D02*
X11313579Y-25072029D01*
X11313579Y-25072029D02*
X11304055Y-25091076D01*
X11304055Y-25091076D02*
X11294531Y-25100600D01*
X11294531Y-25100600D02*
X11275484Y-25110124D01*
X11275484Y-25110124D02*
X11246912Y-25110124D01*
X11427864Y-25110124D02*
X11408817Y-25100600D01*
X11408817Y-25100600D02*
X11399293Y-25081552D01*
X11399293Y-25081552D02*
X11399293Y-24910124D01*
X11580245Y-25100600D02*
X11561198Y-25110124D01*
X11561198Y-25110124D02*
X11523103Y-25110124D01*
X11523103Y-25110124D02*
X11504055Y-25100600D01*
X11504055Y-25100600D02*
X11494531Y-25081552D01*
X11494531Y-25081552D02*
X11494531Y-25005362D01*
X11494531Y-25005362D02*
X11504055Y-24986314D01*
X11504055Y-24986314D02*
X11523103Y-24976791D01*
X11523103Y-24976791D02*
X11561198Y-24976791D01*
X11561198Y-24976791D02*
X11580245Y-24986314D01*
X11580245Y-24986314D02*
X11589769Y-25005362D01*
X11589769Y-25005362D02*
X11589769Y-25024410D01*
X11589769Y-25024410D02*
X11494531Y-25043457D01*
X11665960Y-25100600D02*
X11685007Y-25110124D01*
X11685007Y-25110124D02*
X11723103Y-25110124D01*
X11723103Y-25110124D02*
X11742150Y-25100600D01*
X11742150Y-25100600D02*
X11751674Y-25081552D01*
X11751674Y-25081552D02*
X11751674Y-25072029D01*
X11751674Y-25072029D02*
X11742150Y-25052981D01*
X11742150Y-25052981D02*
X11723103Y-25043457D01*
X11723103Y-25043457D02*
X11694531Y-25043457D01*
X11694531Y-25043457D02*
X11675484Y-25033933D01*
X11675484Y-25033933D02*
X11665960Y-25014886D01*
X11665960Y-25014886D02*
X11665960Y-25005362D01*
X11665960Y-25005362D02*
X11675484Y-24986314D01*
X11675484Y-24986314D02*
X11694531Y-24976791D01*
X11694531Y-24976791D02*
X11723103Y-24976791D01*
X11723103Y-24976791D02*
X11742150Y-24986314D01*
X11818341Y-25186314D02*
X11827865Y-25176791D01*
X11827865Y-25176791D02*
X11846912Y-25148219D01*
X11846912Y-25148219D02*
X11856436Y-25129172D01*
X11856436Y-25129172D02*
X11865960Y-25100600D01*
X11865960Y-25100600D02*
X11875484Y-25052981D01*
X11875484Y-25052981D02*
X11875484Y-25014886D01*
X11875484Y-25014886D02*
X11865960Y-24967267D01*
X11865960Y-24967267D02*
X11856436Y-24938695D01*
X11856436Y-24938695D02*
X11846912Y-24919648D01*
X11846912Y-24919648D02*
X11827865Y-24891076D01*
X11827865Y-24891076D02*
X11818341Y-24881552D01*
D12*
X6852802Y-25282640D02*
G75*
G02*
X6822802Y-25282640I-15000J0D01*
G01*
X6822802Y-25282640D02*
G75*
G02*
X6852802Y-25282640I15000J0D01*
G01*
D11*
X7151674Y-25174124D02*
X7170721Y-25174124D01*
X7170721Y-25174124D02*
X7189769Y-25183648D01*
X7189769Y-25183648D02*
X7199293Y-25193172D01*
X7199293Y-25193172D02*
X7208816Y-25212219D01*
X7208816Y-25212219D02*
X7218340Y-25250314D01*
X7218340Y-25250314D02*
X7218340Y-25297933D01*
X7218340Y-25297933D02*
X7208816Y-25336029D01*
X7208816Y-25336029D02*
X7199293Y-25355076D01*
X7199293Y-25355076D02*
X7189769Y-25364600D01*
X7189769Y-25364600D02*
X7170721Y-25374124D01*
X7170721Y-25374124D02*
X7151674Y-25374124D01*
X7151674Y-25374124D02*
X7132626Y-25364600D01*
X7132626Y-25364600D02*
X7123102Y-25355076D01*
X7123102Y-25355076D02*
X7113578Y-25336029D01*
X7113578Y-25336029D02*
X7104055Y-25297933D01*
X7104055Y-25297933D02*
X7104055Y-25250314D01*
X7104055Y-25250314D02*
X7113578Y-25212219D01*
X7113578Y-25212219D02*
X7123102Y-25193172D01*
X7123102Y-25193172D02*
X7132626Y-25183648D01*
X7132626Y-25183648D02*
X7151674Y-25174124D01*
X7304055Y-25355076D02*
X7313578Y-25364600D01*
X7313578Y-25364600D02*
X7304055Y-25374124D01*
X7304055Y-25374124D02*
X7294531Y-25364600D01*
X7294531Y-25364600D02*
X7304055Y-25355076D01*
X7304055Y-25355076D02*
X7304055Y-25374124D01*
X7380245Y-25174124D02*
X7504055Y-25174124D01*
X7504055Y-25174124D02*
X7437388Y-25250314D01*
X7437388Y-25250314D02*
X7465959Y-25250314D01*
X7465959Y-25250314D02*
X7485007Y-25259838D01*
X7485007Y-25259838D02*
X7494531Y-25269362D01*
X7494531Y-25269362D02*
X7504055Y-25288410D01*
X7504055Y-25288410D02*
X7504055Y-25336029D01*
X7504055Y-25336029D02*
X7494531Y-25355076D01*
X7494531Y-25355076D02*
X7485007Y-25364600D01*
X7485007Y-25364600D02*
X7465959Y-25374124D01*
X7465959Y-25374124D02*
X7408816Y-25374124D01*
X7408816Y-25374124D02*
X7389769Y-25364600D01*
X7389769Y-25364600D02*
X7380245Y-25355076D01*
X7627864Y-25174124D02*
X7646912Y-25174124D01*
X7646912Y-25174124D02*
X7665959Y-25183648D01*
X7665959Y-25183648D02*
X7675483Y-25193172D01*
X7675483Y-25193172D02*
X7685007Y-25212219D01*
X7685007Y-25212219D02*
X7694531Y-25250314D01*
X7694531Y-25250314D02*
X7694531Y-25297933D01*
X7694531Y-25297933D02*
X7685007Y-25336029D01*
X7685007Y-25336029D02*
X7675483Y-25355076D01*
X7675483Y-25355076D02*
X7665959Y-25364600D01*
X7665959Y-25364600D02*
X7646912Y-25374124D01*
X7646912Y-25374124D02*
X7627864Y-25374124D01*
X7627864Y-25374124D02*
X7608816Y-25364600D01*
X7608816Y-25364600D02*
X7599293Y-25355076D01*
X7599293Y-25355076D02*
X7589769Y-25336029D01*
X7589769Y-25336029D02*
X7580245Y-25297933D01*
X7580245Y-25297933D02*
X7580245Y-25250314D01*
X7580245Y-25250314D02*
X7589769Y-25212219D01*
X7589769Y-25212219D02*
X7599293Y-25193172D01*
X7599293Y-25193172D02*
X7608816Y-25183648D01*
X7608816Y-25183648D02*
X7627864Y-25174124D01*
X7818340Y-25174124D02*
X7837388Y-25174124D01*
X7837388Y-25174124D02*
X7856436Y-25183648D01*
X7856436Y-25183648D02*
X7865959Y-25193172D01*
X7865959Y-25193172D02*
X7875483Y-25212219D01*
X7875483Y-25212219D02*
X7885007Y-25250314D01*
X7885007Y-25250314D02*
X7885007Y-25297933D01*
X7885007Y-25297933D02*
X7875483Y-25336029D01*
X7875483Y-25336029D02*
X7865959Y-25355076D01*
X7865959Y-25355076D02*
X7856436Y-25364600D01*
X7856436Y-25364600D02*
X7837388Y-25374124D01*
X7837388Y-25374124D02*
X7818340Y-25374124D01*
X7818340Y-25374124D02*
X7799293Y-25364600D01*
X7799293Y-25364600D02*
X7789769Y-25355076D01*
X7789769Y-25355076D02*
X7780245Y-25336029D01*
X7780245Y-25336029D02*
X7770721Y-25297933D01*
X7770721Y-25297933D02*
X7770721Y-25250314D01*
X7770721Y-25250314D02*
X7780245Y-25212219D01*
X7780245Y-25212219D02*
X7789769Y-25193172D01*
X7789769Y-25193172D02*
X7799293Y-25183648D01*
X7799293Y-25183648D02*
X7818340Y-25174124D01*
X7970721Y-25374124D02*
X7970721Y-25240791D01*
X7970721Y-25259838D02*
X7980245Y-25250314D01*
X7980245Y-25250314D02*
X7999293Y-25240791D01*
X7999293Y-25240791D02*
X8027864Y-25240791D01*
X8027864Y-25240791D02*
X8046912Y-25250314D01*
X8046912Y-25250314D02*
X8056436Y-25269362D01*
X8056436Y-25269362D02*
X8056436Y-25374124D01*
X8056436Y-25269362D02*
X8065959Y-25250314D01*
X8065959Y-25250314D02*
X8085007Y-25240791D01*
X8085007Y-25240791D02*
X8113578Y-25240791D01*
X8113578Y-25240791D02*
X8132626Y-25250314D01*
X8132626Y-25250314D02*
X8142150Y-25269362D01*
X8142150Y-25269362D02*
X8142150Y-25374124D01*
X8237388Y-25374124D02*
X8237388Y-25240791D01*
X8237388Y-25259838D02*
X8246912Y-25250314D01*
X8246912Y-25250314D02*
X8265959Y-25240791D01*
X8265959Y-25240791D02*
X8294531Y-25240791D01*
X8294531Y-25240791D02*
X8313578Y-25250314D01*
X8313578Y-25250314D02*
X8323102Y-25269362D01*
X8323102Y-25269362D02*
X8323102Y-25374124D01*
X8323102Y-25269362D02*
X8332626Y-25250314D01*
X8332626Y-25250314D02*
X8351674Y-25240791D01*
X8351674Y-25240791D02*
X8380245Y-25240791D01*
X8380245Y-25240791D02*
X8399293Y-25250314D01*
X8399293Y-25250314D02*
X8408817Y-25269362D01*
X8408817Y-25269362D02*
X8408817Y-25374124D01*
X8799293Y-25164600D02*
X8627864Y-25421743D01*
X9056436Y-25174124D02*
X9075483Y-25174124D01*
X9075483Y-25174124D02*
X9094531Y-25183648D01*
X9094531Y-25183648D02*
X9104055Y-25193172D01*
X9104055Y-25193172D02*
X9113579Y-25212219D01*
X9113579Y-25212219D02*
X9123102Y-25250314D01*
X9123102Y-25250314D02*
X9123102Y-25297933D01*
X9123102Y-25297933D02*
X9113579Y-25336029D01*
X9113579Y-25336029D02*
X9104055Y-25355076D01*
X9104055Y-25355076D02*
X9094531Y-25364600D01*
X9094531Y-25364600D02*
X9075483Y-25374124D01*
X9075483Y-25374124D02*
X9056436Y-25374124D01*
X9056436Y-25374124D02*
X9037388Y-25364600D01*
X9037388Y-25364600D02*
X9027864Y-25355076D01*
X9027864Y-25355076D02*
X9018341Y-25336029D01*
X9018341Y-25336029D02*
X9008817Y-25297933D01*
X9008817Y-25297933D02*
X9008817Y-25250314D01*
X9008817Y-25250314D02*
X9018341Y-25212219D01*
X9018341Y-25212219D02*
X9027864Y-25193172D01*
X9027864Y-25193172D02*
X9037388Y-25183648D01*
X9037388Y-25183648D02*
X9056436Y-25174124D01*
X9208817Y-25355076D02*
X9218341Y-25364600D01*
X9218341Y-25364600D02*
X9208817Y-25374124D01*
X9208817Y-25374124D02*
X9199293Y-25364600D01*
X9199293Y-25364600D02*
X9208817Y-25355076D01*
X9208817Y-25355076D02*
X9208817Y-25374124D01*
X9342150Y-25174124D02*
X9361198Y-25174124D01*
X9361198Y-25174124D02*
X9380245Y-25183648D01*
X9380245Y-25183648D02*
X9389769Y-25193172D01*
X9389769Y-25193172D02*
X9399293Y-25212219D01*
X9399293Y-25212219D02*
X9408817Y-25250314D01*
X9408817Y-25250314D02*
X9408817Y-25297933D01*
X9408817Y-25297933D02*
X9399293Y-25336029D01*
X9399293Y-25336029D02*
X9389769Y-25355076D01*
X9389769Y-25355076D02*
X9380245Y-25364600D01*
X9380245Y-25364600D02*
X9361198Y-25374124D01*
X9361198Y-25374124D02*
X9342150Y-25374124D01*
X9342150Y-25374124D02*
X9323102Y-25364600D01*
X9323102Y-25364600D02*
X9313579Y-25355076D01*
X9313579Y-25355076D02*
X9304055Y-25336029D01*
X9304055Y-25336029D02*
X9294531Y-25297933D01*
X9294531Y-25297933D02*
X9294531Y-25250314D01*
X9294531Y-25250314D02*
X9304055Y-25212219D01*
X9304055Y-25212219D02*
X9313579Y-25193172D01*
X9313579Y-25193172D02*
X9323102Y-25183648D01*
X9323102Y-25183648D02*
X9342150Y-25174124D01*
X9599293Y-25374124D02*
X9485007Y-25374124D01*
X9542150Y-25374124D02*
X9542150Y-25174124D01*
X9542150Y-25174124D02*
X9523102Y-25202695D01*
X9523102Y-25202695D02*
X9504055Y-25221743D01*
X9504055Y-25221743D02*
X9485007Y-25231267D01*
X9789769Y-25374124D02*
X9675483Y-25374124D01*
X9732626Y-25374124D02*
X9732626Y-25174124D01*
X9732626Y-25174124D02*
X9713579Y-25202695D01*
X9713579Y-25202695D02*
X9694531Y-25221743D01*
X9694531Y-25221743D02*
X9675483Y-25231267D01*
X9904055Y-25259838D02*
X9885007Y-25250314D01*
X9885007Y-25250314D02*
X9875483Y-25240791D01*
X9875483Y-25240791D02*
X9865960Y-25221743D01*
X9865960Y-25221743D02*
X9865960Y-25212219D01*
X9865960Y-25212219D02*
X9875483Y-25193172D01*
X9875483Y-25193172D02*
X9885007Y-25183648D01*
X9885007Y-25183648D02*
X9904055Y-25174124D01*
X9904055Y-25174124D02*
X9942150Y-25174124D01*
X9942150Y-25174124D02*
X9961198Y-25183648D01*
X9961198Y-25183648D02*
X9970722Y-25193172D01*
X9970722Y-25193172D02*
X9980245Y-25212219D01*
X9980245Y-25212219D02*
X9980245Y-25221743D01*
X9980245Y-25221743D02*
X9970722Y-25240791D01*
X9970722Y-25240791D02*
X9961198Y-25250314D01*
X9961198Y-25250314D02*
X9942150Y-25259838D01*
X9942150Y-25259838D02*
X9904055Y-25259838D01*
X9904055Y-25259838D02*
X9885007Y-25269362D01*
X9885007Y-25269362D02*
X9875483Y-25278886D01*
X9875483Y-25278886D02*
X9865960Y-25297933D01*
X9865960Y-25297933D02*
X9865960Y-25336029D01*
X9865960Y-25336029D02*
X9875483Y-25355076D01*
X9875483Y-25355076D02*
X9885007Y-25364600D01*
X9885007Y-25364600D02*
X9904055Y-25374124D01*
X9904055Y-25374124D02*
X9942150Y-25374124D01*
X9942150Y-25374124D02*
X9961198Y-25364600D01*
X9961198Y-25364600D02*
X9970722Y-25355076D01*
X9970722Y-25355076D02*
X9980245Y-25336029D01*
X9980245Y-25336029D02*
X9980245Y-25297933D01*
X9980245Y-25297933D02*
X9970722Y-25278886D01*
X9970722Y-25278886D02*
X9961198Y-25269362D01*
X9961198Y-25269362D02*
X9942150Y-25259838D01*
X10056436Y-25174124D02*
X10056436Y-25212219D01*
X10132626Y-25174124D02*
X10132626Y-25212219D01*
X10427865Y-25450314D02*
X10418341Y-25440791D01*
X10418341Y-25440791D02*
X10399293Y-25412219D01*
X10399293Y-25412219D02*
X10389769Y-25393172D01*
X10389769Y-25393172D02*
X10380245Y-25364600D01*
X10380245Y-25364600D02*
X10370722Y-25316981D01*
X10370722Y-25316981D02*
X10370722Y-25278886D01*
X10370722Y-25278886D02*
X10380245Y-25231267D01*
X10380245Y-25231267D02*
X10389769Y-25202695D01*
X10389769Y-25202695D02*
X10399293Y-25183648D01*
X10399293Y-25183648D02*
X10418341Y-25155076D01*
X10418341Y-25155076D02*
X10427865Y-25145552D01*
X10532626Y-25259838D02*
X10513579Y-25250314D01*
X10513579Y-25250314D02*
X10504055Y-25240791D01*
X10504055Y-25240791D02*
X10494531Y-25221743D01*
X10494531Y-25221743D02*
X10494531Y-25212219D01*
X10494531Y-25212219D02*
X10504055Y-25193172D01*
X10504055Y-25193172D02*
X10513579Y-25183648D01*
X10513579Y-25183648D02*
X10532626Y-25174124D01*
X10532626Y-25174124D02*
X10570722Y-25174124D01*
X10570722Y-25174124D02*
X10589769Y-25183648D01*
X10589769Y-25183648D02*
X10599293Y-25193172D01*
X10599293Y-25193172D02*
X10608817Y-25212219D01*
X10608817Y-25212219D02*
X10608817Y-25221743D01*
X10608817Y-25221743D02*
X10599293Y-25240791D01*
X10599293Y-25240791D02*
X10589769Y-25250314D01*
X10589769Y-25250314D02*
X10570722Y-25259838D01*
X10570722Y-25259838D02*
X10532626Y-25259838D01*
X10532626Y-25259838D02*
X10513579Y-25269362D01*
X10513579Y-25269362D02*
X10504055Y-25278886D01*
X10504055Y-25278886D02*
X10494531Y-25297933D01*
X10494531Y-25297933D02*
X10494531Y-25336029D01*
X10494531Y-25336029D02*
X10504055Y-25355076D01*
X10504055Y-25355076D02*
X10513579Y-25364600D01*
X10513579Y-25364600D02*
X10532626Y-25374124D01*
X10532626Y-25374124D02*
X10570722Y-25374124D01*
X10570722Y-25374124D02*
X10589769Y-25364600D01*
X10589769Y-25364600D02*
X10599293Y-25355076D01*
X10599293Y-25355076D02*
X10608817Y-25336029D01*
X10608817Y-25336029D02*
X10608817Y-25297933D01*
X10608817Y-25297933D02*
X10599293Y-25278886D01*
X10599293Y-25278886D02*
X10589769Y-25269362D01*
X10589769Y-25269362D02*
X10570722Y-25259838D01*
X10732626Y-25174124D02*
X10751674Y-25174124D01*
X10751674Y-25174124D02*
X10770722Y-25183648D01*
X10770722Y-25183648D02*
X10780245Y-25193172D01*
X10780245Y-25193172D02*
X10789769Y-25212219D01*
X10789769Y-25212219D02*
X10799293Y-25250314D01*
X10799293Y-25250314D02*
X10799293Y-25297933D01*
X10799293Y-25297933D02*
X10789769Y-25336029D01*
X10789769Y-25336029D02*
X10780245Y-25355076D01*
X10780245Y-25355076D02*
X10770722Y-25364600D01*
X10770722Y-25364600D02*
X10751674Y-25374124D01*
X10751674Y-25374124D02*
X10732626Y-25374124D01*
X10732626Y-25374124D02*
X10713579Y-25364600D01*
X10713579Y-25364600D02*
X10704055Y-25355076D01*
X10704055Y-25355076D02*
X10694531Y-25336029D01*
X10694531Y-25336029D02*
X10685007Y-25297933D01*
X10685007Y-25297933D02*
X10685007Y-25250314D01*
X10685007Y-25250314D02*
X10694531Y-25212219D01*
X10694531Y-25212219D02*
X10704055Y-25193172D01*
X10704055Y-25193172D02*
X10713579Y-25183648D01*
X10713579Y-25183648D02*
X10732626Y-25174124D01*
X11037388Y-25374124D02*
X11037388Y-25174124D01*
X11123103Y-25374124D02*
X11123103Y-25269362D01*
X11123103Y-25269362D02*
X11113579Y-25250314D01*
X11113579Y-25250314D02*
X11094531Y-25240791D01*
X11094531Y-25240791D02*
X11065960Y-25240791D01*
X11065960Y-25240791D02*
X11046912Y-25250314D01*
X11046912Y-25250314D02*
X11037388Y-25259838D01*
X11246912Y-25374124D02*
X11227864Y-25364600D01*
X11227864Y-25364600D02*
X11218341Y-25355076D01*
X11218341Y-25355076D02*
X11208817Y-25336029D01*
X11208817Y-25336029D02*
X11208817Y-25278886D01*
X11208817Y-25278886D02*
X11218341Y-25259838D01*
X11218341Y-25259838D02*
X11227864Y-25250314D01*
X11227864Y-25250314D02*
X11246912Y-25240791D01*
X11246912Y-25240791D02*
X11275484Y-25240791D01*
X11275484Y-25240791D02*
X11294531Y-25250314D01*
X11294531Y-25250314D02*
X11304055Y-25259838D01*
X11304055Y-25259838D02*
X11313579Y-25278886D01*
X11313579Y-25278886D02*
X11313579Y-25336029D01*
X11313579Y-25336029D02*
X11304055Y-25355076D01*
X11304055Y-25355076D02*
X11294531Y-25364600D01*
X11294531Y-25364600D02*
X11275484Y-25374124D01*
X11275484Y-25374124D02*
X11246912Y-25374124D01*
X11427864Y-25374124D02*
X11408817Y-25364600D01*
X11408817Y-25364600D02*
X11399293Y-25345552D01*
X11399293Y-25345552D02*
X11399293Y-25174124D01*
X11580245Y-25364600D02*
X11561198Y-25374124D01*
X11561198Y-25374124D02*
X11523103Y-25374124D01*
X11523103Y-25374124D02*
X11504055Y-25364600D01*
X11504055Y-25364600D02*
X11494531Y-25345552D01*
X11494531Y-25345552D02*
X11494531Y-25269362D01*
X11494531Y-25269362D02*
X11504055Y-25250314D01*
X11504055Y-25250314D02*
X11523103Y-25240791D01*
X11523103Y-25240791D02*
X11561198Y-25240791D01*
X11561198Y-25240791D02*
X11580245Y-25250314D01*
X11580245Y-25250314D02*
X11589769Y-25269362D01*
X11589769Y-25269362D02*
X11589769Y-25288410D01*
X11589769Y-25288410D02*
X11494531Y-25307457D01*
X11665960Y-25364600D02*
X11685007Y-25374124D01*
X11685007Y-25374124D02*
X11723103Y-25374124D01*
X11723103Y-25374124D02*
X11742150Y-25364600D01*
X11742150Y-25364600D02*
X11751674Y-25345552D01*
X11751674Y-25345552D02*
X11751674Y-25336029D01*
X11751674Y-25336029D02*
X11742150Y-25316981D01*
X11742150Y-25316981D02*
X11723103Y-25307457D01*
X11723103Y-25307457D02*
X11694531Y-25307457D01*
X11694531Y-25307457D02*
X11675484Y-25297933D01*
X11675484Y-25297933D02*
X11665960Y-25278886D01*
X11665960Y-25278886D02*
X11665960Y-25269362D01*
X11665960Y-25269362D02*
X11675484Y-25250314D01*
X11675484Y-25250314D02*
X11694531Y-25240791D01*
X11694531Y-25240791D02*
X11723103Y-25240791D01*
X11723103Y-25240791D02*
X11742150Y-25250314D01*
X11818341Y-25450314D02*
X11827865Y-25440791D01*
X11827865Y-25440791D02*
X11846912Y-25412219D01*
X11846912Y-25412219D02*
X11856436Y-25393172D01*
X11856436Y-25393172D02*
X11865960Y-25364600D01*
X11865960Y-25364600D02*
X11875484Y-25316981D01*
X11875484Y-25316981D02*
X11875484Y-25278886D01*
X11875484Y-25278886D02*
X11865960Y-25231267D01*
X11865960Y-25231267D02*
X11856436Y-25202695D01*
X11856436Y-25202695D02*
X11846912Y-25183648D01*
X11846912Y-25183648D02*
X11827865Y-25155076D01*
X11827865Y-25155076D02*
X11818341Y-25145552D01*
D12*
X6814702Y-25508540D02*
X6814702Y-25584740D01*
X6776602Y-25546640D02*
X6852802Y-25546640D01*
D11*
X7151674Y-25438124D02*
X7170721Y-25438124D01*
X7170721Y-25438124D02*
X7189769Y-25447648D01*
X7189769Y-25447648D02*
X7199293Y-25457172D01*
X7199293Y-25457172D02*
X7208816Y-25476219D01*
X7208816Y-25476219D02*
X7218340Y-25514314D01*
X7218340Y-25514314D02*
X7218340Y-25561933D01*
X7218340Y-25561933D02*
X7208816Y-25600029D01*
X7208816Y-25600029D02*
X7199293Y-25619076D01*
X7199293Y-25619076D02*
X7189769Y-25628600D01*
X7189769Y-25628600D02*
X7170721Y-25638124D01*
X7170721Y-25638124D02*
X7151674Y-25638124D01*
X7151674Y-25638124D02*
X7132626Y-25628600D01*
X7132626Y-25628600D02*
X7123102Y-25619076D01*
X7123102Y-25619076D02*
X7113578Y-25600029D01*
X7113578Y-25600029D02*
X7104055Y-25561933D01*
X7104055Y-25561933D02*
X7104055Y-25514314D01*
X7104055Y-25514314D02*
X7113578Y-25476219D01*
X7113578Y-25476219D02*
X7123102Y-25457172D01*
X7123102Y-25457172D02*
X7132626Y-25447648D01*
X7132626Y-25447648D02*
X7151674Y-25438124D01*
X7304055Y-25619076D02*
X7313578Y-25628600D01*
X7313578Y-25628600D02*
X7304055Y-25638124D01*
X7304055Y-25638124D02*
X7294531Y-25628600D01*
X7294531Y-25628600D02*
X7304055Y-25619076D01*
X7304055Y-25619076D02*
X7304055Y-25638124D01*
X7380245Y-25438124D02*
X7513578Y-25438124D01*
X7513578Y-25438124D02*
X7427864Y-25638124D01*
X7675483Y-25438124D02*
X7637388Y-25438124D01*
X7637388Y-25438124D02*
X7618340Y-25447648D01*
X7618340Y-25447648D02*
X7608816Y-25457172D01*
X7608816Y-25457172D02*
X7589769Y-25485743D01*
X7589769Y-25485743D02*
X7580245Y-25523838D01*
X7580245Y-25523838D02*
X7580245Y-25600029D01*
X7580245Y-25600029D02*
X7589769Y-25619076D01*
X7589769Y-25619076D02*
X7599293Y-25628600D01*
X7599293Y-25628600D02*
X7618340Y-25638124D01*
X7618340Y-25638124D02*
X7656436Y-25638124D01*
X7656436Y-25638124D02*
X7675483Y-25628600D01*
X7675483Y-25628600D02*
X7685007Y-25619076D01*
X7685007Y-25619076D02*
X7694531Y-25600029D01*
X7694531Y-25600029D02*
X7694531Y-25552410D01*
X7694531Y-25552410D02*
X7685007Y-25533362D01*
X7685007Y-25533362D02*
X7675483Y-25523838D01*
X7675483Y-25523838D02*
X7656436Y-25514314D01*
X7656436Y-25514314D02*
X7618340Y-25514314D01*
X7618340Y-25514314D02*
X7599293Y-25523838D01*
X7599293Y-25523838D02*
X7589769Y-25533362D01*
X7589769Y-25533362D02*
X7580245Y-25552410D01*
X7770721Y-25457172D02*
X7780245Y-25447648D01*
X7780245Y-25447648D02*
X7799293Y-25438124D01*
X7799293Y-25438124D02*
X7846912Y-25438124D01*
X7846912Y-25438124D02*
X7865959Y-25447648D01*
X7865959Y-25447648D02*
X7875483Y-25457172D01*
X7875483Y-25457172D02*
X7885007Y-25476219D01*
X7885007Y-25476219D02*
X7885007Y-25495267D01*
X7885007Y-25495267D02*
X7875483Y-25523838D01*
X7875483Y-25523838D02*
X7761197Y-25638124D01*
X7761197Y-25638124D02*
X7885007Y-25638124D01*
X7970721Y-25638124D02*
X7970721Y-25504791D01*
X7970721Y-25523838D02*
X7980245Y-25514314D01*
X7980245Y-25514314D02*
X7999293Y-25504791D01*
X7999293Y-25504791D02*
X8027864Y-25504791D01*
X8027864Y-25504791D02*
X8046912Y-25514314D01*
X8046912Y-25514314D02*
X8056436Y-25533362D01*
X8056436Y-25533362D02*
X8056436Y-25638124D01*
X8056436Y-25533362D02*
X8065959Y-25514314D01*
X8065959Y-25514314D02*
X8085007Y-25504791D01*
X8085007Y-25504791D02*
X8113578Y-25504791D01*
X8113578Y-25504791D02*
X8132626Y-25514314D01*
X8132626Y-25514314D02*
X8142150Y-25533362D01*
X8142150Y-25533362D02*
X8142150Y-25638124D01*
X8237388Y-25638124D02*
X8237388Y-25504791D01*
X8237388Y-25523838D02*
X8246912Y-25514314D01*
X8246912Y-25514314D02*
X8265959Y-25504791D01*
X8265959Y-25504791D02*
X8294531Y-25504791D01*
X8294531Y-25504791D02*
X8313578Y-25514314D01*
X8313578Y-25514314D02*
X8323102Y-25533362D01*
X8323102Y-25533362D02*
X8323102Y-25638124D01*
X8323102Y-25533362D02*
X8332626Y-25514314D01*
X8332626Y-25514314D02*
X8351674Y-25504791D01*
X8351674Y-25504791D02*
X8380245Y-25504791D01*
X8380245Y-25504791D02*
X8399293Y-25514314D01*
X8399293Y-25514314D02*
X8408817Y-25533362D01*
X8408817Y-25533362D02*
X8408817Y-25638124D01*
X8799293Y-25428600D02*
X8627864Y-25685743D01*
X9056436Y-25438124D02*
X9075483Y-25438124D01*
X9075483Y-25438124D02*
X9094531Y-25447648D01*
X9094531Y-25447648D02*
X9104055Y-25457172D01*
X9104055Y-25457172D02*
X9113579Y-25476219D01*
X9113579Y-25476219D02*
X9123102Y-25514314D01*
X9123102Y-25514314D02*
X9123102Y-25561933D01*
X9123102Y-25561933D02*
X9113579Y-25600029D01*
X9113579Y-25600029D02*
X9104055Y-25619076D01*
X9104055Y-25619076D02*
X9094531Y-25628600D01*
X9094531Y-25628600D02*
X9075483Y-25638124D01*
X9075483Y-25638124D02*
X9056436Y-25638124D01*
X9056436Y-25638124D02*
X9037388Y-25628600D01*
X9037388Y-25628600D02*
X9027864Y-25619076D01*
X9027864Y-25619076D02*
X9018341Y-25600029D01*
X9018341Y-25600029D02*
X9008817Y-25561933D01*
X9008817Y-25561933D02*
X9008817Y-25514314D01*
X9008817Y-25514314D02*
X9018341Y-25476219D01*
X9018341Y-25476219D02*
X9027864Y-25457172D01*
X9027864Y-25457172D02*
X9037388Y-25447648D01*
X9037388Y-25447648D02*
X9056436Y-25438124D01*
X9208817Y-25619076D02*
X9218341Y-25628600D01*
X9218341Y-25628600D02*
X9208817Y-25638124D01*
X9208817Y-25638124D02*
X9199293Y-25628600D01*
X9199293Y-25628600D02*
X9208817Y-25619076D01*
X9208817Y-25619076D02*
X9208817Y-25638124D01*
X9342150Y-25438124D02*
X9361198Y-25438124D01*
X9361198Y-25438124D02*
X9380245Y-25447648D01*
X9380245Y-25447648D02*
X9389769Y-25457172D01*
X9389769Y-25457172D02*
X9399293Y-25476219D01*
X9399293Y-25476219D02*
X9408817Y-25514314D01*
X9408817Y-25514314D02*
X9408817Y-25561933D01*
X9408817Y-25561933D02*
X9399293Y-25600029D01*
X9399293Y-25600029D02*
X9389769Y-25619076D01*
X9389769Y-25619076D02*
X9380245Y-25628600D01*
X9380245Y-25628600D02*
X9361198Y-25638124D01*
X9361198Y-25638124D02*
X9342150Y-25638124D01*
X9342150Y-25638124D02*
X9323102Y-25628600D01*
X9323102Y-25628600D02*
X9313579Y-25619076D01*
X9313579Y-25619076D02*
X9304055Y-25600029D01*
X9304055Y-25600029D02*
X9294531Y-25561933D01*
X9294531Y-25561933D02*
X9294531Y-25514314D01*
X9294531Y-25514314D02*
X9304055Y-25476219D01*
X9304055Y-25476219D02*
X9313579Y-25457172D01*
X9313579Y-25457172D02*
X9323102Y-25447648D01*
X9323102Y-25447648D02*
X9342150Y-25438124D01*
X9475483Y-25438124D02*
X9599293Y-25438124D01*
X9599293Y-25438124D02*
X9532626Y-25514314D01*
X9532626Y-25514314D02*
X9561198Y-25514314D01*
X9561198Y-25514314D02*
X9580245Y-25523838D01*
X9580245Y-25523838D02*
X9589769Y-25533362D01*
X9589769Y-25533362D02*
X9599293Y-25552410D01*
X9599293Y-25552410D02*
X9599293Y-25600029D01*
X9599293Y-25600029D02*
X9589769Y-25619076D01*
X9589769Y-25619076D02*
X9580245Y-25628600D01*
X9580245Y-25628600D02*
X9561198Y-25638124D01*
X9561198Y-25638124D02*
X9504055Y-25638124D01*
X9504055Y-25638124D02*
X9485007Y-25628600D01*
X9485007Y-25628600D02*
X9475483Y-25619076D01*
X9723102Y-25438124D02*
X9742150Y-25438124D01*
X9742150Y-25438124D02*
X9761198Y-25447648D01*
X9761198Y-25447648D02*
X9770722Y-25457172D01*
X9770722Y-25457172D02*
X9780245Y-25476219D01*
X9780245Y-25476219D02*
X9789769Y-25514314D01*
X9789769Y-25514314D02*
X9789769Y-25561933D01*
X9789769Y-25561933D02*
X9780245Y-25600029D01*
X9780245Y-25600029D02*
X9770722Y-25619076D01*
X9770722Y-25619076D02*
X9761198Y-25628600D01*
X9761198Y-25628600D02*
X9742150Y-25638124D01*
X9742150Y-25638124D02*
X9723102Y-25638124D01*
X9723102Y-25638124D02*
X9704055Y-25628600D01*
X9704055Y-25628600D02*
X9694531Y-25619076D01*
X9694531Y-25619076D02*
X9685007Y-25600029D01*
X9685007Y-25600029D02*
X9675483Y-25561933D01*
X9675483Y-25561933D02*
X9675483Y-25514314D01*
X9675483Y-25514314D02*
X9685007Y-25476219D01*
X9685007Y-25476219D02*
X9694531Y-25457172D01*
X9694531Y-25457172D02*
X9704055Y-25447648D01*
X9704055Y-25447648D02*
X9723102Y-25438124D01*
X9913579Y-25438124D02*
X9932626Y-25438124D01*
X9932626Y-25438124D02*
X9951674Y-25447648D01*
X9951674Y-25447648D02*
X9961198Y-25457172D01*
X9961198Y-25457172D02*
X9970722Y-25476219D01*
X9970722Y-25476219D02*
X9980245Y-25514314D01*
X9980245Y-25514314D02*
X9980245Y-25561933D01*
X9980245Y-25561933D02*
X9970722Y-25600029D01*
X9970722Y-25600029D02*
X9961198Y-25619076D01*
X9961198Y-25619076D02*
X9951674Y-25628600D01*
X9951674Y-25628600D02*
X9932626Y-25638124D01*
X9932626Y-25638124D02*
X9913579Y-25638124D01*
X9913579Y-25638124D02*
X9894531Y-25628600D01*
X9894531Y-25628600D02*
X9885007Y-25619076D01*
X9885007Y-25619076D02*
X9875483Y-25600029D01*
X9875483Y-25600029D02*
X9865960Y-25561933D01*
X9865960Y-25561933D02*
X9865960Y-25514314D01*
X9865960Y-25514314D02*
X9875483Y-25476219D01*
X9875483Y-25476219D02*
X9885007Y-25457172D01*
X9885007Y-25457172D02*
X9894531Y-25447648D01*
X9894531Y-25447648D02*
X9913579Y-25438124D01*
X10056436Y-25438124D02*
X10056436Y-25476219D01*
X10132626Y-25438124D02*
X10132626Y-25476219D01*
X10427865Y-25714314D02*
X10418341Y-25704791D01*
X10418341Y-25704791D02*
X10399293Y-25676219D01*
X10399293Y-25676219D02*
X10389769Y-25657172D01*
X10389769Y-25657172D02*
X10380245Y-25628600D01*
X10380245Y-25628600D02*
X10370722Y-25580981D01*
X10370722Y-25580981D02*
X10370722Y-25542886D01*
X10370722Y-25542886D02*
X10380245Y-25495267D01*
X10380245Y-25495267D02*
X10389769Y-25466695D01*
X10389769Y-25466695D02*
X10399293Y-25447648D01*
X10399293Y-25447648D02*
X10418341Y-25419076D01*
X10418341Y-25419076D02*
X10427865Y-25409552D01*
X10589769Y-25504791D02*
X10589769Y-25638124D01*
X10542150Y-25428600D02*
X10494531Y-25571457D01*
X10494531Y-25571457D02*
X10618341Y-25571457D01*
X10846912Y-25638124D02*
X10846912Y-25438124D01*
X10932626Y-25638124D02*
X10932626Y-25533362D01*
X10932626Y-25533362D02*
X10923103Y-25514314D01*
X10923103Y-25514314D02*
X10904055Y-25504791D01*
X10904055Y-25504791D02*
X10875484Y-25504791D01*
X10875484Y-25504791D02*
X10856436Y-25514314D01*
X10856436Y-25514314D02*
X10846912Y-25523838D01*
X11056436Y-25638124D02*
X11037388Y-25628600D01*
X11037388Y-25628600D02*
X11027865Y-25619076D01*
X11027865Y-25619076D02*
X11018341Y-25600029D01*
X11018341Y-25600029D02*
X11018341Y-25542886D01*
X11018341Y-25542886D02*
X11027865Y-25523838D01*
X11027865Y-25523838D02*
X11037388Y-25514314D01*
X11037388Y-25514314D02*
X11056436Y-25504791D01*
X11056436Y-25504791D02*
X11085007Y-25504791D01*
X11085007Y-25504791D02*
X11104055Y-25514314D01*
X11104055Y-25514314D02*
X11113579Y-25523838D01*
X11113579Y-25523838D02*
X11123103Y-25542886D01*
X11123103Y-25542886D02*
X11123103Y-25600029D01*
X11123103Y-25600029D02*
X11113579Y-25619076D01*
X11113579Y-25619076D02*
X11104055Y-25628600D01*
X11104055Y-25628600D02*
X11085007Y-25638124D01*
X11085007Y-25638124D02*
X11056436Y-25638124D01*
X11237388Y-25638124D02*
X11218341Y-25628600D01*
X11218341Y-25628600D02*
X11208817Y-25609552D01*
X11208817Y-25609552D02*
X11208817Y-25438124D01*
X11389769Y-25628600D02*
X11370722Y-25638124D01*
X11370722Y-25638124D02*
X11332626Y-25638124D01*
X11332626Y-25638124D02*
X11313579Y-25628600D01*
X11313579Y-25628600D02*
X11304055Y-25609552D01*
X11304055Y-25609552D02*
X11304055Y-25533362D01*
X11304055Y-25533362D02*
X11313579Y-25514314D01*
X11313579Y-25514314D02*
X11332626Y-25504791D01*
X11332626Y-25504791D02*
X11370722Y-25504791D01*
X11370722Y-25504791D02*
X11389769Y-25514314D01*
X11389769Y-25514314D02*
X11399293Y-25533362D01*
X11399293Y-25533362D02*
X11399293Y-25552410D01*
X11399293Y-25552410D02*
X11304055Y-25571457D01*
X11475484Y-25628600D02*
X11494531Y-25638124D01*
X11494531Y-25638124D02*
X11532626Y-25638124D01*
X11532626Y-25638124D02*
X11551674Y-25628600D01*
X11551674Y-25628600D02*
X11561198Y-25609552D01*
X11561198Y-25609552D02*
X11561198Y-25600029D01*
X11561198Y-25600029D02*
X11551674Y-25580981D01*
X11551674Y-25580981D02*
X11532626Y-25571457D01*
X11532626Y-25571457D02*
X11504055Y-25571457D01*
X11504055Y-25571457D02*
X11485007Y-25561933D01*
X11485007Y-25561933D02*
X11475484Y-25542886D01*
X11475484Y-25542886D02*
X11475484Y-25533362D01*
X11475484Y-25533362D02*
X11485007Y-25514314D01*
X11485007Y-25514314D02*
X11504055Y-25504791D01*
X11504055Y-25504791D02*
X11532626Y-25504791D01*
X11532626Y-25504791D02*
X11551674Y-25514314D01*
X11627865Y-25714314D02*
X11637388Y-25704791D01*
X11637388Y-25704791D02*
X11656436Y-25676219D01*
X11656436Y-25676219D02*
X11665960Y-25657172D01*
X11665960Y-25657172D02*
X11675484Y-25628600D01*
X11675484Y-25628600D02*
X11685007Y-25580981D01*
X11685007Y-25580981D02*
X11685007Y-25542886D01*
X11685007Y-25542886D02*
X11675484Y-25495267D01*
X11675484Y-25495267D02*
X11665960Y-25466695D01*
X11665960Y-25466695D02*
X11656436Y-25447648D01*
X11656436Y-25447648D02*
X11637388Y-25419076D01*
X11637388Y-25419076D02*
X11627865Y-25409552D01*
D12*
X6841086Y-25838925D02*
X6841086Y-25782356D01*
X6784517Y-25782356D01*
X6784517Y-25838925D01*
X6841086Y-25838925D01*
D11*
X7151674Y-25702124D02*
X7170721Y-25702124D01*
X7170721Y-25702124D02*
X7189769Y-25711648D01*
X7189769Y-25711648D02*
X7199293Y-25721172D01*
X7199293Y-25721172D02*
X7208816Y-25740219D01*
X7208816Y-25740219D02*
X7218340Y-25778314D01*
X7218340Y-25778314D02*
X7218340Y-25825933D01*
X7218340Y-25825933D02*
X7208816Y-25864029D01*
X7208816Y-25864029D02*
X7199293Y-25883076D01*
X7199293Y-25883076D02*
X7189769Y-25892600D01*
X7189769Y-25892600D02*
X7170721Y-25902124D01*
X7170721Y-25902124D02*
X7151674Y-25902124D01*
X7151674Y-25902124D02*
X7132626Y-25892600D01*
X7132626Y-25892600D02*
X7123102Y-25883076D01*
X7123102Y-25883076D02*
X7113578Y-25864029D01*
X7113578Y-25864029D02*
X7104055Y-25825933D01*
X7104055Y-25825933D02*
X7104055Y-25778314D01*
X7104055Y-25778314D02*
X7113578Y-25740219D01*
X7113578Y-25740219D02*
X7123102Y-25721172D01*
X7123102Y-25721172D02*
X7132626Y-25711648D01*
X7132626Y-25711648D02*
X7151674Y-25702124D01*
X7304055Y-25883076D02*
X7313578Y-25892600D01*
X7313578Y-25892600D02*
X7304055Y-25902124D01*
X7304055Y-25902124D02*
X7294531Y-25892600D01*
X7294531Y-25892600D02*
X7304055Y-25883076D01*
X7304055Y-25883076D02*
X7304055Y-25902124D01*
X7427864Y-25787838D02*
X7408816Y-25778314D01*
X7408816Y-25778314D02*
X7399293Y-25768791D01*
X7399293Y-25768791D02*
X7389769Y-25749743D01*
X7389769Y-25749743D02*
X7389769Y-25740219D01*
X7389769Y-25740219D02*
X7399293Y-25721172D01*
X7399293Y-25721172D02*
X7408816Y-25711648D01*
X7408816Y-25711648D02*
X7427864Y-25702124D01*
X7427864Y-25702124D02*
X7465959Y-25702124D01*
X7465959Y-25702124D02*
X7485007Y-25711648D01*
X7485007Y-25711648D02*
X7494531Y-25721172D01*
X7494531Y-25721172D02*
X7504055Y-25740219D01*
X7504055Y-25740219D02*
X7504055Y-25749743D01*
X7504055Y-25749743D02*
X7494531Y-25768791D01*
X7494531Y-25768791D02*
X7485007Y-25778314D01*
X7485007Y-25778314D02*
X7465959Y-25787838D01*
X7465959Y-25787838D02*
X7427864Y-25787838D01*
X7427864Y-25787838D02*
X7408816Y-25797362D01*
X7408816Y-25797362D02*
X7399293Y-25806886D01*
X7399293Y-25806886D02*
X7389769Y-25825933D01*
X7389769Y-25825933D02*
X7389769Y-25864029D01*
X7389769Y-25864029D02*
X7399293Y-25883076D01*
X7399293Y-25883076D02*
X7408816Y-25892600D01*
X7408816Y-25892600D02*
X7427864Y-25902124D01*
X7427864Y-25902124D02*
X7465959Y-25902124D01*
X7465959Y-25902124D02*
X7485007Y-25892600D01*
X7485007Y-25892600D02*
X7494531Y-25883076D01*
X7494531Y-25883076D02*
X7504055Y-25864029D01*
X7504055Y-25864029D02*
X7504055Y-25825933D01*
X7504055Y-25825933D02*
X7494531Y-25806886D01*
X7494531Y-25806886D02*
X7485007Y-25797362D01*
X7485007Y-25797362D02*
X7465959Y-25787838D01*
X7627864Y-25702124D02*
X7646912Y-25702124D01*
X7646912Y-25702124D02*
X7665959Y-25711648D01*
X7665959Y-25711648D02*
X7675483Y-25721172D01*
X7675483Y-25721172D02*
X7685007Y-25740219D01*
X7685007Y-25740219D02*
X7694531Y-25778314D01*
X7694531Y-25778314D02*
X7694531Y-25825933D01*
X7694531Y-25825933D02*
X7685007Y-25864029D01*
X7685007Y-25864029D02*
X7675483Y-25883076D01*
X7675483Y-25883076D02*
X7665959Y-25892600D01*
X7665959Y-25892600D02*
X7646912Y-25902124D01*
X7646912Y-25902124D02*
X7627864Y-25902124D01*
X7627864Y-25902124D02*
X7608816Y-25892600D01*
X7608816Y-25892600D02*
X7599293Y-25883076D01*
X7599293Y-25883076D02*
X7589769Y-25864029D01*
X7589769Y-25864029D02*
X7580245Y-25825933D01*
X7580245Y-25825933D02*
X7580245Y-25778314D01*
X7580245Y-25778314D02*
X7589769Y-25740219D01*
X7589769Y-25740219D02*
X7599293Y-25721172D01*
X7599293Y-25721172D02*
X7608816Y-25711648D01*
X7608816Y-25711648D02*
X7627864Y-25702124D01*
X7818340Y-25702124D02*
X7837388Y-25702124D01*
X7837388Y-25702124D02*
X7856436Y-25711648D01*
X7856436Y-25711648D02*
X7865959Y-25721172D01*
X7865959Y-25721172D02*
X7875483Y-25740219D01*
X7875483Y-25740219D02*
X7885007Y-25778314D01*
X7885007Y-25778314D02*
X7885007Y-25825933D01*
X7885007Y-25825933D02*
X7875483Y-25864029D01*
X7875483Y-25864029D02*
X7865959Y-25883076D01*
X7865959Y-25883076D02*
X7856436Y-25892600D01*
X7856436Y-25892600D02*
X7837388Y-25902124D01*
X7837388Y-25902124D02*
X7818340Y-25902124D01*
X7818340Y-25902124D02*
X7799293Y-25892600D01*
X7799293Y-25892600D02*
X7789769Y-25883076D01*
X7789769Y-25883076D02*
X7780245Y-25864029D01*
X7780245Y-25864029D02*
X7770721Y-25825933D01*
X7770721Y-25825933D02*
X7770721Y-25778314D01*
X7770721Y-25778314D02*
X7780245Y-25740219D01*
X7780245Y-25740219D02*
X7789769Y-25721172D01*
X7789769Y-25721172D02*
X7799293Y-25711648D01*
X7799293Y-25711648D02*
X7818340Y-25702124D01*
X7970721Y-25902124D02*
X7970721Y-25768791D01*
X7970721Y-25787838D02*
X7980245Y-25778314D01*
X7980245Y-25778314D02*
X7999293Y-25768791D01*
X7999293Y-25768791D02*
X8027864Y-25768791D01*
X8027864Y-25768791D02*
X8046912Y-25778314D01*
X8046912Y-25778314D02*
X8056436Y-25797362D01*
X8056436Y-25797362D02*
X8056436Y-25902124D01*
X8056436Y-25797362D02*
X8065959Y-25778314D01*
X8065959Y-25778314D02*
X8085007Y-25768791D01*
X8085007Y-25768791D02*
X8113578Y-25768791D01*
X8113578Y-25768791D02*
X8132626Y-25778314D01*
X8132626Y-25778314D02*
X8142150Y-25797362D01*
X8142150Y-25797362D02*
X8142150Y-25902124D01*
X8237388Y-25902124D02*
X8237388Y-25768791D01*
X8237388Y-25787838D02*
X8246912Y-25778314D01*
X8246912Y-25778314D02*
X8265959Y-25768791D01*
X8265959Y-25768791D02*
X8294531Y-25768791D01*
X8294531Y-25768791D02*
X8313578Y-25778314D01*
X8313578Y-25778314D02*
X8323102Y-25797362D01*
X8323102Y-25797362D02*
X8323102Y-25902124D01*
X8323102Y-25797362D02*
X8332626Y-25778314D01*
X8332626Y-25778314D02*
X8351674Y-25768791D01*
X8351674Y-25768791D02*
X8380245Y-25768791D01*
X8380245Y-25768791D02*
X8399293Y-25778314D01*
X8399293Y-25778314D02*
X8408817Y-25797362D01*
X8408817Y-25797362D02*
X8408817Y-25902124D01*
X8799293Y-25692600D02*
X8627864Y-25949743D01*
X9056436Y-25702124D02*
X9075483Y-25702124D01*
X9075483Y-25702124D02*
X9094531Y-25711648D01*
X9094531Y-25711648D02*
X9104055Y-25721172D01*
X9104055Y-25721172D02*
X9113579Y-25740219D01*
X9113579Y-25740219D02*
X9123102Y-25778314D01*
X9123102Y-25778314D02*
X9123102Y-25825933D01*
X9123102Y-25825933D02*
X9113579Y-25864029D01*
X9113579Y-25864029D02*
X9104055Y-25883076D01*
X9104055Y-25883076D02*
X9094531Y-25892600D01*
X9094531Y-25892600D02*
X9075483Y-25902124D01*
X9075483Y-25902124D02*
X9056436Y-25902124D01*
X9056436Y-25902124D02*
X9037388Y-25892600D01*
X9037388Y-25892600D02*
X9027864Y-25883076D01*
X9027864Y-25883076D02*
X9018341Y-25864029D01*
X9018341Y-25864029D02*
X9008817Y-25825933D01*
X9008817Y-25825933D02*
X9008817Y-25778314D01*
X9008817Y-25778314D02*
X9018341Y-25740219D01*
X9018341Y-25740219D02*
X9027864Y-25721172D01*
X9027864Y-25721172D02*
X9037388Y-25711648D01*
X9037388Y-25711648D02*
X9056436Y-25702124D01*
X9208817Y-25883076D02*
X9218341Y-25892600D01*
X9218341Y-25892600D02*
X9208817Y-25902124D01*
X9208817Y-25902124D02*
X9199293Y-25892600D01*
X9199293Y-25892600D02*
X9208817Y-25883076D01*
X9208817Y-25883076D02*
X9208817Y-25902124D01*
X9342150Y-25702124D02*
X9361198Y-25702124D01*
X9361198Y-25702124D02*
X9380245Y-25711648D01*
X9380245Y-25711648D02*
X9389769Y-25721172D01*
X9389769Y-25721172D02*
X9399293Y-25740219D01*
X9399293Y-25740219D02*
X9408817Y-25778314D01*
X9408817Y-25778314D02*
X9408817Y-25825933D01*
X9408817Y-25825933D02*
X9399293Y-25864029D01*
X9399293Y-25864029D02*
X9389769Y-25883076D01*
X9389769Y-25883076D02*
X9380245Y-25892600D01*
X9380245Y-25892600D02*
X9361198Y-25902124D01*
X9361198Y-25902124D02*
X9342150Y-25902124D01*
X9342150Y-25902124D02*
X9323102Y-25892600D01*
X9323102Y-25892600D02*
X9313579Y-25883076D01*
X9313579Y-25883076D02*
X9304055Y-25864029D01*
X9304055Y-25864029D02*
X9294531Y-25825933D01*
X9294531Y-25825933D02*
X9294531Y-25778314D01*
X9294531Y-25778314D02*
X9304055Y-25740219D01*
X9304055Y-25740219D02*
X9313579Y-25721172D01*
X9313579Y-25721172D02*
X9323102Y-25711648D01*
X9323102Y-25711648D02*
X9342150Y-25702124D01*
X9475483Y-25702124D02*
X9599293Y-25702124D01*
X9599293Y-25702124D02*
X9532626Y-25778314D01*
X9532626Y-25778314D02*
X9561198Y-25778314D01*
X9561198Y-25778314D02*
X9580245Y-25787838D01*
X9580245Y-25787838D02*
X9589769Y-25797362D01*
X9589769Y-25797362D02*
X9599293Y-25816410D01*
X9599293Y-25816410D02*
X9599293Y-25864029D01*
X9599293Y-25864029D02*
X9589769Y-25883076D01*
X9589769Y-25883076D02*
X9580245Y-25892600D01*
X9580245Y-25892600D02*
X9561198Y-25902124D01*
X9561198Y-25902124D02*
X9504055Y-25902124D01*
X9504055Y-25902124D02*
X9485007Y-25892600D01*
X9485007Y-25892600D02*
X9475483Y-25883076D01*
X9789769Y-25902124D02*
X9675483Y-25902124D01*
X9732626Y-25902124D02*
X9732626Y-25702124D01*
X9732626Y-25702124D02*
X9713579Y-25730695D01*
X9713579Y-25730695D02*
X9694531Y-25749743D01*
X9694531Y-25749743D02*
X9675483Y-25759267D01*
X9970722Y-25702124D02*
X9875483Y-25702124D01*
X9875483Y-25702124D02*
X9865960Y-25797362D01*
X9865960Y-25797362D02*
X9875483Y-25787838D01*
X9875483Y-25787838D02*
X9894531Y-25778314D01*
X9894531Y-25778314D02*
X9942150Y-25778314D01*
X9942150Y-25778314D02*
X9961198Y-25787838D01*
X9961198Y-25787838D02*
X9970722Y-25797362D01*
X9970722Y-25797362D02*
X9980245Y-25816410D01*
X9980245Y-25816410D02*
X9980245Y-25864029D01*
X9980245Y-25864029D02*
X9970722Y-25883076D01*
X9970722Y-25883076D02*
X9961198Y-25892600D01*
X9961198Y-25892600D02*
X9942150Y-25902124D01*
X9942150Y-25902124D02*
X9894531Y-25902124D01*
X9894531Y-25902124D02*
X9875483Y-25892600D01*
X9875483Y-25892600D02*
X9865960Y-25883076D01*
X10056436Y-25702124D02*
X10056436Y-25740219D01*
X10132626Y-25702124D02*
X10132626Y-25740219D01*
X10427865Y-25978314D02*
X10418341Y-25968791D01*
X10418341Y-25968791D02*
X10399293Y-25940219D01*
X10399293Y-25940219D02*
X10389769Y-25921172D01*
X10389769Y-25921172D02*
X10380245Y-25892600D01*
X10380245Y-25892600D02*
X10370722Y-25844981D01*
X10370722Y-25844981D02*
X10370722Y-25806886D01*
X10370722Y-25806886D02*
X10380245Y-25759267D01*
X10380245Y-25759267D02*
X10389769Y-25730695D01*
X10389769Y-25730695D02*
X10399293Y-25711648D01*
X10399293Y-25711648D02*
X10418341Y-25683076D01*
X10418341Y-25683076D02*
X10427865Y-25673552D01*
X10589769Y-25768791D02*
X10589769Y-25902124D01*
X10542150Y-25692600D02*
X10494531Y-25835457D01*
X10494531Y-25835457D02*
X10618341Y-25835457D01*
X10732626Y-25702124D02*
X10751674Y-25702124D01*
X10751674Y-25702124D02*
X10770722Y-25711648D01*
X10770722Y-25711648D02*
X10780245Y-25721172D01*
X10780245Y-25721172D02*
X10789769Y-25740219D01*
X10789769Y-25740219D02*
X10799293Y-25778314D01*
X10799293Y-25778314D02*
X10799293Y-25825933D01*
X10799293Y-25825933D02*
X10789769Y-25864029D01*
X10789769Y-25864029D02*
X10780245Y-25883076D01*
X10780245Y-25883076D02*
X10770722Y-25892600D01*
X10770722Y-25892600D02*
X10751674Y-25902124D01*
X10751674Y-25902124D02*
X10732626Y-25902124D01*
X10732626Y-25902124D02*
X10713579Y-25892600D01*
X10713579Y-25892600D02*
X10704055Y-25883076D01*
X10704055Y-25883076D02*
X10694531Y-25864029D01*
X10694531Y-25864029D02*
X10685007Y-25825933D01*
X10685007Y-25825933D02*
X10685007Y-25778314D01*
X10685007Y-25778314D02*
X10694531Y-25740219D01*
X10694531Y-25740219D02*
X10704055Y-25721172D01*
X10704055Y-25721172D02*
X10713579Y-25711648D01*
X10713579Y-25711648D02*
X10732626Y-25702124D01*
X11037388Y-25902124D02*
X11037388Y-25702124D01*
X11123103Y-25902124D02*
X11123103Y-25797362D01*
X11123103Y-25797362D02*
X11113579Y-25778314D01*
X11113579Y-25778314D02*
X11094531Y-25768791D01*
X11094531Y-25768791D02*
X11065960Y-25768791D01*
X11065960Y-25768791D02*
X11046912Y-25778314D01*
X11046912Y-25778314D02*
X11037388Y-25787838D01*
X11246912Y-25902124D02*
X11227864Y-25892600D01*
X11227864Y-25892600D02*
X11218341Y-25883076D01*
X11218341Y-25883076D02*
X11208817Y-25864029D01*
X11208817Y-25864029D02*
X11208817Y-25806886D01*
X11208817Y-25806886D02*
X11218341Y-25787838D01*
X11218341Y-25787838D02*
X11227864Y-25778314D01*
X11227864Y-25778314D02*
X11246912Y-25768791D01*
X11246912Y-25768791D02*
X11275484Y-25768791D01*
X11275484Y-25768791D02*
X11294531Y-25778314D01*
X11294531Y-25778314D02*
X11304055Y-25787838D01*
X11304055Y-25787838D02*
X11313579Y-25806886D01*
X11313579Y-25806886D02*
X11313579Y-25864029D01*
X11313579Y-25864029D02*
X11304055Y-25883076D01*
X11304055Y-25883076D02*
X11294531Y-25892600D01*
X11294531Y-25892600D02*
X11275484Y-25902124D01*
X11275484Y-25902124D02*
X11246912Y-25902124D01*
X11427864Y-25902124D02*
X11408817Y-25892600D01*
X11408817Y-25892600D02*
X11399293Y-25873552D01*
X11399293Y-25873552D02*
X11399293Y-25702124D01*
X11580245Y-25892600D02*
X11561198Y-25902124D01*
X11561198Y-25902124D02*
X11523103Y-25902124D01*
X11523103Y-25902124D02*
X11504055Y-25892600D01*
X11504055Y-25892600D02*
X11494531Y-25873552D01*
X11494531Y-25873552D02*
X11494531Y-25797362D01*
X11494531Y-25797362D02*
X11504055Y-25778314D01*
X11504055Y-25778314D02*
X11523103Y-25768791D01*
X11523103Y-25768791D02*
X11561198Y-25768791D01*
X11561198Y-25768791D02*
X11580245Y-25778314D01*
X11580245Y-25778314D02*
X11589769Y-25797362D01*
X11589769Y-25797362D02*
X11589769Y-25816410D01*
X11589769Y-25816410D02*
X11494531Y-25835457D01*
X11665960Y-25892600D02*
X11685007Y-25902124D01*
X11685007Y-25902124D02*
X11723103Y-25902124D01*
X11723103Y-25902124D02*
X11742150Y-25892600D01*
X11742150Y-25892600D02*
X11751674Y-25873552D01*
X11751674Y-25873552D02*
X11751674Y-25864029D01*
X11751674Y-25864029D02*
X11742150Y-25844981D01*
X11742150Y-25844981D02*
X11723103Y-25835457D01*
X11723103Y-25835457D02*
X11694531Y-25835457D01*
X11694531Y-25835457D02*
X11675484Y-25825933D01*
X11675484Y-25825933D02*
X11665960Y-25806886D01*
X11665960Y-25806886D02*
X11665960Y-25797362D01*
X11665960Y-25797362D02*
X11675484Y-25778314D01*
X11675484Y-25778314D02*
X11694531Y-25768791D01*
X11694531Y-25768791D02*
X11723103Y-25768791D01*
X11723103Y-25768791D02*
X11742150Y-25778314D01*
X11818341Y-25978314D02*
X11827865Y-25968791D01*
X11827865Y-25968791D02*
X11846912Y-25940219D01*
X11846912Y-25940219D02*
X11856436Y-25921172D01*
X11856436Y-25921172D02*
X11865960Y-25892600D01*
X11865960Y-25892600D02*
X11875484Y-25844981D01*
X11875484Y-25844981D02*
X11875484Y-25806886D01*
X11875484Y-25806886D02*
X11865960Y-25759267D01*
X11865960Y-25759267D02*
X11856436Y-25730695D01*
X11856436Y-25730695D02*
X11846912Y-25711648D01*
X11846912Y-25711648D02*
X11827865Y-25683076D01*
X11827865Y-25683076D02*
X11818341Y-25673552D01*
D13*
X6798192Y-26129250D02*
X6852802Y-26074640D01*
X6798192Y-26020030D01*
X6743582Y-26074640D01*
X6798192Y-26129250D01*
D11*
X7218340Y-26166124D02*
X7104055Y-26166124D01*
X7161197Y-26166124D02*
X7161197Y-25966124D01*
X7161197Y-25966124D02*
X7142150Y-25994695D01*
X7142150Y-25994695D02*
X7123102Y-26013743D01*
X7123102Y-26013743D02*
X7104055Y-26023267D01*
X7304055Y-26147076D02*
X7313578Y-26156600D01*
X7313578Y-26156600D02*
X7304055Y-26166124D01*
X7304055Y-26166124D02*
X7294531Y-26156600D01*
X7294531Y-26156600D02*
X7304055Y-26147076D01*
X7304055Y-26147076D02*
X7304055Y-26166124D01*
X7437388Y-25966124D02*
X7456436Y-25966124D01*
X7456436Y-25966124D02*
X7475483Y-25975648D01*
X7475483Y-25975648D02*
X7485007Y-25985172D01*
X7485007Y-25985172D02*
X7494531Y-26004219D01*
X7494531Y-26004219D02*
X7504055Y-26042314D01*
X7504055Y-26042314D02*
X7504055Y-26089933D01*
X7504055Y-26089933D02*
X7494531Y-26128029D01*
X7494531Y-26128029D02*
X7485007Y-26147076D01*
X7485007Y-26147076D02*
X7475483Y-26156600D01*
X7475483Y-26156600D02*
X7456436Y-26166124D01*
X7456436Y-26166124D02*
X7437388Y-26166124D01*
X7437388Y-26166124D02*
X7418340Y-26156600D01*
X7418340Y-26156600D02*
X7408816Y-26147076D01*
X7408816Y-26147076D02*
X7399293Y-26128029D01*
X7399293Y-26128029D02*
X7389769Y-26089933D01*
X7389769Y-26089933D02*
X7389769Y-26042314D01*
X7389769Y-26042314D02*
X7399293Y-26004219D01*
X7399293Y-26004219D02*
X7408816Y-25985172D01*
X7408816Y-25985172D02*
X7418340Y-25975648D01*
X7418340Y-25975648D02*
X7437388Y-25966124D01*
X7599293Y-26166124D02*
X7637388Y-26166124D01*
X7637388Y-26166124D02*
X7656436Y-26156600D01*
X7656436Y-26156600D02*
X7665959Y-26147076D01*
X7665959Y-26147076D02*
X7685007Y-26118505D01*
X7685007Y-26118505D02*
X7694531Y-26080410D01*
X7694531Y-26080410D02*
X7694531Y-26004219D01*
X7694531Y-26004219D02*
X7685007Y-25985172D01*
X7685007Y-25985172D02*
X7675483Y-25975648D01*
X7675483Y-25975648D02*
X7656436Y-25966124D01*
X7656436Y-25966124D02*
X7618340Y-25966124D01*
X7618340Y-25966124D02*
X7599293Y-25975648D01*
X7599293Y-25975648D02*
X7589769Y-25985172D01*
X7589769Y-25985172D02*
X7580245Y-26004219D01*
X7580245Y-26004219D02*
X7580245Y-26051838D01*
X7580245Y-26051838D02*
X7589769Y-26070886D01*
X7589769Y-26070886D02*
X7599293Y-26080410D01*
X7599293Y-26080410D02*
X7618340Y-26089933D01*
X7618340Y-26089933D02*
X7656436Y-26089933D01*
X7656436Y-26089933D02*
X7675483Y-26080410D01*
X7675483Y-26080410D02*
X7685007Y-26070886D01*
X7685007Y-26070886D02*
X7694531Y-26051838D01*
X7770721Y-25985172D02*
X7780245Y-25975648D01*
X7780245Y-25975648D02*
X7799293Y-25966124D01*
X7799293Y-25966124D02*
X7846912Y-25966124D01*
X7846912Y-25966124D02*
X7865959Y-25975648D01*
X7865959Y-25975648D02*
X7875483Y-25985172D01*
X7875483Y-25985172D02*
X7885007Y-26004219D01*
X7885007Y-26004219D02*
X7885007Y-26023267D01*
X7885007Y-26023267D02*
X7875483Y-26051838D01*
X7875483Y-26051838D02*
X7761197Y-26166124D01*
X7761197Y-26166124D02*
X7885007Y-26166124D01*
X7970721Y-26166124D02*
X7970721Y-26032791D01*
X7970721Y-26051838D02*
X7980245Y-26042314D01*
X7980245Y-26042314D02*
X7999293Y-26032791D01*
X7999293Y-26032791D02*
X8027864Y-26032791D01*
X8027864Y-26032791D02*
X8046912Y-26042314D01*
X8046912Y-26042314D02*
X8056436Y-26061362D01*
X8056436Y-26061362D02*
X8056436Y-26166124D01*
X8056436Y-26061362D02*
X8065959Y-26042314D01*
X8065959Y-26042314D02*
X8085007Y-26032791D01*
X8085007Y-26032791D02*
X8113578Y-26032791D01*
X8113578Y-26032791D02*
X8132626Y-26042314D01*
X8132626Y-26042314D02*
X8142150Y-26061362D01*
X8142150Y-26061362D02*
X8142150Y-26166124D01*
X8237388Y-26166124D02*
X8237388Y-26032791D01*
X8237388Y-26051838D02*
X8246912Y-26042314D01*
X8246912Y-26042314D02*
X8265959Y-26032791D01*
X8265959Y-26032791D02*
X8294531Y-26032791D01*
X8294531Y-26032791D02*
X8313578Y-26042314D01*
X8313578Y-26042314D02*
X8323102Y-26061362D01*
X8323102Y-26061362D02*
X8323102Y-26166124D01*
X8323102Y-26061362D02*
X8332626Y-26042314D01*
X8332626Y-26042314D02*
X8351674Y-26032791D01*
X8351674Y-26032791D02*
X8380245Y-26032791D01*
X8380245Y-26032791D02*
X8399293Y-26042314D01*
X8399293Y-26042314D02*
X8408817Y-26061362D01*
X8408817Y-26061362D02*
X8408817Y-26166124D01*
X8799293Y-25956600D02*
X8627864Y-26213743D01*
X9056436Y-25966124D02*
X9075483Y-25966124D01*
X9075483Y-25966124D02*
X9094531Y-25975648D01*
X9094531Y-25975648D02*
X9104055Y-25985172D01*
X9104055Y-25985172D02*
X9113579Y-26004219D01*
X9113579Y-26004219D02*
X9123102Y-26042314D01*
X9123102Y-26042314D02*
X9123102Y-26089933D01*
X9123102Y-26089933D02*
X9113579Y-26128029D01*
X9113579Y-26128029D02*
X9104055Y-26147076D01*
X9104055Y-26147076D02*
X9094531Y-26156600D01*
X9094531Y-26156600D02*
X9075483Y-26166124D01*
X9075483Y-26166124D02*
X9056436Y-26166124D01*
X9056436Y-26166124D02*
X9037388Y-26156600D01*
X9037388Y-26156600D02*
X9027864Y-26147076D01*
X9027864Y-26147076D02*
X9018341Y-26128029D01*
X9018341Y-26128029D02*
X9008817Y-26089933D01*
X9008817Y-26089933D02*
X9008817Y-26042314D01*
X9008817Y-26042314D02*
X9018341Y-26004219D01*
X9018341Y-26004219D02*
X9027864Y-25985172D01*
X9027864Y-25985172D02*
X9037388Y-25975648D01*
X9037388Y-25975648D02*
X9056436Y-25966124D01*
X9208817Y-26147076D02*
X9218341Y-26156600D01*
X9218341Y-26156600D02*
X9208817Y-26166124D01*
X9208817Y-26166124D02*
X9199293Y-26156600D01*
X9199293Y-26156600D02*
X9208817Y-26147076D01*
X9208817Y-26147076D02*
X9208817Y-26166124D01*
X9342150Y-25966124D02*
X9361198Y-25966124D01*
X9361198Y-25966124D02*
X9380245Y-25975648D01*
X9380245Y-25975648D02*
X9389769Y-25985172D01*
X9389769Y-25985172D02*
X9399293Y-26004219D01*
X9399293Y-26004219D02*
X9408817Y-26042314D01*
X9408817Y-26042314D02*
X9408817Y-26089933D01*
X9408817Y-26089933D02*
X9399293Y-26128029D01*
X9399293Y-26128029D02*
X9389769Y-26147076D01*
X9389769Y-26147076D02*
X9380245Y-26156600D01*
X9380245Y-26156600D02*
X9361198Y-26166124D01*
X9361198Y-26166124D02*
X9342150Y-26166124D01*
X9342150Y-26166124D02*
X9323102Y-26156600D01*
X9323102Y-26156600D02*
X9313579Y-26147076D01*
X9313579Y-26147076D02*
X9304055Y-26128029D01*
X9304055Y-26128029D02*
X9294531Y-26089933D01*
X9294531Y-26089933D02*
X9294531Y-26042314D01*
X9294531Y-26042314D02*
X9304055Y-26004219D01*
X9304055Y-26004219D02*
X9313579Y-25985172D01*
X9313579Y-25985172D02*
X9323102Y-25975648D01*
X9323102Y-25975648D02*
X9342150Y-25966124D01*
X9580245Y-26032791D02*
X9580245Y-26166124D01*
X9532626Y-25956600D02*
X9485007Y-26099457D01*
X9485007Y-26099457D02*
X9608817Y-26099457D01*
X9665960Y-25966124D02*
X9789769Y-25966124D01*
X9789769Y-25966124D02*
X9723102Y-26042314D01*
X9723102Y-26042314D02*
X9751674Y-26042314D01*
X9751674Y-26042314D02*
X9770722Y-26051838D01*
X9770722Y-26051838D02*
X9780245Y-26061362D01*
X9780245Y-26061362D02*
X9789769Y-26080410D01*
X9789769Y-26080410D02*
X9789769Y-26128029D01*
X9789769Y-26128029D02*
X9780245Y-26147076D01*
X9780245Y-26147076D02*
X9770722Y-26156600D01*
X9770722Y-26156600D02*
X9751674Y-26166124D01*
X9751674Y-26166124D02*
X9694531Y-26166124D01*
X9694531Y-26166124D02*
X9675483Y-26156600D01*
X9675483Y-26156600D02*
X9665960Y-26147076D01*
X9913579Y-25966124D02*
X9932626Y-25966124D01*
X9932626Y-25966124D02*
X9951674Y-25975648D01*
X9951674Y-25975648D02*
X9961198Y-25985172D01*
X9961198Y-25985172D02*
X9970722Y-26004219D01*
X9970722Y-26004219D02*
X9980245Y-26042314D01*
X9980245Y-26042314D02*
X9980245Y-26089933D01*
X9980245Y-26089933D02*
X9970722Y-26128029D01*
X9970722Y-26128029D02*
X9961198Y-26147076D01*
X9961198Y-26147076D02*
X9951674Y-26156600D01*
X9951674Y-26156600D02*
X9932626Y-26166124D01*
X9932626Y-26166124D02*
X9913579Y-26166124D01*
X9913579Y-26166124D02*
X9894531Y-26156600D01*
X9894531Y-26156600D02*
X9885007Y-26147076D01*
X9885007Y-26147076D02*
X9875483Y-26128029D01*
X9875483Y-26128029D02*
X9865960Y-26089933D01*
X9865960Y-26089933D02*
X9865960Y-26042314D01*
X9865960Y-26042314D02*
X9875483Y-26004219D01*
X9875483Y-26004219D02*
X9885007Y-25985172D01*
X9885007Y-25985172D02*
X9894531Y-25975648D01*
X9894531Y-25975648D02*
X9913579Y-25966124D01*
X10056436Y-25966124D02*
X10056436Y-26004219D01*
X10132626Y-25966124D02*
X10132626Y-26004219D01*
X10427865Y-26242314D02*
X10418341Y-26232791D01*
X10418341Y-26232791D02*
X10399293Y-26204219D01*
X10399293Y-26204219D02*
X10389769Y-26185172D01*
X10389769Y-26185172D02*
X10380245Y-26156600D01*
X10380245Y-26156600D02*
X10370722Y-26108981D01*
X10370722Y-26108981D02*
X10370722Y-26070886D01*
X10370722Y-26070886D02*
X10380245Y-26023267D01*
X10380245Y-26023267D02*
X10389769Y-25994695D01*
X10389769Y-25994695D02*
X10399293Y-25975648D01*
X10399293Y-25975648D02*
X10418341Y-25947076D01*
X10418341Y-25947076D02*
X10427865Y-25937552D01*
X10608817Y-26166124D02*
X10494531Y-26166124D01*
X10551674Y-26166124D02*
X10551674Y-25966124D01*
X10551674Y-25966124D02*
X10532626Y-25994695D01*
X10532626Y-25994695D02*
X10513579Y-26013743D01*
X10513579Y-26013743D02*
X10494531Y-26023267D01*
X10732626Y-25966124D02*
X10751674Y-25966124D01*
X10751674Y-25966124D02*
X10770722Y-25975648D01*
X10770722Y-25975648D02*
X10780245Y-25985172D01*
X10780245Y-25985172D02*
X10789769Y-26004219D01*
X10789769Y-26004219D02*
X10799293Y-26042314D01*
X10799293Y-26042314D02*
X10799293Y-26089933D01*
X10799293Y-26089933D02*
X10789769Y-26128029D01*
X10789769Y-26128029D02*
X10780245Y-26147076D01*
X10780245Y-26147076D02*
X10770722Y-26156600D01*
X10770722Y-26156600D02*
X10751674Y-26166124D01*
X10751674Y-26166124D02*
X10732626Y-26166124D01*
X10732626Y-26166124D02*
X10713579Y-26156600D01*
X10713579Y-26156600D02*
X10704055Y-26147076D01*
X10704055Y-26147076D02*
X10694531Y-26128029D01*
X10694531Y-26128029D02*
X10685007Y-26089933D01*
X10685007Y-26089933D02*
X10685007Y-26042314D01*
X10685007Y-26042314D02*
X10694531Y-26004219D01*
X10694531Y-26004219D02*
X10704055Y-25985172D01*
X10704055Y-25985172D02*
X10713579Y-25975648D01*
X10713579Y-25975648D02*
X10732626Y-25966124D01*
X11037388Y-26166124D02*
X11037388Y-25966124D01*
X11123103Y-26166124D02*
X11123103Y-26061362D01*
X11123103Y-26061362D02*
X11113579Y-26042314D01*
X11113579Y-26042314D02*
X11094531Y-26032791D01*
X11094531Y-26032791D02*
X11065960Y-26032791D01*
X11065960Y-26032791D02*
X11046912Y-26042314D01*
X11046912Y-26042314D02*
X11037388Y-26051838D01*
X11246912Y-26166124D02*
X11227864Y-26156600D01*
X11227864Y-26156600D02*
X11218341Y-26147076D01*
X11218341Y-26147076D02*
X11208817Y-26128029D01*
X11208817Y-26128029D02*
X11208817Y-26070886D01*
X11208817Y-26070886D02*
X11218341Y-26051838D01*
X11218341Y-26051838D02*
X11227864Y-26042314D01*
X11227864Y-26042314D02*
X11246912Y-26032791D01*
X11246912Y-26032791D02*
X11275484Y-26032791D01*
X11275484Y-26032791D02*
X11294531Y-26042314D01*
X11294531Y-26042314D02*
X11304055Y-26051838D01*
X11304055Y-26051838D02*
X11313579Y-26070886D01*
X11313579Y-26070886D02*
X11313579Y-26128029D01*
X11313579Y-26128029D02*
X11304055Y-26147076D01*
X11304055Y-26147076D02*
X11294531Y-26156600D01*
X11294531Y-26156600D02*
X11275484Y-26166124D01*
X11275484Y-26166124D02*
X11246912Y-26166124D01*
X11427864Y-26166124D02*
X11408817Y-26156600D01*
X11408817Y-26156600D02*
X11399293Y-26137552D01*
X11399293Y-26137552D02*
X11399293Y-25966124D01*
X11580245Y-26156600D02*
X11561198Y-26166124D01*
X11561198Y-26166124D02*
X11523103Y-26166124D01*
X11523103Y-26166124D02*
X11504055Y-26156600D01*
X11504055Y-26156600D02*
X11494531Y-26137552D01*
X11494531Y-26137552D02*
X11494531Y-26061362D01*
X11494531Y-26061362D02*
X11504055Y-26042314D01*
X11504055Y-26042314D02*
X11523103Y-26032791D01*
X11523103Y-26032791D02*
X11561198Y-26032791D01*
X11561198Y-26032791D02*
X11580245Y-26042314D01*
X11580245Y-26042314D02*
X11589769Y-26061362D01*
X11589769Y-26061362D02*
X11589769Y-26080410D01*
X11589769Y-26080410D02*
X11494531Y-26099457D01*
X11665960Y-26156600D02*
X11685007Y-26166124D01*
X11685007Y-26166124D02*
X11723103Y-26166124D01*
X11723103Y-26166124D02*
X11742150Y-26156600D01*
X11742150Y-26156600D02*
X11751674Y-26137552D01*
X11751674Y-26137552D02*
X11751674Y-26128029D01*
X11751674Y-26128029D02*
X11742150Y-26108981D01*
X11742150Y-26108981D02*
X11723103Y-26099457D01*
X11723103Y-26099457D02*
X11694531Y-26099457D01*
X11694531Y-26099457D02*
X11675484Y-26089933D01*
X11675484Y-26089933D02*
X11665960Y-26070886D01*
X11665960Y-26070886D02*
X11665960Y-26061362D01*
X11665960Y-26061362D02*
X11675484Y-26042314D01*
X11675484Y-26042314D02*
X11694531Y-26032791D01*
X11694531Y-26032791D02*
X11723103Y-26032791D01*
X11723103Y-26032791D02*
X11742150Y-26042314D01*
X11818341Y-26242314D02*
X11827865Y-26232791D01*
X11827865Y-26232791D02*
X11846912Y-26204219D01*
X11846912Y-26204219D02*
X11856436Y-26185172D01*
X11856436Y-26185172D02*
X11865960Y-26156600D01*
X11865960Y-26156600D02*
X11875484Y-26108981D01*
X11875484Y-26108981D02*
X11875484Y-26070886D01*
X11875484Y-26070886D02*
X11865960Y-26023267D01*
X11865960Y-26023267D02*
X11856436Y-25994695D01*
X11856436Y-25994695D02*
X11846912Y-25975648D01*
X11846912Y-25975648D02*
X11827865Y-25947076D01*
X11827865Y-25947076D02*
X11818341Y-25937552D01*
D14*
X6741042Y-26282760D02*
X6852802Y-26394520D01*
X6852802Y-26282760D02*
X6741042Y-26394520D01*
X6852802Y-26338640D02*
G75*
G02*
X6741042Y-26338640I-55880J0D01*
G01*
X6741042Y-26338640D02*
G75*
G02*
X6852802Y-26338640I55880J0D01*
G01*
D11*
X7218340Y-26430124D02*
X7104055Y-26430124D01*
X7161197Y-26430124D02*
X7161197Y-26230124D01*
X7161197Y-26230124D02*
X7142150Y-26258695D01*
X7142150Y-26258695D02*
X7123102Y-26277743D01*
X7123102Y-26277743D02*
X7104055Y-26287267D01*
X7304055Y-26411076D02*
X7313578Y-26420600D01*
X7313578Y-26420600D02*
X7304055Y-26430124D01*
X7304055Y-26430124D02*
X7294531Y-26420600D01*
X7294531Y-26420600D02*
X7304055Y-26411076D01*
X7304055Y-26411076D02*
X7304055Y-26430124D01*
X7504055Y-26430124D02*
X7389769Y-26430124D01*
X7446912Y-26430124D02*
X7446912Y-26230124D01*
X7446912Y-26230124D02*
X7427864Y-26258695D01*
X7427864Y-26258695D02*
X7408816Y-26277743D01*
X7408816Y-26277743D02*
X7389769Y-26287267D01*
X7694531Y-26430124D02*
X7580245Y-26430124D01*
X7637388Y-26430124D02*
X7637388Y-26230124D01*
X7637388Y-26230124D02*
X7618340Y-26258695D01*
X7618340Y-26258695D02*
X7599293Y-26277743D01*
X7599293Y-26277743D02*
X7580245Y-26287267D01*
X7808816Y-26315838D02*
X7789769Y-26306314D01*
X7789769Y-26306314D02*
X7780245Y-26296791D01*
X7780245Y-26296791D02*
X7770721Y-26277743D01*
X7770721Y-26277743D02*
X7770721Y-26268219D01*
X7770721Y-26268219D02*
X7780245Y-26249172D01*
X7780245Y-26249172D02*
X7789769Y-26239648D01*
X7789769Y-26239648D02*
X7808816Y-26230124D01*
X7808816Y-26230124D02*
X7846912Y-26230124D01*
X7846912Y-26230124D02*
X7865959Y-26239648D01*
X7865959Y-26239648D02*
X7875483Y-26249172D01*
X7875483Y-26249172D02*
X7885007Y-26268219D01*
X7885007Y-26268219D02*
X7885007Y-26277743D01*
X7885007Y-26277743D02*
X7875483Y-26296791D01*
X7875483Y-26296791D02*
X7865959Y-26306314D01*
X7865959Y-26306314D02*
X7846912Y-26315838D01*
X7846912Y-26315838D02*
X7808816Y-26315838D01*
X7808816Y-26315838D02*
X7789769Y-26325362D01*
X7789769Y-26325362D02*
X7780245Y-26334886D01*
X7780245Y-26334886D02*
X7770721Y-26353933D01*
X7770721Y-26353933D02*
X7770721Y-26392029D01*
X7770721Y-26392029D02*
X7780245Y-26411076D01*
X7780245Y-26411076D02*
X7789769Y-26420600D01*
X7789769Y-26420600D02*
X7808816Y-26430124D01*
X7808816Y-26430124D02*
X7846912Y-26430124D01*
X7846912Y-26430124D02*
X7865959Y-26420600D01*
X7865959Y-26420600D02*
X7875483Y-26411076D01*
X7875483Y-26411076D02*
X7885007Y-26392029D01*
X7885007Y-26392029D02*
X7885007Y-26353933D01*
X7885007Y-26353933D02*
X7875483Y-26334886D01*
X7875483Y-26334886D02*
X7865959Y-26325362D01*
X7865959Y-26325362D02*
X7846912Y-26315838D01*
X7970721Y-26430124D02*
X7970721Y-26296791D01*
X7970721Y-26315838D02*
X7980245Y-26306314D01*
X7980245Y-26306314D02*
X7999293Y-26296791D01*
X7999293Y-26296791D02*
X8027864Y-26296791D01*
X8027864Y-26296791D02*
X8046912Y-26306314D01*
X8046912Y-26306314D02*
X8056436Y-26325362D01*
X8056436Y-26325362D02*
X8056436Y-26430124D01*
X8056436Y-26325362D02*
X8065959Y-26306314D01*
X8065959Y-26306314D02*
X8085007Y-26296791D01*
X8085007Y-26296791D02*
X8113578Y-26296791D01*
X8113578Y-26296791D02*
X8132626Y-26306314D01*
X8132626Y-26306314D02*
X8142150Y-26325362D01*
X8142150Y-26325362D02*
X8142150Y-26430124D01*
X8237388Y-26430124D02*
X8237388Y-26296791D01*
X8237388Y-26315838D02*
X8246912Y-26306314D01*
X8246912Y-26306314D02*
X8265959Y-26296791D01*
X8265959Y-26296791D02*
X8294531Y-26296791D01*
X8294531Y-26296791D02*
X8313578Y-26306314D01*
X8313578Y-26306314D02*
X8323102Y-26325362D01*
X8323102Y-26325362D02*
X8323102Y-26430124D01*
X8323102Y-26325362D02*
X8332626Y-26306314D01*
X8332626Y-26306314D02*
X8351674Y-26296791D01*
X8351674Y-26296791D02*
X8380245Y-26296791D01*
X8380245Y-26296791D02*
X8399293Y-26306314D01*
X8399293Y-26306314D02*
X8408817Y-26325362D01*
X8408817Y-26325362D02*
X8408817Y-26430124D01*
X8799293Y-26220600D02*
X8627864Y-26477743D01*
X9056436Y-26230124D02*
X9075483Y-26230124D01*
X9075483Y-26230124D02*
X9094531Y-26239648D01*
X9094531Y-26239648D02*
X9104055Y-26249172D01*
X9104055Y-26249172D02*
X9113579Y-26268219D01*
X9113579Y-26268219D02*
X9123102Y-26306314D01*
X9123102Y-26306314D02*
X9123102Y-26353933D01*
X9123102Y-26353933D02*
X9113579Y-26392029D01*
X9113579Y-26392029D02*
X9104055Y-26411076D01*
X9104055Y-26411076D02*
X9094531Y-26420600D01*
X9094531Y-26420600D02*
X9075483Y-26430124D01*
X9075483Y-26430124D02*
X9056436Y-26430124D01*
X9056436Y-26430124D02*
X9037388Y-26420600D01*
X9037388Y-26420600D02*
X9027864Y-26411076D01*
X9027864Y-26411076D02*
X9018341Y-26392029D01*
X9018341Y-26392029D02*
X9008817Y-26353933D01*
X9008817Y-26353933D02*
X9008817Y-26306314D01*
X9008817Y-26306314D02*
X9018341Y-26268219D01*
X9018341Y-26268219D02*
X9027864Y-26249172D01*
X9027864Y-26249172D02*
X9037388Y-26239648D01*
X9037388Y-26239648D02*
X9056436Y-26230124D01*
X9208817Y-26411076D02*
X9218341Y-26420600D01*
X9218341Y-26420600D02*
X9208817Y-26430124D01*
X9208817Y-26430124D02*
X9199293Y-26420600D01*
X9199293Y-26420600D02*
X9208817Y-26411076D01*
X9208817Y-26411076D02*
X9208817Y-26430124D01*
X9342150Y-26230124D02*
X9361198Y-26230124D01*
X9361198Y-26230124D02*
X9380245Y-26239648D01*
X9380245Y-26239648D02*
X9389769Y-26249172D01*
X9389769Y-26249172D02*
X9399293Y-26268219D01*
X9399293Y-26268219D02*
X9408817Y-26306314D01*
X9408817Y-26306314D02*
X9408817Y-26353933D01*
X9408817Y-26353933D02*
X9399293Y-26392029D01*
X9399293Y-26392029D02*
X9389769Y-26411076D01*
X9389769Y-26411076D02*
X9380245Y-26420600D01*
X9380245Y-26420600D02*
X9361198Y-26430124D01*
X9361198Y-26430124D02*
X9342150Y-26430124D01*
X9342150Y-26430124D02*
X9323102Y-26420600D01*
X9323102Y-26420600D02*
X9313579Y-26411076D01*
X9313579Y-26411076D02*
X9304055Y-26392029D01*
X9304055Y-26392029D02*
X9294531Y-26353933D01*
X9294531Y-26353933D02*
X9294531Y-26306314D01*
X9294531Y-26306314D02*
X9304055Y-26268219D01*
X9304055Y-26268219D02*
X9313579Y-26249172D01*
X9313579Y-26249172D02*
X9323102Y-26239648D01*
X9323102Y-26239648D02*
X9342150Y-26230124D01*
X9580245Y-26296791D02*
X9580245Y-26430124D01*
X9532626Y-26220600D02*
X9485007Y-26363457D01*
X9485007Y-26363457D02*
X9608817Y-26363457D01*
X9770722Y-26296791D02*
X9770722Y-26430124D01*
X9723102Y-26220600D02*
X9675483Y-26363457D01*
X9675483Y-26363457D02*
X9799293Y-26363457D01*
X9913579Y-26230124D02*
X9932626Y-26230124D01*
X9932626Y-26230124D02*
X9951674Y-26239648D01*
X9951674Y-26239648D02*
X9961198Y-26249172D01*
X9961198Y-26249172D02*
X9970722Y-26268219D01*
X9970722Y-26268219D02*
X9980245Y-26306314D01*
X9980245Y-26306314D02*
X9980245Y-26353933D01*
X9980245Y-26353933D02*
X9970722Y-26392029D01*
X9970722Y-26392029D02*
X9961198Y-26411076D01*
X9961198Y-26411076D02*
X9951674Y-26420600D01*
X9951674Y-26420600D02*
X9932626Y-26430124D01*
X9932626Y-26430124D02*
X9913579Y-26430124D01*
X9913579Y-26430124D02*
X9894531Y-26420600D01*
X9894531Y-26420600D02*
X9885007Y-26411076D01*
X9885007Y-26411076D02*
X9875483Y-26392029D01*
X9875483Y-26392029D02*
X9865960Y-26353933D01*
X9865960Y-26353933D02*
X9865960Y-26306314D01*
X9865960Y-26306314D02*
X9875483Y-26268219D01*
X9875483Y-26268219D02*
X9885007Y-26249172D01*
X9885007Y-26249172D02*
X9894531Y-26239648D01*
X9894531Y-26239648D02*
X9913579Y-26230124D01*
X10056436Y-26230124D02*
X10056436Y-26268219D01*
X10132626Y-26230124D02*
X10132626Y-26268219D01*
X10427865Y-26506314D02*
X10418341Y-26496791D01*
X10418341Y-26496791D02*
X10399293Y-26468219D01*
X10399293Y-26468219D02*
X10389769Y-26449172D01*
X10389769Y-26449172D02*
X10380245Y-26420600D01*
X10380245Y-26420600D02*
X10370722Y-26372981D01*
X10370722Y-26372981D02*
X10370722Y-26334886D01*
X10370722Y-26334886D02*
X10380245Y-26287267D01*
X10380245Y-26287267D02*
X10389769Y-26258695D01*
X10389769Y-26258695D02*
X10399293Y-26239648D01*
X10399293Y-26239648D02*
X10418341Y-26211076D01*
X10418341Y-26211076D02*
X10427865Y-26201552D01*
X10608817Y-26430124D02*
X10494531Y-26430124D01*
X10551674Y-26430124D02*
X10551674Y-26230124D01*
X10551674Y-26230124D02*
X10532626Y-26258695D01*
X10532626Y-26258695D02*
X10513579Y-26277743D01*
X10513579Y-26277743D02*
X10494531Y-26287267D01*
X10685007Y-26249172D02*
X10694531Y-26239648D01*
X10694531Y-26239648D02*
X10713579Y-26230124D01*
X10713579Y-26230124D02*
X10761198Y-26230124D01*
X10761198Y-26230124D02*
X10780245Y-26239648D01*
X10780245Y-26239648D02*
X10789769Y-26249172D01*
X10789769Y-26249172D02*
X10799293Y-26268219D01*
X10799293Y-26268219D02*
X10799293Y-26287267D01*
X10799293Y-26287267D02*
X10789769Y-26315838D01*
X10789769Y-26315838D02*
X10675484Y-26430124D01*
X10675484Y-26430124D02*
X10799293Y-26430124D01*
X11037388Y-26430124D02*
X11037388Y-26230124D01*
X11123103Y-26430124D02*
X11123103Y-26325362D01*
X11123103Y-26325362D02*
X11113579Y-26306314D01*
X11113579Y-26306314D02*
X11094531Y-26296791D01*
X11094531Y-26296791D02*
X11065960Y-26296791D01*
X11065960Y-26296791D02*
X11046912Y-26306314D01*
X11046912Y-26306314D02*
X11037388Y-26315838D01*
X11246912Y-26430124D02*
X11227864Y-26420600D01*
X11227864Y-26420600D02*
X11218341Y-26411076D01*
X11218341Y-26411076D02*
X11208817Y-26392029D01*
X11208817Y-26392029D02*
X11208817Y-26334886D01*
X11208817Y-26334886D02*
X11218341Y-26315838D01*
X11218341Y-26315838D02*
X11227864Y-26306314D01*
X11227864Y-26306314D02*
X11246912Y-26296791D01*
X11246912Y-26296791D02*
X11275484Y-26296791D01*
X11275484Y-26296791D02*
X11294531Y-26306314D01*
X11294531Y-26306314D02*
X11304055Y-26315838D01*
X11304055Y-26315838D02*
X11313579Y-26334886D01*
X11313579Y-26334886D02*
X11313579Y-26392029D01*
X11313579Y-26392029D02*
X11304055Y-26411076D01*
X11304055Y-26411076D02*
X11294531Y-26420600D01*
X11294531Y-26420600D02*
X11275484Y-26430124D01*
X11275484Y-26430124D02*
X11246912Y-26430124D01*
X11427864Y-26430124D02*
X11408817Y-26420600D01*
X11408817Y-26420600D02*
X11399293Y-26401552D01*
X11399293Y-26401552D02*
X11399293Y-26230124D01*
X11580245Y-26420600D02*
X11561198Y-26430124D01*
X11561198Y-26430124D02*
X11523103Y-26430124D01*
X11523103Y-26430124D02*
X11504055Y-26420600D01*
X11504055Y-26420600D02*
X11494531Y-26401552D01*
X11494531Y-26401552D02*
X11494531Y-26325362D01*
X11494531Y-26325362D02*
X11504055Y-26306314D01*
X11504055Y-26306314D02*
X11523103Y-26296791D01*
X11523103Y-26296791D02*
X11561198Y-26296791D01*
X11561198Y-26296791D02*
X11580245Y-26306314D01*
X11580245Y-26306314D02*
X11589769Y-26325362D01*
X11589769Y-26325362D02*
X11589769Y-26344410D01*
X11589769Y-26344410D02*
X11494531Y-26363457D01*
X11665960Y-26420600D02*
X11685007Y-26430124D01*
X11685007Y-26430124D02*
X11723103Y-26430124D01*
X11723103Y-26430124D02*
X11742150Y-26420600D01*
X11742150Y-26420600D02*
X11751674Y-26401552D01*
X11751674Y-26401552D02*
X11751674Y-26392029D01*
X11751674Y-26392029D02*
X11742150Y-26372981D01*
X11742150Y-26372981D02*
X11723103Y-26363457D01*
X11723103Y-26363457D02*
X11694531Y-26363457D01*
X11694531Y-26363457D02*
X11675484Y-26353933D01*
X11675484Y-26353933D02*
X11665960Y-26334886D01*
X11665960Y-26334886D02*
X11665960Y-26325362D01*
X11665960Y-26325362D02*
X11675484Y-26306314D01*
X11675484Y-26306314D02*
X11694531Y-26296791D01*
X11694531Y-26296791D02*
X11723103Y-26296791D01*
X11723103Y-26296791D02*
X11742150Y-26306314D01*
X11818341Y-26506314D02*
X11827865Y-26496791D01*
X11827865Y-26496791D02*
X11846912Y-26468219D01*
X11846912Y-26468219D02*
X11856436Y-26449172D01*
X11856436Y-26449172D02*
X11865960Y-26420600D01*
X11865960Y-26420600D02*
X11875484Y-26372981D01*
X11875484Y-26372981D02*
X11875484Y-26334886D01*
X11875484Y-26334886D02*
X11865960Y-26287267D01*
X11865960Y-26287267D02*
X11856436Y-26258695D01*
X11856436Y-26258695D02*
X11846912Y-26239648D01*
X11846912Y-26239648D02*
X11827865Y-26211076D01*
X11827865Y-26211076D02*
X11818341Y-26201552D01*
D15*
X6702802Y-26527640D02*
X6852802Y-26677640D01*
X6852802Y-26527640D02*
X6702802Y-26677640D01*
X6777802Y-26527640D02*
X6777802Y-26677640D01*
X6702802Y-26602640D02*
X6852802Y-26602640D01*
D11*
X7218340Y-26694124D02*
X7104055Y-26694124D01*
X7161197Y-26694124D02*
X7161197Y-26494124D01*
X7161197Y-26494124D02*
X7142150Y-26522695D01*
X7142150Y-26522695D02*
X7123102Y-26541743D01*
X7123102Y-26541743D02*
X7104055Y-26551267D01*
X7304055Y-26675076D02*
X7313578Y-26684600D01*
X7313578Y-26684600D02*
X7304055Y-26694124D01*
X7304055Y-26694124D02*
X7294531Y-26684600D01*
X7294531Y-26684600D02*
X7304055Y-26675076D01*
X7304055Y-26675076D02*
X7304055Y-26694124D01*
X7494531Y-26494124D02*
X7399293Y-26494124D01*
X7399293Y-26494124D02*
X7389769Y-26589362D01*
X7389769Y-26589362D02*
X7399293Y-26579838D01*
X7399293Y-26579838D02*
X7418340Y-26570314D01*
X7418340Y-26570314D02*
X7465959Y-26570314D01*
X7465959Y-26570314D02*
X7485007Y-26579838D01*
X7485007Y-26579838D02*
X7494531Y-26589362D01*
X7494531Y-26589362D02*
X7504055Y-26608410D01*
X7504055Y-26608410D02*
X7504055Y-26656029D01*
X7504055Y-26656029D02*
X7494531Y-26675076D01*
X7494531Y-26675076D02*
X7485007Y-26684600D01*
X7485007Y-26684600D02*
X7465959Y-26694124D01*
X7465959Y-26694124D02*
X7418340Y-26694124D01*
X7418340Y-26694124D02*
X7399293Y-26684600D01*
X7399293Y-26684600D02*
X7389769Y-26675076D01*
X7627864Y-26494124D02*
X7646912Y-26494124D01*
X7646912Y-26494124D02*
X7665959Y-26503648D01*
X7665959Y-26503648D02*
X7675483Y-26513172D01*
X7675483Y-26513172D02*
X7685007Y-26532219D01*
X7685007Y-26532219D02*
X7694531Y-26570314D01*
X7694531Y-26570314D02*
X7694531Y-26617933D01*
X7694531Y-26617933D02*
X7685007Y-26656029D01*
X7685007Y-26656029D02*
X7675483Y-26675076D01*
X7675483Y-26675076D02*
X7665959Y-26684600D01*
X7665959Y-26684600D02*
X7646912Y-26694124D01*
X7646912Y-26694124D02*
X7627864Y-26694124D01*
X7627864Y-26694124D02*
X7608816Y-26684600D01*
X7608816Y-26684600D02*
X7599293Y-26675076D01*
X7599293Y-26675076D02*
X7589769Y-26656029D01*
X7589769Y-26656029D02*
X7580245Y-26617933D01*
X7580245Y-26617933D02*
X7580245Y-26570314D01*
X7580245Y-26570314D02*
X7589769Y-26532219D01*
X7589769Y-26532219D02*
X7599293Y-26513172D01*
X7599293Y-26513172D02*
X7608816Y-26503648D01*
X7608816Y-26503648D02*
X7627864Y-26494124D01*
X7818340Y-26494124D02*
X7837388Y-26494124D01*
X7837388Y-26494124D02*
X7856436Y-26503648D01*
X7856436Y-26503648D02*
X7865959Y-26513172D01*
X7865959Y-26513172D02*
X7875483Y-26532219D01*
X7875483Y-26532219D02*
X7885007Y-26570314D01*
X7885007Y-26570314D02*
X7885007Y-26617933D01*
X7885007Y-26617933D02*
X7875483Y-26656029D01*
X7875483Y-26656029D02*
X7865959Y-26675076D01*
X7865959Y-26675076D02*
X7856436Y-26684600D01*
X7856436Y-26684600D02*
X7837388Y-26694124D01*
X7837388Y-26694124D02*
X7818340Y-26694124D01*
X7818340Y-26694124D02*
X7799293Y-26684600D01*
X7799293Y-26684600D02*
X7789769Y-26675076D01*
X7789769Y-26675076D02*
X7780245Y-26656029D01*
X7780245Y-26656029D02*
X7770721Y-26617933D01*
X7770721Y-26617933D02*
X7770721Y-26570314D01*
X7770721Y-26570314D02*
X7780245Y-26532219D01*
X7780245Y-26532219D02*
X7789769Y-26513172D01*
X7789769Y-26513172D02*
X7799293Y-26503648D01*
X7799293Y-26503648D02*
X7818340Y-26494124D01*
X7970721Y-26694124D02*
X7970721Y-26560791D01*
X7970721Y-26579838D02*
X7980245Y-26570314D01*
X7980245Y-26570314D02*
X7999293Y-26560791D01*
X7999293Y-26560791D02*
X8027864Y-26560791D01*
X8027864Y-26560791D02*
X8046912Y-26570314D01*
X8046912Y-26570314D02*
X8056436Y-26589362D01*
X8056436Y-26589362D02*
X8056436Y-26694124D01*
X8056436Y-26589362D02*
X8065959Y-26570314D01*
X8065959Y-26570314D02*
X8085007Y-26560791D01*
X8085007Y-26560791D02*
X8113578Y-26560791D01*
X8113578Y-26560791D02*
X8132626Y-26570314D01*
X8132626Y-26570314D02*
X8142150Y-26589362D01*
X8142150Y-26589362D02*
X8142150Y-26694124D01*
X8237388Y-26694124D02*
X8237388Y-26560791D01*
X8237388Y-26579838D02*
X8246912Y-26570314D01*
X8246912Y-26570314D02*
X8265959Y-26560791D01*
X8265959Y-26560791D02*
X8294531Y-26560791D01*
X8294531Y-26560791D02*
X8313578Y-26570314D01*
X8313578Y-26570314D02*
X8323102Y-26589362D01*
X8323102Y-26589362D02*
X8323102Y-26694124D01*
X8323102Y-26589362D02*
X8332626Y-26570314D01*
X8332626Y-26570314D02*
X8351674Y-26560791D01*
X8351674Y-26560791D02*
X8380245Y-26560791D01*
X8380245Y-26560791D02*
X8399293Y-26570314D01*
X8399293Y-26570314D02*
X8408817Y-26589362D01*
X8408817Y-26589362D02*
X8408817Y-26694124D01*
X8799293Y-26484600D02*
X8627864Y-26741743D01*
X9056436Y-26494124D02*
X9075483Y-26494124D01*
X9075483Y-26494124D02*
X9094531Y-26503648D01*
X9094531Y-26503648D02*
X9104055Y-26513172D01*
X9104055Y-26513172D02*
X9113579Y-26532219D01*
X9113579Y-26532219D02*
X9123102Y-26570314D01*
X9123102Y-26570314D02*
X9123102Y-26617933D01*
X9123102Y-26617933D02*
X9113579Y-26656029D01*
X9113579Y-26656029D02*
X9104055Y-26675076D01*
X9104055Y-26675076D02*
X9094531Y-26684600D01*
X9094531Y-26684600D02*
X9075483Y-26694124D01*
X9075483Y-26694124D02*
X9056436Y-26694124D01*
X9056436Y-26694124D02*
X9037388Y-26684600D01*
X9037388Y-26684600D02*
X9027864Y-26675076D01*
X9027864Y-26675076D02*
X9018341Y-26656029D01*
X9018341Y-26656029D02*
X9008817Y-26617933D01*
X9008817Y-26617933D02*
X9008817Y-26570314D01*
X9008817Y-26570314D02*
X9018341Y-26532219D01*
X9018341Y-26532219D02*
X9027864Y-26513172D01*
X9027864Y-26513172D02*
X9037388Y-26503648D01*
X9037388Y-26503648D02*
X9056436Y-26494124D01*
X9208817Y-26675076D02*
X9218341Y-26684600D01*
X9218341Y-26684600D02*
X9208817Y-26694124D01*
X9208817Y-26694124D02*
X9199293Y-26684600D01*
X9199293Y-26684600D02*
X9208817Y-26675076D01*
X9208817Y-26675076D02*
X9208817Y-26694124D01*
X9342150Y-26494124D02*
X9361198Y-26494124D01*
X9361198Y-26494124D02*
X9380245Y-26503648D01*
X9380245Y-26503648D02*
X9389769Y-26513172D01*
X9389769Y-26513172D02*
X9399293Y-26532219D01*
X9399293Y-26532219D02*
X9408817Y-26570314D01*
X9408817Y-26570314D02*
X9408817Y-26617933D01*
X9408817Y-26617933D02*
X9399293Y-26656029D01*
X9399293Y-26656029D02*
X9389769Y-26675076D01*
X9389769Y-26675076D02*
X9380245Y-26684600D01*
X9380245Y-26684600D02*
X9361198Y-26694124D01*
X9361198Y-26694124D02*
X9342150Y-26694124D01*
X9342150Y-26694124D02*
X9323102Y-26684600D01*
X9323102Y-26684600D02*
X9313579Y-26675076D01*
X9313579Y-26675076D02*
X9304055Y-26656029D01*
X9304055Y-26656029D02*
X9294531Y-26617933D01*
X9294531Y-26617933D02*
X9294531Y-26570314D01*
X9294531Y-26570314D02*
X9304055Y-26532219D01*
X9304055Y-26532219D02*
X9313579Y-26513172D01*
X9313579Y-26513172D02*
X9323102Y-26503648D01*
X9323102Y-26503648D02*
X9342150Y-26494124D01*
X9589769Y-26494124D02*
X9494531Y-26494124D01*
X9494531Y-26494124D02*
X9485007Y-26589362D01*
X9485007Y-26589362D02*
X9494531Y-26579838D01*
X9494531Y-26579838D02*
X9513579Y-26570314D01*
X9513579Y-26570314D02*
X9561198Y-26570314D01*
X9561198Y-26570314D02*
X9580245Y-26579838D01*
X9580245Y-26579838D02*
X9589769Y-26589362D01*
X9589769Y-26589362D02*
X9599293Y-26608410D01*
X9599293Y-26608410D02*
X9599293Y-26656029D01*
X9599293Y-26656029D02*
X9589769Y-26675076D01*
X9589769Y-26675076D02*
X9580245Y-26684600D01*
X9580245Y-26684600D02*
X9561198Y-26694124D01*
X9561198Y-26694124D02*
X9513579Y-26694124D01*
X9513579Y-26694124D02*
X9494531Y-26684600D01*
X9494531Y-26684600D02*
X9485007Y-26675076D01*
X9694531Y-26694124D02*
X9732626Y-26694124D01*
X9732626Y-26694124D02*
X9751674Y-26684600D01*
X9751674Y-26684600D02*
X9761198Y-26675076D01*
X9761198Y-26675076D02*
X9780245Y-26646505D01*
X9780245Y-26646505D02*
X9789769Y-26608410D01*
X9789769Y-26608410D02*
X9789769Y-26532219D01*
X9789769Y-26532219D02*
X9780245Y-26513172D01*
X9780245Y-26513172D02*
X9770722Y-26503648D01*
X9770722Y-26503648D02*
X9751674Y-26494124D01*
X9751674Y-26494124D02*
X9713579Y-26494124D01*
X9713579Y-26494124D02*
X9694531Y-26503648D01*
X9694531Y-26503648D02*
X9685007Y-26513172D01*
X9685007Y-26513172D02*
X9675483Y-26532219D01*
X9675483Y-26532219D02*
X9675483Y-26579838D01*
X9675483Y-26579838D02*
X9685007Y-26598886D01*
X9685007Y-26598886D02*
X9694531Y-26608410D01*
X9694531Y-26608410D02*
X9713579Y-26617933D01*
X9713579Y-26617933D02*
X9751674Y-26617933D01*
X9751674Y-26617933D02*
X9770722Y-26608410D01*
X9770722Y-26608410D02*
X9780245Y-26598886D01*
X9780245Y-26598886D02*
X9789769Y-26579838D01*
X9980245Y-26694124D02*
X9865960Y-26694124D01*
X9923102Y-26694124D02*
X9923102Y-26494124D01*
X9923102Y-26494124D02*
X9904055Y-26522695D01*
X9904055Y-26522695D02*
X9885007Y-26541743D01*
X9885007Y-26541743D02*
X9865960Y-26551267D01*
X10056436Y-26494124D02*
X10056436Y-26532219D01*
X10132626Y-26494124D02*
X10132626Y-26532219D01*
X10427865Y-26770314D02*
X10418341Y-26760791D01*
X10418341Y-26760791D02*
X10399293Y-26732219D01*
X10399293Y-26732219D02*
X10389769Y-26713172D01*
X10389769Y-26713172D02*
X10380245Y-26684600D01*
X10380245Y-26684600D02*
X10370722Y-26636981D01*
X10370722Y-26636981D02*
X10370722Y-26598886D01*
X10370722Y-26598886D02*
X10380245Y-26551267D01*
X10380245Y-26551267D02*
X10389769Y-26522695D01*
X10389769Y-26522695D02*
X10399293Y-26503648D01*
X10399293Y-26503648D02*
X10418341Y-26475076D01*
X10418341Y-26475076D02*
X10427865Y-26465552D01*
X10589769Y-26560791D02*
X10589769Y-26694124D01*
X10542150Y-26484600D02*
X10494531Y-26627457D01*
X10494531Y-26627457D02*
X10618341Y-26627457D01*
X10732626Y-26494124D02*
X10751674Y-26494124D01*
X10751674Y-26494124D02*
X10770722Y-26503648D01*
X10770722Y-26503648D02*
X10780245Y-26513172D01*
X10780245Y-26513172D02*
X10789769Y-26532219D01*
X10789769Y-26532219D02*
X10799293Y-26570314D01*
X10799293Y-26570314D02*
X10799293Y-26617933D01*
X10799293Y-26617933D02*
X10789769Y-26656029D01*
X10789769Y-26656029D02*
X10780245Y-26675076D01*
X10780245Y-26675076D02*
X10770722Y-26684600D01*
X10770722Y-26684600D02*
X10751674Y-26694124D01*
X10751674Y-26694124D02*
X10732626Y-26694124D01*
X10732626Y-26694124D02*
X10713579Y-26684600D01*
X10713579Y-26684600D02*
X10704055Y-26675076D01*
X10704055Y-26675076D02*
X10694531Y-26656029D01*
X10694531Y-26656029D02*
X10685007Y-26617933D01*
X10685007Y-26617933D02*
X10685007Y-26570314D01*
X10685007Y-26570314D02*
X10694531Y-26532219D01*
X10694531Y-26532219D02*
X10704055Y-26513172D01*
X10704055Y-26513172D02*
X10713579Y-26503648D01*
X10713579Y-26503648D02*
X10732626Y-26494124D01*
X11037388Y-26694124D02*
X11037388Y-26494124D01*
X11123103Y-26694124D02*
X11123103Y-26589362D01*
X11123103Y-26589362D02*
X11113579Y-26570314D01*
X11113579Y-26570314D02*
X11094531Y-26560791D01*
X11094531Y-26560791D02*
X11065960Y-26560791D01*
X11065960Y-26560791D02*
X11046912Y-26570314D01*
X11046912Y-26570314D02*
X11037388Y-26579838D01*
X11246912Y-26694124D02*
X11227864Y-26684600D01*
X11227864Y-26684600D02*
X11218341Y-26675076D01*
X11218341Y-26675076D02*
X11208817Y-26656029D01*
X11208817Y-26656029D02*
X11208817Y-26598886D01*
X11208817Y-26598886D02*
X11218341Y-26579838D01*
X11218341Y-26579838D02*
X11227864Y-26570314D01*
X11227864Y-26570314D02*
X11246912Y-26560791D01*
X11246912Y-26560791D02*
X11275484Y-26560791D01*
X11275484Y-26560791D02*
X11294531Y-26570314D01*
X11294531Y-26570314D02*
X11304055Y-26579838D01*
X11304055Y-26579838D02*
X11313579Y-26598886D01*
X11313579Y-26598886D02*
X11313579Y-26656029D01*
X11313579Y-26656029D02*
X11304055Y-26675076D01*
X11304055Y-26675076D02*
X11294531Y-26684600D01*
X11294531Y-26684600D02*
X11275484Y-26694124D01*
X11275484Y-26694124D02*
X11246912Y-26694124D01*
X11427864Y-26694124D02*
X11408817Y-26684600D01*
X11408817Y-26684600D02*
X11399293Y-26665552D01*
X11399293Y-26665552D02*
X11399293Y-26494124D01*
X11580245Y-26684600D02*
X11561198Y-26694124D01*
X11561198Y-26694124D02*
X11523103Y-26694124D01*
X11523103Y-26694124D02*
X11504055Y-26684600D01*
X11504055Y-26684600D02*
X11494531Y-26665552D01*
X11494531Y-26665552D02*
X11494531Y-26589362D01*
X11494531Y-26589362D02*
X11504055Y-26570314D01*
X11504055Y-26570314D02*
X11523103Y-26560791D01*
X11523103Y-26560791D02*
X11561198Y-26560791D01*
X11561198Y-26560791D02*
X11580245Y-26570314D01*
X11580245Y-26570314D02*
X11589769Y-26589362D01*
X11589769Y-26589362D02*
X11589769Y-26608410D01*
X11589769Y-26608410D02*
X11494531Y-26627457D01*
X11665960Y-26684600D02*
X11685007Y-26694124D01*
X11685007Y-26694124D02*
X11723103Y-26694124D01*
X11723103Y-26694124D02*
X11742150Y-26684600D01*
X11742150Y-26684600D02*
X11751674Y-26665552D01*
X11751674Y-26665552D02*
X11751674Y-26656029D01*
X11751674Y-26656029D02*
X11742150Y-26636981D01*
X11742150Y-26636981D02*
X11723103Y-26627457D01*
X11723103Y-26627457D02*
X11694531Y-26627457D01*
X11694531Y-26627457D02*
X11675484Y-26617933D01*
X11675484Y-26617933D02*
X11665960Y-26598886D01*
X11665960Y-26598886D02*
X11665960Y-26589362D01*
X11665960Y-26589362D02*
X11675484Y-26570314D01*
X11675484Y-26570314D02*
X11694531Y-26560791D01*
X11694531Y-26560791D02*
X11723103Y-26560791D01*
X11723103Y-26560791D02*
X11742150Y-26570314D01*
X11818341Y-26770314D02*
X11827865Y-26760791D01*
X11827865Y-26760791D02*
X11846912Y-26732219D01*
X11846912Y-26732219D02*
X11856436Y-26713172D01*
X11856436Y-26713172D02*
X11865960Y-26684600D01*
X11865960Y-26684600D02*
X11875484Y-26636981D01*
X11875484Y-26636981D02*
X11875484Y-26598886D01*
X11875484Y-26598886D02*
X11865960Y-26551267D01*
X11865960Y-26551267D02*
X11856436Y-26522695D01*
X11856436Y-26522695D02*
X11846912Y-26503648D01*
X11846912Y-26503648D02*
X11827865Y-26475076D01*
X11827865Y-26475076D02*
X11818341Y-26465552D01*
M02*
