M48
; DRILL file {KiCad 8.0.4} date 2024-10-08T15:05:41-0400
; FORMAT={-:-/ absolute / metric / decimal}
; #@! TF.CreationDate,2024-10-08T15:05:41-04:00
; #@! TF.GenerationSoftware,Kicad,Pcbnew,8.0.4
; #@! TF.FileFunction,NonPlated,1,2,NPTH
FMAT,2
METRIC
; #@! TA.AperFunction,NonPlated,NPTH,ComponentDrill
T1C1.750
; #@! TA.AperFunction,NonPlated,NPTH,ComponentDrill
T2C2.007
; #@! TA.AperFunction,NonPlated,NPTH,ComponentDrill
T3C4.000
%
G90
G05
T1
X83.674Y-199.491
X83.674Y-229.491
X93.834Y-199.491
X93.834Y-229.491
X118.674Y-139.491
X118.674Y-169.491
X118.674Y-199.491
X118.674Y-229.491
X128.834Y-139.491
X128.834Y-169.491
X128.834Y-199.491
X128.834Y-229.491
X148.674Y-139.491
X148.674Y-169.491
X148.674Y-199.491
X148.674Y-229.491
X158.834Y-139.491
X158.834Y-169.491
X158.834Y-199.491
X158.834Y-229.491
X178.674Y-139.491
X178.674Y-169.491
X178.674Y-199.491
X178.674Y-229.491
X188.834Y-139.491
X188.834Y-169.491
X188.834Y-199.491
X188.834Y-229.491
X208.674Y-139.491
X208.674Y-169.491
X208.674Y-199.491
X208.674Y-229.491
X218.834Y-139.491
X218.834Y-169.491
X218.834Y-199.491
X218.834Y-229.491
X243.674Y-199.491
X243.674Y-229.491
X253.834Y-199.491
X253.834Y-229.491
T2
X83.022Y-45.491
T3
X88.754Y-199.491
X88.754Y-229.491
X123.754Y-139.491
X123.754Y-169.491
X123.754Y-199.491
X123.754Y-229.491
X153.754Y-139.491
X153.754Y-169.491
X153.754Y-199.491
X153.754Y-229.491
X183.754Y-139.491
X183.754Y-169.491
X183.754Y-199.491
X183.754Y-229.491
X213.754Y-139.491
X213.754Y-169.491
X213.754Y-199.491
X213.754Y-229.491
X248.754Y-199.491
X248.754Y-229.491
M30
