G04 #@! TF.GenerationSoftware,KiCad,Pcbnew,8.0.4*
G04 #@! TF.CreationDate,2024-10-24T16:05:29-04:00*
G04 #@! TF.ProjectId,FULL BOARD,46554c4c-2042-44f4-9152-442e6b696361,rev?*
G04 #@! TF.SameCoordinates,Original*
G04 #@! TF.FileFunction,Paste,Bot*
G04 #@! TF.FilePolarity,Positive*
%FSLAX46Y46*%
G04 Gerber Fmt 4.6, Leading zero omitted, Abs format (unit mm)*
G04 Created by KiCad (PCBNEW 8.0.4) date 2024-10-24 16:05:29*
%MOMM*%
%LPD*%
G01*
G04 APERTURE LIST*
G04 Aperture macros list*
%AMRoundRect*
0 Rectangle with rounded corners*
0 $1 Rounding radius*
0 $2 $3 $4 $5 $6 $7 $8 $9 X,Y pos of 4 corners*
0 Add a 4 corners polygon primitive as box body*
4,1,4,$2,$3,$4,$5,$6,$7,$8,$9,$2,$3,0*
0 Add four circle primitives for the rounded corners*
1,1,$1+$1,$2,$3*
1,1,$1+$1,$4,$5*
1,1,$1+$1,$6,$7*
1,1,$1+$1,$8,$9*
0 Add four rect primitives between the rounded corners*
20,1,$1+$1,$2,$3,$4,$5,0*
20,1,$1+$1,$4,$5,$6,$7,0*
20,1,$1+$1,$6,$7,$8,$9,0*
20,1,$1+$1,$8,$9,$2,$3,0*%
G04 Aperture macros list end*
%ADD10RoundRect,0.250000X0.250000X0.475000X-0.250000X0.475000X-0.250000X-0.475000X0.250000X-0.475000X0*%
%ADD11RoundRect,0.250000X0.262500X0.450000X-0.262500X0.450000X-0.262500X-0.450000X0.262500X-0.450000X0*%
%ADD12RoundRect,0.250000X-0.262500X-0.450000X0.262500X-0.450000X0.262500X0.450000X-0.262500X0.450000X0*%
%ADD13RoundRect,0.150000X0.587500X0.150000X-0.587500X0.150000X-0.587500X-0.150000X0.587500X-0.150000X0*%
%ADD14RoundRect,0.250000X-0.475000X0.250000X-0.475000X-0.250000X0.475000X-0.250000X0.475000X0.250000X0*%
%ADD15RoundRect,0.250000X-0.250000X-0.475000X0.250000X-0.475000X0.250000X0.475000X-0.250000X0.475000X0*%
%ADD16RoundRect,0.250000X0.475000X-0.250000X0.475000X0.250000X-0.475000X0.250000X-0.475000X-0.250000X0*%
G04 APERTURE END LIST*
D10*
X174580000Y-95140000D03*
X172680000Y-95140000D03*
D11*
X160182500Y-150730000D03*
X158357500Y-150730000D03*
D12*
X156380000Y-180920000D03*
X158205000Y-180920000D03*
X164712500Y-187240000D03*
X166537500Y-187240000D03*
X168475000Y-227660000D03*
X170300000Y-227660000D03*
X103710000Y-202050000D03*
X105535000Y-202050000D03*
D13*
X158422500Y-156610000D03*
X160297500Y-157560000D03*
X160297500Y-155660000D03*
X157985000Y-185950000D03*
X157985000Y-187850000D03*
X156110000Y-186900000D03*
X166515000Y-180640000D03*
X166515000Y-182540000D03*
X164640000Y-181590000D03*
X170355000Y-220650000D03*
X170355000Y-222550000D03*
X168480000Y-221600000D03*
X103625000Y-208070000D03*
X105500000Y-209020000D03*
X105500000Y-207120000D03*
D14*
X161950000Y-110250000D03*
X161950000Y-112150000D03*
D15*
X166450000Y-93600000D03*
X168350000Y-93600000D03*
D14*
X179620000Y-109110000D03*
X179620000Y-107210000D03*
D15*
X177780000Y-95160000D03*
X179680000Y-95160000D03*
X168910000Y-101100000D03*
X170810000Y-101100000D03*
D16*
X168510000Y-112130000D03*
X168510000Y-110230000D03*
D10*
X179850000Y-112740000D03*
X177950000Y-112740000D03*
D14*
X179620000Y-102550000D03*
X179620000Y-104450000D03*
D15*
X177780000Y-89180000D03*
X179680000Y-89180000D03*
M02*
