M48
; DRILL file {KiCad 8.0.5} date 2024-10-25T14:08:16-0400
; FORMAT={-:-/ absolute / inch / decimal}
; #@! TF.CreationDate,2024-10-25T14:08:16-04:00
; #@! TF.GenerationSoftware,Kicad,Pcbnew,8.0.5
; #@! TF.FileFunction,NonPlated,1,2,NPTH
FMAT,2
INCH
; #@! TA.AperFunction,NonPlated,NPTH,ComponentDrill
T1C0.0689
; #@! TA.AperFunction,NonPlated,NPTH,ComponentDrill
T2C0.0790
; #@! TA.AperFunction,NonPlated,NPTH,ComponentDrill
T3C0.1575
%
G90
G05
T1
X3.2943Y-7.854
X3.2943Y-9.0351
X3.6943Y-7.854
X3.6943Y-9.0351
X4.6722Y-5.4918
X4.6722Y-6.6729
X4.6722Y-7.854
X4.6722Y-9.0351
X5.0722Y-5.4918
X5.0722Y-6.6729
X5.0722Y-7.854
X5.0722Y-9.0351
X5.8533Y-5.4918
X5.8533Y-6.6729
X5.8533Y-7.854
X5.8533Y-9.0351
X6.2533Y-5.4918
X6.2533Y-6.6729
X6.2533Y-7.854
X6.2533Y-9.0351
X7.0344Y-5.4918
X7.0344Y-6.6729
X7.0344Y-7.854
X7.0344Y-9.0351
X7.4344Y-5.4918
X7.4344Y-6.6729
X7.4344Y-7.854
X7.4344Y-9.0351
X8.2155Y-5.4918
X8.2155Y-6.6729
X8.2155Y-7.854
X8.2155Y-9.0351
X8.6155Y-5.4918
X8.6155Y-6.6729
X8.6155Y-7.854
X8.6155Y-9.0351
X9.5935Y-7.854
X9.5935Y-9.0351
X9.9935Y-7.854
X9.9935Y-9.0351
T2
X3.5236Y-1.8543
T3
X3.4943Y-7.854
X3.4943Y-9.0351
X4.8722Y-5.4918
X4.8722Y-6.6729
X4.8722Y-7.854
X4.8722Y-9.0351
X6.0533Y-5.4918
X6.0533Y-6.6729
X6.0533Y-7.854
X6.0533Y-9.0351
X7.2344Y-5.4918
X7.2344Y-6.6729
X7.2344Y-7.854
X7.2344Y-9.0351
X8.4155Y-5.4918
X8.4155Y-6.6729
X8.4155Y-7.854
X8.4155Y-9.0351
X9.7935Y-7.854
X9.7935Y-9.0351
M30
