G04 #@! TF.GenerationSoftware,KiCad,Pcbnew,8.0.5*
G04 #@! TF.CreationDate,2024-10-23T12:55:31-04:00*
G04 #@! TF.ProjectId,FULL BOARD,46554c4c-2042-44f4-9152-442e6b696361,rev?*
G04 #@! TF.SameCoordinates,Original*
G04 #@! TF.FileFunction,Soldermask,Top*
G04 #@! TF.FilePolarity,Negative*
%FSLAX46Y46*%
G04 Gerber Fmt 4.6, Leading zero omitted, Abs format (unit mm)*
G04 Created by KiCad (PCBNEW 8.0.5) date 2024-10-23 12:55:31*
%MOMM*%
%LPD*%
G01*
G04 APERTURE LIST*
G04 Aperture macros list*
%AMRoundRect*
0 Rectangle with rounded corners*
0 $1 Rounding radius*
0 $2 $3 $4 $5 $6 $7 $8 $9 X,Y pos of 4 corners*
0 Add a 4 corners polygon primitive as box body*
4,1,4,$2,$3,$4,$5,$6,$7,$8,$9,$2,$3,0*
0 Add four circle primitives for the rounded corners*
1,1,$1+$1,$2,$3*
1,1,$1+$1,$4,$5*
1,1,$1+$1,$6,$7*
1,1,$1+$1,$8,$9*
0 Add four rect primitives between the rounded corners*
20,1,$1+$1,$2,$3,$4,$5,0*
20,1,$1+$1,$4,$5,$6,$7,0*
20,1,$1+$1,$6,$7,$8,$9,0*
20,1,$1+$1,$8,$9,$2,$3,0*%
G04 Aperture macros list end*
%ADD10RoundRect,0.250000X0.475000X-0.250000X0.475000X0.250000X-0.475000X0.250000X-0.475000X-0.250000X0*%
%ADD11R,1.041400X3.200400*%
%ADD12RoundRect,0.250000X-0.450000X0.262500X-0.450000X-0.262500X0.450000X-0.262500X0.450000X0.262500X0*%
%ADD13C,1.600200*%
%ADD14RoundRect,0.250000X-0.475000X0.250000X-0.475000X-0.250000X0.475000X-0.250000X0.475000X0.250000X0*%
%ADD15R,1.599999X0.449999*%
%ADD16R,4.110000X4.359999*%
%ADD17C,2.540000*%
%ADD18C,1.750000*%
%ADD19C,4.000000*%
%ADD20C,2.500000*%
%ADD21RoundRect,0.243750X0.243750X0.456250X-0.243750X0.456250X-0.243750X-0.456250X0.243750X-0.456250X0*%
%ADD22RoundRect,0.243750X-0.243750X-0.456250X0.243750X-0.456250X0.243750X0.456250X-0.243750X0.456250X0*%
%ADD23C,2.006600*%
%ADD24R,3.302000X4.394200*%
%ADD25R,3.911600X6.197600*%
%ADD26RoundRect,0.250000X-0.262500X-0.450000X0.262500X-0.450000X0.262500X0.450000X-0.262500X0.450000X0*%
%ADD27RoundRect,0.250000X0.262500X0.450000X-0.262500X0.450000X-0.262500X-0.450000X0.262500X-0.450000X0*%
%ADD28RoundRect,0.250000X0.450000X-0.262500X0.450000X0.262500X-0.450000X0.262500X-0.450000X-0.262500X0*%
%ADD29RoundRect,0.075000X0.725000X0.075000X-0.725000X0.075000X-0.725000X-0.075000X0.725000X-0.075000X0*%
%ADD30RoundRect,0.075000X0.075000X0.725000X-0.075000X0.725000X-0.075000X-0.725000X0.075000X-0.725000X0*%
%ADD31R,0.700000X1.100000*%
%ADD32R,0.900000X0.930000*%
%ADD33R,1.050000X0.780000*%
%ADD34R,1.140000X1.830000*%
%ADD35R,0.860000X2.800000*%
%ADD36R,0.700000X3.330000*%
%ADD37RoundRect,0.375000X-0.375000X0.625000X-0.375000X-0.625000X0.375000X-0.625000X0.375000X0.625000X0*%
%ADD38RoundRect,0.500000X-1.400000X0.500000X-1.400000X-0.500000X1.400000X-0.500000X1.400000X0.500000X0*%
%ADD39RoundRect,0.102000X-0.775000X-0.650000X0.775000X-0.650000X0.775000X0.650000X-0.775000X0.650000X0*%
%ADD40RoundRect,0.250000X0.250000X0.475000X-0.250000X0.475000X-0.250000X-0.475000X0.250000X-0.475000X0*%
%ADD41RoundRect,0.102000X-0.850000X0.300000X-0.850000X-0.300000X0.850000X-0.300000X0.850000X0.300000X0*%
%ADD42RoundRect,0.102000X-1.400000X1.250000X-1.400000X-1.250000X1.400000X-1.250000X1.400000X1.250000X0*%
%ADD43RoundRect,0.250000X-0.250000X-0.475000X0.250000X-0.475000X0.250000X0.475000X-0.250000X0.475000X0*%
%ADD44R,1.600000X1.600000*%
%ADD45O,1.600000X1.600000*%
%ADD46R,0.850000X0.850000*%
%ADD47C,0.850000*%
G04 APERTURE END LIST*
D10*
X96217800Y-143295400D03*
X96217800Y-141395400D03*
D11*
X195202200Y-109786400D03*
X195202200Y-103868200D03*
D12*
X101523800Y-146583400D03*
X101523800Y-148408400D03*
D13*
X160760000Y-52260000D03*
X160760000Y-54800000D03*
X158220000Y-52260000D03*
X158220000Y-54800000D03*
X155680000Y-52260000D03*
X155680000Y-54800000D03*
X153140000Y-52260000D03*
X153140000Y-54800000D03*
X150600000Y-52260000D03*
X150600000Y-54800000D03*
D14*
X101473000Y-136555600D03*
X101473000Y-138455600D03*
D15*
X89810000Y-138484999D03*
X89810000Y-137834998D03*
X89810000Y-137184999D03*
X89810000Y-136534998D03*
X89810000Y-135884999D03*
X89810000Y-135234998D03*
X89810000Y-134584999D03*
X89810000Y-133934998D03*
X89810000Y-133284999D03*
X89810000Y-132634998D03*
X89810000Y-131984999D03*
X89810000Y-131334998D03*
X89810000Y-130685000D03*
X89810000Y-130034998D03*
X89810000Y-129385000D03*
X89810000Y-128734998D03*
X82010000Y-128734998D03*
X82010000Y-129385000D03*
X82010000Y-130034998D03*
X82010000Y-130685000D03*
X82010000Y-131334998D03*
X82010000Y-131984999D03*
X82010000Y-132634998D03*
X82010000Y-133284999D03*
X82010000Y-133934998D03*
X82010000Y-134584999D03*
X82010000Y-135234998D03*
X82010000Y-135884999D03*
X82010000Y-136534998D03*
X82010000Y-137184999D03*
X82010000Y-137834998D03*
X82010000Y-138484999D03*
D16*
X85910000Y-133610000D03*
D17*
X85910000Y-133610000D03*
D14*
X80243800Y-67696200D03*
X80243800Y-69596200D03*
D18*
X243674000Y-229491400D03*
D19*
X248754000Y-229491400D03*
D18*
X253834000Y-229491400D03*
D20*
X244944000Y-226951400D03*
X251294000Y-224411400D03*
D18*
X148674000Y-229491400D03*
D19*
X153754000Y-229491400D03*
D18*
X158834000Y-229491400D03*
D20*
X149944000Y-226951400D03*
X156294000Y-224411400D03*
D21*
X222352500Y-106695000D03*
X220477500Y-106695000D03*
D18*
X118674000Y-229491400D03*
D19*
X123754000Y-229491400D03*
D18*
X128834000Y-229491400D03*
D20*
X119944000Y-226951400D03*
X126294000Y-224411400D03*
D10*
X96228200Y-148389000D03*
X96228200Y-146489000D03*
D18*
X178674000Y-199491400D03*
D19*
X183754000Y-199491400D03*
D18*
X188834000Y-199491400D03*
D20*
X179944000Y-196951400D03*
X186294000Y-194411400D03*
D22*
X108363900Y-49961800D03*
X110238900Y-49961800D03*
D18*
X83674000Y-199491400D03*
D19*
X88754000Y-199491400D03*
D18*
X93834000Y-199491400D03*
D20*
X84944000Y-196951400D03*
X91294000Y-194411400D03*
D23*
X89500000Y-47100000D03*
D24*
X89500000Y-59847110D03*
D25*
X95955800Y-50903400D03*
X83044200Y-50903400D03*
D10*
X97465000Y-69641800D03*
X97465000Y-67741800D03*
D18*
X208674000Y-199491400D03*
D19*
X213754000Y-199491400D03*
D18*
X218834000Y-199491400D03*
D20*
X209944000Y-196951400D03*
X216294000Y-194411400D03*
D10*
X190530000Y-104330000D03*
X190530000Y-102430000D03*
X96240600Y-133553200D03*
X96240600Y-131653200D03*
D26*
X212600000Y-119225000D03*
X214425000Y-119225000D03*
D10*
X96240600Y-138450400D03*
X96240600Y-136550400D03*
D27*
X112799000Y-136954000D03*
X110974000Y-136954000D03*
D18*
X118674000Y-169491400D03*
D19*
X123754000Y-169491400D03*
D18*
X128834000Y-169491400D03*
D20*
X119944000Y-166951400D03*
X126294000Y-164411400D03*
D18*
X118674000Y-199491400D03*
D19*
X123754000Y-199491400D03*
D18*
X128834000Y-199491400D03*
D20*
X119944000Y-196951400D03*
X126294000Y-194411400D03*
D21*
X222372500Y-112955000D03*
X220497500Y-112955000D03*
D28*
X138023600Y-52752000D03*
X138023600Y-50927000D03*
D18*
X148674000Y-139491400D03*
D19*
X153754000Y-139491400D03*
D18*
X158834000Y-139491400D03*
D20*
X149944000Y-136951400D03*
X156294000Y-134411400D03*
D18*
X148674000Y-169491400D03*
D19*
X153754000Y-169491400D03*
D18*
X158834000Y-169491400D03*
D20*
X149944000Y-166951400D03*
X156294000Y-164411400D03*
D26*
X212612500Y-112965000D03*
X214437500Y-112965000D03*
X212612500Y-106715000D03*
X214437500Y-106715000D03*
D18*
X208674000Y-229491400D03*
D19*
X213754000Y-229491400D03*
D18*
X218834000Y-229491400D03*
D20*
X209944000Y-226951400D03*
X216294000Y-224411400D03*
D12*
X101498400Y-141405600D03*
X101498400Y-143230600D03*
D27*
X172669000Y-136934000D03*
X170844000Y-136934000D03*
D18*
X208674000Y-139491400D03*
D19*
X213754000Y-139491400D03*
D18*
X218834000Y-139491400D03*
D20*
X209944000Y-136951400D03*
X216294000Y-134411400D03*
D18*
X118674000Y-139491400D03*
D19*
X123754000Y-139491400D03*
D18*
X128834000Y-139491400D03*
D20*
X119944000Y-136951400D03*
X126294000Y-134411400D03*
D29*
X181702000Y-112501000D03*
X181702000Y-112001000D03*
X181702000Y-111501000D03*
X181702000Y-111001000D03*
X181702000Y-110501000D03*
X181702000Y-110001000D03*
X181702000Y-109501000D03*
X181702000Y-109001000D03*
X181702000Y-108501000D03*
X181702000Y-108001000D03*
X181702000Y-107501000D03*
X181702000Y-107001000D03*
X181702000Y-106501000D03*
X181702000Y-106001000D03*
X181702000Y-105501000D03*
X181702000Y-105001000D03*
X181702000Y-104501000D03*
X181702000Y-104001000D03*
X181702000Y-103501000D03*
X181702000Y-103001000D03*
X181702000Y-102501000D03*
X181702000Y-102001000D03*
X181702000Y-101501000D03*
X181702000Y-101001000D03*
X181702000Y-100501000D03*
D30*
X180027000Y-98826000D03*
X179527000Y-98826000D03*
X179027000Y-98826000D03*
X178527000Y-98826000D03*
X178027000Y-98826000D03*
X177527000Y-98826000D03*
X177027000Y-98826000D03*
X176527000Y-98826000D03*
X176027000Y-98826000D03*
X175527000Y-98826000D03*
X175027000Y-98826000D03*
X174527000Y-98826000D03*
X174027000Y-98826000D03*
X173527000Y-98826000D03*
X173027000Y-98826000D03*
X172527000Y-98826000D03*
X172027000Y-98826000D03*
X171527000Y-98826000D03*
X171027000Y-98826000D03*
X170527000Y-98826000D03*
X170027000Y-98826000D03*
X169527000Y-98826000D03*
X169027000Y-98826000D03*
X168527000Y-98826000D03*
X168027000Y-98826000D03*
D29*
X166352000Y-100501000D03*
X166352000Y-101001000D03*
X166352000Y-101501000D03*
X166352000Y-102001000D03*
X166352000Y-102501000D03*
X166352000Y-103001000D03*
X166352000Y-103501000D03*
X166352000Y-104001000D03*
X166352000Y-104501000D03*
X166352000Y-105001000D03*
X166352000Y-105501000D03*
X166352000Y-106001000D03*
X166352000Y-106501000D03*
X166352000Y-107001000D03*
X166352000Y-107501000D03*
X166352000Y-108001000D03*
X166352000Y-108501000D03*
X166352000Y-109001000D03*
X166352000Y-109501000D03*
X166352000Y-110001000D03*
X166352000Y-110501000D03*
X166352000Y-111001000D03*
X166352000Y-111501000D03*
X166352000Y-112001000D03*
X166352000Y-112501000D03*
D30*
X168027000Y-114176000D03*
X168527000Y-114176000D03*
X169027000Y-114176000D03*
X169527000Y-114176000D03*
X170027000Y-114176000D03*
X170527000Y-114176000D03*
X171027000Y-114176000D03*
X171527000Y-114176000D03*
X172027000Y-114176000D03*
X172527000Y-114176000D03*
X173027000Y-114176000D03*
X173527000Y-114176000D03*
X174027000Y-114176000D03*
X174527000Y-114176000D03*
X175027000Y-114176000D03*
X175527000Y-114176000D03*
X176027000Y-114176000D03*
X176527000Y-114176000D03*
X177027000Y-114176000D03*
X177527000Y-114176000D03*
X178027000Y-114176000D03*
X178527000Y-114176000D03*
X179027000Y-114176000D03*
X179527000Y-114176000D03*
X180027000Y-114176000D03*
D31*
X193510000Y-72070000D03*
X192410000Y-72070000D03*
X191310000Y-72070000D03*
X190210000Y-72070000D03*
X189110000Y-72070000D03*
X188010000Y-72070000D03*
X186910000Y-72070000D03*
X185810000Y-72070000D03*
D32*
X195300000Y-59605000D03*
D33*
X191035000Y-59530000D03*
D34*
X197390000Y-72055000D03*
D35*
X184730000Y-71570000D03*
D36*
X197610000Y-60805000D03*
X184730000Y-60805000D03*
D37*
X91891000Y-75188800D03*
X89591000Y-75188800D03*
D38*
X89591000Y-81488800D03*
D37*
X87291000Y-75188800D03*
D39*
X120013400Y-50988600D03*
X127963400Y-50988600D03*
X120013400Y-55488600D03*
X127963400Y-55488600D03*
D18*
X83674000Y-229491400D03*
D19*
X88754000Y-229491400D03*
D18*
X93834000Y-229491400D03*
D20*
X84944000Y-226951400D03*
X91294000Y-224411400D03*
D14*
X132537200Y-50901600D03*
X132537200Y-52801600D03*
D18*
X148674000Y-199491400D03*
D19*
X153754000Y-199491400D03*
D18*
X158834000Y-199491400D03*
D20*
X149944000Y-196951400D03*
X156294000Y-194411400D03*
D10*
X91699200Y-69616400D03*
X91699200Y-67716400D03*
D18*
X243674000Y-199491400D03*
D19*
X248754000Y-199491400D03*
D18*
X253834000Y-199491400D03*
D20*
X244944000Y-196951400D03*
X251294000Y-194411400D03*
D27*
X142969000Y-136924000D03*
X141144000Y-136924000D03*
D14*
X190580000Y-109310000D03*
X190580000Y-111210000D03*
X85349200Y-67759600D03*
X85349200Y-69659600D03*
D40*
X97127400Y-126054800D03*
X95227400Y-126054800D03*
D41*
X253720000Y-105940000D03*
X253720000Y-104940000D03*
X253720000Y-103940000D03*
X253720000Y-102940000D03*
X253720000Y-101940000D03*
X253720000Y-100940000D03*
X253720000Y-99940000D03*
X253720000Y-98940000D03*
X253720000Y-97940000D03*
X253720000Y-96940000D03*
X253720000Y-95940000D03*
X253720000Y-94940000D03*
X253720000Y-93940000D03*
X253720000Y-92940000D03*
X253720000Y-91940000D03*
X253720000Y-90940000D03*
X253720000Y-89940000D03*
X253720000Y-88940000D03*
X253720000Y-87940000D03*
X253720000Y-86940000D03*
X253720000Y-85940000D03*
X253720000Y-84940000D03*
X253720000Y-83940000D03*
X253720000Y-82940000D03*
X253720000Y-81940000D03*
X253720000Y-80940000D03*
X253720000Y-79940000D03*
X253720000Y-78940000D03*
X253720000Y-77940000D03*
X253720000Y-76940000D03*
X253720000Y-75940000D03*
X253720000Y-74940000D03*
X253720000Y-73940000D03*
X253720000Y-72940000D03*
X253720000Y-71940000D03*
X253720000Y-70940000D03*
X253720000Y-69940000D03*
X253720000Y-68940000D03*
X253720000Y-67940000D03*
X253720000Y-66940000D03*
D42*
X251270000Y-108690000D03*
X251270000Y-64190000D03*
D43*
X72227400Y-131307800D03*
X74127400Y-131307800D03*
D18*
X208674000Y-169491400D03*
D19*
X213754000Y-169491400D03*
D18*
X218834000Y-169491400D03*
D20*
X209944000Y-166951400D03*
X216294000Y-164411400D03*
D18*
X178674000Y-169491400D03*
D19*
X183754000Y-169491400D03*
D18*
X188834000Y-169491400D03*
D20*
X179944000Y-166951400D03*
X186294000Y-164411400D03*
D43*
X201700000Y-80375000D03*
X203600000Y-80375000D03*
D21*
X222387500Y-119235000D03*
X220512500Y-119235000D03*
D18*
X178674000Y-229491400D03*
D19*
X183754000Y-229491400D03*
D18*
X188834000Y-229491400D03*
D20*
X179944000Y-226951400D03*
X186294000Y-224411400D03*
D12*
X97458500Y-62036300D03*
X97458500Y-63861300D03*
D18*
X178674000Y-139491400D03*
D19*
X183754000Y-139491400D03*
D18*
X188834000Y-139491400D03*
D20*
X179944000Y-136951400D03*
X186294000Y-134411400D03*
D43*
X72220000Y-126050000D03*
X74120000Y-126050000D03*
D27*
X202119000Y-136974000D03*
X200294000Y-136974000D03*
D26*
X177014500Y-123240800D03*
X178839500Y-123240800D03*
D44*
X98268000Y-216799400D03*
D45*
X98268000Y-224419400D03*
D44*
X98258000Y-202029400D03*
D45*
X98258000Y-194409400D03*
D44*
X163279000Y-172014000D03*
D45*
X163279000Y-164394000D03*
D46*
X86729999Y-173530000D03*
D47*
X85479999Y-173530000D03*
D44*
X133278000Y-172029400D03*
D45*
X133278000Y-164409400D03*
D44*
X193278000Y-142039400D03*
D45*
X193278000Y-134419400D03*
D44*
X239258000Y-216789400D03*
D45*
X239258000Y-224409400D03*
D44*
X223288000Y-202019400D03*
D45*
X223288000Y-194399400D03*
D44*
X223278000Y-172019400D03*
D45*
X223278000Y-164399400D03*
D44*
X133268000Y-142029400D03*
D45*
X133268000Y-134409400D03*
D44*
X133298000Y-232039400D03*
D45*
X133298000Y-224419400D03*
D44*
X163268000Y-232029400D03*
D45*
X163268000Y-224409400D03*
D44*
X133278000Y-202039400D03*
D45*
X133278000Y-194419400D03*
D44*
X193288000Y-202019400D03*
D45*
X193288000Y-194399400D03*
D46*
X248749999Y-173490000D03*
D47*
X247499999Y-173490000D03*
D44*
X223278000Y-142029400D03*
D45*
X223278000Y-134409400D03*
D44*
X193278000Y-172019400D03*
D45*
X193278000Y-164399400D03*
D44*
X163258000Y-142039400D03*
D45*
X163258000Y-134419400D03*
D44*
X193278000Y-232029400D03*
D45*
X193278000Y-224409400D03*
D44*
X163298000Y-202029400D03*
D45*
X163298000Y-194409400D03*
D44*
X239228000Y-202029400D03*
D45*
X239228000Y-194409400D03*
D44*
X223258000Y-232019400D03*
D45*
X223258000Y-224399400D03*
M02*
