M48
; DRILL file {KiCad 8.0.4} date 2024-10-24T16:05:39-0400
; FORMAT={-:-/ absolute / metric / decimal}
; #@! TF.CreationDate,2024-10-24T16:05:39-04:00
; #@! TF.GenerationSoftware,Kicad,Pcbnew,8.0.4
; #@! TF.FileFunction,Plated,1,2,PTH
FMAT,2
METRIC
; #@! TA.AperFunction,Plated,PTH,ViaDrill
T1C0.381
; #@! TA.AperFunction,Plated,PTH,ComponentDrill
T2C0.381
; #@! TA.AperFunction,Plated,PTH,ComponentDrill
T3C0.500
; #@! TA.AperFunction,Plated,PTH,ComponentDrill
T4C0.800
; #@! TA.AperFunction,Plated,PTH,ComponentDrill
T5C1.092
; #@! TA.AperFunction,Plated,PTH,ViaDrill
T6C1.118
; #@! TA.AperFunction,Plated,PTH,ComponentDrill
T7C1.500
; #@! TA.AperFunction,Plated,PTH,ComponentDrill
T8C2.032
%
G90
G05
T1
X77.28Y-127.51
X77.29Y-120.31
X78.92Y-131.69
X78.98Y-129.11
X78.99Y-136.23
X89.819Y-140.07
X98.16Y-131.71
X98.23Y-93.76
X100.559Y-93.726
X100.559Y-121.22
X102.959Y-107.124
X102.959Y-126.82
X113.551Y-126.766
X156.972Y-62.84
X159.69Y-114.63
X160.757Y-108.56
X163.94Y-100.501
X164.07Y-82.4
X164.25Y-111.52
X165.52Y-125.03
X166.26Y-125.92
X167.13Y-126.73
X168.0Y-127.6
X168.65Y-95.95
X168.91Y-102.46
X168.92Y-106.08
X170.03Y-80.28
X170.03Y-95.99
X170.06Y-110.17
X170.13Y-112.34
X170.77Y-102.43
X173.28Y-110.18
X173.38Y-102.44
X174.57Y-100.91
X175.67Y-107.06
X175.71Y-103.69
X177.53Y-101.99
X177.555Y-103.135
X177.59Y-104.6
X177.61Y-109.11
X177.63Y-107.1
X177.94Y-111.5
X178.77Y-100.99
X179.97Y-100.98
X180.02Y-111.45
X180.39Y-116.38
X181.49Y-98.53
X183.02Y-98.48
X184.28Y-105.6
X184.39Y-52.24
X185.41Y-81.44
X185.41Y-103.5
X186.82Y-111.21
X186.875Y-100.975
X186.88Y-105.06
X186.91Y-78.91
X201.8Y-82.02
X235.8Y-91.63
X235.8Y-96.71
X236.89Y-94.37
X236.89Y-97.72
X238.55Y-92.78
X238.55Y-98.69
X239.95Y-93.55
X239.95Y-99.69
X241.48Y-95.59
X241.48Y-100.71
T2
X84.41Y-129.11
X84.41Y-130.61
X84.41Y-136.61
X84.41Y-138.11
X87.41Y-129.11
X87.41Y-130.61
X87.41Y-136.61
X87.41Y-138.11
T3
X96.29Y-153.745
X96.29Y-154.995
X96.31Y-166.41
X96.31Y-167.66
T4
X98.258Y-194.409
X98.258Y-202.029
X98.268Y-216.799
X98.268Y-224.419
X133.268Y-134.409
X133.268Y-142.029
X133.278Y-164.409
X133.278Y-172.029
X133.278Y-194.419
X133.278Y-202.039
X133.298Y-224.419
X133.298Y-232.039
X163.258Y-134.419
X163.258Y-142.039
X163.268Y-224.409
X163.268Y-232.029
X163.279Y-164.394
X163.279Y-172.014
X163.298Y-194.409
X163.298Y-202.029
X193.278Y-134.419
X193.278Y-142.039
X193.278Y-164.399
X193.278Y-172.019
X193.278Y-224.409
X193.278Y-232.029
X193.288Y-194.399
X193.288Y-202.019
X223.258Y-224.399
X223.258Y-232.019
X223.278Y-134.409
X223.278Y-142.029
X223.278Y-164.399
X223.278Y-172.019
X223.288Y-194.399
X223.288Y-202.019
X239.228Y-194.409
X239.228Y-202.029
X239.258Y-216.789
X239.258Y-224.409
T5
X150.6Y-52.26
X150.6Y-54.8
X153.14Y-52.26
X153.14Y-54.8
X155.68Y-52.26
X155.68Y-54.8
X158.22Y-52.26
X158.22Y-54.8
X160.76Y-52.26
X160.76Y-54.8
T6
X79.21Y-75.27
X79.21Y-126.05
X92.655Y-126.04
X156.921Y-115.519
X156.947Y-97.206
X156.997Y-81.458
X201.8Y-97.035
X201.8Y-114.66
T7
X84.944Y-196.951
X84.944Y-226.951
X91.294Y-194.411
X91.294Y-224.411
X119.944Y-136.951
X119.944Y-166.951
X119.944Y-196.951
X119.944Y-226.951
X126.294Y-134.411
X126.294Y-164.411
X126.294Y-194.411
X126.294Y-224.411
X149.944Y-136.951
X149.944Y-166.951
X149.944Y-196.951
X149.944Y-226.951
X156.294Y-134.411
X156.294Y-164.411
X156.294Y-194.411
X156.294Y-224.411
X179.944Y-136.951
X179.944Y-166.951
X179.944Y-196.951
X179.944Y-226.951
X186.294Y-134.411
X186.294Y-164.411
X186.294Y-194.411
X186.294Y-224.411
X209.944Y-136.951
X209.944Y-166.951
X209.944Y-196.951
X209.944Y-226.951
X216.294Y-134.411
X216.294Y-164.411
X216.294Y-194.411
X216.294Y-224.411
X244.944Y-196.951
X244.944Y-226.951
X251.294Y-194.411
X251.294Y-224.411
T8
X85.91Y-133.61
M30
