G04 #@! TF.GenerationSoftware,KiCad,Pcbnew,8.0.4*
G04 #@! TF.CreationDate,2024-10-24T16:05:29-04:00*
G04 #@! TF.ProjectId,FULL BOARD,46554c4c-2042-44f4-9152-442e6b696361,rev?*
G04 #@! TF.SameCoordinates,Original*
G04 #@! TF.FileFunction,Profile,NP*
%FSLAX46Y46*%
G04 Gerber Fmt 4.6, Leading zero omitted, Abs format (unit mm)*
G04 Created by KiCad (PCBNEW 8.0.4) date 2024-10-24 16:05:29*
%MOMM*%
%LPD*%
G01*
G04 APERTURE LIST*
G04 #@! TA.AperFunction,Profile*
%ADD10C,0.050000*%
G04 #@! TD*
G04 APERTURE END LIST*
D10*
X68607460Y-48770570D02*
G75*
G02*
X72930761Y-44500292I4345750J-76080D01*
G01*
X264342075Y-44494983D02*
G75*
G02*
X268612424Y-48818284I-76075J-4345817D01*
G01*
X72850000Y-244479830D02*
G75*
G02*
X68579762Y-240156529I76100J4345730D01*
G01*
X200371600Y-184481400D02*
G75*
G02*
X197171600Y-184481400I-1600000J0D01*
G01*
X197171600Y-184481400D02*
G75*
G02*
X200371600Y-184481400I1600000J0D01*
G01*
X264200000Y-49000000D02*
G75*
G02*
X261000000Y-49000000I-1600000J0D01*
G01*
X261000000Y-49000000D02*
G75*
G02*
X264200000Y-49000000I1600000J0D01*
G01*
X68579714Y-240156529D02*
X68607460Y-48770570D01*
X75600000Y-238000000D02*
G75*
G02*
X72400000Y-238000000I-1600000J0D01*
G01*
X72400000Y-238000000D02*
G75*
G02*
X75600000Y-238000000I1600000J0D01*
G01*
X268612361Y-240232684D02*
G75*
G02*
X264289060Y-244502969I-4345761J76084D01*
G01*
X268612361Y-48818284D02*
X268612361Y-240232684D01*
X72930761Y-44500284D02*
X264342075Y-44494983D01*
X264289060Y-244502970D02*
X72850000Y-244479830D01*
X264200000Y-238000000D02*
G75*
G02*
X261000000Y-238000000I-1600000J0D01*
G01*
X261000000Y-238000000D02*
G75*
G02*
X264200000Y-238000000I1600000J0D01*
G01*
X75600000Y-49000000D02*
G75*
G02*
X72400000Y-49000000I-1600000J0D01*
G01*
X72400000Y-49000000D02*
G75*
G02*
X75600000Y-49000000I1600000J0D01*
G01*
X140351600Y-184471400D02*
G75*
G02*
X137151600Y-184471400I-1600000J0D01*
G01*
X137151600Y-184471400D02*
G75*
G02*
X140351600Y-184471400I1600000J0D01*
G01*
M02*
