%TF.GenerationSoftware,KiCad,Pcbnew,8.0.4*%
%TF.CreationDate,2024-10-24T16:05:40-04:00*%
%TF.ProjectId,FULL BOARD,46554c4c-2042-44f4-9152-442e6b696361,rev?*%
%TF.SameCoordinates,Original*%
%TF.FileFunction,Drillmap*%
%TF.FilePolarity,Positive*%
%FSLAX45Y45*%
G04 Gerber Fmt 4.5, Leading zero omitted, Abs format (unit mm)*
G04 Created by KiCad (PCBNEW 8.0.4) date 2024-10-24 16:05:40*
%MOMM*%
%LPD*%
G01*
G04 APERTURE LIST*
%ADD10C,0.050000*%
%ADD11C,0.200000*%
%ADD12C,0.175000*%
%ADD13C,0.200660*%
%ADD14C,0.400000*%
G04 APERTURE END LIST*
D10*
X6860746Y-4877057D02*
G75*
G02*
X7293076Y-4450029I434575J-7608D01*
G01*
X26434207Y-4449498D02*
G75*
G02*
X26861242Y-4881828I-7608J-434582D01*
G01*
X7285000Y-24447983D02*
G75*
G02*
X6857976Y-24015653I7610J434573D01*
G01*
X20037160Y-18448140D02*
G75*
G02*
X19717160Y-18448140I-160000J0D01*
G01*
X19717160Y-18448140D02*
G75*
G02*
X20037160Y-18448140I160000J0D01*
G01*
X26420000Y-4900000D02*
G75*
G02*
X26100000Y-4900000I-160000J0D01*
G01*
X26100000Y-4900000D02*
G75*
G02*
X26420000Y-4900000I160000J0D01*
G01*
X6857971Y-24015653D02*
X6860746Y-4877057D01*
X7560000Y-23800000D02*
G75*
G02*
X7240000Y-23800000I-160000J0D01*
G01*
X7240000Y-23800000D02*
G75*
G02*
X7560000Y-23800000I160000J0D01*
G01*
X26861236Y-24023268D02*
G75*
G02*
X26428906Y-24450297I-434576J7608D01*
G01*
X26861236Y-4881828D02*
X26861236Y-24023268D01*
X7293076Y-4450028D02*
X26434207Y-4449498D01*
X26428906Y-24450297D02*
X7285000Y-24447983D01*
X26420000Y-23800000D02*
G75*
G02*
X26100000Y-23800000I-160000J0D01*
G01*
X26100000Y-23800000D02*
G75*
G02*
X26420000Y-23800000I160000J0D01*
G01*
X7560000Y-4900000D02*
G75*
G02*
X7240000Y-4900000I-160000J0D01*
G01*
X7240000Y-4900000D02*
G75*
G02*
X7560000Y-4900000I160000J0D01*
G01*
X14035160Y-18447140D02*
G75*
G02*
X13715160Y-18447140I-160000J0D01*
G01*
X13715160Y-18447140D02*
G75*
G02*
X14035160Y-18447140I160000J0D01*
G01*
D11*
D12*
X8279900Y-19861640D02*
X8454900Y-20036640D01*
X8454900Y-19861640D02*
X8279900Y-20036640D01*
X8279900Y-22861640D02*
X8454900Y-23036640D01*
X8454900Y-22861640D02*
X8279900Y-23036640D01*
X9295900Y-19861640D02*
X9470900Y-20036640D01*
X9470900Y-19861640D02*
X9295900Y-20036640D01*
X9295900Y-22861640D02*
X9470900Y-23036640D01*
X9470900Y-22861640D02*
X9295900Y-23036640D01*
X11779900Y-13861640D02*
X11954900Y-14036640D01*
X11954900Y-13861640D02*
X11779900Y-14036640D01*
X11779900Y-16861640D02*
X11954900Y-17036640D01*
X11954900Y-16861640D02*
X11779900Y-17036640D01*
X11779900Y-19861640D02*
X11954900Y-20036640D01*
X11954900Y-19861640D02*
X11779900Y-20036640D01*
X11779900Y-22861640D02*
X11954900Y-23036640D01*
X11954900Y-22861640D02*
X11779900Y-23036640D01*
X12795900Y-13861640D02*
X12970900Y-14036640D01*
X12970900Y-13861640D02*
X12795900Y-14036640D01*
X12795900Y-16861640D02*
X12970900Y-17036640D01*
X12970900Y-16861640D02*
X12795900Y-17036640D01*
X12795900Y-19861640D02*
X12970900Y-20036640D01*
X12970900Y-19861640D02*
X12795900Y-20036640D01*
X12795900Y-22861640D02*
X12970900Y-23036640D01*
X12970900Y-22861640D02*
X12795900Y-23036640D01*
X14779900Y-13861640D02*
X14954900Y-14036640D01*
X14954900Y-13861640D02*
X14779900Y-14036640D01*
X14779900Y-16861640D02*
X14954900Y-17036640D01*
X14954900Y-16861640D02*
X14779900Y-17036640D01*
X14779900Y-19861640D02*
X14954900Y-20036640D01*
X14954900Y-19861640D02*
X14779900Y-20036640D01*
X14779900Y-22861640D02*
X14954900Y-23036640D01*
X14954900Y-22861640D02*
X14779900Y-23036640D01*
X15795900Y-13861640D02*
X15970900Y-14036640D01*
X15970900Y-13861640D02*
X15795900Y-14036640D01*
X15795900Y-16861640D02*
X15970900Y-17036640D01*
X15970900Y-16861640D02*
X15795900Y-17036640D01*
X15795900Y-19861640D02*
X15970900Y-20036640D01*
X15970900Y-19861640D02*
X15795900Y-20036640D01*
X15795900Y-22861640D02*
X15970900Y-23036640D01*
X15970900Y-22861640D02*
X15795900Y-23036640D01*
X17779900Y-13861640D02*
X17954900Y-14036640D01*
X17954900Y-13861640D02*
X17779900Y-14036640D01*
X17779900Y-16861640D02*
X17954900Y-17036640D01*
X17954900Y-16861640D02*
X17779900Y-17036640D01*
X17779900Y-19861640D02*
X17954900Y-20036640D01*
X17954900Y-19861640D02*
X17779900Y-20036640D01*
X17779900Y-22861640D02*
X17954900Y-23036640D01*
X17954900Y-22861640D02*
X17779900Y-23036640D01*
X18795900Y-13861640D02*
X18970900Y-14036640D01*
X18970900Y-13861640D02*
X18795900Y-14036640D01*
X18795900Y-16861640D02*
X18970900Y-17036640D01*
X18970900Y-16861640D02*
X18795900Y-17036640D01*
X18795900Y-19861640D02*
X18970900Y-20036640D01*
X18970900Y-19861640D02*
X18795900Y-20036640D01*
X18795900Y-22861640D02*
X18970900Y-23036640D01*
X18970900Y-22861640D02*
X18795900Y-23036640D01*
X20779900Y-13861640D02*
X20954900Y-14036640D01*
X20954900Y-13861640D02*
X20779900Y-14036640D01*
X20779900Y-16861640D02*
X20954900Y-17036640D01*
X20954900Y-16861640D02*
X20779900Y-17036640D01*
X20779900Y-19861640D02*
X20954900Y-20036640D01*
X20954900Y-19861640D02*
X20779900Y-20036640D01*
X20779900Y-22861640D02*
X20954900Y-23036640D01*
X20954900Y-22861640D02*
X20779900Y-23036640D01*
X21795900Y-13861640D02*
X21970900Y-14036640D01*
X21970900Y-13861640D02*
X21795900Y-14036640D01*
X21795900Y-16861640D02*
X21970900Y-17036640D01*
X21970900Y-16861640D02*
X21795900Y-17036640D01*
X21795900Y-19861640D02*
X21970900Y-20036640D01*
X21970900Y-19861640D02*
X21795900Y-20036640D01*
X21795900Y-22861640D02*
X21970900Y-23036640D01*
X21970900Y-22861640D02*
X21795900Y-23036640D01*
X24279900Y-19861640D02*
X24454900Y-20036640D01*
X24454900Y-19861640D02*
X24279900Y-20036640D01*
X24279900Y-22861640D02*
X24454900Y-23036640D01*
X24454900Y-22861640D02*
X24279900Y-23036640D01*
X25295900Y-19861640D02*
X25470900Y-20036640D01*
X25470900Y-19861640D02*
X25295900Y-20036640D01*
X25295900Y-22861640D02*
X25470900Y-23036640D01*
X25470900Y-22861640D02*
X25295900Y-23036640D01*
D13*
X9050330Y-4710000D02*
G75*
G02*
X8849670Y-4710000I-100330J0D01*
G01*
X8849670Y-4710000D02*
G75*
G02*
X9050330Y-4710000I100330J0D01*
G01*
D14*
X8875400Y-19749140D02*
X8875400Y-20149140D01*
X8675400Y-19949140D02*
X9075400Y-19949140D01*
X8875400Y-22749140D02*
X8875400Y-23149140D01*
X8675400Y-22949140D02*
X9075400Y-22949140D01*
X12375400Y-13749140D02*
X12375400Y-14149140D01*
X12175400Y-13949140D02*
X12575400Y-13949140D01*
X12375400Y-16749140D02*
X12375400Y-17149140D01*
X12175400Y-16949140D02*
X12575400Y-16949140D01*
X12375400Y-19749140D02*
X12375400Y-20149140D01*
X12175400Y-19949140D02*
X12575400Y-19949140D01*
X12375400Y-22749140D02*
X12375400Y-23149140D01*
X12175400Y-22949140D02*
X12575400Y-22949140D01*
X15375400Y-13749140D02*
X15375400Y-14149140D01*
X15175400Y-13949140D02*
X15575400Y-13949140D01*
X15375400Y-16749140D02*
X15375400Y-17149140D01*
X15175400Y-16949140D02*
X15575400Y-16949140D01*
X15375400Y-19749140D02*
X15375400Y-20149140D01*
X15175400Y-19949140D02*
X15575400Y-19949140D01*
X15375400Y-22749140D02*
X15375400Y-23149140D01*
X15175400Y-22949140D02*
X15575400Y-22949140D01*
X18375400Y-13749140D02*
X18375400Y-14149140D01*
X18175400Y-13949140D02*
X18575400Y-13949140D01*
X18375400Y-16749140D02*
X18375400Y-17149140D01*
X18175400Y-16949140D02*
X18575400Y-16949140D01*
X18375400Y-19749140D02*
X18375400Y-20149140D01*
X18175400Y-19949140D02*
X18575400Y-19949140D01*
X18375400Y-22749140D02*
X18375400Y-23149140D01*
X18175400Y-22949140D02*
X18575400Y-22949140D01*
X21375400Y-13749140D02*
X21375400Y-14149140D01*
X21175400Y-13949140D02*
X21575400Y-13949140D01*
X21375400Y-16749140D02*
X21375400Y-17149140D01*
X21175400Y-16949140D02*
X21575400Y-16949140D01*
X21375400Y-19749140D02*
X21375400Y-20149140D01*
X21175400Y-19949140D02*
X21575400Y-19949140D01*
X21375400Y-22749140D02*
X21375400Y-23149140D01*
X21175400Y-22949140D02*
X21575400Y-22949140D01*
X24875400Y-19749140D02*
X24875400Y-20149140D01*
X24675400Y-19949140D02*
X25075400Y-19949140D01*
X24875400Y-22749140D02*
X24875400Y-23149140D01*
X24675400Y-22949140D02*
X25075400Y-22949140D01*
D11*
X7116248Y-24764281D02*
X7116248Y-24564281D01*
X7116248Y-24564281D02*
X7163867Y-24564281D01*
X7163867Y-24564281D02*
X7192439Y-24573805D01*
X7192439Y-24573805D02*
X7211486Y-24592852D01*
X7211486Y-24592852D02*
X7221010Y-24611900D01*
X7221010Y-24611900D02*
X7230534Y-24649995D01*
X7230534Y-24649995D02*
X7230534Y-24678566D01*
X7230534Y-24678566D02*
X7221010Y-24716662D01*
X7221010Y-24716662D02*
X7211486Y-24735709D01*
X7211486Y-24735709D02*
X7192439Y-24754757D01*
X7192439Y-24754757D02*
X7163867Y-24764281D01*
X7163867Y-24764281D02*
X7116248Y-24764281D01*
X7316248Y-24764281D02*
X7316248Y-24630947D01*
X7316248Y-24669043D02*
X7325772Y-24649995D01*
X7325772Y-24649995D02*
X7335296Y-24640471D01*
X7335296Y-24640471D02*
X7354343Y-24630947D01*
X7354343Y-24630947D02*
X7373391Y-24630947D01*
X7440058Y-24764281D02*
X7440058Y-24630947D01*
X7440058Y-24564281D02*
X7430534Y-24573805D01*
X7430534Y-24573805D02*
X7440058Y-24583328D01*
X7440058Y-24583328D02*
X7449581Y-24573805D01*
X7449581Y-24573805D02*
X7440058Y-24564281D01*
X7440058Y-24564281D02*
X7440058Y-24583328D01*
X7563867Y-24764281D02*
X7544820Y-24754757D01*
X7544820Y-24754757D02*
X7535296Y-24735709D01*
X7535296Y-24735709D02*
X7535296Y-24564281D01*
X7668629Y-24764281D02*
X7649581Y-24754757D01*
X7649581Y-24754757D02*
X7640058Y-24735709D01*
X7640058Y-24735709D02*
X7640058Y-24564281D01*
X7897201Y-24764281D02*
X7897201Y-24564281D01*
X7897201Y-24564281D02*
X7963867Y-24707138D01*
X7963867Y-24707138D02*
X8030534Y-24564281D01*
X8030534Y-24564281D02*
X8030534Y-24764281D01*
X8211486Y-24764281D02*
X8211486Y-24659519D01*
X8211486Y-24659519D02*
X8201962Y-24640471D01*
X8201962Y-24640471D02*
X8182915Y-24630947D01*
X8182915Y-24630947D02*
X8144820Y-24630947D01*
X8144820Y-24630947D02*
X8125772Y-24640471D01*
X8211486Y-24754757D02*
X8192439Y-24764281D01*
X8192439Y-24764281D02*
X8144820Y-24764281D01*
X8144820Y-24764281D02*
X8125772Y-24754757D01*
X8125772Y-24754757D02*
X8116248Y-24735709D01*
X8116248Y-24735709D02*
X8116248Y-24716662D01*
X8116248Y-24716662D02*
X8125772Y-24697614D01*
X8125772Y-24697614D02*
X8144820Y-24688090D01*
X8144820Y-24688090D02*
X8192439Y-24688090D01*
X8192439Y-24688090D02*
X8211486Y-24678566D01*
X8306724Y-24630947D02*
X8306724Y-24830947D01*
X8306724Y-24640471D02*
X8325772Y-24630947D01*
X8325772Y-24630947D02*
X8363867Y-24630947D01*
X8363867Y-24630947D02*
X8382915Y-24640471D01*
X8382915Y-24640471D02*
X8392439Y-24649995D01*
X8392439Y-24649995D02*
X8401963Y-24669043D01*
X8401963Y-24669043D02*
X8401963Y-24726185D01*
X8401963Y-24726185D02*
X8392439Y-24745233D01*
X8392439Y-24745233D02*
X8382915Y-24754757D01*
X8382915Y-24754757D02*
X8363867Y-24764281D01*
X8363867Y-24764281D02*
X8325772Y-24764281D01*
X8325772Y-24764281D02*
X8306724Y-24754757D01*
X8487677Y-24745233D02*
X8497201Y-24754757D01*
X8497201Y-24754757D02*
X8487677Y-24764281D01*
X8487677Y-24764281D02*
X8478153Y-24754757D01*
X8478153Y-24754757D02*
X8487677Y-24745233D01*
X8487677Y-24745233D02*
X8487677Y-24764281D01*
X8487677Y-24640471D02*
X8497201Y-24649995D01*
X8497201Y-24649995D02*
X8487677Y-24659519D01*
X8487677Y-24659519D02*
X8478153Y-24649995D01*
X8478153Y-24649995D02*
X8487677Y-24640471D01*
X8487677Y-24640471D02*
X8487677Y-24659519D01*
D12*
X6680471Y-25005297D02*
X6855471Y-25180297D01*
X6855471Y-25005297D02*
X6680471Y-25180297D01*
D11*
X7221010Y-25184281D02*
X7106724Y-25184281D01*
X7163867Y-25184281D02*
X7163867Y-24984281D01*
X7163867Y-24984281D02*
X7144820Y-25012852D01*
X7144820Y-25012852D02*
X7125772Y-25031900D01*
X7125772Y-25031900D02*
X7106724Y-25041424D01*
X7306724Y-25165233D02*
X7316248Y-25174757D01*
X7316248Y-25174757D02*
X7306724Y-25184281D01*
X7306724Y-25184281D02*
X7297201Y-25174757D01*
X7297201Y-25174757D02*
X7306724Y-25165233D01*
X7306724Y-25165233D02*
X7306724Y-25184281D01*
X7382915Y-24984281D02*
X7516248Y-24984281D01*
X7516248Y-24984281D02*
X7430534Y-25184281D01*
X7687677Y-24984281D02*
X7592439Y-24984281D01*
X7592439Y-24984281D02*
X7582915Y-25079519D01*
X7582915Y-25079519D02*
X7592439Y-25069995D01*
X7592439Y-25069995D02*
X7611486Y-25060471D01*
X7611486Y-25060471D02*
X7659105Y-25060471D01*
X7659105Y-25060471D02*
X7678153Y-25069995D01*
X7678153Y-25069995D02*
X7687677Y-25079519D01*
X7687677Y-25079519D02*
X7697201Y-25098566D01*
X7697201Y-25098566D02*
X7697201Y-25146185D01*
X7697201Y-25146185D02*
X7687677Y-25165233D01*
X7687677Y-25165233D02*
X7678153Y-25174757D01*
X7678153Y-25174757D02*
X7659105Y-25184281D01*
X7659105Y-25184281D02*
X7611486Y-25184281D01*
X7611486Y-25184281D02*
X7592439Y-25174757D01*
X7592439Y-25174757D02*
X7582915Y-25165233D01*
X7821010Y-24984281D02*
X7840058Y-24984281D01*
X7840058Y-24984281D02*
X7859105Y-24993805D01*
X7859105Y-24993805D02*
X7868629Y-25003328D01*
X7868629Y-25003328D02*
X7878153Y-25022376D01*
X7878153Y-25022376D02*
X7887677Y-25060471D01*
X7887677Y-25060471D02*
X7887677Y-25108090D01*
X7887677Y-25108090D02*
X7878153Y-25146185D01*
X7878153Y-25146185D02*
X7868629Y-25165233D01*
X7868629Y-25165233D02*
X7859105Y-25174757D01*
X7859105Y-25174757D02*
X7840058Y-25184281D01*
X7840058Y-25184281D02*
X7821010Y-25184281D01*
X7821010Y-25184281D02*
X7801962Y-25174757D01*
X7801962Y-25174757D02*
X7792439Y-25165233D01*
X7792439Y-25165233D02*
X7782915Y-25146185D01*
X7782915Y-25146185D02*
X7773391Y-25108090D01*
X7773391Y-25108090D02*
X7773391Y-25060471D01*
X7773391Y-25060471D02*
X7782915Y-25022376D01*
X7782915Y-25022376D02*
X7792439Y-25003328D01*
X7792439Y-25003328D02*
X7801962Y-24993805D01*
X7801962Y-24993805D02*
X7821010Y-24984281D01*
X7973391Y-25184281D02*
X7973391Y-25050947D01*
X7973391Y-25069995D02*
X7982915Y-25060471D01*
X7982915Y-25060471D02*
X8001962Y-25050947D01*
X8001962Y-25050947D02*
X8030534Y-25050947D01*
X8030534Y-25050947D02*
X8049582Y-25060471D01*
X8049582Y-25060471D02*
X8059105Y-25079519D01*
X8059105Y-25079519D02*
X8059105Y-25184281D01*
X8059105Y-25079519D02*
X8068629Y-25060471D01*
X8068629Y-25060471D02*
X8087677Y-25050947D01*
X8087677Y-25050947D02*
X8116248Y-25050947D01*
X8116248Y-25050947D02*
X8135296Y-25060471D01*
X8135296Y-25060471D02*
X8144820Y-25079519D01*
X8144820Y-25079519D02*
X8144820Y-25184281D01*
X8240058Y-25184281D02*
X8240058Y-25050947D01*
X8240058Y-25069995D02*
X8249582Y-25060471D01*
X8249582Y-25060471D02*
X8268629Y-25050947D01*
X8268629Y-25050947D02*
X8297201Y-25050947D01*
X8297201Y-25050947D02*
X8316248Y-25060471D01*
X8316248Y-25060471D02*
X8325772Y-25079519D01*
X8325772Y-25079519D02*
X8325772Y-25184281D01*
X8325772Y-25079519D02*
X8335296Y-25060471D01*
X8335296Y-25060471D02*
X8354343Y-25050947D01*
X8354343Y-25050947D02*
X8382915Y-25050947D01*
X8382915Y-25050947D02*
X8401963Y-25060471D01*
X8401963Y-25060471D02*
X8411486Y-25079519D01*
X8411486Y-25079519D02*
X8411486Y-25184281D01*
X8801963Y-24974757D02*
X8630534Y-25231900D01*
X9059106Y-24984281D02*
X9078153Y-24984281D01*
X9078153Y-24984281D02*
X9097201Y-24993805D01*
X9097201Y-24993805D02*
X9106725Y-25003328D01*
X9106725Y-25003328D02*
X9116248Y-25022376D01*
X9116248Y-25022376D02*
X9125772Y-25060471D01*
X9125772Y-25060471D02*
X9125772Y-25108090D01*
X9125772Y-25108090D02*
X9116248Y-25146185D01*
X9116248Y-25146185D02*
X9106725Y-25165233D01*
X9106725Y-25165233D02*
X9097201Y-25174757D01*
X9097201Y-25174757D02*
X9078153Y-25184281D01*
X9078153Y-25184281D02*
X9059106Y-25184281D01*
X9059106Y-25184281D02*
X9040058Y-25174757D01*
X9040058Y-25174757D02*
X9030534Y-25165233D01*
X9030534Y-25165233D02*
X9021010Y-25146185D01*
X9021010Y-25146185D02*
X9011487Y-25108090D01*
X9011487Y-25108090D02*
X9011487Y-25060471D01*
X9011487Y-25060471D02*
X9021010Y-25022376D01*
X9021010Y-25022376D02*
X9030534Y-25003328D01*
X9030534Y-25003328D02*
X9040058Y-24993805D01*
X9040058Y-24993805D02*
X9059106Y-24984281D01*
X9211487Y-25165233D02*
X9221010Y-25174757D01*
X9221010Y-25174757D02*
X9211487Y-25184281D01*
X9211487Y-25184281D02*
X9201963Y-25174757D01*
X9201963Y-25174757D02*
X9211487Y-25165233D01*
X9211487Y-25165233D02*
X9211487Y-25184281D01*
X9344820Y-24984281D02*
X9363868Y-24984281D01*
X9363868Y-24984281D02*
X9382915Y-24993805D01*
X9382915Y-24993805D02*
X9392439Y-25003328D01*
X9392439Y-25003328D02*
X9401963Y-25022376D01*
X9401963Y-25022376D02*
X9411487Y-25060471D01*
X9411487Y-25060471D02*
X9411487Y-25108090D01*
X9411487Y-25108090D02*
X9401963Y-25146185D01*
X9401963Y-25146185D02*
X9392439Y-25165233D01*
X9392439Y-25165233D02*
X9382915Y-25174757D01*
X9382915Y-25174757D02*
X9363868Y-25184281D01*
X9363868Y-25184281D02*
X9344820Y-25184281D01*
X9344820Y-25184281D02*
X9325772Y-25174757D01*
X9325772Y-25174757D02*
X9316248Y-25165233D01*
X9316248Y-25165233D02*
X9306725Y-25146185D01*
X9306725Y-25146185D02*
X9297201Y-25108090D01*
X9297201Y-25108090D02*
X9297201Y-25060471D01*
X9297201Y-25060471D02*
X9306725Y-25022376D01*
X9306725Y-25022376D02*
X9316248Y-25003328D01*
X9316248Y-25003328D02*
X9325772Y-24993805D01*
X9325772Y-24993805D02*
X9344820Y-24984281D01*
X9582915Y-24984281D02*
X9544820Y-24984281D01*
X9544820Y-24984281D02*
X9525772Y-24993805D01*
X9525772Y-24993805D02*
X9516248Y-25003328D01*
X9516248Y-25003328D02*
X9497201Y-25031900D01*
X9497201Y-25031900D02*
X9487677Y-25069995D01*
X9487677Y-25069995D02*
X9487677Y-25146185D01*
X9487677Y-25146185D02*
X9497201Y-25165233D01*
X9497201Y-25165233D02*
X9506725Y-25174757D01*
X9506725Y-25174757D02*
X9525772Y-25184281D01*
X9525772Y-25184281D02*
X9563868Y-25184281D01*
X9563868Y-25184281D02*
X9582915Y-25174757D01*
X9582915Y-25174757D02*
X9592439Y-25165233D01*
X9592439Y-25165233D02*
X9601963Y-25146185D01*
X9601963Y-25146185D02*
X9601963Y-25098566D01*
X9601963Y-25098566D02*
X9592439Y-25079519D01*
X9592439Y-25079519D02*
X9582915Y-25069995D01*
X9582915Y-25069995D02*
X9563868Y-25060471D01*
X9563868Y-25060471D02*
X9525772Y-25060471D01*
X9525772Y-25060471D02*
X9506725Y-25069995D01*
X9506725Y-25069995D02*
X9497201Y-25079519D01*
X9497201Y-25079519D02*
X9487677Y-25098566D01*
X9716248Y-25069995D02*
X9697201Y-25060471D01*
X9697201Y-25060471D02*
X9687677Y-25050947D01*
X9687677Y-25050947D02*
X9678153Y-25031900D01*
X9678153Y-25031900D02*
X9678153Y-25022376D01*
X9678153Y-25022376D02*
X9687677Y-25003328D01*
X9687677Y-25003328D02*
X9697201Y-24993805D01*
X9697201Y-24993805D02*
X9716248Y-24984281D01*
X9716248Y-24984281D02*
X9754344Y-24984281D01*
X9754344Y-24984281D02*
X9773391Y-24993805D01*
X9773391Y-24993805D02*
X9782915Y-25003328D01*
X9782915Y-25003328D02*
X9792439Y-25022376D01*
X9792439Y-25022376D02*
X9792439Y-25031900D01*
X9792439Y-25031900D02*
X9782915Y-25050947D01*
X9782915Y-25050947D02*
X9773391Y-25060471D01*
X9773391Y-25060471D02*
X9754344Y-25069995D01*
X9754344Y-25069995D02*
X9716248Y-25069995D01*
X9716248Y-25069995D02*
X9697201Y-25079519D01*
X9697201Y-25079519D02*
X9687677Y-25089043D01*
X9687677Y-25089043D02*
X9678153Y-25108090D01*
X9678153Y-25108090D02*
X9678153Y-25146185D01*
X9678153Y-25146185D02*
X9687677Y-25165233D01*
X9687677Y-25165233D02*
X9697201Y-25174757D01*
X9697201Y-25174757D02*
X9716248Y-25184281D01*
X9716248Y-25184281D02*
X9754344Y-25184281D01*
X9754344Y-25184281D02*
X9773391Y-25174757D01*
X9773391Y-25174757D02*
X9782915Y-25165233D01*
X9782915Y-25165233D02*
X9792439Y-25146185D01*
X9792439Y-25146185D02*
X9792439Y-25108090D01*
X9792439Y-25108090D02*
X9782915Y-25089043D01*
X9782915Y-25089043D02*
X9773391Y-25079519D01*
X9773391Y-25079519D02*
X9754344Y-25069995D01*
X9887677Y-25184281D02*
X9925772Y-25184281D01*
X9925772Y-25184281D02*
X9944820Y-25174757D01*
X9944820Y-25174757D02*
X9954344Y-25165233D01*
X9954344Y-25165233D02*
X9973391Y-25136662D01*
X9973391Y-25136662D02*
X9982915Y-25098566D01*
X9982915Y-25098566D02*
X9982915Y-25022376D01*
X9982915Y-25022376D02*
X9973391Y-25003328D01*
X9973391Y-25003328D02*
X9963868Y-24993805D01*
X9963868Y-24993805D02*
X9944820Y-24984281D01*
X9944820Y-24984281D02*
X9906725Y-24984281D01*
X9906725Y-24984281D02*
X9887677Y-24993805D01*
X9887677Y-24993805D02*
X9878153Y-25003328D01*
X9878153Y-25003328D02*
X9868629Y-25022376D01*
X9868629Y-25022376D02*
X9868629Y-25069995D01*
X9868629Y-25069995D02*
X9878153Y-25089043D01*
X9878153Y-25089043D02*
X9887677Y-25098566D01*
X9887677Y-25098566D02*
X9906725Y-25108090D01*
X9906725Y-25108090D02*
X9944820Y-25108090D01*
X9944820Y-25108090D02*
X9963868Y-25098566D01*
X9963868Y-25098566D02*
X9973391Y-25089043D01*
X9973391Y-25089043D02*
X9982915Y-25069995D01*
X10059106Y-24984281D02*
X10059106Y-25022376D01*
X10135296Y-24984281D02*
X10135296Y-25022376D01*
X10430534Y-25260471D02*
X10421010Y-25250947D01*
X10421010Y-25250947D02*
X10401963Y-25222376D01*
X10401963Y-25222376D02*
X10392439Y-25203328D01*
X10392439Y-25203328D02*
X10382915Y-25174757D01*
X10382915Y-25174757D02*
X10373391Y-25127138D01*
X10373391Y-25127138D02*
X10373391Y-25089043D01*
X10373391Y-25089043D02*
X10382915Y-25041424D01*
X10382915Y-25041424D02*
X10392439Y-25012852D01*
X10392439Y-25012852D02*
X10401963Y-24993805D01*
X10401963Y-24993805D02*
X10421010Y-24965233D01*
X10421010Y-24965233D02*
X10430534Y-24955709D01*
X10592439Y-25050947D02*
X10592439Y-25184281D01*
X10544820Y-24974757D02*
X10497201Y-25117614D01*
X10497201Y-25117614D02*
X10621010Y-25117614D01*
X10735296Y-24984281D02*
X10754344Y-24984281D01*
X10754344Y-24984281D02*
X10773391Y-24993805D01*
X10773391Y-24993805D02*
X10782915Y-25003328D01*
X10782915Y-25003328D02*
X10792439Y-25022376D01*
X10792439Y-25022376D02*
X10801963Y-25060471D01*
X10801963Y-25060471D02*
X10801963Y-25108090D01*
X10801963Y-25108090D02*
X10792439Y-25146185D01*
X10792439Y-25146185D02*
X10782915Y-25165233D01*
X10782915Y-25165233D02*
X10773391Y-25174757D01*
X10773391Y-25174757D02*
X10754344Y-25184281D01*
X10754344Y-25184281D02*
X10735296Y-25184281D01*
X10735296Y-25184281D02*
X10716249Y-25174757D01*
X10716249Y-25174757D02*
X10706725Y-25165233D01*
X10706725Y-25165233D02*
X10697201Y-25146185D01*
X10697201Y-25146185D02*
X10687677Y-25108090D01*
X10687677Y-25108090D02*
X10687677Y-25060471D01*
X10687677Y-25060471D02*
X10697201Y-25022376D01*
X10697201Y-25022376D02*
X10706725Y-25003328D01*
X10706725Y-25003328D02*
X10716249Y-24993805D01*
X10716249Y-24993805D02*
X10735296Y-24984281D01*
X11040058Y-25184281D02*
X11040058Y-24984281D01*
X11125772Y-25184281D02*
X11125772Y-25079519D01*
X11125772Y-25079519D02*
X11116249Y-25060471D01*
X11116249Y-25060471D02*
X11097201Y-25050947D01*
X11097201Y-25050947D02*
X11068630Y-25050947D01*
X11068630Y-25050947D02*
X11049582Y-25060471D01*
X11049582Y-25060471D02*
X11040058Y-25069995D01*
X11249582Y-25184281D02*
X11230534Y-25174757D01*
X11230534Y-25174757D02*
X11221010Y-25165233D01*
X11221010Y-25165233D02*
X11211487Y-25146185D01*
X11211487Y-25146185D02*
X11211487Y-25089043D01*
X11211487Y-25089043D02*
X11221010Y-25069995D01*
X11221010Y-25069995D02*
X11230534Y-25060471D01*
X11230534Y-25060471D02*
X11249582Y-25050947D01*
X11249582Y-25050947D02*
X11278153Y-25050947D01*
X11278153Y-25050947D02*
X11297201Y-25060471D01*
X11297201Y-25060471D02*
X11306725Y-25069995D01*
X11306725Y-25069995D02*
X11316249Y-25089043D01*
X11316249Y-25089043D02*
X11316249Y-25146185D01*
X11316249Y-25146185D02*
X11306725Y-25165233D01*
X11306725Y-25165233D02*
X11297201Y-25174757D01*
X11297201Y-25174757D02*
X11278153Y-25184281D01*
X11278153Y-25184281D02*
X11249582Y-25184281D01*
X11430534Y-25184281D02*
X11411487Y-25174757D01*
X11411487Y-25174757D02*
X11401963Y-25155709D01*
X11401963Y-25155709D02*
X11401963Y-24984281D01*
X11582915Y-25174757D02*
X11563868Y-25184281D01*
X11563868Y-25184281D02*
X11525772Y-25184281D01*
X11525772Y-25184281D02*
X11506725Y-25174757D01*
X11506725Y-25174757D02*
X11497201Y-25155709D01*
X11497201Y-25155709D02*
X11497201Y-25079519D01*
X11497201Y-25079519D02*
X11506725Y-25060471D01*
X11506725Y-25060471D02*
X11525772Y-25050947D01*
X11525772Y-25050947D02*
X11563868Y-25050947D01*
X11563868Y-25050947D02*
X11582915Y-25060471D01*
X11582915Y-25060471D02*
X11592439Y-25079519D01*
X11592439Y-25079519D02*
X11592439Y-25098566D01*
X11592439Y-25098566D02*
X11497201Y-25117614D01*
X11668630Y-25174757D02*
X11687677Y-25184281D01*
X11687677Y-25184281D02*
X11725772Y-25184281D01*
X11725772Y-25184281D02*
X11744820Y-25174757D01*
X11744820Y-25174757D02*
X11754344Y-25155709D01*
X11754344Y-25155709D02*
X11754344Y-25146185D01*
X11754344Y-25146185D02*
X11744820Y-25127138D01*
X11744820Y-25127138D02*
X11725772Y-25117614D01*
X11725772Y-25117614D02*
X11697201Y-25117614D01*
X11697201Y-25117614D02*
X11678153Y-25108090D01*
X11678153Y-25108090D02*
X11668630Y-25089043D01*
X11668630Y-25089043D02*
X11668630Y-25079519D01*
X11668630Y-25079519D02*
X11678153Y-25060471D01*
X11678153Y-25060471D02*
X11697201Y-25050947D01*
X11697201Y-25050947D02*
X11725772Y-25050947D01*
X11725772Y-25050947D02*
X11744820Y-25060471D01*
X11821011Y-25260471D02*
X11830534Y-25250947D01*
X11830534Y-25250947D02*
X11849582Y-25222376D01*
X11849582Y-25222376D02*
X11859106Y-25203328D01*
X11859106Y-25203328D02*
X11868630Y-25174757D01*
X11868630Y-25174757D02*
X11878153Y-25127138D01*
X11878153Y-25127138D02*
X11878153Y-25089043D01*
X11878153Y-25089043D02*
X11868630Y-25041424D01*
X11868630Y-25041424D02*
X11859106Y-25012852D01*
X11859106Y-25012852D02*
X11849582Y-24993805D01*
X11849582Y-24993805D02*
X11830534Y-24965233D01*
X11830534Y-24965233D02*
X11821011Y-24955709D01*
X12182915Y-25260471D02*
X12173391Y-25250947D01*
X12173391Y-25250947D02*
X12154344Y-25222376D01*
X12154344Y-25222376D02*
X12144820Y-25203328D01*
X12144820Y-25203328D02*
X12135296Y-25174757D01*
X12135296Y-25174757D02*
X12125772Y-25127138D01*
X12125772Y-25127138D02*
X12125772Y-25089043D01*
X12125772Y-25089043D02*
X12135296Y-25041424D01*
X12135296Y-25041424D02*
X12144820Y-25012852D01*
X12144820Y-25012852D02*
X12154344Y-24993805D01*
X12154344Y-24993805D02*
X12173391Y-24965233D01*
X12173391Y-24965233D02*
X12182915Y-24955709D01*
X12259106Y-25050947D02*
X12259106Y-25184281D01*
X12259106Y-25069995D02*
X12268630Y-25060471D01*
X12268630Y-25060471D02*
X12287677Y-25050947D01*
X12287677Y-25050947D02*
X12316249Y-25050947D01*
X12316249Y-25050947D02*
X12335296Y-25060471D01*
X12335296Y-25060471D02*
X12344820Y-25079519D01*
X12344820Y-25079519D02*
X12344820Y-25184281D01*
X12468630Y-25184281D02*
X12449582Y-25174757D01*
X12449582Y-25174757D02*
X12440058Y-25165233D01*
X12440058Y-25165233D02*
X12430534Y-25146185D01*
X12430534Y-25146185D02*
X12430534Y-25089043D01*
X12430534Y-25089043D02*
X12440058Y-25069995D01*
X12440058Y-25069995D02*
X12449582Y-25060471D01*
X12449582Y-25060471D02*
X12468630Y-25050947D01*
X12468630Y-25050947D02*
X12497201Y-25050947D01*
X12497201Y-25050947D02*
X12516249Y-25060471D01*
X12516249Y-25060471D02*
X12525772Y-25069995D01*
X12525772Y-25069995D02*
X12535296Y-25089043D01*
X12535296Y-25089043D02*
X12535296Y-25146185D01*
X12535296Y-25146185D02*
X12525772Y-25165233D01*
X12525772Y-25165233D02*
X12516249Y-25174757D01*
X12516249Y-25174757D02*
X12497201Y-25184281D01*
X12497201Y-25184281D02*
X12468630Y-25184281D01*
X12592439Y-25050947D02*
X12668630Y-25050947D01*
X12621011Y-24984281D02*
X12621011Y-25155709D01*
X12621011Y-25155709D02*
X12630534Y-25174757D01*
X12630534Y-25174757D02*
X12649582Y-25184281D01*
X12649582Y-25184281D02*
X12668630Y-25184281D01*
X12887677Y-25050947D02*
X12887677Y-25250947D01*
X12887677Y-25060471D02*
X12906725Y-25050947D01*
X12906725Y-25050947D02*
X12944820Y-25050947D01*
X12944820Y-25050947D02*
X12963868Y-25060471D01*
X12963868Y-25060471D02*
X12973392Y-25069995D01*
X12973392Y-25069995D02*
X12982915Y-25089043D01*
X12982915Y-25089043D02*
X12982915Y-25146185D01*
X12982915Y-25146185D02*
X12973392Y-25165233D01*
X12973392Y-25165233D02*
X12963868Y-25174757D01*
X12963868Y-25174757D02*
X12944820Y-25184281D01*
X12944820Y-25184281D02*
X12906725Y-25184281D01*
X12906725Y-25184281D02*
X12887677Y-25174757D01*
X13097201Y-25184281D02*
X13078153Y-25174757D01*
X13078153Y-25174757D02*
X13068630Y-25155709D01*
X13068630Y-25155709D02*
X13068630Y-24984281D01*
X13259106Y-25184281D02*
X13259106Y-25079519D01*
X13259106Y-25079519D02*
X13249582Y-25060471D01*
X13249582Y-25060471D02*
X13230534Y-25050947D01*
X13230534Y-25050947D02*
X13192439Y-25050947D01*
X13192439Y-25050947D02*
X13173392Y-25060471D01*
X13259106Y-25174757D02*
X13240058Y-25184281D01*
X13240058Y-25184281D02*
X13192439Y-25184281D01*
X13192439Y-25184281D02*
X13173392Y-25174757D01*
X13173392Y-25174757D02*
X13163868Y-25155709D01*
X13163868Y-25155709D02*
X13163868Y-25136662D01*
X13163868Y-25136662D02*
X13173392Y-25117614D01*
X13173392Y-25117614D02*
X13192439Y-25108090D01*
X13192439Y-25108090D02*
X13240058Y-25108090D01*
X13240058Y-25108090D02*
X13259106Y-25098566D01*
X13325773Y-25050947D02*
X13401963Y-25050947D01*
X13354344Y-24984281D02*
X13354344Y-25155709D01*
X13354344Y-25155709D02*
X13363868Y-25174757D01*
X13363868Y-25174757D02*
X13382915Y-25184281D01*
X13382915Y-25184281D02*
X13401963Y-25184281D01*
X13544820Y-25174757D02*
X13525773Y-25184281D01*
X13525773Y-25184281D02*
X13487677Y-25184281D01*
X13487677Y-25184281D02*
X13468630Y-25174757D01*
X13468630Y-25174757D02*
X13459106Y-25155709D01*
X13459106Y-25155709D02*
X13459106Y-25079519D01*
X13459106Y-25079519D02*
X13468630Y-25060471D01*
X13468630Y-25060471D02*
X13487677Y-25050947D01*
X13487677Y-25050947D02*
X13525773Y-25050947D01*
X13525773Y-25050947D02*
X13544820Y-25060471D01*
X13544820Y-25060471D02*
X13554344Y-25079519D01*
X13554344Y-25079519D02*
X13554344Y-25098566D01*
X13554344Y-25098566D02*
X13459106Y-25117614D01*
X13725773Y-25184281D02*
X13725773Y-24984281D01*
X13725773Y-25174757D02*
X13706725Y-25184281D01*
X13706725Y-25184281D02*
X13668630Y-25184281D01*
X13668630Y-25184281D02*
X13649582Y-25174757D01*
X13649582Y-25174757D02*
X13640058Y-25165233D01*
X13640058Y-25165233D02*
X13630534Y-25146185D01*
X13630534Y-25146185D02*
X13630534Y-25089043D01*
X13630534Y-25089043D02*
X13640058Y-25069995D01*
X13640058Y-25069995D02*
X13649582Y-25060471D01*
X13649582Y-25060471D02*
X13668630Y-25050947D01*
X13668630Y-25050947D02*
X13706725Y-25050947D01*
X13706725Y-25050947D02*
X13725773Y-25060471D01*
X13801963Y-25260471D02*
X13811487Y-25250947D01*
X13811487Y-25250947D02*
X13830534Y-25222376D01*
X13830534Y-25222376D02*
X13840058Y-25203328D01*
X13840058Y-25203328D02*
X13849582Y-25174757D01*
X13849582Y-25174757D02*
X13859106Y-25127138D01*
X13859106Y-25127138D02*
X13859106Y-25089043D01*
X13859106Y-25089043D02*
X13849582Y-25041424D01*
X13849582Y-25041424D02*
X13840058Y-25012852D01*
X13840058Y-25012852D02*
X13830534Y-24993805D01*
X13830534Y-24993805D02*
X13811487Y-24965233D01*
X13811487Y-24965233D02*
X13801963Y-24955709D01*
X6855471Y-25387797D02*
G75*
G02*
X6655471Y-25387797I-100000J0D01*
G01*
X6655471Y-25387797D02*
G75*
G02*
X6855471Y-25387797I100000J0D01*
G01*
X7106724Y-25298328D02*
X7116248Y-25288805D01*
X7116248Y-25288805D02*
X7135296Y-25279281D01*
X7135296Y-25279281D02*
X7182915Y-25279281D01*
X7182915Y-25279281D02*
X7201962Y-25288805D01*
X7201962Y-25288805D02*
X7211486Y-25298328D01*
X7211486Y-25298328D02*
X7221010Y-25317376D01*
X7221010Y-25317376D02*
X7221010Y-25336424D01*
X7221010Y-25336424D02*
X7211486Y-25364995D01*
X7211486Y-25364995D02*
X7097201Y-25479281D01*
X7097201Y-25479281D02*
X7221010Y-25479281D01*
X7306724Y-25460233D02*
X7316248Y-25469757D01*
X7316248Y-25469757D02*
X7306724Y-25479281D01*
X7306724Y-25479281D02*
X7297201Y-25469757D01*
X7297201Y-25469757D02*
X7306724Y-25460233D01*
X7306724Y-25460233D02*
X7306724Y-25479281D01*
X7440058Y-25279281D02*
X7459105Y-25279281D01*
X7459105Y-25279281D02*
X7478153Y-25288805D01*
X7478153Y-25288805D02*
X7487677Y-25298328D01*
X7487677Y-25298328D02*
X7497201Y-25317376D01*
X7497201Y-25317376D02*
X7506724Y-25355471D01*
X7506724Y-25355471D02*
X7506724Y-25403090D01*
X7506724Y-25403090D02*
X7497201Y-25441185D01*
X7497201Y-25441185D02*
X7487677Y-25460233D01*
X7487677Y-25460233D02*
X7478153Y-25469757D01*
X7478153Y-25469757D02*
X7459105Y-25479281D01*
X7459105Y-25479281D02*
X7440058Y-25479281D01*
X7440058Y-25479281D02*
X7421010Y-25469757D01*
X7421010Y-25469757D02*
X7411486Y-25460233D01*
X7411486Y-25460233D02*
X7401962Y-25441185D01*
X7401962Y-25441185D02*
X7392439Y-25403090D01*
X7392439Y-25403090D02*
X7392439Y-25355471D01*
X7392439Y-25355471D02*
X7401962Y-25317376D01*
X7401962Y-25317376D02*
X7411486Y-25298328D01*
X7411486Y-25298328D02*
X7421010Y-25288805D01*
X7421010Y-25288805D02*
X7440058Y-25279281D01*
X7630534Y-25279281D02*
X7649582Y-25279281D01*
X7649582Y-25279281D02*
X7668629Y-25288805D01*
X7668629Y-25288805D02*
X7678153Y-25298328D01*
X7678153Y-25298328D02*
X7687677Y-25317376D01*
X7687677Y-25317376D02*
X7697201Y-25355471D01*
X7697201Y-25355471D02*
X7697201Y-25403090D01*
X7697201Y-25403090D02*
X7687677Y-25441185D01*
X7687677Y-25441185D02*
X7678153Y-25460233D01*
X7678153Y-25460233D02*
X7668629Y-25469757D01*
X7668629Y-25469757D02*
X7649582Y-25479281D01*
X7649582Y-25479281D02*
X7630534Y-25479281D01*
X7630534Y-25479281D02*
X7611486Y-25469757D01*
X7611486Y-25469757D02*
X7601962Y-25460233D01*
X7601962Y-25460233D02*
X7592439Y-25441185D01*
X7592439Y-25441185D02*
X7582915Y-25403090D01*
X7582915Y-25403090D02*
X7582915Y-25355471D01*
X7582915Y-25355471D02*
X7592439Y-25317376D01*
X7592439Y-25317376D02*
X7601962Y-25298328D01*
X7601962Y-25298328D02*
X7611486Y-25288805D01*
X7611486Y-25288805D02*
X7630534Y-25279281D01*
X7763867Y-25279281D02*
X7897201Y-25279281D01*
X7897201Y-25279281D02*
X7811486Y-25479281D01*
X7973391Y-25479281D02*
X7973391Y-25345947D01*
X7973391Y-25364995D02*
X7982915Y-25355471D01*
X7982915Y-25355471D02*
X8001962Y-25345947D01*
X8001962Y-25345947D02*
X8030534Y-25345947D01*
X8030534Y-25345947D02*
X8049582Y-25355471D01*
X8049582Y-25355471D02*
X8059105Y-25374519D01*
X8059105Y-25374519D02*
X8059105Y-25479281D01*
X8059105Y-25374519D02*
X8068629Y-25355471D01*
X8068629Y-25355471D02*
X8087677Y-25345947D01*
X8087677Y-25345947D02*
X8116248Y-25345947D01*
X8116248Y-25345947D02*
X8135296Y-25355471D01*
X8135296Y-25355471D02*
X8144820Y-25374519D01*
X8144820Y-25374519D02*
X8144820Y-25479281D01*
X8240058Y-25479281D02*
X8240058Y-25345947D01*
X8240058Y-25364995D02*
X8249582Y-25355471D01*
X8249582Y-25355471D02*
X8268629Y-25345947D01*
X8268629Y-25345947D02*
X8297201Y-25345947D01*
X8297201Y-25345947D02*
X8316248Y-25355471D01*
X8316248Y-25355471D02*
X8325772Y-25374519D01*
X8325772Y-25374519D02*
X8325772Y-25479281D01*
X8325772Y-25374519D02*
X8335296Y-25355471D01*
X8335296Y-25355471D02*
X8354343Y-25345947D01*
X8354343Y-25345947D02*
X8382915Y-25345947D01*
X8382915Y-25345947D02*
X8401963Y-25355471D01*
X8401963Y-25355471D02*
X8411486Y-25374519D01*
X8411486Y-25374519D02*
X8411486Y-25479281D01*
X8801963Y-25269757D02*
X8630534Y-25526900D01*
X9059106Y-25279281D02*
X9078153Y-25279281D01*
X9078153Y-25279281D02*
X9097201Y-25288805D01*
X9097201Y-25288805D02*
X9106725Y-25298328D01*
X9106725Y-25298328D02*
X9116248Y-25317376D01*
X9116248Y-25317376D02*
X9125772Y-25355471D01*
X9125772Y-25355471D02*
X9125772Y-25403090D01*
X9125772Y-25403090D02*
X9116248Y-25441185D01*
X9116248Y-25441185D02*
X9106725Y-25460233D01*
X9106725Y-25460233D02*
X9097201Y-25469757D01*
X9097201Y-25469757D02*
X9078153Y-25479281D01*
X9078153Y-25479281D02*
X9059106Y-25479281D01*
X9059106Y-25479281D02*
X9040058Y-25469757D01*
X9040058Y-25469757D02*
X9030534Y-25460233D01*
X9030534Y-25460233D02*
X9021010Y-25441185D01*
X9021010Y-25441185D02*
X9011487Y-25403090D01*
X9011487Y-25403090D02*
X9011487Y-25355471D01*
X9011487Y-25355471D02*
X9021010Y-25317376D01*
X9021010Y-25317376D02*
X9030534Y-25298328D01*
X9030534Y-25298328D02*
X9040058Y-25288805D01*
X9040058Y-25288805D02*
X9059106Y-25279281D01*
X9211487Y-25460233D02*
X9221010Y-25469757D01*
X9221010Y-25469757D02*
X9211487Y-25479281D01*
X9211487Y-25479281D02*
X9201963Y-25469757D01*
X9201963Y-25469757D02*
X9211487Y-25460233D01*
X9211487Y-25460233D02*
X9211487Y-25479281D01*
X9344820Y-25279281D02*
X9363868Y-25279281D01*
X9363868Y-25279281D02*
X9382915Y-25288805D01*
X9382915Y-25288805D02*
X9392439Y-25298328D01*
X9392439Y-25298328D02*
X9401963Y-25317376D01*
X9401963Y-25317376D02*
X9411487Y-25355471D01*
X9411487Y-25355471D02*
X9411487Y-25403090D01*
X9411487Y-25403090D02*
X9401963Y-25441185D01*
X9401963Y-25441185D02*
X9392439Y-25460233D01*
X9392439Y-25460233D02*
X9382915Y-25469757D01*
X9382915Y-25469757D02*
X9363868Y-25479281D01*
X9363868Y-25479281D02*
X9344820Y-25479281D01*
X9344820Y-25479281D02*
X9325772Y-25469757D01*
X9325772Y-25469757D02*
X9316248Y-25460233D01*
X9316248Y-25460233D02*
X9306725Y-25441185D01*
X9306725Y-25441185D02*
X9297201Y-25403090D01*
X9297201Y-25403090D02*
X9297201Y-25355471D01*
X9297201Y-25355471D02*
X9306725Y-25317376D01*
X9306725Y-25317376D02*
X9316248Y-25298328D01*
X9316248Y-25298328D02*
X9325772Y-25288805D01*
X9325772Y-25288805D02*
X9344820Y-25279281D01*
X9478153Y-25279281D02*
X9611487Y-25279281D01*
X9611487Y-25279281D02*
X9525772Y-25479281D01*
X9697201Y-25479281D02*
X9735296Y-25479281D01*
X9735296Y-25479281D02*
X9754344Y-25469757D01*
X9754344Y-25469757D02*
X9763868Y-25460233D01*
X9763868Y-25460233D02*
X9782915Y-25431662D01*
X9782915Y-25431662D02*
X9792439Y-25393566D01*
X9792439Y-25393566D02*
X9792439Y-25317376D01*
X9792439Y-25317376D02*
X9782915Y-25298328D01*
X9782915Y-25298328D02*
X9773391Y-25288805D01*
X9773391Y-25288805D02*
X9754344Y-25279281D01*
X9754344Y-25279281D02*
X9716248Y-25279281D01*
X9716248Y-25279281D02*
X9697201Y-25288805D01*
X9697201Y-25288805D02*
X9687677Y-25298328D01*
X9687677Y-25298328D02*
X9678153Y-25317376D01*
X9678153Y-25317376D02*
X9678153Y-25364995D01*
X9678153Y-25364995D02*
X9687677Y-25384043D01*
X9687677Y-25384043D02*
X9697201Y-25393566D01*
X9697201Y-25393566D02*
X9716248Y-25403090D01*
X9716248Y-25403090D02*
X9754344Y-25403090D01*
X9754344Y-25403090D02*
X9773391Y-25393566D01*
X9773391Y-25393566D02*
X9782915Y-25384043D01*
X9782915Y-25384043D02*
X9792439Y-25364995D01*
X9916248Y-25279281D02*
X9935296Y-25279281D01*
X9935296Y-25279281D02*
X9954344Y-25288805D01*
X9954344Y-25288805D02*
X9963868Y-25298328D01*
X9963868Y-25298328D02*
X9973391Y-25317376D01*
X9973391Y-25317376D02*
X9982915Y-25355471D01*
X9982915Y-25355471D02*
X9982915Y-25403090D01*
X9982915Y-25403090D02*
X9973391Y-25441185D01*
X9973391Y-25441185D02*
X9963868Y-25460233D01*
X9963868Y-25460233D02*
X9954344Y-25469757D01*
X9954344Y-25469757D02*
X9935296Y-25479281D01*
X9935296Y-25479281D02*
X9916248Y-25479281D01*
X9916248Y-25479281D02*
X9897201Y-25469757D01*
X9897201Y-25469757D02*
X9887677Y-25460233D01*
X9887677Y-25460233D02*
X9878153Y-25441185D01*
X9878153Y-25441185D02*
X9868629Y-25403090D01*
X9868629Y-25403090D02*
X9868629Y-25355471D01*
X9868629Y-25355471D02*
X9878153Y-25317376D01*
X9878153Y-25317376D02*
X9887677Y-25298328D01*
X9887677Y-25298328D02*
X9897201Y-25288805D01*
X9897201Y-25288805D02*
X9916248Y-25279281D01*
X10059106Y-25279281D02*
X10059106Y-25317376D01*
X10135296Y-25279281D02*
X10135296Y-25317376D01*
X10430534Y-25555471D02*
X10421010Y-25545947D01*
X10421010Y-25545947D02*
X10401963Y-25517376D01*
X10401963Y-25517376D02*
X10392439Y-25498328D01*
X10392439Y-25498328D02*
X10382915Y-25469757D01*
X10382915Y-25469757D02*
X10373391Y-25422138D01*
X10373391Y-25422138D02*
X10373391Y-25384043D01*
X10373391Y-25384043D02*
X10382915Y-25336424D01*
X10382915Y-25336424D02*
X10392439Y-25307852D01*
X10392439Y-25307852D02*
X10401963Y-25288805D01*
X10401963Y-25288805D02*
X10421010Y-25260233D01*
X10421010Y-25260233D02*
X10430534Y-25250709D01*
X10611487Y-25479281D02*
X10497201Y-25479281D01*
X10554344Y-25479281D02*
X10554344Y-25279281D01*
X10554344Y-25279281D02*
X10535296Y-25307852D01*
X10535296Y-25307852D02*
X10516249Y-25326900D01*
X10516249Y-25326900D02*
X10497201Y-25336424D01*
X10849582Y-25479281D02*
X10849582Y-25279281D01*
X10935296Y-25479281D02*
X10935296Y-25374519D01*
X10935296Y-25374519D02*
X10925772Y-25355471D01*
X10925772Y-25355471D02*
X10906725Y-25345947D01*
X10906725Y-25345947D02*
X10878153Y-25345947D01*
X10878153Y-25345947D02*
X10859106Y-25355471D01*
X10859106Y-25355471D02*
X10849582Y-25364995D01*
X11059106Y-25479281D02*
X11040058Y-25469757D01*
X11040058Y-25469757D02*
X11030534Y-25460233D01*
X11030534Y-25460233D02*
X11021011Y-25441185D01*
X11021011Y-25441185D02*
X11021011Y-25384043D01*
X11021011Y-25384043D02*
X11030534Y-25364995D01*
X11030534Y-25364995D02*
X11040058Y-25355471D01*
X11040058Y-25355471D02*
X11059106Y-25345947D01*
X11059106Y-25345947D02*
X11087677Y-25345947D01*
X11087677Y-25345947D02*
X11106725Y-25355471D01*
X11106725Y-25355471D02*
X11116249Y-25364995D01*
X11116249Y-25364995D02*
X11125772Y-25384043D01*
X11125772Y-25384043D02*
X11125772Y-25441185D01*
X11125772Y-25441185D02*
X11116249Y-25460233D01*
X11116249Y-25460233D02*
X11106725Y-25469757D01*
X11106725Y-25469757D02*
X11087677Y-25479281D01*
X11087677Y-25479281D02*
X11059106Y-25479281D01*
X11240058Y-25479281D02*
X11221010Y-25469757D01*
X11221010Y-25469757D02*
X11211487Y-25450709D01*
X11211487Y-25450709D02*
X11211487Y-25279281D01*
X11392439Y-25469757D02*
X11373391Y-25479281D01*
X11373391Y-25479281D02*
X11335296Y-25479281D01*
X11335296Y-25479281D02*
X11316249Y-25469757D01*
X11316249Y-25469757D02*
X11306725Y-25450709D01*
X11306725Y-25450709D02*
X11306725Y-25374519D01*
X11306725Y-25374519D02*
X11316249Y-25355471D01*
X11316249Y-25355471D02*
X11335296Y-25345947D01*
X11335296Y-25345947D02*
X11373391Y-25345947D01*
X11373391Y-25345947D02*
X11392439Y-25355471D01*
X11392439Y-25355471D02*
X11401963Y-25374519D01*
X11401963Y-25374519D02*
X11401963Y-25393566D01*
X11401963Y-25393566D02*
X11306725Y-25412614D01*
X11468630Y-25555471D02*
X11478153Y-25545947D01*
X11478153Y-25545947D02*
X11497201Y-25517376D01*
X11497201Y-25517376D02*
X11506725Y-25498328D01*
X11506725Y-25498328D02*
X11516249Y-25469757D01*
X11516249Y-25469757D02*
X11525772Y-25422138D01*
X11525772Y-25422138D02*
X11525772Y-25384043D01*
X11525772Y-25384043D02*
X11516249Y-25336424D01*
X11516249Y-25336424D02*
X11506725Y-25307852D01*
X11506725Y-25307852D02*
X11497201Y-25288805D01*
X11497201Y-25288805D02*
X11478153Y-25260233D01*
X11478153Y-25260233D02*
X11468630Y-25250709D01*
X11830534Y-25555471D02*
X11821010Y-25545947D01*
X11821010Y-25545947D02*
X11801963Y-25517376D01*
X11801963Y-25517376D02*
X11792439Y-25498328D01*
X11792439Y-25498328D02*
X11782915Y-25469757D01*
X11782915Y-25469757D02*
X11773391Y-25422138D01*
X11773391Y-25422138D02*
X11773391Y-25384043D01*
X11773391Y-25384043D02*
X11782915Y-25336424D01*
X11782915Y-25336424D02*
X11792439Y-25307852D01*
X11792439Y-25307852D02*
X11801963Y-25288805D01*
X11801963Y-25288805D02*
X11821010Y-25260233D01*
X11821010Y-25260233D02*
X11830534Y-25250709D01*
X11906725Y-25345947D02*
X11906725Y-25479281D01*
X11906725Y-25364995D02*
X11916249Y-25355471D01*
X11916249Y-25355471D02*
X11935296Y-25345947D01*
X11935296Y-25345947D02*
X11963868Y-25345947D01*
X11963868Y-25345947D02*
X11982915Y-25355471D01*
X11982915Y-25355471D02*
X11992439Y-25374519D01*
X11992439Y-25374519D02*
X11992439Y-25479281D01*
X12116249Y-25479281D02*
X12097201Y-25469757D01*
X12097201Y-25469757D02*
X12087677Y-25460233D01*
X12087677Y-25460233D02*
X12078153Y-25441185D01*
X12078153Y-25441185D02*
X12078153Y-25384043D01*
X12078153Y-25384043D02*
X12087677Y-25364995D01*
X12087677Y-25364995D02*
X12097201Y-25355471D01*
X12097201Y-25355471D02*
X12116249Y-25345947D01*
X12116249Y-25345947D02*
X12144820Y-25345947D01*
X12144820Y-25345947D02*
X12163868Y-25355471D01*
X12163868Y-25355471D02*
X12173391Y-25364995D01*
X12173391Y-25364995D02*
X12182915Y-25384043D01*
X12182915Y-25384043D02*
X12182915Y-25441185D01*
X12182915Y-25441185D02*
X12173391Y-25460233D01*
X12173391Y-25460233D02*
X12163868Y-25469757D01*
X12163868Y-25469757D02*
X12144820Y-25479281D01*
X12144820Y-25479281D02*
X12116249Y-25479281D01*
X12240058Y-25345947D02*
X12316249Y-25345947D01*
X12268630Y-25279281D02*
X12268630Y-25450709D01*
X12268630Y-25450709D02*
X12278153Y-25469757D01*
X12278153Y-25469757D02*
X12297201Y-25479281D01*
X12297201Y-25479281D02*
X12316249Y-25479281D01*
X12535296Y-25345947D02*
X12535296Y-25545947D01*
X12535296Y-25355471D02*
X12554344Y-25345947D01*
X12554344Y-25345947D02*
X12592439Y-25345947D01*
X12592439Y-25345947D02*
X12611487Y-25355471D01*
X12611487Y-25355471D02*
X12621011Y-25364995D01*
X12621011Y-25364995D02*
X12630534Y-25384043D01*
X12630534Y-25384043D02*
X12630534Y-25441185D01*
X12630534Y-25441185D02*
X12621011Y-25460233D01*
X12621011Y-25460233D02*
X12611487Y-25469757D01*
X12611487Y-25469757D02*
X12592439Y-25479281D01*
X12592439Y-25479281D02*
X12554344Y-25479281D01*
X12554344Y-25479281D02*
X12535296Y-25469757D01*
X12744820Y-25479281D02*
X12725772Y-25469757D01*
X12725772Y-25469757D02*
X12716249Y-25450709D01*
X12716249Y-25450709D02*
X12716249Y-25279281D01*
X12906725Y-25479281D02*
X12906725Y-25374519D01*
X12906725Y-25374519D02*
X12897201Y-25355471D01*
X12897201Y-25355471D02*
X12878153Y-25345947D01*
X12878153Y-25345947D02*
X12840058Y-25345947D01*
X12840058Y-25345947D02*
X12821011Y-25355471D01*
X12906725Y-25469757D02*
X12887677Y-25479281D01*
X12887677Y-25479281D02*
X12840058Y-25479281D01*
X12840058Y-25479281D02*
X12821011Y-25469757D01*
X12821011Y-25469757D02*
X12811487Y-25450709D01*
X12811487Y-25450709D02*
X12811487Y-25431662D01*
X12811487Y-25431662D02*
X12821011Y-25412614D01*
X12821011Y-25412614D02*
X12840058Y-25403090D01*
X12840058Y-25403090D02*
X12887677Y-25403090D01*
X12887677Y-25403090D02*
X12906725Y-25393566D01*
X12973392Y-25345947D02*
X13049582Y-25345947D01*
X13001963Y-25279281D02*
X13001963Y-25450709D01*
X13001963Y-25450709D02*
X13011487Y-25469757D01*
X13011487Y-25469757D02*
X13030534Y-25479281D01*
X13030534Y-25479281D02*
X13049582Y-25479281D01*
X13192439Y-25469757D02*
X13173392Y-25479281D01*
X13173392Y-25479281D02*
X13135296Y-25479281D01*
X13135296Y-25479281D02*
X13116249Y-25469757D01*
X13116249Y-25469757D02*
X13106725Y-25450709D01*
X13106725Y-25450709D02*
X13106725Y-25374519D01*
X13106725Y-25374519D02*
X13116249Y-25355471D01*
X13116249Y-25355471D02*
X13135296Y-25345947D01*
X13135296Y-25345947D02*
X13173392Y-25345947D01*
X13173392Y-25345947D02*
X13192439Y-25355471D01*
X13192439Y-25355471D02*
X13201963Y-25374519D01*
X13201963Y-25374519D02*
X13201963Y-25393566D01*
X13201963Y-25393566D02*
X13106725Y-25412614D01*
X13373392Y-25479281D02*
X13373392Y-25279281D01*
X13373392Y-25469757D02*
X13354344Y-25479281D01*
X13354344Y-25479281D02*
X13316249Y-25479281D01*
X13316249Y-25479281D02*
X13297201Y-25469757D01*
X13297201Y-25469757D02*
X13287677Y-25460233D01*
X13287677Y-25460233D02*
X13278153Y-25441185D01*
X13278153Y-25441185D02*
X13278153Y-25384043D01*
X13278153Y-25384043D02*
X13287677Y-25364995D01*
X13287677Y-25364995D02*
X13297201Y-25355471D01*
X13297201Y-25355471D02*
X13316249Y-25345947D01*
X13316249Y-25345947D02*
X13354344Y-25345947D01*
X13354344Y-25345947D02*
X13373392Y-25355471D01*
X13449582Y-25555471D02*
X13459106Y-25545947D01*
X13459106Y-25545947D02*
X13478153Y-25517376D01*
X13478153Y-25517376D02*
X13487677Y-25498328D01*
X13487677Y-25498328D02*
X13497201Y-25469757D01*
X13497201Y-25469757D02*
X13506725Y-25422138D01*
X13506725Y-25422138D02*
X13506725Y-25384043D01*
X13506725Y-25384043D02*
X13497201Y-25336424D01*
X13497201Y-25336424D02*
X13487677Y-25307852D01*
X13487677Y-25307852D02*
X13478153Y-25288805D01*
X13478153Y-25288805D02*
X13459106Y-25260233D01*
X13459106Y-25260233D02*
X13449582Y-25250709D01*
X6755471Y-25607797D02*
X6755471Y-25807797D01*
X6655471Y-25707797D02*
X6855471Y-25707797D01*
X7201962Y-25665947D02*
X7201962Y-25799281D01*
X7154343Y-25589757D02*
X7106724Y-25732614D01*
X7106724Y-25732614D02*
X7230534Y-25732614D01*
X7306724Y-25780233D02*
X7316248Y-25789757D01*
X7316248Y-25789757D02*
X7306724Y-25799281D01*
X7306724Y-25799281D02*
X7297201Y-25789757D01*
X7297201Y-25789757D02*
X7306724Y-25780233D01*
X7306724Y-25780233D02*
X7306724Y-25799281D01*
X7440058Y-25599281D02*
X7459105Y-25599281D01*
X7459105Y-25599281D02*
X7478153Y-25608805D01*
X7478153Y-25608805D02*
X7487677Y-25618328D01*
X7487677Y-25618328D02*
X7497201Y-25637376D01*
X7497201Y-25637376D02*
X7506724Y-25675471D01*
X7506724Y-25675471D02*
X7506724Y-25723090D01*
X7506724Y-25723090D02*
X7497201Y-25761185D01*
X7497201Y-25761185D02*
X7487677Y-25780233D01*
X7487677Y-25780233D02*
X7478153Y-25789757D01*
X7478153Y-25789757D02*
X7459105Y-25799281D01*
X7459105Y-25799281D02*
X7440058Y-25799281D01*
X7440058Y-25799281D02*
X7421010Y-25789757D01*
X7421010Y-25789757D02*
X7411486Y-25780233D01*
X7411486Y-25780233D02*
X7401962Y-25761185D01*
X7401962Y-25761185D02*
X7392439Y-25723090D01*
X7392439Y-25723090D02*
X7392439Y-25675471D01*
X7392439Y-25675471D02*
X7401962Y-25637376D01*
X7401962Y-25637376D02*
X7411486Y-25618328D01*
X7411486Y-25618328D02*
X7421010Y-25608805D01*
X7421010Y-25608805D02*
X7440058Y-25599281D01*
X7630534Y-25599281D02*
X7649582Y-25599281D01*
X7649582Y-25599281D02*
X7668629Y-25608805D01*
X7668629Y-25608805D02*
X7678153Y-25618328D01*
X7678153Y-25618328D02*
X7687677Y-25637376D01*
X7687677Y-25637376D02*
X7697201Y-25675471D01*
X7697201Y-25675471D02*
X7697201Y-25723090D01*
X7697201Y-25723090D02*
X7687677Y-25761185D01*
X7687677Y-25761185D02*
X7678153Y-25780233D01*
X7678153Y-25780233D02*
X7668629Y-25789757D01*
X7668629Y-25789757D02*
X7649582Y-25799281D01*
X7649582Y-25799281D02*
X7630534Y-25799281D01*
X7630534Y-25799281D02*
X7611486Y-25789757D01*
X7611486Y-25789757D02*
X7601962Y-25780233D01*
X7601962Y-25780233D02*
X7592439Y-25761185D01*
X7592439Y-25761185D02*
X7582915Y-25723090D01*
X7582915Y-25723090D02*
X7582915Y-25675471D01*
X7582915Y-25675471D02*
X7592439Y-25637376D01*
X7592439Y-25637376D02*
X7601962Y-25618328D01*
X7601962Y-25618328D02*
X7611486Y-25608805D01*
X7611486Y-25608805D02*
X7630534Y-25599281D01*
X7821010Y-25599281D02*
X7840058Y-25599281D01*
X7840058Y-25599281D02*
X7859105Y-25608805D01*
X7859105Y-25608805D02*
X7868629Y-25618328D01*
X7868629Y-25618328D02*
X7878153Y-25637376D01*
X7878153Y-25637376D02*
X7887677Y-25675471D01*
X7887677Y-25675471D02*
X7887677Y-25723090D01*
X7887677Y-25723090D02*
X7878153Y-25761185D01*
X7878153Y-25761185D02*
X7868629Y-25780233D01*
X7868629Y-25780233D02*
X7859105Y-25789757D01*
X7859105Y-25789757D02*
X7840058Y-25799281D01*
X7840058Y-25799281D02*
X7821010Y-25799281D01*
X7821010Y-25799281D02*
X7801962Y-25789757D01*
X7801962Y-25789757D02*
X7792439Y-25780233D01*
X7792439Y-25780233D02*
X7782915Y-25761185D01*
X7782915Y-25761185D02*
X7773391Y-25723090D01*
X7773391Y-25723090D02*
X7773391Y-25675471D01*
X7773391Y-25675471D02*
X7782915Y-25637376D01*
X7782915Y-25637376D02*
X7792439Y-25618328D01*
X7792439Y-25618328D02*
X7801962Y-25608805D01*
X7801962Y-25608805D02*
X7821010Y-25599281D01*
X7973391Y-25799281D02*
X7973391Y-25665947D01*
X7973391Y-25684995D02*
X7982915Y-25675471D01*
X7982915Y-25675471D02*
X8001962Y-25665947D01*
X8001962Y-25665947D02*
X8030534Y-25665947D01*
X8030534Y-25665947D02*
X8049582Y-25675471D01*
X8049582Y-25675471D02*
X8059105Y-25694519D01*
X8059105Y-25694519D02*
X8059105Y-25799281D01*
X8059105Y-25694519D02*
X8068629Y-25675471D01*
X8068629Y-25675471D02*
X8087677Y-25665947D01*
X8087677Y-25665947D02*
X8116248Y-25665947D01*
X8116248Y-25665947D02*
X8135296Y-25675471D01*
X8135296Y-25675471D02*
X8144820Y-25694519D01*
X8144820Y-25694519D02*
X8144820Y-25799281D01*
X8240058Y-25799281D02*
X8240058Y-25665947D01*
X8240058Y-25684995D02*
X8249582Y-25675471D01*
X8249582Y-25675471D02*
X8268629Y-25665947D01*
X8268629Y-25665947D02*
X8297201Y-25665947D01*
X8297201Y-25665947D02*
X8316248Y-25675471D01*
X8316248Y-25675471D02*
X8325772Y-25694519D01*
X8325772Y-25694519D02*
X8325772Y-25799281D01*
X8325772Y-25694519D02*
X8335296Y-25675471D01*
X8335296Y-25675471D02*
X8354343Y-25665947D01*
X8354343Y-25665947D02*
X8382915Y-25665947D01*
X8382915Y-25665947D02*
X8401963Y-25675471D01*
X8401963Y-25675471D02*
X8411486Y-25694519D01*
X8411486Y-25694519D02*
X8411486Y-25799281D01*
X8801963Y-25589757D02*
X8630534Y-25846900D01*
X9059106Y-25599281D02*
X9078153Y-25599281D01*
X9078153Y-25599281D02*
X9097201Y-25608805D01*
X9097201Y-25608805D02*
X9106725Y-25618328D01*
X9106725Y-25618328D02*
X9116248Y-25637376D01*
X9116248Y-25637376D02*
X9125772Y-25675471D01*
X9125772Y-25675471D02*
X9125772Y-25723090D01*
X9125772Y-25723090D02*
X9116248Y-25761185D01*
X9116248Y-25761185D02*
X9106725Y-25780233D01*
X9106725Y-25780233D02*
X9097201Y-25789757D01*
X9097201Y-25789757D02*
X9078153Y-25799281D01*
X9078153Y-25799281D02*
X9059106Y-25799281D01*
X9059106Y-25799281D02*
X9040058Y-25789757D01*
X9040058Y-25789757D02*
X9030534Y-25780233D01*
X9030534Y-25780233D02*
X9021010Y-25761185D01*
X9021010Y-25761185D02*
X9011487Y-25723090D01*
X9011487Y-25723090D02*
X9011487Y-25675471D01*
X9011487Y-25675471D02*
X9021010Y-25637376D01*
X9021010Y-25637376D02*
X9030534Y-25618328D01*
X9030534Y-25618328D02*
X9040058Y-25608805D01*
X9040058Y-25608805D02*
X9059106Y-25599281D01*
X9211487Y-25780233D02*
X9221010Y-25789757D01*
X9221010Y-25789757D02*
X9211487Y-25799281D01*
X9211487Y-25799281D02*
X9201963Y-25789757D01*
X9201963Y-25789757D02*
X9211487Y-25780233D01*
X9211487Y-25780233D02*
X9211487Y-25799281D01*
X9411487Y-25799281D02*
X9297201Y-25799281D01*
X9354344Y-25799281D02*
X9354344Y-25599281D01*
X9354344Y-25599281D02*
X9335296Y-25627852D01*
X9335296Y-25627852D02*
X9316248Y-25646900D01*
X9316248Y-25646900D02*
X9297201Y-25656424D01*
X9592439Y-25599281D02*
X9497201Y-25599281D01*
X9497201Y-25599281D02*
X9487677Y-25694519D01*
X9487677Y-25694519D02*
X9497201Y-25684995D01*
X9497201Y-25684995D02*
X9516248Y-25675471D01*
X9516248Y-25675471D02*
X9563868Y-25675471D01*
X9563868Y-25675471D02*
X9582915Y-25684995D01*
X9582915Y-25684995D02*
X9592439Y-25694519D01*
X9592439Y-25694519D02*
X9601963Y-25713566D01*
X9601963Y-25713566D02*
X9601963Y-25761185D01*
X9601963Y-25761185D02*
X9592439Y-25780233D01*
X9592439Y-25780233D02*
X9582915Y-25789757D01*
X9582915Y-25789757D02*
X9563868Y-25799281D01*
X9563868Y-25799281D02*
X9516248Y-25799281D01*
X9516248Y-25799281D02*
X9497201Y-25789757D01*
X9497201Y-25789757D02*
X9487677Y-25780233D01*
X9668629Y-25599281D02*
X9801963Y-25599281D01*
X9801963Y-25599281D02*
X9716248Y-25799281D01*
X9973391Y-25599281D02*
X9878153Y-25599281D01*
X9878153Y-25599281D02*
X9868629Y-25694519D01*
X9868629Y-25694519D02*
X9878153Y-25684995D01*
X9878153Y-25684995D02*
X9897201Y-25675471D01*
X9897201Y-25675471D02*
X9944820Y-25675471D01*
X9944820Y-25675471D02*
X9963868Y-25684995D01*
X9963868Y-25684995D02*
X9973391Y-25694519D01*
X9973391Y-25694519D02*
X9982915Y-25713566D01*
X9982915Y-25713566D02*
X9982915Y-25761185D01*
X9982915Y-25761185D02*
X9973391Y-25780233D01*
X9973391Y-25780233D02*
X9963868Y-25789757D01*
X9963868Y-25789757D02*
X9944820Y-25799281D01*
X9944820Y-25799281D02*
X9897201Y-25799281D01*
X9897201Y-25799281D02*
X9878153Y-25789757D01*
X9878153Y-25789757D02*
X9868629Y-25780233D01*
X10059106Y-25599281D02*
X10059106Y-25637376D01*
X10135296Y-25599281D02*
X10135296Y-25637376D01*
X10430534Y-25875471D02*
X10421010Y-25865947D01*
X10421010Y-25865947D02*
X10401963Y-25837376D01*
X10401963Y-25837376D02*
X10392439Y-25818328D01*
X10392439Y-25818328D02*
X10382915Y-25789757D01*
X10382915Y-25789757D02*
X10373391Y-25742138D01*
X10373391Y-25742138D02*
X10373391Y-25704043D01*
X10373391Y-25704043D02*
X10382915Y-25656424D01*
X10382915Y-25656424D02*
X10392439Y-25627852D01*
X10392439Y-25627852D02*
X10401963Y-25608805D01*
X10401963Y-25608805D02*
X10421010Y-25580233D01*
X10421010Y-25580233D02*
X10430534Y-25570709D01*
X10497201Y-25618328D02*
X10506725Y-25608805D01*
X10506725Y-25608805D02*
X10525772Y-25599281D01*
X10525772Y-25599281D02*
X10573391Y-25599281D01*
X10573391Y-25599281D02*
X10592439Y-25608805D01*
X10592439Y-25608805D02*
X10601963Y-25618328D01*
X10601963Y-25618328D02*
X10611487Y-25637376D01*
X10611487Y-25637376D02*
X10611487Y-25656424D01*
X10611487Y-25656424D02*
X10601963Y-25684995D01*
X10601963Y-25684995D02*
X10487677Y-25799281D01*
X10487677Y-25799281D02*
X10611487Y-25799281D01*
X10735296Y-25599281D02*
X10754344Y-25599281D01*
X10754344Y-25599281D02*
X10773391Y-25608805D01*
X10773391Y-25608805D02*
X10782915Y-25618328D01*
X10782915Y-25618328D02*
X10792439Y-25637376D01*
X10792439Y-25637376D02*
X10801963Y-25675471D01*
X10801963Y-25675471D02*
X10801963Y-25723090D01*
X10801963Y-25723090D02*
X10792439Y-25761185D01*
X10792439Y-25761185D02*
X10782915Y-25780233D01*
X10782915Y-25780233D02*
X10773391Y-25789757D01*
X10773391Y-25789757D02*
X10754344Y-25799281D01*
X10754344Y-25799281D02*
X10735296Y-25799281D01*
X10735296Y-25799281D02*
X10716249Y-25789757D01*
X10716249Y-25789757D02*
X10706725Y-25780233D01*
X10706725Y-25780233D02*
X10697201Y-25761185D01*
X10697201Y-25761185D02*
X10687677Y-25723090D01*
X10687677Y-25723090D02*
X10687677Y-25675471D01*
X10687677Y-25675471D02*
X10697201Y-25637376D01*
X10697201Y-25637376D02*
X10706725Y-25618328D01*
X10706725Y-25618328D02*
X10716249Y-25608805D01*
X10716249Y-25608805D02*
X10735296Y-25599281D01*
X11040058Y-25799281D02*
X11040058Y-25599281D01*
X11125772Y-25799281D02*
X11125772Y-25694519D01*
X11125772Y-25694519D02*
X11116249Y-25675471D01*
X11116249Y-25675471D02*
X11097201Y-25665947D01*
X11097201Y-25665947D02*
X11068630Y-25665947D01*
X11068630Y-25665947D02*
X11049582Y-25675471D01*
X11049582Y-25675471D02*
X11040058Y-25684995D01*
X11249582Y-25799281D02*
X11230534Y-25789757D01*
X11230534Y-25789757D02*
X11221010Y-25780233D01*
X11221010Y-25780233D02*
X11211487Y-25761185D01*
X11211487Y-25761185D02*
X11211487Y-25704043D01*
X11211487Y-25704043D02*
X11221010Y-25684995D01*
X11221010Y-25684995D02*
X11230534Y-25675471D01*
X11230534Y-25675471D02*
X11249582Y-25665947D01*
X11249582Y-25665947D02*
X11278153Y-25665947D01*
X11278153Y-25665947D02*
X11297201Y-25675471D01*
X11297201Y-25675471D02*
X11306725Y-25684995D01*
X11306725Y-25684995D02*
X11316249Y-25704043D01*
X11316249Y-25704043D02*
X11316249Y-25761185D01*
X11316249Y-25761185D02*
X11306725Y-25780233D01*
X11306725Y-25780233D02*
X11297201Y-25789757D01*
X11297201Y-25789757D02*
X11278153Y-25799281D01*
X11278153Y-25799281D02*
X11249582Y-25799281D01*
X11430534Y-25799281D02*
X11411487Y-25789757D01*
X11411487Y-25789757D02*
X11401963Y-25770709D01*
X11401963Y-25770709D02*
X11401963Y-25599281D01*
X11582915Y-25789757D02*
X11563868Y-25799281D01*
X11563868Y-25799281D02*
X11525772Y-25799281D01*
X11525772Y-25799281D02*
X11506725Y-25789757D01*
X11506725Y-25789757D02*
X11497201Y-25770709D01*
X11497201Y-25770709D02*
X11497201Y-25694519D01*
X11497201Y-25694519D02*
X11506725Y-25675471D01*
X11506725Y-25675471D02*
X11525772Y-25665947D01*
X11525772Y-25665947D02*
X11563868Y-25665947D01*
X11563868Y-25665947D02*
X11582915Y-25675471D01*
X11582915Y-25675471D02*
X11592439Y-25694519D01*
X11592439Y-25694519D02*
X11592439Y-25713566D01*
X11592439Y-25713566D02*
X11497201Y-25732614D01*
X11668630Y-25789757D02*
X11687677Y-25799281D01*
X11687677Y-25799281D02*
X11725772Y-25799281D01*
X11725772Y-25799281D02*
X11744820Y-25789757D01*
X11744820Y-25789757D02*
X11754344Y-25770709D01*
X11754344Y-25770709D02*
X11754344Y-25761185D01*
X11754344Y-25761185D02*
X11744820Y-25742138D01*
X11744820Y-25742138D02*
X11725772Y-25732614D01*
X11725772Y-25732614D02*
X11697201Y-25732614D01*
X11697201Y-25732614D02*
X11678153Y-25723090D01*
X11678153Y-25723090D02*
X11668630Y-25704043D01*
X11668630Y-25704043D02*
X11668630Y-25694519D01*
X11668630Y-25694519D02*
X11678153Y-25675471D01*
X11678153Y-25675471D02*
X11697201Y-25665947D01*
X11697201Y-25665947D02*
X11725772Y-25665947D01*
X11725772Y-25665947D02*
X11744820Y-25675471D01*
X11821011Y-25875471D02*
X11830534Y-25865947D01*
X11830534Y-25865947D02*
X11849582Y-25837376D01*
X11849582Y-25837376D02*
X11859106Y-25818328D01*
X11859106Y-25818328D02*
X11868630Y-25789757D01*
X11868630Y-25789757D02*
X11878153Y-25742138D01*
X11878153Y-25742138D02*
X11878153Y-25704043D01*
X11878153Y-25704043D02*
X11868630Y-25656424D01*
X11868630Y-25656424D02*
X11859106Y-25627852D01*
X11859106Y-25627852D02*
X11849582Y-25608805D01*
X11849582Y-25608805D02*
X11830534Y-25580233D01*
X11830534Y-25580233D02*
X11821011Y-25570709D01*
X12182915Y-25875471D02*
X12173391Y-25865947D01*
X12173391Y-25865947D02*
X12154344Y-25837376D01*
X12154344Y-25837376D02*
X12144820Y-25818328D01*
X12144820Y-25818328D02*
X12135296Y-25789757D01*
X12135296Y-25789757D02*
X12125772Y-25742138D01*
X12125772Y-25742138D02*
X12125772Y-25704043D01*
X12125772Y-25704043D02*
X12135296Y-25656424D01*
X12135296Y-25656424D02*
X12144820Y-25627852D01*
X12144820Y-25627852D02*
X12154344Y-25608805D01*
X12154344Y-25608805D02*
X12173391Y-25580233D01*
X12173391Y-25580233D02*
X12182915Y-25570709D01*
X12259106Y-25665947D02*
X12259106Y-25799281D01*
X12259106Y-25684995D02*
X12268630Y-25675471D01*
X12268630Y-25675471D02*
X12287677Y-25665947D01*
X12287677Y-25665947D02*
X12316249Y-25665947D01*
X12316249Y-25665947D02*
X12335296Y-25675471D01*
X12335296Y-25675471D02*
X12344820Y-25694519D01*
X12344820Y-25694519D02*
X12344820Y-25799281D01*
X12468630Y-25799281D02*
X12449582Y-25789757D01*
X12449582Y-25789757D02*
X12440058Y-25780233D01*
X12440058Y-25780233D02*
X12430534Y-25761185D01*
X12430534Y-25761185D02*
X12430534Y-25704043D01*
X12430534Y-25704043D02*
X12440058Y-25684995D01*
X12440058Y-25684995D02*
X12449582Y-25675471D01*
X12449582Y-25675471D02*
X12468630Y-25665947D01*
X12468630Y-25665947D02*
X12497201Y-25665947D01*
X12497201Y-25665947D02*
X12516249Y-25675471D01*
X12516249Y-25675471D02*
X12525772Y-25684995D01*
X12525772Y-25684995D02*
X12535296Y-25704043D01*
X12535296Y-25704043D02*
X12535296Y-25761185D01*
X12535296Y-25761185D02*
X12525772Y-25780233D01*
X12525772Y-25780233D02*
X12516249Y-25789757D01*
X12516249Y-25789757D02*
X12497201Y-25799281D01*
X12497201Y-25799281D02*
X12468630Y-25799281D01*
X12592439Y-25665947D02*
X12668630Y-25665947D01*
X12621011Y-25599281D02*
X12621011Y-25770709D01*
X12621011Y-25770709D02*
X12630534Y-25789757D01*
X12630534Y-25789757D02*
X12649582Y-25799281D01*
X12649582Y-25799281D02*
X12668630Y-25799281D01*
X12887677Y-25665947D02*
X12887677Y-25865947D01*
X12887677Y-25675471D02*
X12906725Y-25665947D01*
X12906725Y-25665947D02*
X12944820Y-25665947D01*
X12944820Y-25665947D02*
X12963868Y-25675471D01*
X12963868Y-25675471D02*
X12973392Y-25684995D01*
X12973392Y-25684995D02*
X12982915Y-25704043D01*
X12982915Y-25704043D02*
X12982915Y-25761185D01*
X12982915Y-25761185D02*
X12973392Y-25780233D01*
X12973392Y-25780233D02*
X12963868Y-25789757D01*
X12963868Y-25789757D02*
X12944820Y-25799281D01*
X12944820Y-25799281D02*
X12906725Y-25799281D01*
X12906725Y-25799281D02*
X12887677Y-25789757D01*
X13097201Y-25799281D02*
X13078153Y-25789757D01*
X13078153Y-25789757D02*
X13068630Y-25770709D01*
X13068630Y-25770709D02*
X13068630Y-25599281D01*
X13259106Y-25799281D02*
X13259106Y-25694519D01*
X13259106Y-25694519D02*
X13249582Y-25675471D01*
X13249582Y-25675471D02*
X13230534Y-25665947D01*
X13230534Y-25665947D02*
X13192439Y-25665947D01*
X13192439Y-25665947D02*
X13173392Y-25675471D01*
X13259106Y-25789757D02*
X13240058Y-25799281D01*
X13240058Y-25799281D02*
X13192439Y-25799281D01*
X13192439Y-25799281D02*
X13173392Y-25789757D01*
X13173392Y-25789757D02*
X13163868Y-25770709D01*
X13163868Y-25770709D02*
X13163868Y-25751662D01*
X13163868Y-25751662D02*
X13173392Y-25732614D01*
X13173392Y-25732614D02*
X13192439Y-25723090D01*
X13192439Y-25723090D02*
X13240058Y-25723090D01*
X13240058Y-25723090D02*
X13259106Y-25713566D01*
X13325773Y-25665947D02*
X13401963Y-25665947D01*
X13354344Y-25599281D02*
X13354344Y-25770709D01*
X13354344Y-25770709D02*
X13363868Y-25789757D01*
X13363868Y-25789757D02*
X13382915Y-25799281D01*
X13382915Y-25799281D02*
X13401963Y-25799281D01*
X13544820Y-25789757D02*
X13525773Y-25799281D01*
X13525773Y-25799281D02*
X13487677Y-25799281D01*
X13487677Y-25799281D02*
X13468630Y-25789757D01*
X13468630Y-25789757D02*
X13459106Y-25770709D01*
X13459106Y-25770709D02*
X13459106Y-25694519D01*
X13459106Y-25694519D02*
X13468630Y-25675471D01*
X13468630Y-25675471D02*
X13487677Y-25665947D01*
X13487677Y-25665947D02*
X13525773Y-25665947D01*
X13525773Y-25665947D02*
X13544820Y-25675471D01*
X13544820Y-25675471D02*
X13554344Y-25694519D01*
X13554344Y-25694519D02*
X13554344Y-25713566D01*
X13554344Y-25713566D02*
X13459106Y-25732614D01*
X13725773Y-25799281D02*
X13725773Y-25599281D01*
X13725773Y-25789757D02*
X13706725Y-25799281D01*
X13706725Y-25799281D02*
X13668630Y-25799281D01*
X13668630Y-25799281D02*
X13649582Y-25789757D01*
X13649582Y-25789757D02*
X13640058Y-25780233D01*
X13640058Y-25780233D02*
X13630534Y-25761185D01*
X13630534Y-25761185D02*
X13630534Y-25704043D01*
X13630534Y-25704043D02*
X13640058Y-25684995D01*
X13640058Y-25684995D02*
X13649582Y-25675471D01*
X13649582Y-25675471D02*
X13668630Y-25665947D01*
X13668630Y-25665947D02*
X13706725Y-25665947D01*
X13706725Y-25665947D02*
X13725773Y-25675471D01*
X13801963Y-25875471D02*
X13811487Y-25865947D01*
X13811487Y-25865947D02*
X13830534Y-25837376D01*
X13830534Y-25837376D02*
X13840058Y-25818328D01*
X13840058Y-25818328D02*
X13849582Y-25789757D01*
X13849582Y-25789757D02*
X13859106Y-25742138D01*
X13859106Y-25742138D02*
X13859106Y-25704043D01*
X13859106Y-25704043D02*
X13849582Y-25656424D01*
X13849582Y-25656424D02*
X13840058Y-25627852D01*
X13840058Y-25627852D02*
X13830534Y-25608805D01*
X13830534Y-25608805D02*
X13811487Y-25580233D01*
X13811487Y-25580233D02*
X13801963Y-25570709D01*
M02*
