G04 #@! TF.GenerationSoftware,KiCad,Pcbnew,8.0.5*
G04 #@! TF.CreationDate,2024-10-23T12:55:31-04:00*
G04 #@! TF.ProjectId,FULL BOARD,46554c4c-2042-44f4-9152-442e6b696361,rev?*
G04 #@! TF.SameCoordinates,Original*
G04 #@! TF.FileFunction,Soldermask,Bot*
G04 #@! TF.FilePolarity,Negative*
%FSLAX46Y46*%
G04 Gerber Fmt 4.6, Leading zero omitted, Abs format (unit mm)*
G04 Created by KiCad (PCBNEW 8.0.5) date 2024-10-23 12:55:31*
%MOMM*%
%LPD*%
G01*
G04 APERTURE LIST*
G04 Aperture macros list*
%AMRoundRect*
0 Rectangle with rounded corners*
0 $1 Rounding radius*
0 $2 $3 $4 $5 $6 $7 $8 $9 X,Y pos of 4 corners*
0 Add a 4 corners polygon primitive as box body*
4,1,4,$2,$3,$4,$5,$6,$7,$8,$9,$2,$3,0*
0 Add four circle primitives for the rounded corners*
1,1,$1+$1,$2,$3*
1,1,$1+$1,$4,$5*
1,1,$1+$1,$6,$7*
1,1,$1+$1,$8,$9*
0 Add four rect primitives between the rounded corners*
20,1,$1+$1,$2,$3,$4,$5,0*
20,1,$1+$1,$4,$5,$6,$7,0*
20,1,$1+$1,$6,$7,$8,$9,0*
20,1,$1+$1,$8,$9,$2,$3,0*%
G04 Aperture macros list end*
%ADD10C,1.600200*%
%ADD11C,2.540000*%
%ADD12C,1.750000*%
%ADD13C,4.000000*%
%ADD14C,2.500000*%
%ADD15C,2.006600*%
%ADD16RoundRect,0.250000X-0.262500X-0.450000X0.262500X-0.450000X0.262500X0.450000X-0.262500X0.450000X0*%
%ADD17R,1.600000X1.600000*%
%ADD18O,1.600000X1.600000*%
%ADD19R,0.850000X0.850000*%
%ADD20C,0.850000*%
%ADD21RoundRect,0.250000X-0.475000X0.250000X-0.475000X-0.250000X0.475000X-0.250000X0.475000X0.250000X0*%
%ADD22RoundRect,0.250000X-0.250000X-0.475000X0.250000X-0.475000X0.250000X0.475000X-0.250000X0.475000X0*%
%ADD23RoundRect,0.250000X0.250000X0.475000X-0.250000X0.475000X-0.250000X-0.475000X0.250000X-0.475000X0*%
%ADD24RoundRect,0.102000X0.270000X0.300000X-0.270000X0.300000X-0.270000X-0.300000X0.270000X-0.300000X0*%
%ADD25RoundRect,0.250000X0.475000X-0.250000X0.475000X0.250000X-0.475000X0.250000X-0.475000X-0.250000X0*%
G04 APERTURE END LIST*
D10*
X160760000Y-52260000D03*
X160760000Y-54800000D03*
X158220000Y-52260000D03*
X158220000Y-54800000D03*
X155680000Y-52260000D03*
X155680000Y-54800000D03*
X153140000Y-52260000D03*
X153140000Y-54800000D03*
X150600000Y-52260000D03*
X150600000Y-54800000D03*
D11*
X85910000Y-133610000D03*
D12*
X243674000Y-229491400D03*
D13*
X248754000Y-229491400D03*
D12*
X253834000Y-229491400D03*
D14*
X244944000Y-226951400D03*
X251294000Y-224411400D03*
D12*
X148674000Y-229491400D03*
D13*
X153754000Y-229491400D03*
D12*
X158834000Y-229491400D03*
D14*
X149944000Y-226951400D03*
X156294000Y-224411400D03*
D12*
X118674000Y-229491400D03*
D13*
X123754000Y-229491400D03*
D12*
X128834000Y-229491400D03*
D14*
X119944000Y-226951400D03*
X126294000Y-224411400D03*
D12*
X178674000Y-199491400D03*
D13*
X183754000Y-199491400D03*
D12*
X188834000Y-199491400D03*
D14*
X179944000Y-196951400D03*
X186294000Y-194411400D03*
D12*
X83674000Y-199491400D03*
D13*
X88754000Y-199491400D03*
D12*
X93834000Y-199491400D03*
D14*
X84944000Y-196951400D03*
X91294000Y-194411400D03*
D15*
X89500000Y-47100000D03*
D12*
X208674000Y-199491400D03*
D13*
X213754000Y-199491400D03*
D12*
X218834000Y-199491400D03*
D14*
X209944000Y-196951400D03*
X216294000Y-194411400D03*
D12*
X118674000Y-169491400D03*
D13*
X123754000Y-169491400D03*
D12*
X128834000Y-169491400D03*
D14*
X119944000Y-166951400D03*
X126294000Y-164411400D03*
D12*
X118674000Y-199491400D03*
D13*
X123754000Y-199491400D03*
D12*
X128834000Y-199491400D03*
D14*
X119944000Y-196951400D03*
X126294000Y-194411400D03*
D12*
X148674000Y-139491400D03*
D13*
X153754000Y-139491400D03*
D12*
X158834000Y-139491400D03*
D14*
X149944000Y-136951400D03*
X156294000Y-134411400D03*
D12*
X148674000Y-169491400D03*
D13*
X153754000Y-169491400D03*
D12*
X158834000Y-169491400D03*
D14*
X149944000Y-166951400D03*
X156294000Y-164411400D03*
D12*
X208674000Y-229491400D03*
D13*
X213754000Y-229491400D03*
D12*
X218834000Y-229491400D03*
D14*
X209944000Y-226951400D03*
X216294000Y-224411400D03*
D12*
X208674000Y-139491400D03*
D13*
X213754000Y-139491400D03*
D12*
X218834000Y-139491400D03*
D14*
X209944000Y-136951400D03*
X216294000Y-134411400D03*
D12*
X118674000Y-139491400D03*
D13*
X123754000Y-139491400D03*
D12*
X128834000Y-139491400D03*
D14*
X119944000Y-136951400D03*
X126294000Y-134411400D03*
D12*
X83674000Y-229491400D03*
D13*
X88754000Y-229491400D03*
D12*
X93834000Y-229491400D03*
D14*
X84944000Y-226951400D03*
X91294000Y-224411400D03*
D12*
X148674000Y-199491400D03*
D13*
X153754000Y-199491400D03*
D12*
X158834000Y-199491400D03*
D14*
X149944000Y-196951400D03*
X156294000Y-194411400D03*
D12*
X243674000Y-199491400D03*
D13*
X248754000Y-199491400D03*
D12*
X253834000Y-199491400D03*
D14*
X244944000Y-196951400D03*
X251294000Y-194411400D03*
D12*
X208674000Y-169491400D03*
D13*
X213754000Y-169491400D03*
D12*
X218834000Y-169491400D03*
D14*
X209944000Y-166951400D03*
X216294000Y-164411400D03*
D12*
X178674000Y-169491400D03*
D13*
X183754000Y-169491400D03*
D12*
X188834000Y-169491400D03*
D14*
X179944000Y-166951400D03*
X186294000Y-164411400D03*
D12*
X178674000Y-229491400D03*
D13*
X183754000Y-229491400D03*
D12*
X188834000Y-229491400D03*
D14*
X179944000Y-226951400D03*
X186294000Y-224411400D03*
D12*
X178674000Y-139491400D03*
D13*
X183754000Y-139491400D03*
D12*
X188834000Y-139491400D03*
D14*
X179944000Y-136951400D03*
X186294000Y-134411400D03*
D16*
X246887500Y-161710000D03*
X248712500Y-161710000D03*
D17*
X98268000Y-216799400D03*
D18*
X98268000Y-224419400D03*
D17*
X98258000Y-202029400D03*
D18*
X98258000Y-194409400D03*
D17*
X163279000Y-172014000D03*
D18*
X163279000Y-164394000D03*
D19*
X86729999Y-173530000D03*
D20*
X85479999Y-173530000D03*
D21*
X73380600Y-143692800D03*
X73380600Y-145592800D03*
D22*
X212549000Y-97282000D03*
X214449000Y-97282000D03*
D21*
X173507400Y-106070400D03*
X173507400Y-107970400D03*
D17*
X133278000Y-172029400D03*
D18*
X133278000Y-164409400D03*
D22*
X252230000Y-161700000D03*
X254130000Y-161700000D03*
D17*
X193278000Y-142039400D03*
D18*
X193278000Y-134419400D03*
D17*
X239258000Y-216789400D03*
D18*
X239258000Y-224409400D03*
D21*
X178650000Y-106050000D03*
X178650000Y-107950000D03*
D23*
X179620000Y-112190000D03*
X177720000Y-112190000D03*
D21*
X161950000Y-110250000D03*
X161950000Y-112150000D03*
D24*
X220420000Y-90910000D03*
X219556000Y-90910000D03*
D17*
X223288000Y-202019400D03*
D18*
X223288000Y-194399400D03*
D17*
X223278000Y-172019400D03*
D18*
X223278000Y-164399400D03*
D17*
X133268000Y-142029400D03*
D18*
X133268000Y-134409400D03*
D16*
X73147500Y-162080000D03*
X74972500Y-162080000D03*
D17*
X133298000Y-232039400D03*
D18*
X133298000Y-224419400D03*
D17*
X163268000Y-232029400D03*
D18*
X163268000Y-224409400D03*
D25*
X73329800Y-141757400D03*
X73329800Y-139857400D03*
D17*
X133278000Y-202039400D03*
D18*
X133278000Y-194419400D03*
D22*
X212559000Y-91302000D03*
X214459000Y-91302000D03*
D21*
X73329800Y-135387000D03*
X73329800Y-137287000D03*
D22*
X168210000Y-101050000D03*
X170110000Y-101050000D03*
D17*
X193288000Y-202019400D03*
D18*
X193288000Y-194399400D03*
D22*
X220423000Y-97280000D03*
X222323000Y-97280000D03*
D19*
X248749999Y-173490000D03*
D20*
X247499999Y-173490000D03*
D17*
X223278000Y-142029400D03*
D18*
X223278000Y-134409400D03*
D16*
X241495000Y-161700000D03*
X243320000Y-161700000D03*
D23*
X87020000Y-156030000D03*
X85120000Y-156030000D03*
D22*
X166450000Y-93600000D03*
X168350000Y-93600000D03*
D24*
X218053000Y-97280000D03*
X217189000Y-97280000D03*
D16*
X73170000Y-156020000D03*
X74995000Y-156020000D03*
D23*
X254140000Y-156020000D03*
X252240000Y-156020000D03*
D16*
X241500000Y-156020000D03*
X243325000Y-156020000D03*
D22*
X85090000Y-162130000D03*
X86990000Y-162130000D03*
D17*
X193278000Y-172019400D03*
D18*
X193278000Y-164399400D03*
D16*
X246885000Y-156050000D03*
X248710000Y-156050000D03*
D22*
X176966800Y-101574600D03*
X178866800Y-101574600D03*
D17*
X163258000Y-142039400D03*
D18*
X163258000Y-134419400D03*
D17*
X193278000Y-232029400D03*
D18*
X193278000Y-224409400D03*
D22*
X173200000Y-112190000D03*
X175100000Y-112190000D03*
D17*
X163298000Y-202029400D03*
D18*
X163298000Y-194409400D03*
D25*
X169600000Y-112150000D03*
X169600000Y-110250000D03*
D17*
X239228000Y-202029400D03*
D18*
X239228000Y-194409400D03*
D17*
X223258000Y-232019400D03*
D18*
X223258000Y-224399400D03*
D16*
X79027500Y-162120000D03*
X80852500Y-162120000D03*
X79055000Y-156030000D03*
X80880000Y-156030000D03*
D25*
X73406000Y-149606000D03*
X73406000Y-147706000D03*
M02*
