M48
; DRILL file {KiCad 8.0.5} date 2024-10-25T14:08:16-0400
; FORMAT={-:-/ absolute / inch / decimal}
; #@! TF.CreationDate,2024-10-25T14:08:16-04:00
; #@! TF.GenerationSoftware,Kicad,Pcbnew,8.0.5
; #@! TF.FileFunction,Plated,1,2,PTH
FMAT,2
INCH
; #@! TA.AperFunction,Plated,PTH,ViaDrill
T1C0.0150
; #@! TA.AperFunction,Plated,PTH,ComponentDrill
T2C0.0150
; #@! TA.AperFunction,Plated,PTH,ComponentDrill
T3C0.0197
; #@! TA.AperFunction,Plated,PTH,ComponentDrill
T4C0.0315
; #@! TA.AperFunction,Plated,PTH,ComponentDrill
T5C0.0430
; #@! TA.AperFunction,Plated,PTH,ViaDrill
T6C0.0440
; #@! TA.AperFunction,Plated,PTH,ComponentDrill
T7C0.0591
; #@! TA.AperFunction,Plated,PTH,ComponentDrill
T8C0.0800
%
G90
G05
T1
X2.8398Y-4.6657
X3.0193Y-5.1866
X3.0209Y-5.0854
X3.0839Y-5.0551
X3.0854Y-4.5965
X3.1189Y-5.3508
X3.5344Y-3.8852
X3.5346Y-4.9768
X3.5969Y-4.7197
X3.598Y-4.9791
X3.6488Y-4.2134
X3.6488Y-4.9752
X3.6996Y-4.9764
X3.7Y-4.1638
X3.7398Y-5.613
X3.7406Y-4.8587
X3.802Y-4.8567
X3.9528Y-5.1972
X4.1031Y-5.0614
X4.1035Y-4.0709
X4.1701Y-4.0709
X4.1701Y-5.0642
X4.2512Y-5.0654
X4.2543Y-4.0697
X4.4705Y-4.9908
X6.18Y-2.474
X6.287Y-4.513
X6.329Y-4.274
X6.4543Y-3.9567
X6.4594Y-3.2441
X6.4665Y-4.3906
X6.5165Y-4.9224
X6.5457Y-4.9575
X6.5799Y-4.9894
X6.6142Y-5.0236
X6.6398Y-3.7776
X6.65Y-4.0339
X6.6504Y-4.1764
X6.6941Y-3.1606
X6.6941Y-3.7791
X6.6953Y-4.3374
X6.698Y-4.4228
X6.7232Y-4.0327
X6.822Y-4.3378
X6.826Y-4.0331
X6.8728Y-3.9728
X6.9161Y-4.215
X6.9177Y-4.0823
X6.9894Y-4.0154
X6.9904Y-4.0604
X6.9917Y-4.1181
X6.9925Y-4.2957
X6.9933Y-4.2165
X7.0055Y-4.3898
X7.0382Y-3.976
X7.0854Y-3.9756
X7.0874Y-4.3878
X7.102Y-4.5819
X7.1453Y-3.8791
X7.2055Y-3.8772
X7.2551Y-4.1575
X7.2594Y-2.0567
X7.2996Y-3.2063
X7.2996Y-4.0748
X7.3551Y-4.3783
X7.3573Y-3.9754
X7.3575Y-4.1362
X7.3587Y-3.1067
X9.2835Y-3.6075
X9.2835Y-3.8075
X9.3264Y-3.7154
X9.3264Y-3.8472
X9.3917Y-3.6528
X9.3917Y-3.8854
X9.4469Y-3.6831
X9.4469Y-3.9248
X9.5071Y-3.7634
X9.5071Y-3.965
T2
X3.3232Y-5.0831
X3.3232Y-5.1421
X3.3232Y-5.3783
X3.3232Y-5.4374
X3.4413Y-5.0831
X3.4413Y-5.1421
X3.4413Y-5.3783
X3.4413Y-5.4374
T3
X3.7909Y-6.053
X3.7909Y-6.1022
X3.7917Y-6.5516
X3.7917Y-6.6008
T4
X3.8684Y-7.6539
X3.8684Y-7.9539
X3.8688Y-8.5354
X3.8688Y-8.8354
X5.2468Y-5.2917
X5.2468Y-5.5917
X5.2472Y-6.4728
X5.2472Y-6.7728
X5.2472Y-7.6543
X5.2472Y-7.9543
X5.248Y-8.8354
X5.248Y-9.1354
X6.4275Y-5.2921
X6.4275Y-5.5921
X6.4279Y-8.835
X6.4279Y-9.135
X6.4283Y-6.4722
X6.4283Y-6.7722
X6.4291Y-7.6539
X6.4291Y-7.9539
X7.6094Y-5.2921
X7.6094Y-5.5921
X7.6094Y-6.4724
X7.6094Y-6.7724
X7.6094Y-8.835
X7.6094Y-9.135
X7.6098Y-7.6535
X7.6098Y-7.9535
X8.7897Y-8.8346
X8.7897Y-9.1346
X8.7905Y-5.2917
X8.7905Y-5.5917
X8.7905Y-6.4724
X8.7905Y-6.7724
X8.7909Y-7.6535
X8.7909Y-7.9535
X9.4184Y-7.6539
X9.4184Y-7.9539
X9.4196Y-8.535
X9.4196Y-8.835
T5
X5.9291Y-2.0575
X5.9291Y-2.1575
X6.0291Y-2.0575
X6.0291Y-2.1575
X6.1291Y-2.0575
X6.1291Y-2.1575
X6.2291Y-2.0575
X6.2291Y-2.1575
X6.3291Y-2.0575
X6.3291Y-2.1575
T6
X2.9185Y-4.5114
X3.1185Y-2.9634
X3.824Y-3.6587
X6.178Y-4.548
X6.179Y-3.827
X6.181Y-3.207
X7.9449Y-3.8203
X7.9449Y-4.5142
T7
X3.3443Y-7.754
X3.3443Y-8.9351
X3.5943Y-7.654
X3.5943Y-8.8351
X4.7222Y-5.3918
X4.7222Y-6.5729
X4.7222Y-7.754
X4.7222Y-8.9351
X4.9722Y-5.2918
X4.9722Y-6.4729
X4.9722Y-7.654
X4.9722Y-8.8351
X5.9033Y-5.3918
X5.9033Y-6.5729
X5.9033Y-7.754
X5.9033Y-8.9351
X6.1533Y-5.2918
X6.1533Y-6.4729
X6.1533Y-7.654
X6.1533Y-8.8351
X7.0844Y-5.3918
X7.0844Y-6.5729
X7.0844Y-7.754
X7.0844Y-8.9351
X7.3344Y-5.2918
X7.3344Y-6.4729
X7.3344Y-7.654
X7.3344Y-8.8351
X8.2655Y-5.3918
X8.2655Y-6.5729
X8.2655Y-7.754
X8.2655Y-8.9351
X8.5155Y-5.2918
X8.5155Y-6.4729
X8.5155Y-7.654
X8.5155Y-8.8351
X9.6435Y-7.754
X9.6435Y-8.9351
X9.8935Y-7.654
X9.8935Y-8.8351
T8
X3.3823Y-5.2602
M30
