G04 #@! TF.GenerationSoftware,KiCad,Pcbnew,8.0.4*
G04 #@! TF.CreationDate,2024-10-24T16:05:29-04:00*
G04 #@! TF.ProjectId,FULL BOARD,46554c4c-2042-44f4-9152-442e6b696361,rev?*
G04 #@! TF.SameCoordinates,Original*
G04 #@! TF.FileFunction,Legend,Bot*
G04 #@! TF.FilePolarity,Positive*
%FSLAX46Y46*%
G04 Gerber Fmt 4.6, Leading zero omitted, Abs format (unit mm)*
G04 Created by KiCad (PCBNEW 8.0.4) date 2024-10-24 16:05:29*
%MOMM*%
%LPD*%
G01*
G04 APERTURE LIST*
G04 Aperture macros list*
%AMRoundRect*
0 Rectangle with rounded corners*
0 $1 Rounding radius*
0 $2 $3 $4 $5 $6 $7 $8 $9 X,Y pos of 4 corners*
0 Add a 4 corners polygon primitive as box body*
4,1,4,$2,$3,$4,$5,$6,$7,$8,$9,$2,$3,0*
0 Add four circle primitives for the rounded corners*
1,1,$1+$1,$2,$3*
1,1,$1+$1,$4,$5*
1,1,$1+$1,$6,$7*
1,1,$1+$1,$8,$9*
0 Add four rect primitives between the rounded corners*
20,1,$1+$1,$2,$3,$4,$5,0*
20,1,$1+$1,$4,$5,$6,$7,0*
20,1,$1+$1,$6,$7,$8,$9,0*
20,1,$1+$1,$8,$9,$2,$3,0*%
G04 Aperture macros list end*
%ADD10C,0.150000*%
%ADD11C,0.120000*%
%ADD12C,0.508000*%
%ADD13C,0.100000*%
%ADD14C,0.127000*%
%ADD15RoundRect,0.250000X0.250000X0.475000X-0.250000X0.475000X-0.250000X-0.475000X0.250000X-0.475000X0*%
%ADD16C,0.762000*%
%ADD17C,3.556000*%
%ADD18RoundRect,0.250000X0.262500X0.450000X-0.262500X0.450000X-0.262500X-0.450000X0.262500X-0.450000X0*%
%ADD19RoundRect,0.250000X-0.262500X-0.450000X0.262500X-0.450000X0.262500X0.450000X-0.262500X0.450000X0*%
%ADD20RoundRect,0.150000X0.587500X0.150000X-0.587500X0.150000X-0.587500X-0.150000X0.587500X-0.150000X0*%
%ADD21C,1.600200*%
%ADD22C,1.750000*%
%ADD23C,4.000000*%
%ADD24C,2.500000*%
%ADD25C,2.006600*%
%ADD26R,1.600000X1.600000*%
%ADD27O,1.600000X1.600000*%
%ADD28R,0.850000X0.850000*%
%ADD29C,0.850000*%
%ADD30RoundRect,0.250000X-0.475000X0.250000X-0.475000X-0.250000X0.475000X-0.250000X0.475000X0.250000X0*%
%ADD31RoundRect,0.250000X-0.250000X-0.475000X0.250000X-0.475000X0.250000X0.475000X-0.250000X0.475000X0*%
%ADD32RoundRect,0.250000X0.475000X-0.250000X0.475000X0.250000X-0.475000X0.250000X-0.475000X-0.250000X0*%
G04 APERTURE END LIST*
D10*
X173796666Y-93819580D02*
X173844285Y-93867200D01*
X173844285Y-93867200D02*
X173987142Y-93914819D01*
X173987142Y-93914819D02*
X174082380Y-93914819D01*
X174082380Y-93914819D02*
X174225237Y-93867200D01*
X174225237Y-93867200D02*
X174320475Y-93771961D01*
X174320475Y-93771961D02*
X174368094Y-93676723D01*
X174368094Y-93676723D02*
X174415713Y-93486247D01*
X174415713Y-93486247D02*
X174415713Y-93343390D01*
X174415713Y-93343390D02*
X174368094Y-93152914D01*
X174368094Y-93152914D02*
X174320475Y-93057676D01*
X174320475Y-93057676D02*
X174225237Y-92962438D01*
X174225237Y-92962438D02*
X174082380Y-92914819D01*
X174082380Y-92914819D02*
X173987142Y-92914819D01*
X173987142Y-92914819D02*
X173844285Y-92962438D01*
X173844285Y-92962438D02*
X173796666Y-93010057D01*
X173463332Y-92914819D02*
X172844285Y-92914819D01*
X172844285Y-92914819D02*
X173177618Y-93295771D01*
X173177618Y-93295771D02*
X173034761Y-93295771D01*
X173034761Y-93295771D02*
X172939523Y-93343390D01*
X172939523Y-93343390D02*
X172891904Y-93391009D01*
X172891904Y-93391009D02*
X172844285Y-93486247D01*
X172844285Y-93486247D02*
X172844285Y-93724342D01*
X172844285Y-93724342D02*
X172891904Y-93819580D01*
X172891904Y-93819580D02*
X172939523Y-93867200D01*
X172939523Y-93867200D02*
X173034761Y-93914819D01*
X173034761Y-93914819D02*
X173320475Y-93914819D01*
X173320475Y-93914819D02*
X173415713Y-93867200D01*
X173415713Y-93867200D02*
X173463332Y-93819580D01*
X159912857Y-149534819D02*
X160246190Y-149058628D01*
X160484285Y-149534819D02*
X160484285Y-148534819D01*
X160484285Y-148534819D02*
X160103333Y-148534819D01*
X160103333Y-148534819D02*
X160008095Y-148582438D01*
X160008095Y-148582438D02*
X159960476Y-148630057D01*
X159960476Y-148630057D02*
X159912857Y-148725295D01*
X159912857Y-148725295D02*
X159912857Y-148868152D01*
X159912857Y-148868152D02*
X159960476Y-148963390D01*
X159960476Y-148963390D02*
X160008095Y-149011009D01*
X160008095Y-149011009D02*
X160103333Y-149058628D01*
X160103333Y-149058628D02*
X160484285Y-149058628D01*
X159531904Y-148630057D02*
X159484285Y-148582438D01*
X159484285Y-148582438D02*
X159389047Y-148534819D01*
X159389047Y-148534819D02*
X159150952Y-148534819D01*
X159150952Y-148534819D02*
X159055714Y-148582438D01*
X159055714Y-148582438D02*
X159008095Y-148630057D01*
X159008095Y-148630057D02*
X158960476Y-148725295D01*
X158960476Y-148725295D02*
X158960476Y-148820533D01*
X158960476Y-148820533D02*
X159008095Y-148963390D01*
X159008095Y-148963390D02*
X159579523Y-149534819D01*
X159579523Y-149534819D02*
X158960476Y-149534819D01*
X158484285Y-149534819D02*
X158293809Y-149534819D01*
X158293809Y-149534819D02*
X158198571Y-149487200D01*
X158198571Y-149487200D02*
X158150952Y-149439580D01*
X158150952Y-149439580D02*
X158055714Y-149296723D01*
X158055714Y-149296723D02*
X158008095Y-149106247D01*
X158008095Y-149106247D02*
X158008095Y-148725295D01*
X158008095Y-148725295D02*
X158055714Y-148630057D01*
X158055714Y-148630057D02*
X158103333Y-148582438D01*
X158103333Y-148582438D02*
X158198571Y-148534819D01*
X158198571Y-148534819D02*
X158389047Y-148534819D01*
X158389047Y-148534819D02*
X158484285Y-148582438D01*
X158484285Y-148582438D02*
X158531904Y-148630057D01*
X158531904Y-148630057D02*
X158579523Y-148725295D01*
X158579523Y-148725295D02*
X158579523Y-148963390D01*
X158579523Y-148963390D02*
X158531904Y-149058628D01*
X158531904Y-149058628D02*
X158484285Y-149106247D01*
X158484285Y-149106247D02*
X158389047Y-149153866D01*
X158389047Y-149153866D02*
X158198571Y-149153866D01*
X158198571Y-149153866D02*
X158103333Y-149106247D01*
X158103333Y-149106247D02*
X158055714Y-149058628D01*
X158055714Y-149058628D02*
X158008095Y-148963390D01*
X157935357Y-183024819D02*
X158268690Y-182548628D01*
X158506785Y-183024819D02*
X158506785Y-182024819D01*
X158506785Y-182024819D02*
X158125833Y-182024819D01*
X158125833Y-182024819D02*
X158030595Y-182072438D01*
X158030595Y-182072438D02*
X157982976Y-182120057D01*
X157982976Y-182120057D02*
X157935357Y-182215295D01*
X157935357Y-182215295D02*
X157935357Y-182358152D01*
X157935357Y-182358152D02*
X157982976Y-182453390D01*
X157982976Y-182453390D02*
X158030595Y-182501009D01*
X158030595Y-182501009D02*
X158125833Y-182548628D01*
X158125833Y-182548628D02*
X158506785Y-182548628D01*
X157554404Y-182120057D02*
X157506785Y-182072438D01*
X157506785Y-182072438D02*
X157411547Y-182024819D01*
X157411547Y-182024819D02*
X157173452Y-182024819D01*
X157173452Y-182024819D02*
X157078214Y-182072438D01*
X157078214Y-182072438D02*
X157030595Y-182120057D01*
X157030595Y-182120057D02*
X156982976Y-182215295D01*
X156982976Y-182215295D02*
X156982976Y-182310533D01*
X156982976Y-182310533D02*
X157030595Y-182453390D01*
X157030595Y-182453390D02*
X157602023Y-183024819D01*
X157602023Y-183024819D02*
X156982976Y-183024819D01*
X156411547Y-182453390D02*
X156506785Y-182405771D01*
X156506785Y-182405771D02*
X156554404Y-182358152D01*
X156554404Y-182358152D02*
X156602023Y-182262914D01*
X156602023Y-182262914D02*
X156602023Y-182215295D01*
X156602023Y-182215295D02*
X156554404Y-182120057D01*
X156554404Y-182120057D02*
X156506785Y-182072438D01*
X156506785Y-182072438D02*
X156411547Y-182024819D01*
X156411547Y-182024819D02*
X156221071Y-182024819D01*
X156221071Y-182024819D02*
X156125833Y-182072438D01*
X156125833Y-182072438D02*
X156078214Y-182120057D01*
X156078214Y-182120057D02*
X156030595Y-182215295D01*
X156030595Y-182215295D02*
X156030595Y-182262914D01*
X156030595Y-182262914D02*
X156078214Y-182358152D01*
X156078214Y-182358152D02*
X156125833Y-182405771D01*
X156125833Y-182405771D02*
X156221071Y-182453390D01*
X156221071Y-182453390D02*
X156411547Y-182453390D01*
X156411547Y-182453390D02*
X156506785Y-182501009D01*
X156506785Y-182501009D02*
X156554404Y-182548628D01*
X156554404Y-182548628D02*
X156602023Y-182643866D01*
X156602023Y-182643866D02*
X156602023Y-182834342D01*
X156602023Y-182834342D02*
X156554404Y-182929580D01*
X156554404Y-182929580D02*
X156506785Y-182977200D01*
X156506785Y-182977200D02*
X156411547Y-183024819D01*
X156411547Y-183024819D02*
X156221071Y-183024819D01*
X156221071Y-183024819D02*
X156125833Y-182977200D01*
X156125833Y-182977200D02*
X156078214Y-182929580D01*
X156078214Y-182929580D02*
X156030595Y-182834342D01*
X156030595Y-182834342D02*
X156030595Y-182643866D01*
X156030595Y-182643866D02*
X156078214Y-182548628D01*
X156078214Y-182548628D02*
X156125833Y-182501009D01*
X156125833Y-182501009D02*
X156221071Y-182453390D01*
X166267857Y-189344819D02*
X166601190Y-188868628D01*
X166839285Y-189344819D02*
X166839285Y-188344819D01*
X166839285Y-188344819D02*
X166458333Y-188344819D01*
X166458333Y-188344819D02*
X166363095Y-188392438D01*
X166363095Y-188392438D02*
X166315476Y-188440057D01*
X166315476Y-188440057D02*
X166267857Y-188535295D01*
X166267857Y-188535295D02*
X166267857Y-188678152D01*
X166267857Y-188678152D02*
X166315476Y-188773390D01*
X166315476Y-188773390D02*
X166363095Y-188821009D01*
X166363095Y-188821009D02*
X166458333Y-188868628D01*
X166458333Y-188868628D02*
X166839285Y-188868628D01*
X165886904Y-188440057D02*
X165839285Y-188392438D01*
X165839285Y-188392438D02*
X165744047Y-188344819D01*
X165744047Y-188344819D02*
X165505952Y-188344819D01*
X165505952Y-188344819D02*
X165410714Y-188392438D01*
X165410714Y-188392438D02*
X165363095Y-188440057D01*
X165363095Y-188440057D02*
X165315476Y-188535295D01*
X165315476Y-188535295D02*
X165315476Y-188630533D01*
X165315476Y-188630533D02*
X165363095Y-188773390D01*
X165363095Y-188773390D02*
X165934523Y-189344819D01*
X165934523Y-189344819D02*
X165315476Y-189344819D01*
X164982142Y-188344819D02*
X164315476Y-188344819D01*
X164315476Y-188344819D02*
X164744047Y-189344819D01*
X170030357Y-229764819D02*
X170363690Y-229288628D01*
X170601785Y-229764819D02*
X170601785Y-228764819D01*
X170601785Y-228764819D02*
X170220833Y-228764819D01*
X170220833Y-228764819D02*
X170125595Y-228812438D01*
X170125595Y-228812438D02*
X170077976Y-228860057D01*
X170077976Y-228860057D02*
X170030357Y-228955295D01*
X170030357Y-228955295D02*
X170030357Y-229098152D01*
X170030357Y-229098152D02*
X170077976Y-229193390D01*
X170077976Y-229193390D02*
X170125595Y-229241009D01*
X170125595Y-229241009D02*
X170220833Y-229288628D01*
X170220833Y-229288628D02*
X170601785Y-229288628D01*
X169649404Y-228860057D02*
X169601785Y-228812438D01*
X169601785Y-228812438D02*
X169506547Y-228764819D01*
X169506547Y-228764819D02*
X169268452Y-228764819D01*
X169268452Y-228764819D02*
X169173214Y-228812438D01*
X169173214Y-228812438D02*
X169125595Y-228860057D01*
X169125595Y-228860057D02*
X169077976Y-228955295D01*
X169077976Y-228955295D02*
X169077976Y-229050533D01*
X169077976Y-229050533D02*
X169125595Y-229193390D01*
X169125595Y-229193390D02*
X169697023Y-229764819D01*
X169697023Y-229764819D02*
X169077976Y-229764819D01*
X168220833Y-228764819D02*
X168411309Y-228764819D01*
X168411309Y-228764819D02*
X168506547Y-228812438D01*
X168506547Y-228812438D02*
X168554166Y-228860057D01*
X168554166Y-228860057D02*
X168649404Y-229002914D01*
X168649404Y-229002914D02*
X168697023Y-229193390D01*
X168697023Y-229193390D02*
X168697023Y-229574342D01*
X168697023Y-229574342D02*
X168649404Y-229669580D01*
X168649404Y-229669580D02*
X168601785Y-229717200D01*
X168601785Y-229717200D02*
X168506547Y-229764819D01*
X168506547Y-229764819D02*
X168316071Y-229764819D01*
X168316071Y-229764819D02*
X168220833Y-229717200D01*
X168220833Y-229717200D02*
X168173214Y-229669580D01*
X168173214Y-229669580D02*
X168125595Y-229574342D01*
X168125595Y-229574342D02*
X168125595Y-229336247D01*
X168125595Y-229336247D02*
X168173214Y-229241009D01*
X168173214Y-229241009D02*
X168220833Y-229193390D01*
X168220833Y-229193390D02*
X168316071Y-229145771D01*
X168316071Y-229145771D02*
X168506547Y-229145771D01*
X168506547Y-229145771D02*
X168601785Y-229193390D01*
X168601785Y-229193390D02*
X168649404Y-229241009D01*
X168649404Y-229241009D02*
X168697023Y-229336247D01*
X105265357Y-204154819D02*
X105598690Y-203678628D01*
X105836785Y-204154819D02*
X105836785Y-203154819D01*
X105836785Y-203154819D02*
X105455833Y-203154819D01*
X105455833Y-203154819D02*
X105360595Y-203202438D01*
X105360595Y-203202438D02*
X105312976Y-203250057D01*
X105312976Y-203250057D02*
X105265357Y-203345295D01*
X105265357Y-203345295D02*
X105265357Y-203488152D01*
X105265357Y-203488152D02*
X105312976Y-203583390D01*
X105312976Y-203583390D02*
X105360595Y-203631009D01*
X105360595Y-203631009D02*
X105455833Y-203678628D01*
X105455833Y-203678628D02*
X105836785Y-203678628D01*
X104884404Y-203250057D02*
X104836785Y-203202438D01*
X104836785Y-203202438D02*
X104741547Y-203154819D01*
X104741547Y-203154819D02*
X104503452Y-203154819D01*
X104503452Y-203154819D02*
X104408214Y-203202438D01*
X104408214Y-203202438D02*
X104360595Y-203250057D01*
X104360595Y-203250057D02*
X104312976Y-203345295D01*
X104312976Y-203345295D02*
X104312976Y-203440533D01*
X104312976Y-203440533D02*
X104360595Y-203583390D01*
X104360595Y-203583390D02*
X104932023Y-204154819D01*
X104932023Y-204154819D02*
X104312976Y-204154819D01*
X103408214Y-203154819D02*
X103884404Y-203154819D01*
X103884404Y-203154819D02*
X103932023Y-203631009D01*
X103932023Y-203631009D02*
X103884404Y-203583390D01*
X103884404Y-203583390D02*
X103789166Y-203535771D01*
X103789166Y-203535771D02*
X103551071Y-203535771D01*
X103551071Y-203535771D02*
X103455833Y-203583390D01*
X103455833Y-203583390D02*
X103408214Y-203631009D01*
X103408214Y-203631009D02*
X103360595Y-203726247D01*
X103360595Y-203726247D02*
X103360595Y-203964342D01*
X103360595Y-203964342D02*
X103408214Y-204059580D01*
X103408214Y-204059580D02*
X103455833Y-204107200D01*
X103455833Y-204107200D02*
X103551071Y-204154819D01*
X103551071Y-204154819D02*
X103789166Y-204154819D01*
X103789166Y-204154819D02*
X103884404Y-204107200D01*
X103884404Y-204107200D02*
X103932023Y-204059580D01*
X160574285Y-154664819D02*
X160574285Y-153664819D01*
X160574285Y-153664819D02*
X160336190Y-153664819D01*
X160336190Y-153664819D02*
X160193333Y-153712438D01*
X160193333Y-153712438D02*
X160098095Y-153807676D01*
X160098095Y-153807676D02*
X160050476Y-153902914D01*
X160050476Y-153902914D02*
X160002857Y-154093390D01*
X160002857Y-154093390D02*
X160002857Y-154236247D01*
X160002857Y-154236247D02*
X160050476Y-154426723D01*
X160050476Y-154426723D02*
X160098095Y-154521961D01*
X160098095Y-154521961D02*
X160193333Y-154617200D01*
X160193333Y-154617200D02*
X160336190Y-154664819D01*
X160336190Y-154664819D02*
X160574285Y-154664819D01*
X159669523Y-153664819D02*
X159050476Y-153664819D01*
X159050476Y-153664819D02*
X159383809Y-154045771D01*
X159383809Y-154045771D02*
X159240952Y-154045771D01*
X159240952Y-154045771D02*
X159145714Y-154093390D01*
X159145714Y-154093390D02*
X159098095Y-154141009D01*
X159098095Y-154141009D02*
X159050476Y-154236247D01*
X159050476Y-154236247D02*
X159050476Y-154474342D01*
X159050476Y-154474342D02*
X159098095Y-154569580D01*
X159098095Y-154569580D02*
X159145714Y-154617200D01*
X159145714Y-154617200D02*
X159240952Y-154664819D01*
X159240952Y-154664819D02*
X159526666Y-154664819D01*
X159526666Y-154664819D02*
X159621904Y-154617200D01*
X159621904Y-154617200D02*
X159669523Y-154569580D01*
X158717142Y-153664819D02*
X158098095Y-153664819D01*
X158098095Y-153664819D02*
X158431428Y-154045771D01*
X158431428Y-154045771D02*
X158288571Y-154045771D01*
X158288571Y-154045771D02*
X158193333Y-154093390D01*
X158193333Y-154093390D02*
X158145714Y-154141009D01*
X158145714Y-154141009D02*
X158098095Y-154236247D01*
X158098095Y-154236247D02*
X158098095Y-154474342D01*
X158098095Y-154474342D02*
X158145714Y-154569580D01*
X158145714Y-154569580D02*
X158193333Y-154617200D01*
X158193333Y-154617200D02*
X158288571Y-154664819D01*
X158288571Y-154664819D02*
X158574285Y-154664819D01*
X158574285Y-154664819D02*
X158669523Y-154617200D01*
X158669523Y-154617200D02*
X158717142Y-154569580D01*
X158261785Y-184954819D02*
X158261785Y-183954819D01*
X158261785Y-183954819D02*
X158023690Y-183954819D01*
X158023690Y-183954819D02*
X157880833Y-184002438D01*
X157880833Y-184002438D02*
X157785595Y-184097676D01*
X157785595Y-184097676D02*
X157737976Y-184192914D01*
X157737976Y-184192914D02*
X157690357Y-184383390D01*
X157690357Y-184383390D02*
X157690357Y-184526247D01*
X157690357Y-184526247D02*
X157737976Y-184716723D01*
X157737976Y-184716723D02*
X157785595Y-184811961D01*
X157785595Y-184811961D02*
X157880833Y-184907200D01*
X157880833Y-184907200D02*
X158023690Y-184954819D01*
X158023690Y-184954819D02*
X158261785Y-184954819D01*
X157357023Y-183954819D02*
X156737976Y-183954819D01*
X156737976Y-183954819D02*
X157071309Y-184335771D01*
X157071309Y-184335771D02*
X156928452Y-184335771D01*
X156928452Y-184335771D02*
X156833214Y-184383390D01*
X156833214Y-184383390D02*
X156785595Y-184431009D01*
X156785595Y-184431009D02*
X156737976Y-184526247D01*
X156737976Y-184526247D02*
X156737976Y-184764342D01*
X156737976Y-184764342D02*
X156785595Y-184859580D01*
X156785595Y-184859580D02*
X156833214Y-184907200D01*
X156833214Y-184907200D02*
X156928452Y-184954819D01*
X156928452Y-184954819D02*
X157214166Y-184954819D01*
X157214166Y-184954819D02*
X157309404Y-184907200D01*
X157309404Y-184907200D02*
X157357023Y-184859580D01*
X156357023Y-184050057D02*
X156309404Y-184002438D01*
X156309404Y-184002438D02*
X156214166Y-183954819D01*
X156214166Y-183954819D02*
X155976071Y-183954819D01*
X155976071Y-183954819D02*
X155880833Y-184002438D01*
X155880833Y-184002438D02*
X155833214Y-184050057D01*
X155833214Y-184050057D02*
X155785595Y-184145295D01*
X155785595Y-184145295D02*
X155785595Y-184240533D01*
X155785595Y-184240533D02*
X155833214Y-184383390D01*
X155833214Y-184383390D02*
X156404642Y-184954819D01*
X156404642Y-184954819D02*
X155785595Y-184954819D01*
X166791785Y-179644819D02*
X166791785Y-178644819D01*
X166791785Y-178644819D02*
X166553690Y-178644819D01*
X166553690Y-178644819D02*
X166410833Y-178692438D01*
X166410833Y-178692438D02*
X166315595Y-178787676D01*
X166315595Y-178787676D02*
X166267976Y-178882914D01*
X166267976Y-178882914D02*
X166220357Y-179073390D01*
X166220357Y-179073390D02*
X166220357Y-179216247D01*
X166220357Y-179216247D02*
X166267976Y-179406723D01*
X166267976Y-179406723D02*
X166315595Y-179501961D01*
X166315595Y-179501961D02*
X166410833Y-179597200D01*
X166410833Y-179597200D02*
X166553690Y-179644819D01*
X166553690Y-179644819D02*
X166791785Y-179644819D01*
X165887023Y-178644819D02*
X165267976Y-178644819D01*
X165267976Y-178644819D02*
X165601309Y-179025771D01*
X165601309Y-179025771D02*
X165458452Y-179025771D01*
X165458452Y-179025771D02*
X165363214Y-179073390D01*
X165363214Y-179073390D02*
X165315595Y-179121009D01*
X165315595Y-179121009D02*
X165267976Y-179216247D01*
X165267976Y-179216247D02*
X165267976Y-179454342D01*
X165267976Y-179454342D02*
X165315595Y-179549580D01*
X165315595Y-179549580D02*
X165363214Y-179597200D01*
X165363214Y-179597200D02*
X165458452Y-179644819D01*
X165458452Y-179644819D02*
X165744166Y-179644819D01*
X165744166Y-179644819D02*
X165839404Y-179597200D01*
X165839404Y-179597200D02*
X165887023Y-179549580D01*
X164315595Y-179644819D02*
X164887023Y-179644819D01*
X164601309Y-179644819D02*
X164601309Y-178644819D01*
X164601309Y-178644819D02*
X164696547Y-178787676D01*
X164696547Y-178787676D02*
X164791785Y-178882914D01*
X164791785Y-178882914D02*
X164887023Y-178930533D01*
X170631785Y-219654819D02*
X170631785Y-218654819D01*
X170631785Y-218654819D02*
X170393690Y-218654819D01*
X170393690Y-218654819D02*
X170250833Y-218702438D01*
X170250833Y-218702438D02*
X170155595Y-218797676D01*
X170155595Y-218797676D02*
X170107976Y-218892914D01*
X170107976Y-218892914D02*
X170060357Y-219083390D01*
X170060357Y-219083390D02*
X170060357Y-219226247D01*
X170060357Y-219226247D02*
X170107976Y-219416723D01*
X170107976Y-219416723D02*
X170155595Y-219511961D01*
X170155595Y-219511961D02*
X170250833Y-219607200D01*
X170250833Y-219607200D02*
X170393690Y-219654819D01*
X170393690Y-219654819D02*
X170631785Y-219654819D01*
X169727023Y-218654819D02*
X169107976Y-218654819D01*
X169107976Y-218654819D02*
X169441309Y-219035771D01*
X169441309Y-219035771D02*
X169298452Y-219035771D01*
X169298452Y-219035771D02*
X169203214Y-219083390D01*
X169203214Y-219083390D02*
X169155595Y-219131009D01*
X169155595Y-219131009D02*
X169107976Y-219226247D01*
X169107976Y-219226247D02*
X169107976Y-219464342D01*
X169107976Y-219464342D02*
X169155595Y-219559580D01*
X169155595Y-219559580D02*
X169203214Y-219607200D01*
X169203214Y-219607200D02*
X169298452Y-219654819D01*
X169298452Y-219654819D02*
X169584166Y-219654819D01*
X169584166Y-219654819D02*
X169679404Y-219607200D01*
X169679404Y-219607200D02*
X169727023Y-219559580D01*
X168488928Y-218654819D02*
X168393690Y-218654819D01*
X168393690Y-218654819D02*
X168298452Y-218702438D01*
X168298452Y-218702438D02*
X168250833Y-218750057D01*
X168250833Y-218750057D02*
X168203214Y-218845295D01*
X168203214Y-218845295D02*
X168155595Y-219035771D01*
X168155595Y-219035771D02*
X168155595Y-219273866D01*
X168155595Y-219273866D02*
X168203214Y-219464342D01*
X168203214Y-219464342D02*
X168250833Y-219559580D01*
X168250833Y-219559580D02*
X168298452Y-219607200D01*
X168298452Y-219607200D02*
X168393690Y-219654819D01*
X168393690Y-219654819D02*
X168488928Y-219654819D01*
X168488928Y-219654819D02*
X168584166Y-219607200D01*
X168584166Y-219607200D02*
X168631785Y-219559580D01*
X168631785Y-219559580D02*
X168679404Y-219464342D01*
X168679404Y-219464342D02*
X168727023Y-219273866D01*
X168727023Y-219273866D02*
X168727023Y-219035771D01*
X168727023Y-219035771D02*
X168679404Y-218845295D01*
X168679404Y-218845295D02*
X168631785Y-218750057D01*
X168631785Y-218750057D02*
X168584166Y-218702438D01*
X168584166Y-218702438D02*
X168488928Y-218654819D01*
X105776785Y-206124819D02*
X105776785Y-205124819D01*
X105776785Y-205124819D02*
X105538690Y-205124819D01*
X105538690Y-205124819D02*
X105395833Y-205172438D01*
X105395833Y-205172438D02*
X105300595Y-205267676D01*
X105300595Y-205267676D02*
X105252976Y-205362914D01*
X105252976Y-205362914D02*
X105205357Y-205553390D01*
X105205357Y-205553390D02*
X105205357Y-205696247D01*
X105205357Y-205696247D02*
X105252976Y-205886723D01*
X105252976Y-205886723D02*
X105300595Y-205981961D01*
X105300595Y-205981961D02*
X105395833Y-206077200D01*
X105395833Y-206077200D02*
X105538690Y-206124819D01*
X105538690Y-206124819D02*
X105776785Y-206124819D01*
X104824404Y-205220057D02*
X104776785Y-205172438D01*
X104776785Y-205172438D02*
X104681547Y-205124819D01*
X104681547Y-205124819D02*
X104443452Y-205124819D01*
X104443452Y-205124819D02*
X104348214Y-205172438D01*
X104348214Y-205172438D02*
X104300595Y-205220057D01*
X104300595Y-205220057D02*
X104252976Y-205315295D01*
X104252976Y-205315295D02*
X104252976Y-205410533D01*
X104252976Y-205410533D02*
X104300595Y-205553390D01*
X104300595Y-205553390D02*
X104872023Y-206124819D01*
X104872023Y-206124819D02*
X104252976Y-206124819D01*
X103776785Y-206124819D02*
X103586309Y-206124819D01*
X103586309Y-206124819D02*
X103491071Y-206077200D01*
X103491071Y-206077200D02*
X103443452Y-206029580D01*
X103443452Y-206029580D02*
X103348214Y-205886723D01*
X103348214Y-205886723D02*
X103300595Y-205696247D01*
X103300595Y-205696247D02*
X103300595Y-205315295D01*
X103300595Y-205315295D02*
X103348214Y-205220057D01*
X103348214Y-205220057D02*
X103395833Y-205172438D01*
X103395833Y-205172438D02*
X103491071Y-205124819D01*
X103491071Y-205124819D02*
X103681547Y-205124819D01*
X103681547Y-205124819D02*
X103776785Y-205172438D01*
X103776785Y-205172438D02*
X103824404Y-205220057D01*
X103824404Y-205220057D02*
X103872023Y-205315295D01*
X103872023Y-205315295D02*
X103872023Y-205553390D01*
X103872023Y-205553390D02*
X103824404Y-205648628D01*
X103824404Y-205648628D02*
X103776785Y-205696247D01*
X103776785Y-205696247D02*
X103681547Y-205743866D01*
X103681547Y-205743866D02*
X103491071Y-205743866D01*
X103491071Y-205743866D02*
X103395833Y-205696247D01*
X103395833Y-205696247D02*
X103348214Y-205648628D01*
X103348214Y-205648628D02*
X103300595Y-205553390D01*
X103185180Y-154703333D02*
X102470895Y-154703333D01*
X102470895Y-154703333D02*
X102328038Y-154750952D01*
X102328038Y-154750952D02*
X102232800Y-154846190D01*
X102232800Y-154846190D02*
X102185180Y-154989047D01*
X102185180Y-154989047D02*
X102185180Y-155084285D01*
X103185180Y-154322380D02*
X103185180Y-153703333D01*
X103185180Y-153703333D02*
X102804228Y-154036666D01*
X102804228Y-154036666D02*
X102804228Y-153893809D01*
X102804228Y-153893809D02*
X102756609Y-153798571D01*
X102756609Y-153798571D02*
X102708990Y-153750952D01*
X102708990Y-153750952D02*
X102613752Y-153703333D01*
X102613752Y-153703333D02*
X102375657Y-153703333D01*
X102375657Y-153703333D02*
X102280419Y-153750952D01*
X102280419Y-153750952D02*
X102232800Y-153798571D01*
X102232800Y-153798571D02*
X102185180Y-153893809D01*
X102185180Y-153893809D02*
X102185180Y-154179523D01*
X102185180Y-154179523D02*
X102232800Y-154274761D01*
X102232800Y-154274761D02*
X102280419Y-154322380D01*
X100985180Y-157846430D02*
X100985180Y-158322620D01*
X100985180Y-158322620D02*
X100508990Y-158370239D01*
X100508990Y-158370239D02*
X100556609Y-158322620D01*
X100556609Y-158322620D02*
X100604228Y-158227382D01*
X100604228Y-158227382D02*
X100604228Y-157989287D01*
X100604228Y-157989287D02*
X100556609Y-157894049D01*
X100556609Y-157894049D02*
X100508990Y-157846430D01*
X100508990Y-157846430D02*
X100413752Y-157798811D01*
X100413752Y-157798811D02*
X100175657Y-157798811D01*
X100175657Y-157798811D02*
X100080419Y-157846430D01*
X100080419Y-157846430D02*
X100032800Y-157894049D01*
X100032800Y-157894049D02*
X99985180Y-157989287D01*
X99985180Y-157989287D02*
X99985180Y-158227382D01*
X99985180Y-158227382D02*
X100032800Y-158322620D01*
X100032800Y-158322620D02*
X100080419Y-158370239D01*
X100985180Y-157465477D02*
X100985180Y-156846430D01*
X100985180Y-156846430D02*
X100604228Y-157179763D01*
X100604228Y-157179763D02*
X100604228Y-157036906D01*
X100604228Y-157036906D02*
X100556609Y-156941668D01*
X100556609Y-156941668D02*
X100508990Y-156894049D01*
X100508990Y-156894049D02*
X100413752Y-156846430D01*
X100413752Y-156846430D02*
X100175657Y-156846430D01*
X100175657Y-156846430D02*
X100080419Y-156894049D01*
X100080419Y-156894049D02*
X100032800Y-156941668D01*
X100032800Y-156941668D02*
X99985180Y-157036906D01*
X99985180Y-157036906D02*
X99985180Y-157322620D01*
X99985180Y-157322620D02*
X100032800Y-157417858D01*
X100032800Y-157417858D02*
X100080419Y-157465477D01*
X100985180Y-156227382D02*
X100985180Y-156132144D01*
X100985180Y-156132144D02*
X100937561Y-156036906D01*
X100937561Y-156036906D02*
X100889942Y-155989287D01*
X100889942Y-155989287D02*
X100794704Y-155941668D01*
X100794704Y-155941668D02*
X100604228Y-155894049D01*
X100604228Y-155894049D02*
X100366133Y-155894049D01*
X100366133Y-155894049D02*
X100175657Y-155941668D01*
X100175657Y-155941668D02*
X100080419Y-155989287D01*
X100080419Y-155989287D02*
X100032800Y-156036906D01*
X100032800Y-156036906D02*
X99985180Y-156132144D01*
X99985180Y-156132144D02*
X99985180Y-156227382D01*
X99985180Y-156227382D02*
X100032800Y-156322620D01*
X100032800Y-156322620D02*
X100080419Y-156370239D01*
X100080419Y-156370239D02*
X100175657Y-156417858D01*
X100175657Y-156417858D02*
X100366133Y-156465477D01*
X100366133Y-156465477D02*
X100604228Y-156465477D01*
X100604228Y-156465477D02*
X100794704Y-156417858D01*
X100794704Y-156417858D02*
X100889942Y-156370239D01*
X100889942Y-156370239D02*
X100937561Y-156322620D01*
X100937561Y-156322620D02*
X100985180Y-156227382D01*
X100651847Y-155036906D02*
X99985180Y-155036906D01*
X101032800Y-155275001D02*
X100318514Y-155513096D01*
X100318514Y-155513096D02*
X100318514Y-154894049D01*
X100985180Y-154608334D02*
X100985180Y-153941668D01*
X100985180Y-153941668D02*
X99985180Y-154370239D01*
X100985180Y-153370239D02*
X100985180Y-153275001D01*
X100985180Y-153275001D02*
X100937561Y-153179763D01*
X100937561Y-153179763D02*
X100889942Y-153132144D01*
X100889942Y-153132144D02*
X100794704Y-153084525D01*
X100794704Y-153084525D02*
X100604228Y-153036906D01*
X100604228Y-153036906D02*
X100366133Y-153036906D01*
X100366133Y-153036906D02*
X100175657Y-153084525D01*
X100175657Y-153084525D02*
X100080419Y-153132144D01*
X100080419Y-153132144D02*
X100032800Y-153179763D01*
X100032800Y-153179763D02*
X99985180Y-153275001D01*
X99985180Y-153275001D02*
X99985180Y-153370239D01*
X99985180Y-153370239D02*
X100032800Y-153465477D01*
X100032800Y-153465477D02*
X100080419Y-153513096D01*
X100080419Y-153513096D02*
X100175657Y-153560715D01*
X100175657Y-153560715D02*
X100366133Y-153608334D01*
X100366133Y-153608334D02*
X100604228Y-153608334D01*
X100604228Y-153608334D02*
X100794704Y-153560715D01*
X100794704Y-153560715D02*
X100889942Y-153513096D01*
X100889942Y-153513096D02*
X100937561Y-153465477D01*
X100937561Y-153465477D02*
X100985180Y-153370239D01*
X100889942Y-152655953D02*
X100937561Y-152608334D01*
X100937561Y-152608334D02*
X100985180Y-152513096D01*
X100985180Y-152513096D02*
X100985180Y-152275001D01*
X100985180Y-152275001D02*
X100937561Y-152179763D01*
X100937561Y-152179763D02*
X100889942Y-152132144D01*
X100889942Y-152132144D02*
X100794704Y-152084525D01*
X100794704Y-152084525D02*
X100699466Y-152084525D01*
X100699466Y-152084525D02*
X100556609Y-152132144D01*
X100556609Y-152132144D02*
X99985180Y-152703572D01*
X99985180Y-152703572D02*
X99985180Y-152084525D01*
X99985180Y-151132144D02*
X99985180Y-151703572D01*
X99985180Y-151417858D02*
X100985180Y-151417858D01*
X100985180Y-151417858D02*
X100842323Y-151513096D01*
X100842323Y-151513096D02*
X100747085Y-151608334D01*
X100747085Y-151608334D02*
X100699466Y-151703572D01*
X100985180Y-150513096D02*
X100985180Y-150417858D01*
X100985180Y-150417858D02*
X100937561Y-150322620D01*
X100937561Y-150322620D02*
X100889942Y-150275001D01*
X100889942Y-150275001D02*
X100794704Y-150227382D01*
X100794704Y-150227382D02*
X100604228Y-150179763D01*
X100604228Y-150179763D02*
X100366133Y-150179763D01*
X100366133Y-150179763D02*
X100175657Y-150227382D01*
X100175657Y-150227382D02*
X100080419Y-150275001D01*
X100080419Y-150275001D02*
X100032800Y-150322620D01*
X100032800Y-150322620D02*
X99985180Y-150417858D01*
X99985180Y-150417858D02*
X99985180Y-150513096D01*
X99985180Y-150513096D02*
X100032800Y-150608334D01*
X100032800Y-150608334D02*
X100080419Y-150655953D01*
X100080419Y-150655953D02*
X100175657Y-150703572D01*
X100175657Y-150703572D02*
X100366133Y-150751191D01*
X100366133Y-150751191D02*
X100604228Y-150751191D01*
X100604228Y-150751191D02*
X100794704Y-150703572D01*
X100794704Y-150703572D02*
X100889942Y-150655953D01*
X100889942Y-150655953D02*
X100937561Y-150608334D01*
X100937561Y-150608334D02*
X100985180Y-150513096D01*
X160629580Y-111033333D02*
X160677200Y-110985714D01*
X160677200Y-110985714D02*
X160724819Y-110842857D01*
X160724819Y-110842857D02*
X160724819Y-110747619D01*
X160724819Y-110747619D02*
X160677200Y-110604762D01*
X160677200Y-110604762D02*
X160581961Y-110509524D01*
X160581961Y-110509524D02*
X160486723Y-110461905D01*
X160486723Y-110461905D02*
X160296247Y-110414286D01*
X160296247Y-110414286D02*
X160153390Y-110414286D01*
X160153390Y-110414286D02*
X159962914Y-110461905D01*
X159962914Y-110461905D02*
X159867676Y-110509524D01*
X159867676Y-110509524D02*
X159772438Y-110604762D01*
X159772438Y-110604762D02*
X159724819Y-110747619D01*
X159724819Y-110747619D02*
X159724819Y-110842857D01*
X159724819Y-110842857D02*
X159772438Y-110985714D01*
X159772438Y-110985714D02*
X159820057Y-111033333D01*
X159724819Y-111366667D02*
X159724819Y-112033333D01*
X159724819Y-112033333D02*
X160724819Y-111604762D01*
X103205180Y-167368332D02*
X102490895Y-167368332D01*
X102490895Y-167368332D02*
X102348038Y-167415951D01*
X102348038Y-167415951D02*
X102252800Y-167511189D01*
X102252800Y-167511189D02*
X102205180Y-167654046D01*
X102205180Y-167654046D02*
X102205180Y-167749284D01*
X103205180Y-166463570D02*
X103205180Y-166654046D01*
X103205180Y-166654046D02*
X103157561Y-166749284D01*
X103157561Y-166749284D02*
X103109942Y-166796903D01*
X103109942Y-166796903D02*
X102967085Y-166892141D01*
X102967085Y-166892141D02*
X102776609Y-166939760D01*
X102776609Y-166939760D02*
X102395657Y-166939760D01*
X102395657Y-166939760D02*
X102300419Y-166892141D01*
X102300419Y-166892141D02*
X102252800Y-166844522D01*
X102252800Y-166844522D02*
X102205180Y-166749284D01*
X102205180Y-166749284D02*
X102205180Y-166558808D01*
X102205180Y-166558808D02*
X102252800Y-166463570D01*
X102252800Y-166463570D02*
X102300419Y-166415951D01*
X102300419Y-166415951D02*
X102395657Y-166368332D01*
X102395657Y-166368332D02*
X102633752Y-166368332D01*
X102633752Y-166368332D02*
X102728990Y-166415951D01*
X102728990Y-166415951D02*
X102776609Y-166463570D01*
X102776609Y-166463570D02*
X102824228Y-166558808D01*
X102824228Y-166558808D02*
X102824228Y-166749284D01*
X102824228Y-166749284D02*
X102776609Y-166844522D01*
X102776609Y-166844522D02*
X102728990Y-166892141D01*
X102728990Y-166892141D02*
X102633752Y-166939760D01*
X100565180Y-169941429D02*
X100565180Y-170417619D01*
X100565180Y-170417619D02*
X100088990Y-170465238D01*
X100088990Y-170465238D02*
X100136609Y-170417619D01*
X100136609Y-170417619D02*
X100184228Y-170322381D01*
X100184228Y-170322381D02*
X100184228Y-170084286D01*
X100184228Y-170084286D02*
X100136609Y-169989048D01*
X100136609Y-169989048D02*
X100088990Y-169941429D01*
X100088990Y-169941429D02*
X99993752Y-169893810D01*
X99993752Y-169893810D02*
X99755657Y-169893810D01*
X99755657Y-169893810D02*
X99660419Y-169941429D01*
X99660419Y-169941429D02*
X99612800Y-169989048D01*
X99612800Y-169989048D02*
X99565180Y-170084286D01*
X99565180Y-170084286D02*
X99565180Y-170322381D01*
X99565180Y-170322381D02*
X99612800Y-170417619D01*
X99612800Y-170417619D02*
X99660419Y-170465238D01*
X100565180Y-169560476D02*
X100565180Y-168941429D01*
X100565180Y-168941429D02*
X100184228Y-169274762D01*
X100184228Y-169274762D02*
X100184228Y-169131905D01*
X100184228Y-169131905D02*
X100136609Y-169036667D01*
X100136609Y-169036667D02*
X100088990Y-168989048D01*
X100088990Y-168989048D02*
X99993752Y-168941429D01*
X99993752Y-168941429D02*
X99755657Y-168941429D01*
X99755657Y-168941429D02*
X99660419Y-168989048D01*
X99660419Y-168989048D02*
X99612800Y-169036667D01*
X99612800Y-169036667D02*
X99565180Y-169131905D01*
X99565180Y-169131905D02*
X99565180Y-169417619D01*
X99565180Y-169417619D02*
X99612800Y-169512857D01*
X99612800Y-169512857D02*
X99660419Y-169560476D01*
X100565180Y-168322381D02*
X100565180Y-168227143D01*
X100565180Y-168227143D02*
X100517561Y-168131905D01*
X100517561Y-168131905D02*
X100469942Y-168084286D01*
X100469942Y-168084286D02*
X100374704Y-168036667D01*
X100374704Y-168036667D02*
X100184228Y-167989048D01*
X100184228Y-167989048D02*
X99946133Y-167989048D01*
X99946133Y-167989048D02*
X99755657Y-168036667D01*
X99755657Y-168036667D02*
X99660419Y-168084286D01*
X99660419Y-168084286D02*
X99612800Y-168131905D01*
X99612800Y-168131905D02*
X99565180Y-168227143D01*
X99565180Y-168227143D02*
X99565180Y-168322381D01*
X99565180Y-168322381D02*
X99612800Y-168417619D01*
X99612800Y-168417619D02*
X99660419Y-168465238D01*
X99660419Y-168465238D02*
X99755657Y-168512857D01*
X99755657Y-168512857D02*
X99946133Y-168560476D01*
X99946133Y-168560476D02*
X100184228Y-168560476D01*
X100184228Y-168560476D02*
X100374704Y-168512857D01*
X100374704Y-168512857D02*
X100469942Y-168465238D01*
X100469942Y-168465238D02*
X100517561Y-168417619D01*
X100517561Y-168417619D02*
X100565180Y-168322381D01*
X100231847Y-167131905D02*
X99565180Y-167131905D01*
X100612800Y-167370000D02*
X99898514Y-167608095D01*
X99898514Y-167608095D02*
X99898514Y-166989048D01*
X100565180Y-166703333D02*
X100565180Y-166036667D01*
X100565180Y-166036667D02*
X99565180Y-166465238D01*
X100565180Y-165465238D02*
X100565180Y-165370000D01*
X100565180Y-165370000D02*
X100517561Y-165274762D01*
X100517561Y-165274762D02*
X100469942Y-165227143D01*
X100469942Y-165227143D02*
X100374704Y-165179524D01*
X100374704Y-165179524D02*
X100184228Y-165131905D01*
X100184228Y-165131905D02*
X99946133Y-165131905D01*
X99946133Y-165131905D02*
X99755657Y-165179524D01*
X99755657Y-165179524D02*
X99660419Y-165227143D01*
X99660419Y-165227143D02*
X99612800Y-165274762D01*
X99612800Y-165274762D02*
X99565180Y-165370000D01*
X99565180Y-165370000D02*
X99565180Y-165465238D01*
X99565180Y-165465238D02*
X99612800Y-165560476D01*
X99612800Y-165560476D02*
X99660419Y-165608095D01*
X99660419Y-165608095D02*
X99755657Y-165655714D01*
X99755657Y-165655714D02*
X99946133Y-165703333D01*
X99946133Y-165703333D02*
X100184228Y-165703333D01*
X100184228Y-165703333D02*
X100374704Y-165655714D01*
X100374704Y-165655714D02*
X100469942Y-165608095D01*
X100469942Y-165608095D02*
X100517561Y-165560476D01*
X100517561Y-165560476D02*
X100565180Y-165465238D01*
X100469942Y-164750952D02*
X100517561Y-164703333D01*
X100517561Y-164703333D02*
X100565180Y-164608095D01*
X100565180Y-164608095D02*
X100565180Y-164370000D01*
X100565180Y-164370000D02*
X100517561Y-164274762D01*
X100517561Y-164274762D02*
X100469942Y-164227143D01*
X100469942Y-164227143D02*
X100374704Y-164179524D01*
X100374704Y-164179524D02*
X100279466Y-164179524D01*
X100279466Y-164179524D02*
X100136609Y-164227143D01*
X100136609Y-164227143D02*
X99565180Y-164798571D01*
X99565180Y-164798571D02*
X99565180Y-164179524D01*
X99565180Y-163227143D02*
X99565180Y-163798571D01*
X99565180Y-163512857D02*
X100565180Y-163512857D01*
X100565180Y-163512857D02*
X100422323Y-163608095D01*
X100422323Y-163608095D02*
X100327085Y-163703333D01*
X100327085Y-163703333D02*
X100279466Y-163798571D01*
X100565180Y-162608095D02*
X100565180Y-162512857D01*
X100565180Y-162512857D02*
X100517561Y-162417619D01*
X100517561Y-162417619D02*
X100469942Y-162370000D01*
X100469942Y-162370000D02*
X100374704Y-162322381D01*
X100374704Y-162322381D02*
X100184228Y-162274762D01*
X100184228Y-162274762D02*
X99946133Y-162274762D01*
X99946133Y-162274762D02*
X99755657Y-162322381D01*
X99755657Y-162322381D02*
X99660419Y-162370000D01*
X99660419Y-162370000D02*
X99612800Y-162417619D01*
X99612800Y-162417619D02*
X99565180Y-162512857D01*
X99565180Y-162512857D02*
X99565180Y-162608095D01*
X99565180Y-162608095D02*
X99612800Y-162703333D01*
X99612800Y-162703333D02*
X99660419Y-162750952D01*
X99660419Y-162750952D02*
X99755657Y-162798571D01*
X99755657Y-162798571D02*
X99946133Y-162846190D01*
X99946133Y-162846190D02*
X100184228Y-162846190D01*
X100184228Y-162846190D02*
X100374704Y-162798571D01*
X100374704Y-162798571D02*
X100469942Y-162750952D01*
X100469942Y-162750952D02*
X100517561Y-162703333D01*
X100517561Y-162703333D02*
X100565180Y-162608095D01*
X167566666Y-95639580D02*
X167614285Y-95687200D01*
X167614285Y-95687200D02*
X167757142Y-95734819D01*
X167757142Y-95734819D02*
X167852380Y-95734819D01*
X167852380Y-95734819D02*
X167995237Y-95687200D01*
X167995237Y-95687200D02*
X168090475Y-95591961D01*
X168090475Y-95591961D02*
X168138094Y-95496723D01*
X168138094Y-95496723D02*
X168185713Y-95306247D01*
X168185713Y-95306247D02*
X168185713Y-95163390D01*
X168185713Y-95163390D02*
X168138094Y-94972914D01*
X168138094Y-94972914D02*
X168090475Y-94877676D01*
X168090475Y-94877676D02*
X167995237Y-94782438D01*
X167995237Y-94782438D02*
X167852380Y-94734819D01*
X167852380Y-94734819D02*
X167757142Y-94734819D01*
X167757142Y-94734819D02*
X167614285Y-94782438D01*
X167614285Y-94782438D02*
X167566666Y-94830057D01*
X167185713Y-94830057D02*
X167138094Y-94782438D01*
X167138094Y-94782438D02*
X167042856Y-94734819D01*
X167042856Y-94734819D02*
X166804761Y-94734819D01*
X166804761Y-94734819D02*
X166709523Y-94782438D01*
X166709523Y-94782438D02*
X166661904Y-94830057D01*
X166661904Y-94830057D02*
X166614285Y-94925295D01*
X166614285Y-94925295D02*
X166614285Y-95020533D01*
X166614285Y-95020533D02*
X166661904Y-95163390D01*
X166661904Y-95163390D02*
X167233332Y-95734819D01*
X167233332Y-95734819D02*
X166614285Y-95734819D01*
X178299580Y-107993333D02*
X178347200Y-107945714D01*
X178347200Y-107945714D02*
X178394819Y-107802857D01*
X178394819Y-107802857D02*
X178394819Y-107707619D01*
X178394819Y-107707619D02*
X178347200Y-107564762D01*
X178347200Y-107564762D02*
X178251961Y-107469524D01*
X178251961Y-107469524D02*
X178156723Y-107421905D01*
X178156723Y-107421905D02*
X177966247Y-107374286D01*
X177966247Y-107374286D02*
X177823390Y-107374286D01*
X177823390Y-107374286D02*
X177632914Y-107421905D01*
X177632914Y-107421905D02*
X177537676Y-107469524D01*
X177537676Y-107469524D02*
X177442438Y-107564762D01*
X177442438Y-107564762D02*
X177394819Y-107707619D01*
X177394819Y-107707619D02*
X177394819Y-107802857D01*
X177394819Y-107802857D02*
X177442438Y-107945714D01*
X177442438Y-107945714D02*
X177490057Y-107993333D01*
X177394819Y-108898095D02*
X177394819Y-108421905D01*
X177394819Y-108421905D02*
X177871009Y-108374286D01*
X177871009Y-108374286D02*
X177823390Y-108421905D01*
X177823390Y-108421905D02*
X177775771Y-108517143D01*
X177775771Y-108517143D02*
X177775771Y-108755238D01*
X177775771Y-108755238D02*
X177823390Y-108850476D01*
X177823390Y-108850476D02*
X177871009Y-108898095D01*
X177871009Y-108898095D02*
X177966247Y-108945714D01*
X177966247Y-108945714D02*
X178204342Y-108945714D01*
X178204342Y-108945714D02*
X178299580Y-108898095D01*
X178299580Y-108898095D02*
X178347200Y-108850476D01*
X178347200Y-108850476D02*
X178394819Y-108755238D01*
X178394819Y-108755238D02*
X178394819Y-108517143D01*
X178394819Y-108517143D02*
X178347200Y-108421905D01*
X178347200Y-108421905D02*
X178299580Y-108374286D01*
X179372857Y-97199580D02*
X179420476Y-97247200D01*
X179420476Y-97247200D02*
X179563333Y-97294819D01*
X179563333Y-97294819D02*
X179658571Y-97294819D01*
X179658571Y-97294819D02*
X179801428Y-97247200D01*
X179801428Y-97247200D02*
X179896666Y-97151961D01*
X179896666Y-97151961D02*
X179944285Y-97056723D01*
X179944285Y-97056723D02*
X179991904Y-96866247D01*
X179991904Y-96866247D02*
X179991904Y-96723390D01*
X179991904Y-96723390D02*
X179944285Y-96532914D01*
X179944285Y-96532914D02*
X179896666Y-96437676D01*
X179896666Y-96437676D02*
X179801428Y-96342438D01*
X179801428Y-96342438D02*
X179658571Y-96294819D01*
X179658571Y-96294819D02*
X179563333Y-96294819D01*
X179563333Y-96294819D02*
X179420476Y-96342438D01*
X179420476Y-96342438D02*
X179372857Y-96390057D01*
X178420476Y-97294819D02*
X178991904Y-97294819D01*
X178706190Y-97294819D02*
X178706190Y-96294819D01*
X178706190Y-96294819D02*
X178801428Y-96437676D01*
X178801428Y-96437676D02*
X178896666Y-96532914D01*
X178896666Y-96532914D02*
X178991904Y-96580533D01*
X177801428Y-96294819D02*
X177706190Y-96294819D01*
X177706190Y-96294819D02*
X177610952Y-96342438D01*
X177610952Y-96342438D02*
X177563333Y-96390057D01*
X177563333Y-96390057D02*
X177515714Y-96485295D01*
X177515714Y-96485295D02*
X177468095Y-96675771D01*
X177468095Y-96675771D02*
X177468095Y-96913866D01*
X177468095Y-96913866D02*
X177515714Y-97104342D01*
X177515714Y-97104342D02*
X177563333Y-97199580D01*
X177563333Y-97199580D02*
X177610952Y-97247200D01*
X177610952Y-97247200D02*
X177706190Y-97294819D01*
X177706190Y-97294819D02*
X177801428Y-97294819D01*
X177801428Y-97294819D02*
X177896666Y-97247200D01*
X177896666Y-97247200D02*
X177944285Y-97199580D01*
X177944285Y-97199580D02*
X177991904Y-97104342D01*
X177991904Y-97104342D02*
X178039523Y-96913866D01*
X178039523Y-96913866D02*
X178039523Y-96675771D01*
X178039523Y-96675771D02*
X177991904Y-96485295D01*
X177991904Y-96485295D02*
X177944285Y-96390057D01*
X177944285Y-96390057D02*
X177896666Y-96342438D01*
X177896666Y-96342438D02*
X177801428Y-96294819D01*
X170502857Y-103139580D02*
X170550476Y-103187200D01*
X170550476Y-103187200D02*
X170693333Y-103234819D01*
X170693333Y-103234819D02*
X170788571Y-103234819D01*
X170788571Y-103234819D02*
X170931428Y-103187200D01*
X170931428Y-103187200D02*
X171026666Y-103091961D01*
X171026666Y-103091961D02*
X171074285Y-102996723D01*
X171074285Y-102996723D02*
X171121904Y-102806247D01*
X171121904Y-102806247D02*
X171121904Y-102663390D01*
X171121904Y-102663390D02*
X171074285Y-102472914D01*
X171074285Y-102472914D02*
X171026666Y-102377676D01*
X171026666Y-102377676D02*
X170931428Y-102282438D01*
X170931428Y-102282438D02*
X170788571Y-102234819D01*
X170788571Y-102234819D02*
X170693333Y-102234819D01*
X170693333Y-102234819D02*
X170550476Y-102282438D01*
X170550476Y-102282438D02*
X170502857Y-102330057D01*
X169550476Y-103234819D02*
X170121904Y-103234819D01*
X169836190Y-103234819D02*
X169836190Y-102234819D01*
X169836190Y-102234819D02*
X169931428Y-102377676D01*
X169931428Y-102377676D02*
X170026666Y-102472914D01*
X170026666Y-102472914D02*
X170121904Y-102520533D01*
X168598095Y-103234819D02*
X169169523Y-103234819D01*
X168883809Y-103234819D02*
X168883809Y-102234819D01*
X168883809Y-102234819D02*
X168979047Y-102377676D01*
X168979047Y-102377676D02*
X169074285Y-102472914D01*
X169074285Y-102472914D02*
X169169523Y-102520533D01*
X170549580Y-110537142D02*
X170597200Y-110489523D01*
X170597200Y-110489523D02*
X170644819Y-110346666D01*
X170644819Y-110346666D02*
X170644819Y-110251428D01*
X170644819Y-110251428D02*
X170597200Y-110108571D01*
X170597200Y-110108571D02*
X170501961Y-110013333D01*
X170501961Y-110013333D02*
X170406723Y-109965714D01*
X170406723Y-109965714D02*
X170216247Y-109918095D01*
X170216247Y-109918095D02*
X170073390Y-109918095D01*
X170073390Y-109918095D02*
X169882914Y-109965714D01*
X169882914Y-109965714D02*
X169787676Y-110013333D01*
X169787676Y-110013333D02*
X169692438Y-110108571D01*
X169692438Y-110108571D02*
X169644819Y-110251428D01*
X169644819Y-110251428D02*
X169644819Y-110346666D01*
X169644819Y-110346666D02*
X169692438Y-110489523D01*
X169692438Y-110489523D02*
X169740057Y-110537142D01*
X170644819Y-111489523D02*
X170644819Y-110918095D01*
X170644819Y-111203809D02*
X169644819Y-111203809D01*
X169644819Y-111203809D02*
X169787676Y-111108571D01*
X169787676Y-111108571D02*
X169882914Y-111013333D01*
X169882914Y-111013333D02*
X169930533Y-110918095D01*
X169978152Y-112346666D02*
X170644819Y-112346666D01*
X169597200Y-112108571D02*
X170311485Y-111870476D01*
X170311485Y-111870476D02*
X170311485Y-112489523D01*
X179542857Y-111419580D02*
X179590476Y-111467200D01*
X179590476Y-111467200D02*
X179733333Y-111514819D01*
X179733333Y-111514819D02*
X179828571Y-111514819D01*
X179828571Y-111514819D02*
X179971428Y-111467200D01*
X179971428Y-111467200D02*
X180066666Y-111371961D01*
X180066666Y-111371961D02*
X180114285Y-111276723D01*
X180114285Y-111276723D02*
X180161904Y-111086247D01*
X180161904Y-111086247D02*
X180161904Y-110943390D01*
X180161904Y-110943390D02*
X180114285Y-110752914D01*
X180114285Y-110752914D02*
X180066666Y-110657676D01*
X180066666Y-110657676D02*
X179971428Y-110562438D01*
X179971428Y-110562438D02*
X179828571Y-110514819D01*
X179828571Y-110514819D02*
X179733333Y-110514819D01*
X179733333Y-110514819D02*
X179590476Y-110562438D01*
X179590476Y-110562438D02*
X179542857Y-110610057D01*
X178590476Y-111514819D02*
X179161904Y-111514819D01*
X178876190Y-111514819D02*
X178876190Y-110514819D01*
X178876190Y-110514819D02*
X178971428Y-110657676D01*
X178971428Y-110657676D02*
X179066666Y-110752914D01*
X179066666Y-110752914D02*
X179161904Y-110800533D01*
X177733333Y-110514819D02*
X177923809Y-110514819D01*
X177923809Y-110514819D02*
X178019047Y-110562438D01*
X178019047Y-110562438D02*
X178066666Y-110610057D01*
X178066666Y-110610057D02*
X178161904Y-110752914D01*
X178161904Y-110752914D02*
X178209523Y-110943390D01*
X178209523Y-110943390D02*
X178209523Y-111324342D01*
X178209523Y-111324342D02*
X178161904Y-111419580D01*
X178161904Y-111419580D02*
X178114285Y-111467200D01*
X178114285Y-111467200D02*
X178019047Y-111514819D01*
X178019047Y-111514819D02*
X177828571Y-111514819D01*
X177828571Y-111514819D02*
X177733333Y-111467200D01*
X177733333Y-111467200D02*
X177685714Y-111419580D01*
X177685714Y-111419580D02*
X177638095Y-111324342D01*
X177638095Y-111324342D02*
X177638095Y-111086247D01*
X177638095Y-111086247D02*
X177685714Y-110991009D01*
X177685714Y-110991009D02*
X177733333Y-110943390D01*
X177733333Y-110943390D02*
X177828571Y-110895771D01*
X177828571Y-110895771D02*
X178019047Y-110895771D01*
X178019047Y-110895771D02*
X178114285Y-110943390D01*
X178114285Y-110943390D02*
X178161904Y-110991009D01*
X178161904Y-110991009D02*
X178209523Y-111086247D01*
X178299580Y-102857142D02*
X178347200Y-102809523D01*
X178347200Y-102809523D02*
X178394819Y-102666666D01*
X178394819Y-102666666D02*
X178394819Y-102571428D01*
X178394819Y-102571428D02*
X178347200Y-102428571D01*
X178347200Y-102428571D02*
X178251961Y-102333333D01*
X178251961Y-102333333D02*
X178156723Y-102285714D01*
X178156723Y-102285714D02*
X177966247Y-102238095D01*
X177966247Y-102238095D02*
X177823390Y-102238095D01*
X177823390Y-102238095D02*
X177632914Y-102285714D01*
X177632914Y-102285714D02*
X177537676Y-102333333D01*
X177537676Y-102333333D02*
X177442438Y-102428571D01*
X177442438Y-102428571D02*
X177394819Y-102571428D01*
X177394819Y-102571428D02*
X177394819Y-102666666D01*
X177394819Y-102666666D02*
X177442438Y-102809523D01*
X177442438Y-102809523D02*
X177490057Y-102857142D01*
X178394819Y-103809523D02*
X178394819Y-103238095D01*
X178394819Y-103523809D02*
X177394819Y-103523809D01*
X177394819Y-103523809D02*
X177537676Y-103428571D01*
X177537676Y-103428571D02*
X177632914Y-103333333D01*
X177632914Y-103333333D02*
X177680533Y-103238095D01*
X177823390Y-104380952D02*
X177775771Y-104285714D01*
X177775771Y-104285714D02*
X177728152Y-104238095D01*
X177728152Y-104238095D02*
X177632914Y-104190476D01*
X177632914Y-104190476D02*
X177585295Y-104190476D01*
X177585295Y-104190476D02*
X177490057Y-104238095D01*
X177490057Y-104238095D02*
X177442438Y-104285714D01*
X177442438Y-104285714D02*
X177394819Y-104380952D01*
X177394819Y-104380952D02*
X177394819Y-104571428D01*
X177394819Y-104571428D02*
X177442438Y-104666666D01*
X177442438Y-104666666D02*
X177490057Y-104714285D01*
X177490057Y-104714285D02*
X177585295Y-104761904D01*
X177585295Y-104761904D02*
X177632914Y-104761904D01*
X177632914Y-104761904D02*
X177728152Y-104714285D01*
X177728152Y-104714285D02*
X177775771Y-104666666D01*
X177775771Y-104666666D02*
X177823390Y-104571428D01*
X177823390Y-104571428D02*
X177823390Y-104380952D01*
X177823390Y-104380952D02*
X177871009Y-104285714D01*
X177871009Y-104285714D02*
X177918628Y-104238095D01*
X177918628Y-104238095D02*
X178013866Y-104190476D01*
X178013866Y-104190476D02*
X178204342Y-104190476D01*
X178204342Y-104190476D02*
X178299580Y-104238095D01*
X178299580Y-104238095D02*
X178347200Y-104285714D01*
X178347200Y-104285714D02*
X178394819Y-104380952D01*
X178394819Y-104380952D02*
X178394819Y-104571428D01*
X178394819Y-104571428D02*
X178347200Y-104666666D01*
X178347200Y-104666666D02*
X178299580Y-104714285D01*
X178299580Y-104714285D02*
X178204342Y-104761904D01*
X178204342Y-104761904D02*
X178013866Y-104761904D01*
X178013866Y-104761904D02*
X177918628Y-104714285D01*
X177918628Y-104714285D02*
X177871009Y-104666666D01*
X177871009Y-104666666D02*
X177823390Y-104571428D01*
X179372857Y-91219580D02*
X179420476Y-91267200D01*
X179420476Y-91267200D02*
X179563333Y-91314819D01*
X179563333Y-91314819D02*
X179658571Y-91314819D01*
X179658571Y-91314819D02*
X179801428Y-91267200D01*
X179801428Y-91267200D02*
X179896666Y-91171961D01*
X179896666Y-91171961D02*
X179944285Y-91076723D01*
X179944285Y-91076723D02*
X179991904Y-90886247D01*
X179991904Y-90886247D02*
X179991904Y-90743390D01*
X179991904Y-90743390D02*
X179944285Y-90552914D01*
X179944285Y-90552914D02*
X179896666Y-90457676D01*
X179896666Y-90457676D02*
X179801428Y-90362438D01*
X179801428Y-90362438D02*
X179658571Y-90314819D01*
X179658571Y-90314819D02*
X179563333Y-90314819D01*
X179563333Y-90314819D02*
X179420476Y-90362438D01*
X179420476Y-90362438D02*
X179372857Y-90410057D01*
X178420476Y-91314819D02*
X178991904Y-91314819D01*
X178706190Y-91314819D02*
X178706190Y-90314819D01*
X178706190Y-90314819D02*
X178801428Y-90457676D01*
X178801428Y-90457676D02*
X178896666Y-90552914D01*
X178896666Y-90552914D02*
X178991904Y-90600533D01*
X177944285Y-91314819D02*
X177753809Y-91314819D01*
X177753809Y-91314819D02*
X177658571Y-91267200D01*
X177658571Y-91267200D02*
X177610952Y-91219580D01*
X177610952Y-91219580D02*
X177515714Y-91076723D01*
X177515714Y-91076723D02*
X177468095Y-90886247D01*
X177468095Y-90886247D02*
X177468095Y-90505295D01*
X177468095Y-90505295D02*
X177515714Y-90410057D01*
X177515714Y-90410057D02*
X177563333Y-90362438D01*
X177563333Y-90362438D02*
X177658571Y-90314819D01*
X177658571Y-90314819D02*
X177849047Y-90314819D01*
X177849047Y-90314819D02*
X177944285Y-90362438D01*
X177944285Y-90362438D02*
X177991904Y-90410057D01*
X177991904Y-90410057D02*
X178039523Y-90505295D01*
X178039523Y-90505295D02*
X178039523Y-90743390D01*
X178039523Y-90743390D02*
X177991904Y-90838628D01*
X177991904Y-90838628D02*
X177944285Y-90886247D01*
X177944285Y-90886247D02*
X177849047Y-90933866D01*
X177849047Y-90933866D02*
X177658571Y-90933866D01*
X177658571Y-90933866D02*
X177563333Y-90886247D01*
X177563333Y-90886247D02*
X177515714Y-90838628D01*
X177515714Y-90838628D02*
X177468095Y-90743390D01*
D11*
X173368748Y-94405000D02*
X173891252Y-94405000D01*
X173368748Y-95875000D02*
X173891252Y-95875000D01*
X159042936Y-149995000D02*
X159497064Y-149995000D01*
X159042936Y-151465000D02*
X159497064Y-151465000D01*
X157519564Y-181655000D02*
X157065436Y-181655000D01*
X157519564Y-180185000D02*
X157065436Y-180185000D01*
X165852064Y-187975000D02*
X165397936Y-187975000D01*
X165852064Y-186505000D02*
X165397936Y-186505000D01*
X169614564Y-228395000D02*
X169160436Y-228395000D01*
X169614564Y-226925000D02*
X169160436Y-226925000D01*
X104849564Y-202785000D02*
X104395436Y-202785000D01*
X104849564Y-201315000D02*
X104395436Y-201315000D01*
X160522500Y-155100000D02*
X160282500Y-154770000D01*
X160762500Y-154770000D01*
X160522500Y-155100000D01*
G36*
X160522500Y-155100000D02*
G01*
X160282500Y-154770000D01*
X160762500Y-154770000D01*
X160522500Y-155100000D01*
G37*
X158710000Y-158170000D02*
X159360000Y-158170000D01*
X160010000Y-158170000D02*
X159360000Y-158170000D01*
X158710000Y-155050000D02*
X159360000Y-155050000D01*
X160010000Y-155050000D02*
X159360000Y-155050000D01*
X157697500Y-185340000D02*
X157047500Y-185340000D01*
X156397500Y-185340000D02*
X157047500Y-185340000D01*
X157697500Y-188460000D02*
X157047500Y-188460000D01*
X156397500Y-188460000D02*
X157047500Y-188460000D01*
X158210000Y-185390000D02*
X157970000Y-185060000D01*
X158450000Y-185060000D01*
X158210000Y-185390000D01*
G36*
X158210000Y-185390000D02*
G01*
X157970000Y-185060000D01*
X158450000Y-185060000D01*
X158210000Y-185390000D01*
G37*
X166227500Y-180030000D02*
X165577500Y-180030000D01*
X164927500Y-180030000D02*
X165577500Y-180030000D01*
X166227500Y-183150000D02*
X165577500Y-183150000D01*
X164927500Y-183150000D02*
X165577500Y-183150000D01*
X166740000Y-180080000D02*
X166500000Y-179750000D01*
X166980000Y-179750000D01*
X166740000Y-180080000D01*
G36*
X166740000Y-180080000D02*
G01*
X166500000Y-179750000D01*
X166980000Y-179750000D01*
X166740000Y-180080000D01*
G37*
X170067500Y-220040000D02*
X169417500Y-220040000D01*
X168767500Y-220040000D02*
X169417500Y-220040000D01*
X170067500Y-223160000D02*
X169417500Y-223160000D01*
X168767500Y-223160000D02*
X169417500Y-223160000D01*
X170580000Y-220090000D02*
X170340000Y-219760000D01*
X170820000Y-219760000D01*
X170580000Y-220090000D01*
G36*
X170580000Y-220090000D02*
G01*
X170340000Y-219760000D01*
X170820000Y-219760000D01*
X170580000Y-220090000D01*
G37*
X105725000Y-206560000D02*
X105485000Y-206230000D01*
X105965000Y-206230000D01*
X105725000Y-206560000D01*
G36*
X105725000Y-206560000D02*
G01*
X105485000Y-206230000D01*
X105965000Y-206230000D01*
X105725000Y-206560000D01*
G37*
X103912500Y-209630000D02*
X104562500Y-209630000D01*
X105212500Y-209630000D02*
X104562500Y-209630000D01*
X103912500Y-206510000D02*
X104562500Y-206510000D01*
X105212500Y-206510000D02*
X104562500Y-206510000D01*
D12*
X93366241Y-60032319D02*
G75*
G02*
X92604241Y-60032319I-381000J0D01*
G01*
X92604241Y-60032319D02*
G75*
G02*
X93366241Y-60032319I381000J0D01*
G01*
D13*
X97868000Y-220859400D02*
X98268000Y-220259400D01*
X98268000Y-220259400D02*
X98268000Y-219859400D01*
X98268000Y-220259400D02*
X98668000Y-220859400D01*
X98268000Y-221359400D02*
X98268000Y-220859400D01*
X98668000Y-220859400D02*
X97868000Y-220859400D01*
X98818000Y-220259400D02*
X97718000Y-220259400D01*
X97708000Y-198569400D02*
X98808000Y-198569400D01*
X97858000Y-197969400D02*
X98658000Y-197969400D01*
X98258000Y-197469400D02*
X98258000Y-197969400D01*
X98258000Y-198569400D02*
X97858000Y-197969400D01*
X98258000Y-198569400D02*
X98258000Y-198969400D01*
X98658000Y-197969400D02*
X98258000Y-198569400D01*
X162729000Y-168554000D02*
X163829000Y-168554000D01*
X162879000Y-167954000D02*
X163679000Y-167954000D01*
X163279000Y-167454000D02*
X163279000Y-167954000D01*
X163279000Y-168554000D02*
X162879000Y-167954000D01*
X163279000Y-168554000D02*
X163279000Y-168954000D01*
X163679000Y-167954000D02*
X163279000Y-168554000D01*
D14*
X94240000Y-152245004D02*
X94240000Y-156494996D01*
X94240000Y-156494996D02*
X97440001Y-156494996D01*
X97440001Y-152245004D02*
X94240000Y-152245004D01*
X97440001Y-156494996D02*
X97440001Y-152245004D01*
X97694001Y-153745001D02*
X98456001Y-154380001D01*
X98456001Y-153110001D02*
X97694001Y-153745001D01*
X98456001Y-154380001D02*
X98456001Y-153110001D01*
D13*
X132728000Y-168569400D02*
X133828000Y-168569400D01*
X132878000Y-167969400D02*
X133678000Y-167969400D01*
X133278000Y-167469400D02*
X133278000Y-167969400D01*
X133278000Y-168569400D02*
X132878000Y-167969400D01*
X133278000Y-168569400D02*
X133278000Y-168969400D01*
X133678000Y-167969400D02*
X133278000Y-168569400D01*
X192728000Y-138579400D02*
X193828000Y-138579400D01*
X192878000Y-137979400D02*
X193678000Y-137979400D01*
X193278000Y-137479400D02*
X193278000Y-137979400D01*
X193278000Y-138579400D02*
X192878000Y-137979400D01*
X193278000Y-138579400D02*
X193278000Y-138979400D01*
X193678000Y-137979400D02*
X193278000Y-138579400D01*
X238858000Y-220849400D02*
X239258000Y-220249400D01*
X239258000Y-220249400D02*
X239258000Y-219849400D01*
X239258000Y-220249400D02*
X239658000Y-220849400D01*
X239258000Y-221349400D02*
X239258000Y-220849400D01*
X239658000Y-220849400D02*
X238858000Y-220849400D01*
X239808000Y-220249400D02*
X238708000Y-220249400D01*
D11*
X161215000Y-111461252D02*
X161215000Y-110938748D01*
X162685000Y-111461252D02*
X162685000Y-110938748D01*
D13*
X222738000Y-198559400D02*
X223838000Y-198559400D01*
X222888000Y-197959400D02*
X223688000Y-197959400D01*
X223288000Y-197459400D02*
X223288000Y-197959400D01*
X223288000Y-198559400D02*
X222888000Y-197959400D01*
X223288000Y-198559400D02*
X223288000Y-198959400D01*
X223688000Y-197959400D02*
X223288000Y-198559400D01*
X222728000Y-168559400D02*
X223828000Y-168559400D01*
X222878000Y-167959400D02*
X223678000Y-167959400D01*
X223278000Y-167459400D02*
X223278000Y-167959400D01*
X223278000Y-168559400D02*
X222878000Y-167959400D01*
X223278000Y-168559400D02*
X223278000Y-168959400D01*
X223678000Y-167959400D02*
X223278000Y-168559400D01*
X132718000Y-138569400D02*
X133818000Y-138569400D01*
X132868000Y-137969400D02*
X133668000Y-137969400D01*
X133268000Y-137469400D02*
X133268000Y-137969400D01*
X133268000Y-138569400D02*
X132868000Y-137969400D01*
X133268000Y-138569400D02*
X133268000Y-138969400D01*
X133668000Y-137969400D02*
X133268000Y-138569400D01*
X132748000Y-228579400D02*
X133848000Y-228579400D01*
X132898000Y-227979400D02*
X133698000Y-227979400D01*
X133298000Y-227479400D02*
X133298000Y-227979400D01*
X133298000Y-228579400D02*
X132898000Y-227979400D01*
X133298000Y-228579400D02*
X133298000Y-228979400D01*
X133698000Y-227979400D02*
X133298000Y-228579400D01*
X162718000Y-228569400D02*
X163818000Y-228569400D01*
X162868000Y-227969400D02*
X163668000Y-227969400D01*
X163268000Y-227469400D02*
X163268000Y-227969400D01*
X163268000Y-228569400D02*
X162868000Y-227969400D01*
X163268000Y-228569400D02*
X163268000Y-228969400D01*
X163668000Y-227969400D02*
X163268000Y-228569400D01*
X132728000Y-198579400D02*
X133828000Y-198579400D01*
X132878000Y-197979400D02*
X133678000Y-197979400D01*
X133278000Y-197479400D02*
X133278000Y-197979400D01*
X133278000Y-198579400D02*
X132878000Y-197979400D01*
X133278000Y-198579400D02*
X133278000Y-198979400D01*
X133678000Y-197979400D02*
X133278000Y-198579400D01*
X192738000Y-198559400D02*
X193838000Y-198559400D01*
X192888000Y-197959400D02*
X193688000Y-197959400D01*
X193288000Y-197459400D02*
X193288000Y-197959400D01*
X193288000Y-198559400D02*
X192888000Y-197959400D01*
X193288000Y-198559400D02*
X193288000Y-198959400D01*
X193688000Y-197959400D02*
X193288000Y-198559400D01*
D14*
X94260000Y-164910003D02*
X94260000Y-169159995D01*
X94260000Y-169159995D02*
X97460001Y-169159995D01*
X97460001Y-164910003D02*
X94260000Y-164910003D01*
X97460001Y-169159995D02*
X97460001Y-164910003D01*
X97714001Y-166410000D02*
X98476001Y-167045000D01*
X98476001Y-165775000D02*
X97714001Y-166410000D01*
X98476001Y-167045000D02*
X98476001Y-165775000D01*
D13*
X222728000Y-138569400D02*
X223828000Y-138569400D01*
X222878000Y-137969400D02*
X223678000Y-137969400D01*
X223278000Y-137469400D02*
X223278000Y-137969400D01*
X223278000Y-138569400D02*
X222878000Y-137969400D01*
X223278000Y-138569400D02*
X223278000Y-138969400D01*
X223678000Y-137969400D02*
X223278000Y-138569400D01*
D11*
X167661252Y-92865000D02*
X167138748Y-92865000D01*
X167661252Y-94335000D02*
X167138748Y-94335000D01*
D13*
X192728000Y-168559400D02*
X193828000Y-168559400D01*
X192878000Y-167959400D02*
X193678000Y-167959400D01*
X193278000Y-167459400D02*
X193278000Y-167959400D01*
X193278000Y-168559400D02*
X192878000Y-167959400D01*
X193278000Y-168559400D02*
X193278000Y-168959400D01*
X193678000Y-167959400D02*
X193278000Y-168559400D01*
X162708000Y-138579400D02*
X163808000Y-138579400D01*
X162858000Y-137979400D02*
X163658000Y-137979400D01*
X163258000Y-137479400D02*
X163258000Y-137979400D01*
X163258000Y-138579400D02*
X162858000Y-137979400D01*
X163258000Y-138579400D02*
X163258000Y-138979400D01*
X163658000Y-137979400D02*
X163258000Y-138579400D01*
X192728000Y-228569400D02*
X193828000Y-228569400D01*
X192878000Y-227969400D02*
X193678000Y-227969400D01*
X193278000Y-227469400D02*
X193278000Y-227969400D01*
X193278000Y-228569400D02*
X192878000Y-227969400D01*
X193278000Y-228569400D02*
X193278000Y-228969400D01*
X193678000Y-227969400D02*
X193278000Y-228569400D01*
X162748000Y-198569400D02*
X163848000Y-198569400D01*
X162898000Y-197969400D02*
X163698000Y-197969400D01*
X163298000Y-197469400D02*
X163298000Y-197969400D01*
X163298000Y-198569400D02*
X162898000Y-197969400D01*
X163298000Y-198569400D02*
X163298000Y-198969400D01*
X163698000Y-197969400D02*
X163298000Y-198569400D01*
X238678000Y-198569400D02*
X239778000Y-198569400D01*
X238828000Y-197969400D02*
X239628000Y-197969400D01*
X239228000Y-197469400D02*
X239228000Y-197969400D01*
X239228000Y-198569400D02*
X238828000Y-197969400D01*
X239228000Y-198569400D02*
X239228000Y-198969400D01*
X239628000Y-197969400D02*
X239228000Y-198569400D01*
X222708000Y-228559400D02*
X223808000Y-228559400D01*
X222858000Y-227959400D02*
X223658000Y-227959400D01*
X223258000Y-227459400D02*
X223258000Y-227959400D01*
X223258000Y-228559400D02*
X222858000Y-227959400D01*
X223258000Y-228559400D02*
X223258000Y-228959400D01*
X223658000Y-227959400D02*
X223258000Y-228559400D01*
D11*
X180355000Y-108421252D02*
X180355000Y-107898748D01*
X178885000Y-108421252D02*
X178885000Y-107898748D01*
X178991252Y-95895000D02*
X178468748Y-95895000D01*
X178991252Y-94425000D02*
X178468748Y-94425000D01*
X170121252Y-101835000D02*
X169598748Y-101835000D01*
X170121252Y-100365000D02*
X169598748Y-100365000D01*
X169245000Y-110918748D02*
X169245000Y-111441252D01*
X167775000Y-110918748D02*
X167775000Y-111441252D01*
X178638748Y-112005000D02*
X179161252Y-112005000D01*
X178638748Y-113475000D02*
X179161252Y-113475000D01*
X178885000Y-103761252D02*
X178885000Y-103238748D01*
X180355000Y-103761252D02*
X180355000Y-103238748D01*
X178991252Y-89915000D02*
X178468748Y-89915000D01*
X178991252Y-88445000D02*
X178468748Y-88445000D01*
%LPC*%
D15*
X174580000Y-95140000D03*
X172680000Y-95140000D03*
D16*
X87410000Y-130610000D03*
X87410000Y-136610000D03*
X87410000Y-138110000D03*
X87410000Y-129110000D03*
D17*
X85910000Y-133610000D03*
D16*
X84410000Y-136610000D03*
X84410000Y-138110000D03*
X84410000Y-130610000D03*
X84410000Y-129110000D03*
D18*
X160182500Y-150730000D03*
X158357500Y-150730000D03*
D19*
X156380000Y-180920000D03*
X158205000Y-180920000D03*
X164712500Y-187240000D03*
X166537500Y-187240000D03*
X168475000Y-227660000D03*
X170300000Y-227660000D03*
X103710000Y-202050000D03*
X105535000Y-202050000D03*
D20*
X158422500Y-156610000D03*
X160297500Y-157560000D03*
X160297500Y-155660000D03*
X157985000Y-185950000D03*
X157985000Y-187850000D03*
X156110000Y-186900000D03*
X166515000Y-180640000D03*
X166515000Y-182540000D03*
X164640000Y-181590000D03*
X170355000Y-220650000D03*
X170355000Y-222550000D03*
X168480000Y-221600000D03*
X103625000Y-208070000D03*
X105500000Y-209020000D03*
X105500000Y-207120000D03*
D21*
X160760000Y-52260000D03*
X160760000Y-54800000D03*
X158220000Y-52260000D03*
X158220000Y-54800000D03*
X155680000Y-52260000D03*
X155680000Y-54800000D03*
X153140000Y-52260000D03*
X153140000Y-54800000D03*
X150600000Y-52260000D03*
X150600000Y-54800000D03*
D22*
X243674000Y-229491400D03*
D23*
X248754000Y-229491400D03*
D22*
X253834000Y-229491400D03*
D24*
X244944000Y-226951400D03*
X251294000Y-224411400D03*
D22*
X148674000Y-229491400D03*
D23*
X153754000Y-229491400D03*
D22*
X158834000Y-229491400D03*
D24*
X149944000Y-226951400D03*
X156294000Y-224411400D03*
D22*
X118674000Y-229491400D03*
D23*
X123754000Y-229491400D03*
D22*
X128834000Y-229491400D03*
D24*
X119944000Y-226951400D03*
X126294000Y-224411400D03*
D22*
X178674000Y-199491400D03*
D23*
X183754000Y-199491400D03*
D22*
X188834000Y-199491400D03*
D24*
X179944000Y-196951400D03*
X186294000Y-194411400D03*
D22*
X83674000Y-199491400D03*
D23*
X88754000Y-199491400D03*
D22*
X93834000Y-199491400D03*
D24*
X84944000Y-196951400D03*
X91294000Y-194411400D03*
D25*
X89500000Y-47100000D03*
D22*
X208674000Y-199491400D03*
D23*
X213754000Y-199491400D03*
D22*
X218834000Y-199491400D03*
D24*
X209944000Y-196951400D03*
X216294000Y-194411400D03*
D22*
X118674000Y-169491400D03*
D23*
X123754000Y-169491400D03*
D22*
X128834000Y-169491400D03*
D24*
X119944000Y-166951400D03*
X126294000Y-164411400D03*
D22*
X118674000Y-199491400D03*
D23*
X123754000Y-199491400D03*
D22*
X128834000Y-199491400D03*
D24*
X119944000Y-196951400D03*
X126294000Y-194411400D03*
D22*
X148674000Y-139491400D03*
D23*
X153754000Y-139491400D03*
D22*
X158834000Y-139491400D03*
D24*
X149944000Y-136951400D03*
X156294000Y-134411400D03*
D22*
X148674000Y-169491400D03*
D23*
X153754000Y-169491400D03*
D22*
X158834000Y-169491400D03*
D24*
X149944000Y-166951400D03*
X156294000Y-164411400D03*
D22*
X208674000Y-229491400D03*
D23*
X213754000Y-229491400D03*
D22*
X218834000Y-229491400D03*
D24*
X209944000Y-226951400D03*
X216294000Y-224411400D03*
D22*
X208674000Y-139491400D03*
D23*
X213754000Y-139491400D03*
D22*
X218834000Y-139491400D03*
D24*
X209944000Y-136951400D03*
X216294000Y-134411400D03*
D22*
X118674000Y-139491400D03*
D23*
X123754000Y-139491400D03*
D22*
X128834000Y-139491400D03*
D24*
X119944000Y-136951400D03*
X126294000Y-134411400D03*
D22*
X83674000Y-229491400D03*
D23*
X88754000Y-229491400D03*
D22*
X93834000Y-229491400D03*
D24*
X84944000Y-226951400D03*
X91294000Y-224411400D03*
D22*
X148674000Y-199491400D03*
D23*
X153754000Y-199491400D03*
D22*
X158834000Y-199491400D03*
D24*
X149944000Y-196951400D03*
X156294000Y-194411400D03*
D22*
X243674000Y-199491400D03*
D23*
X248754000Y-199491400D03*
D22*
X253834000Y-199491400D03*
D24*
X244944000Y-196951400D03*
X251294000Y-194411400D03*
D22*
X208674000Y-169491400D03*
D23*
X213754000Y-169491400D03*
D22*
X218834000Y-169491400D03*
D24*
X209944000Y-166951400D03*
X216294000Y-164411400D03*
D22*
X178674000Y-169491400D03*
D23*
X183754000Y-169491400D03*
D22*
X188834000Y-169491400D03*
D24*
X179944000Y-166951400D03*
X186294000Y-164411400D03*
D22*
X178674000Y-229491400D03*
D23*
X183754000Y-229491400D03*
D22*
X188834000Y-229491400D03*
D24*
X179944000Y-226951400D03*
X186294000Y-224411400D03*
D22*
X178674000Y-139491400D03*
D23*
X183754000Y-139491400D03*
D22*
X188834000Y-139491400D03*
D24*
X179944000Y-136951400D03*
X186294000Y-134411400D03*
D26*
X98268000Y-216799400D03*
D27*
X98268000Y-224419400D03*
D26*
X98258000Y-202029400D03*
D27*
X98258000Y-194409400D03*
D26*
X163279000Y-172014000D03*
D27*
X163279000Y-164394000D03*
D28*
X96290000Y-153745001D03*
D29*
X96290000Y-154995001D03*
D26*
X133278000Y-172029400D03*
D27*
X133278000Y-164409400D03*
D26*
X193278000Y-142039400D03*
D27*
X193278000Y-134419400D03*
D26*
X239258000Y-216789400D03*
D27*
X239258000Y-224409400D03*
D30*
X161950000Y-110250000D03*
X161950000Y-112150000D03*
D26*
X223288000Y-202019400D03*
D27*
X223288000Y-194399400D03*
D26*
X223278000Y-172019400D03*
D27*
X223278000Y-164399400D03*
D26*
X133268000Y-142029400D03*
D27*
X133268000Y-134409400D03*
D26*
X133298000Y-232039400D03*
D27*
X133298000Y-224419400D03*
D26*
X163268000Y-232029400D03*
D27*
X163268000Y-224409400D03*
D26*
X133278000Y-202039400D03*
D27*
X133278000Y-194419400D03*
D26*
X193288000Y-202019400D03*
D27*
X193288000Y-194399400D03*
D28*
X96310000Y-166410000D03*
D29*
X96310000Y-167660000D03*
D26*
X223278000Y-142029400D03*
D27*
X223278000Y-134409400D03*
D31*
X166450000Y-93600000D03*
X168350000Y-93600000D03*
D26*
X193278000Y-172019400D03*
D27*
X193278000Y-164399400D03*
D26*
X163258000Y-142039400D03*
D27*
X163258000Y-134419400D03*
D26*
X193278000Y-232029400D03*
D27*
X193278000Y-224409400D03*
D26*
X163298000Y-202029400D03*
D27*
X163298000Y-194409400D03*
D26*
X239228000Y-202029400D03*
D27*
X239228000Y-194409400D03*
D26*
X223258000Y-232019400D03*
D27*
X223258000Y-224399400D03*
D30*
X179620000Y-109110000D03*
X179620000Y-107210000D03*
D31*
X177780000Y-95160000D03*
X179680000Y-95160000D03*
X168910000Y-101100000D03*
X170810000Y-101100000D03*
D32*
X168510000Y-112130000D03*
X168510000Y-110230000D03*
D15*
X179850000Y-112740000D03*
X177950000Y-112740000D03*
D30*
X179620000Y-102550000D03*
X179620000Y-104450000D03*
D31*
X177780000Y-89180000D03*
X179680000Y-89180000D03*
%LPD*%
M02*
