G04 #@! TF.GenerationSoftware,KiCad,Pcbnew,8.0.5*
G04 #@! TF.CreationDate,2024-10-23T12:55:31-04:00*
G04 #@! TF.ProjectId,FULL BOARD,46554c4c-2042-44f4-9152-442e6b696361,rev?*
G04 #@! TF.SameCoordinates,Original*
G04 #@! TF.FileFunction,Paste,Bot*
G04 #@! TF.FilePolarity,Positive*
%FSLAX46Y46*%
G04 Gerber Fmt 4.6, Leading zero omitted, Abs format (unit mm)*
G04 Created by KiCad (PCBNEW 8.0.5) date 2024-10-23 12:55:31*
%MOMM*%
%LPD*%
G01*
G04 APERTURE LIST*
G04 Aperture macros list*
%AMRoundRect*
0 Rectangle with rounded corners*
0 $1 Rounding radius*
0 $2 $3 $4 $5 $6 $7 $8 $9 X,Y pos of 4 corners*
0 Add a 4 corners polygon primitive as box body*
4,1,4,$2,$3,$4,$5,$6,$7,$8,$9,$2,$3,0*
0 Add four circle primitives for the rounded corners*
1,1,$1+$1,$2,$3*
1,1,$1+$1,$4,$5*
1,1,$1+$1,$6,$7*
1,1,$1+$1,$8,$9*
0 Add four rect primitives between the rounded corners*
20,1,$1+$1,$2,$3,$4,$5,0*
20,1,$1+$1,$4,$5,$6,$7,0*
20,1,$1+$1,$6,$7,$8,$9,0*
20,1,$1+$1,$8,$9,$2,$3,0*%
G04 Aperture macros list end*
%ADD10RoundRect,0.250000X-0.262500X-0.450000X0.262500X-0.450000X0.262500X0.450000X-0.262500X0.450000X0*%
%ADD11RoundRect,0.250000X-0.475000X0.250000X-0.475000X-0.250000X0.475000X-0.250000X0.475000X0.250000X0*%
%ADD12RoundRect,0.250000X-0.250000X-0.475000X0.250000X-0.475000X0.250000X0.475000X-0.250000X0.475000X0*%
%ADD13RoundRect,0.250000X0.250000X0.475000X-0.250000X0.475000X-0.250000X-0.475000X0.250000X-0.475000X0*%
%ADD14R,0.540000X0.600000*%
%ADD15RoundRect,0.250000X0.475000X-0.250000X0.475000X0.250000X-0.475000X0.250000X-0.475000X-0.250000X0*%
G04 APERTURE END LIST*
D10*
X246887500Y-161710000D03*
X248712500Y-161710000D03*
D11*
X73380600Y-143692800D03*
X73380600Y-145592800D03*
D12*
X212549000Y-97282000D03*
X214449000Y-97282000D03*
D11*
X173507400Y-106070400D03*
X173507400Y-107970400D03*
D12*
X252230000Y-161700000D03*
X254130000Y-161700000D03*
D11*
X178650000Y-106050000D03*
X178650000Y-107950000D03*
D13*
X179620000Y-112190000D03*
X177720000Y-112190000D03*
D11*
X161950000Y-110250000D03*
X161950000Y-112150000D03*
D14*
X220420000Y-90910000D03*
X219556000Y-90910000D03*
D10*
X73147500Y-162080000D03*
X74972500Y-162080000D03*
D15*
X73329800Y-141757400D03*
X73329800Y-139857400D03*
D12*
X212559000Y-91302000D03*
X214459000Y-91302000D03*
D11*
X73329800Y-135387000D03*
X73329800Y-137287000D03*
D12*
X168210000Y-101050000D03*
X170110000Y-101050000D03*
X220423000Y-97280000D03*
X222323000Y-97280000D03*
D10*
X241495000Y-161700000D03*
X243320000Y-161700000D03*
D13*
X87020000Y-156030000D03*
X85120000Y-156030000D03*
D12*
X166450000Y-93600000D03*
X168350000Y-93600000D03*
D14*
X218053000Y-97280000D03*
X217189000Y-97280000D03*
D10*
X73170000Y-156020000D03*
X74995000Y-156020000D03*
D13*
X254140000Y-156020000D03*
X252240000Y-156020000D03*
D10*
X241500000Y-156020000D03*
X243325000Y-156020000D03*
D12*
X85090000Y-162130000D03*
X86990000Y-162130000D03*
D10*
X246885000Y-156050000D03*
X248710000Y-156050000D03*
D12*
X176966800Y-101574600D03*
X178866800Y-101574600D03*
X173200000Y-112190000D03*
X175100000Y-112190000D03*
D15*
X169600000Y-112150000D03*
X169600000Y-110250000D03*
D10*
X79027500Y-162120000D03*
X80852500Y-162120000D03*
X79055000Y-156030000D03*
X80880000Y-156030000D03*
D15*
X73406000Y-149606000D03*
X73406000Y-147706000D03*
M02*
