G04 #@! TF.GenerationSoftware,KiCad,Pcbnew,8.0.5*
G04 #@! TF.CreationDate,2024-10-25T14:08:11-04:00*
G04 #@! TF.ProjectId,FULL BOARD,46554c4c-2042-44f4-9152-442e6b696361,rev?*
G04 #@! TF.SameCoordinates,Original*
G04 #@! TF.FileFunction,Soldermask,Bot*
G04 #@! TF.FilePolarity,Negative*
%FSLAX46Y46*%
G04 Gerber Fmt 4.6, Leading zero omitted, Abs format (unit mm)*
G04 Created by KiCad (PCBNEW 8.0.5) date 2024-10-25 14:08:11*
%MOMM*%
%LPD*%
G01*
G04 APERTURE LIST*
G04 Aperture macros list*
%AMRoundRect*
0 Rectangle with rounded corners*
0 $1 Rounding radius*
0 $2 $3 $4 $5 $6 $7 $8 $9 X,Y pos of 4 corners*
0 Add a 4 corners polygon primitive as box body*
4,1,4,$2,$3,$4,$5,$6,$7,$8,$9,$2,$3,0*
0 Add four circle primitives for the rounded corners*
1,1,$1+$1,$2,$3*
1,1,$1+$1,$4,$5*
1,1,$1+$1,$6,$7*
1,1,$1+$1,$8,$9*
0 Add four rect primitives between the rounded corners*
20,1,$1+$1,$2,$3,$4,$5,0*
20,1,$1+$1,$4,$5,$6,$7,0*
20,1,$1+$1,$6,$7,$8,$9,0*
20,1,$1+$1,$8,$9,$2,$3,0*%
G04 Aperture macros list end*
%ADD10C,1.600200*%
%ADD11C,0.762000*%
%ADD12C,3.556000*%
%ADD13C,1.750000*%
%ADD14C,4.000000*%
%ADD15C,2.500000*%
%ADD16C,2.006600*%
%ADD17R,1.600000X1.600000*%
%ADD18O,1.600000X1.600000*%
%ADD19R,0.850000X0.850000*%
%ADD20C,0.850000*%
%ADD21RoundRect,0.150000X0.587500X0.150000X-0.587500X0.150000X-0.587500X-0.150000X0.587500X-0.150000X0*%
%ADD22RoundRect,0.250000X0.250000X0.475000X-0.250000X0.475000X-0.250000X-0.475000X0.250000X-0.475000X0*%
%ADD23RoundRect,0.250000X-0.262500X-0.450000X0.262500X-0.450000X0.262500X0.450000X-0.262500X0.450000X0*%
%ADD24RoundRect,0.250000X-0.475000X0.250000X-0.475000X-0.250000X0.475000X-0.250000X0.475000X0.250000X0*%
%ADD25RoundRect,0.250000X-0.250000X-0.475000X0.250000X-0.475000X0.250000X0.475000X-0.250000X0.475000X0*%
%ADD26RoundRect,0.250000X0.262500X0.450000X-0.262500X0.450000X-0.262500X-0.450000X0.262500X-0.450000X0*%
%ADD27RoundRect,0.250000X0.475000X-0.250000X0.475000X0.250000X-0.475000X0.250000X-0.475000X-0.250000X0*%
%ADD28C,2.235200*%
G04 APERTURE END LIST*
D10*
X160760000Y-52260000D03*
X160760000Y-54800000D03*
X158220000Y-52260000D03*
X158220000Y-54800000D03*
X155680000Y-52260000D03*
X155680000Y-54800000D03*
X153140000Y-52260000D03*
X153140000Y-54800000D03*
X150600000Y-52260000D03*
X150600000Y-54800000D03*
D11*
X87410000Y-138110000D03*
X87410000Y-136610000D03*
X87410000Y-130610000D03*
X87410000Y-129110000D03*
D12*
X85910000Y-133610000D03*
D11*
X84410000Y-138110000D03*
X84410000Y-136610000D03*
X84410000Y-130610000D03*
X84410000Y-129110000D03*
D13*
X243674000Y-229491400D03*
D14*
X248754000Y-229491400D03*
D13*
X253834000Y-229491400D03*
D15*
X244944000Y-226951400D03*
X251294000Y-224411400D03*
D13*
X148674000Y-229491400D03*
D14*
X153754000Y-229491400D03*
D13*
X158834000Y-229491400D03*
D15*
X149944000Y-226951400D03*
X156294000Y-224411400D03*
D13*
X118674000Y-229491400D03*
D14*
X123754000Y-229491400D03*
D13*
X128834000Y-229491400D03*
D15*
X119944000Y-226951400D03*
X126294000Y-224411400D03*
D13*
X178674000Y-199491400D03*
D14*
X183754000Y-199491400D03*
D13*
X188834000Y-199491400D03*
D15*
X179944000Y-196951400D03*
X186294000Y-194411400D03*
D13*
X83674000Y-199491400D03*
D14*
X88754000Y-199491400D03*
D13*
X93834000Y-199491400D03*
D15*
X84944000Y-196951400D03*
X91294000Y-194411400D03*
D16*
X89500000Y-47100000D03*
D13*
X208674000Y-199491400D03*
D14*
X213754000Y-199491400D03*
D13*
X218834000Y-199491400D03*
D15*
X209944000Y-196951400D03*
X216294000Y-194411400D03*
D13*
X118674000Y-169491400D03*
D14*
X123754000Y-169491400D03*
D13*
X128834000Y-169491400D03*
D15*
X119944000Y-166951400D03*
X126294000Y-164411400D03*
D13*
X118674000Y-199491400D03*
D14*
X123754000Y-199491400D03*
D13*
X128834000Y-199491400D03*
D15*
X119944000Y-196951400D03*
X126294000Y-194411400D03*
D13*
X148674000Y-139491400D03*
D14*
X153754000Y-139491400D03*
D13*
X158834000Y-139491400D03*
D15*
X149944000Y-136951400D03*
X156294000Y-134411400D03*
D13*
X148674000Y-169491400D03*
D14*
X153754000Y-169491400D03*
D13*
X158834000Y-169491400D03*
D15*
X149944000Y-166951400D03*
X156294000Y-164411400D03*
D13*
X208674000Y-229491400D03*
D14*
X213754000Y-229491400D03*
D13*
X218834000Y-229491400D03*
D15*
X209944000Y-226951400D03*
X216294000Y-224411400D03*
D13*
X208674000Y-139491400D03*
D14*
X213754000Y-139491400D03*
D13*
X218834000Y-139491400D03*
D15*
X209944000Y-136951400D03*
X216294000Y-134411400D03*
D13*
X118674000Y-139491400D03*
D14*
X123754000Y-139491400D03*
D13*
X128834000Y-139491400D03*
D15*
X119944000Y-136951400D03*
X126294000Y-134411400D03*
D13*
X83674000Y-229491400D03*
D14*
X88754000Y-229491400D03*
D13*
X93834000Y-229491400D03*
D15*
X84944000Y-226951400D03*
X91294000Y-224411400D03*
D13*
X148674000Y-199491400D03*
D14*
X153754000Y-199491400D03*
D13*
X158834000Y-199491400D03*
D15*
X149944000Y-196951400D03*
X156294000Y-194411400D03*
D13*
X243674000Y-199491400D03*
D14*
X248754000Y-199491400D03*
D13*
X253834000Y-199491400D03*
D15*
X244944000Y-196951400D03*
X251294000Y-194411400D03*
D13*
X208674000Y-169491400D03*
D14*
X213754000Y-169491400D03*
D13*
X218834000Y-169491400D03*
D15*
X209944000Y-166951400D03*
X216294000Y-164411400D03*
D13*
X178674000Y-169491400D03*
D14*
X183754000Y-169491400D03*
D13*
X188834000Y-169491400D03*
D15*
X179944000Y-166951400D03*
X186294000Y-164411400D03*
D13*
X178674000Y-229491400D03*
D14*
X183754000Y-229491400D03*
D13*
X188834000Y-229491400D03*
D15*
X179944000Y-226951400D03*
X186294000Y-224411400D03*
D13*
X178674000Y-139491400D03*
D14*
X183754000Y-139491400D03*
D13*
X188834000Y-139491400D03*
D15*
X179944000Y-136951400D03*
X186294000Y-134411400D03*
D17*
X98268000Y-216799400D03*
D18*
X98268000Y-224419400D03*
D17*
X98258000Y-202029400D03*
D18*
X98258000Y-194409400D03*
D17*
X163279000Y-172014000D03*
D18*
X163279000Y-164394000D03*
D19*
X96290000Y-153745001D03*
D20*
X96290000Y-154995001D03*
D21*
X160297500Y-155660000D03*
X160297500Y-157560000D03*
X158422500Y-156610000D03*
D22*
X179850000Y-112740000D03*
X177950000Y-112740000D03*
D23*
X168475000Y-227660000D03*
X170300000Y-227660000D03*
D17*
X133278000Y-172029400D03*
D18*
X133278000Y-164409400D03*
D17*
X193278000Y-142039400D03*
D18*
X193278000Y-134419400D03*
D17*
X239258000Y-216789400D03*
D18*
X239258000Y-224409400D03*
D24*
X161950000Y-110250000D03*
X161950000Y-112150000D03*
D25*
X168910000Y-101100000D03*
X170810000Y-101100000D03*
D17*
X223288000Y-202019400D03*
D18*
X223288000Y-194399400D03*
D25*
X177780000Y-89180000D03*
X179680000Y-89180000D03*
D24*
X179620000Y-102550000D03*
X179620000Y-104450000D03*
D17*
X223278000Y-172019400D03*
D18*
X223278000Y-164399400D03*
D17*
X133268000Y-142029400D03*
D18*
X133268000Y-134409400D03*
D21*
X105500000Y-207120000D03*
X105500000Y-209020000D03*
X103625000Y-208070000D03*
D17*
X133298000Y-232039400D03*
D18*
X133298000Y-224419400D03*
D17*
X163268000Y-232029400D03*
D18*
X163268000Y-224409400D03*
D17*
X133278000Y-202039400D03*
D18*
X133278000Y-194419400D03*
D24*
X179620000Y-107210000D03*
X179620000Y-109110000D03*
D23*
X156380000Y-180920000D03*
X158205000Y-180920000D03*
D21*
X170355000Y-220650000D03*
X170355000Y-222550000D03*
X168480000Y-221600000D03*
D17*
X193288000Y-202019400D03*
D18*
X193288000Y-194399400D03*
D19*
X96310000Y-166410000D03*
D20*
X96310000Y-167660000D03*
D17*
X223278000Y-142029400D03*
D18*
X223278000Y-134409400D03*
D25*
X166450000Y-93600000D03*
X168350000Y-93600000D03*
D23*
X103710000Y-202050000D03*
X105535000Y-202050000D03*
D21*
X166515000Y-180640000D03*
X166515000Y-182540000D03*
X164640000Y-181590000D03*
D26*
X160182500Y-150730000D03*
X158357500Y-150730000D03*
D17*
X193278000Y-172019400D03*
D18*
X193278000Y-164399400D03*
D22*
X174560000Y-89200000D03*
X172660000Y-89200000D03*
D21*
X157985000Y-185950000D03*
X157985000Y-187850000D03*
X156110000Y-186900000D03*
D17*
X163258000Y-142039400D03*
D18*
X163258000Y-134419400D03*
D17*
X193278000Y-232029400D03*
D18*
X193278000Y-224409400D03*
D25*
X177780000Y-95160000D03*
X179680000Y-95160000D03*
D17*
X163298000Y-202029400D03*
D18*
X163298000Y-194409400D03*
D23*
X164712500Y-187240000D03*
X166537500Y-187240000D03*
D17*
X239228000Y-202029400D03*
D18*
X239228000Y-194409400D03*
D17*
X223258000Y-232019400D03*
D18*
X223258000Y-224399400D03*
D27*
X168510000Y-112130000D03*
X168510000Y-110230000D03*
D11*
X100400000Y-132010000D03*
D28*
X156997400Y-81457800D03*
D11*
X96570000Y-123360000D03*
X168910000Y-102460000D03*
X175710000Y-103690000D03*
D28*
X201800000Y-114660000D03*
D11*
X168920000Y-106080000D03*
D28*
X156921200Y-115519200D03*
D11*
X180020000Y-111450000D03*
D28*
X156946600Y-97205800D03*
D11*
X170130000Y-112340000D03*
D28*
X201800000Y-97034800D03*
X97130000Y-92930000D03*
D11*
X175670000Y-107060000D03*
X177630000Y-107100000D03*
X174570000Y-100910000D03*
X156972000Y-62839600D03*
X178770000Y-100990000D03*
X76690000Y-131740000D03*
X76730000Y-129170000D03*
X177940000Y-111500000D03*
X170770000Y-102430000D03*
X179970000Y-100980000D03*
X170060000Y-110170000D03*
X79220000Y-135910000D03*
X180390000Y-116380000D03*
X173280000Y-110180000D03*
X177610000Y-109110000D03*
X72130000Y-118510000D03*
X186820000Y-111210000D03*
X173380000Y-102440000D03*
X186880000Y-105060000D03*
X168650000Y-95950000D03*
D28*
X79210000Y-75270000D03*
X74130000Y-114590000D03*
D11*
X95010000Y-123410000D03*
X94990000Y-142570000D03*
X164250000Y-111520000D03*
X184390000Y-52240000D03*
X184280000Y-105600000D03*
X181490000Y-98530000D03*
X177530000Y-101990000D03*
X177555000Y-103135000D03*
X163940000Y-100501000D03*
X164070000Y-82400000D03*
X185410000Y-81440000D03*
X185410000Y-103500000D03*
X170030000Y-95990000D03*
X170030000Y-80280000D03*
X186910000Y-78910000D03*
X186875000Y-100975000D03*
X239950000Y-99690000D03*
X239950000Y-93550000D03*
X107980000Y-128660000D03*
X108060000Y-103370000D03*
X238550000Y-98690000D03*
X238550000Y-92780000D03*
X236890000Y-97720000D03*
X236890000Y-94370000D03*
X160756600Y-108559600D03*
X159689800Y-114630200D03*
X93980000Y-105760000D03*
X93970000Y-126400000D03*
X167130000Y-126730000D03*
X241480000Y-95590000D03*
X241480000Y-100710000D03*
X105920000Y-128630000D03*
X105920000Y-103400000D03*
X168000000Y-127600000D03*
X104230000Y-103400000D03*
X104220000Y-128560000D03*
X166260000Y-125920000D03*
X91390000Y-126470000D03*
X91360000Y-119880000D03*
X92680000Y-126370000D03*
X92680000Y-107020000D03*
X113551000Y-126766000D03*
X165520000Y-125030000D03*
X78370000Y-116750000D03*
X78330000Y-128400000D03*
X89775000Y-98685000D03*
X89780000Y-126410000D03*
X183020000Y-98480000D03*
X177590000Y-104600000D03*
X235800000Y-91630000D03*
X235800000Y-96710000D03*
M02*
