G04 #@! TF.GenerationSoftware,KiCad,Pcbnew,8.0.5*
G04 #@! TF.CreationDate,2024-10-23T12:55:31-04:00*
G04 #@! TF.ProjectId,FULL BOARD,46554c4c-2042-44f4-9152-442e6b696361,rev?*
G04 #@! TF.SameCoordinates,Original*
G04 #@! TF.FileFunction,Paste,Top*
G04 #@! TF.FilePolarity,Positive*
%FSLAX46Y46*%
G04 Gerber Fmt 4.6, Leading zero omitted, Abs format (unit mm)*
G04 Created by KiCad (PCBNEW 8.0.5) date 2024-10-23 12:55:31*
%MOMM*%
%LPD*%
G01*
G04 APERTURE LIST*
G04 Aperture macros list*
%AMRoundRect*
0 Rectangle with rounded corners*
0 $1 Rounding radius*
0 $2 $3 $4 $5 $6 $7 $8 $9 X,Y pos of 4 corners*
0 Add a 4 corners polygon primitive as box body*
4,1,4,$2,$3,$4,$5,$6,$7,$8,$9,$2,$3,0*
0 Add four circle primitives for the rounded corners*
1,1,$1+$1,$2,$3*
1,1,$1+$1,$4,$5*
1,1,$1+$1,$6,$7*
1,1,$1+$1,$8,$9*
0 Add four rect primitives between the rounded corners*
20,1,$1+$1,$2,$3,$4,$5,0*
20,1,$1+$1,$4,$5,$6,$7,0*
20,1,$1+$1,$6,$7,$8,$9,0*
20,1,$1+$1,$8,$9,$2,$3,0*%
G04 Aperture macros list end*
%ADD10RoundRect,0.250000X0.475000X-0.250000X0.475000X0.250000X-0.475000X0.250000X-0.475000X-0.250000X0*%
%ADD11R,1.041400X3.200400*%
%ADD12RoundRect,0.250000X-0.450000X0.262500X-0.450000X-0.262500X0.450000X-0.262500X0.450000X0.262500X0*%
%ADD13RoundRect,0.250000X-0.475000X0.250000X-0.475000X-0.250000X0.475000X-0.250000X0.475000X0.250000X0*%
%ADD14R,1.599999X0.449999*%
%ADD15R,4.110000X4.359999*%
%ADD16RoundRect,0.243750X0.243750X0.456250X-0.243750X0.456250X-0.243750X-0.456250X0.243750X-0.456250X0*%
%ADD17RoundRect,0.243750X-0.243750X-0.456250X0.243750X-0.456250X0.243750X0.456250X-0.243750X0.456250X0*%
%ADD18R,3.302000X4.394200*%
%ADD19R,3.911600X6.197600*%
%ADD20RoundRect,0.250000X-0.262500X-0.450000X0.262500X-0.450000X0.262500X0.450000X-0.262500X0.450000X0*%
%ADD21RoundRect,0.250000X0.262500X0.450000X-0.262500X0.450000X-0.262500X-0.450000X0.262500X-0.450000X0*%
%ADD22RoundRect,0.250000X0.450000X-0.262500X0.450000X0.262500X-0.450000X0.262500X-0.450000X-0.262500X0*%
%ADD23RoundRect,0.075000X0.725000X0.075000X-0.725000X0.075000X-0.725000X-0.075000X0.725000X-0.075000X0*%
%ADD24RoundRect,0.075000X0.075000X0.725000X-0.075000X0.725000X-0.075000X-0.725000X0.075000X-0.725000X0*%
%ADD25R,0.700000X1.100000*%
%ADD26R,0.900000X0.930000*%
%ADD27R,1.050000X0.780000*%
%ADD28R,1.140000X1.830000*%
%ADD29R,0.860000X2.800000*%
%ADD30R,0.700000X3.330000*%
%ADD31RoundRect,0.375000X-0.375000X0.625000X-0.375000X-0.625000X0.375000X-0.625000X0.375000X0.625000X0*%
%ADD32RoundRect,0.500000X-1.400000X0.500000X-1.400000X-0.500000X1.400000X-0.500000X1.400000X0.500000X0*%
%ADD33R,1.550000X1.300000*%
%ADD34RoundRect,0.250000X0.250000X0.475000X-0.250000X0.475000X-0.250000X-0.475000X0.250000X-0.475000X0*%
%ADD35R,1.700000X0.600000*%
%ADD36R,2.800000X2.500000*%
%ADD37RoundRect,0.250000X-0.250000X-0.475000X0.250000X-0.475000X0.250000X0.475000X-0.250000X0.475000X0*%
G04 APERTURE END LIST*
D10*
X96217800Y-143295400D03*
X96217800Y-141395400D03*
D11*
X195202200Y-109786400D03*
X195202200Y-103868200D03*
D12*
X101523800Y-146583400D03*
X101523800Y-148408400D03*
D13*
X101473000Y-136555600D03*
X101473000Y-138455600D03*
D14*
X89810000Y-138484999D03*
X89810000Y-137834998D03*
X89810000Y-137184999D03*
X89810000Y-136534998D03*
X89810000Y-135884999D03*
X89810000Y-135234998D03*
X89810000Y-134584999D03*
X89810000Y-133934998D03*
X89810000Y-133284999D03*
X89810000Y-132634998D03*
X89810000Y-131984999D03*
X89810000Y-131334998D03*
X89810000Y-130685000D03*
X89810000Y-130034998D03*
X89810000Y-129385000D03*
X89810000Y-128734998D03*
X82010000Y-128734998D03*
X82010000Y-129385000D03*
X82010000Y-130034998D03*
X82010000Y-130685000D03*
X82010000Y-131334998D03*
X82010000Y-131984999D03*
X82010000Y-132634998D03*
X82010000Y-133284999D03*
X82010000Y-133934998D03*
X82010000Y-134584999D03*
X82010000Y-135234998D03*
X82010000Y-135884999D03*
X82010000Y-136534998D03*
X82010000Y-137184999D03*
X82010000Y-137834998D03*
X82010000Y-138484999D03*
D15*
X85910000Y-133610000D03*
D13*
X80243800Y-67696200D03*
X80243800Y-69596200D03*
D16*
X222352500Y-106695000D03*
X220477500Y-106695000D03*
D10*
X96228200Y-148389000D03*
X96228200Y-146489000D03*
D17*
X108363900Y-49961800D03*
X110238900Y-49961800D03*
D18*
X89500000Y-59847110D03*
D19*
X95955800Y-50903400D03*
X83044200Y-50903400D03*
D10*
X97465000Y-69641800D03*
X97465000Y-67741800D03*
X190530000Y-104330000D03*
X190530000Y-102430000D03*
X96240600Y-133553200D03*
X96240600Y-131653200D03*
D20*
X212600000Y-119225000D03*
X214425000Y-119225000D03*
D10*
X96240600Y-138450400D03*
X96240600Y-136550400D03*
D21*
X112799000Y-136954000D03*
X110974000Y-136954000D03*
D16*
X222372500Y-112955000D03*
X220497500Y-112955000D03*
D22*
X138023600Y-52752000D03*
X138023600Y-50927000D03*
D20*
X212612500Y-112965000D03*
X214437500Y-112965000D03*
X212612500Y-106715000D03*
X214437500Y-106715000D03*
D12*
X101498400Y-141405600D03*
X101498400Y-143230600D03*
D21*
X172669000Y-136934000D03*
X170844000Y-136934000D03*
D23*
X181702000Y-112501000D03*
X181702000Y-112001000D03*
X181702000Y-111501000D03*
X181702000Y-111001000D03*
X181702000Y-110501000D03*
X181702000Y-110001000D03*
X181702000Y-109501000D03*
X181702000Y-109001000D03*
X181702000Y-108501000D03*
X181702000Y-108001000D03*
X181702000Y-107501000D03*
X181702000Y-107001000D03*
X181702000Y-106501000D03*
X181702000Y-106001000D03*
X181702000Y-105501000D03*
X181702000Y-105001000D03*
X181702000Y-104501000D03*
X181702000Y-104001000D03*
X181702000Y-103501000D03*
X181702000Y-103001000D03*
X181702000Y-102501000D03*
X181702000Y-102001000D03*
X181702000Y-101501000D03*
X181702000Y-101001000D03*
X181702000Y-100501000D03*
D24*
X180027000Y-98826000D03*
X179527000Y-98826000D03*
X179027000Y-98826000D03*
X178527000Y-98826000D03*
X178027000Y-98826000D03*
X177527000Y-98826000D03*
X177027000Y-98826000D03*
X176527000Y-98826000D03*
X176027000Y-98826000D03*
X175527000Y-98826000D03*
X175027000Y-98826000D03*
X174527000Y-98826000D03*
X174027000Y-98826000D03*
X173527000Y-98826000D03*
X173027000Y-98826000D03*
X172527000Y-98826000D03*
X172027000Y-98826000D03*
X171527000Y-98826000D03*
X171027000Y-98826000D03*
X170527000Y-98826000D03*
X170027000Y-98826000D03*
X169527000Y-98826000D03*
X169027000Y-98826000D03*
X168527000Y-98826000D03*
X168027000Y-98826000D03*
D23*
X166352000Y-100501000D03*
X166352000Y-101001000D03*
X166352000Y-101501000D03*
X166352000Y-102001000D03*
X166352000Y-102501000D03*
X166352000Y-103001000D03*
X166352000Y-103501000D03*
X166352000Y-104001000D03*
X166352000Y-104501000D03*
X166352000Y-105001000D03*
X166352000Y-105501000D03*
X166352000Y-106001000D03*
X166352000Y-106501000D03*
X166352000Y-107001000D03*
X166352000Y-107501000D03*
X166352000Y-108001000D03*
X166352000Y-108501000D03*
X166352000Y-109001000D03*
X166352000Y-109501000D03*
X166352000Y-110001000D03*
X166352000Y-110501000D03*
X166352000Y-111001000D03*
X166352000Y-111501000D03*
X166352000Y-112001000D03*
X166352000Y-112501000D03*
D24*
X168027000Y-114176000D03*
X168527000Y-114176000D03*
X169027000Y-114176000D03*
X169527000Y-114176000D03*
X170027000Y-114176000D03*
X170527000Y-114176000D03*
X171027000Y-114176000D03*
X171527000Y-114176000D03*
X172027000Y-114176000D03*
X172527000Y-114176000D03*
X173027000Y-114176000D03*
X173527000Y-114176000D03*
X174027000Y-114176000D03*
X174527000Y-114176000D03*
X175027000Y-114176000D03*
X175527000Y-114176000D03*
X176027000Y-114176000D03*
X176527000Y-114176000D03*
X177027000Y-114176000D03*
X177527000Y-114176000D03*
X178027000Y-114176000D03*
X178527000Y-114176000D03*
X179027000Y-114176000D03*
X179527000Y-114176000D03*
X180027000Y-114176000D03*
D25*
X193510000Y-72070000D03*
X192410000Y-72070000D03*
X191310000Y-72070000D03*
X190210000Y-72070000D03*
X189110000Y-72070000D03*
X188010000Y-72070000D03*
X186910000Y-72070000D03*
X185810000Y-72070000D03*
D26*
X195300000Y-59605000D03*
D27*
X191035000Y-59530000D03*
D28*
X197390000Y-72055000D03*
D29*
X184730000Y-71570000D03*
D30*
X197610000Y-60805000D03*
X184730000Y-60805000D03*
D31*
X91891000Y-75188800D03*
X89591000Y-75188800D03*
D32*
X89591000Y-81488800D03*
D31*
X87291000Y-75188800D03*
D33*
X120013400Y-50988600D03*
X127963400Y-50988600D03*
X120013400Y-55488600D03*
X127963400Y-55488600D03*
D13*
X132537200Y-50901600D03*
X132537200Y-52801600D03*
D10*
X91699200Y-69616400D03*
X91699200Y-67716400D03*
D21*
X142969000Y-136924000D03*
X141144000Y-136924000D03*
D13*
X190580000Y-109310000D03*
X190580000Y-111210000D03*
X85349200Y-67759600D03*
X85349200Y-69659600D03*
D34*
X97127400Y-126054800D03*
X95227400Y-126054800D03*
D35*
X253720000Y-105940000D03*
X253720000Y-104940000D03*
X253720000Y-103940000D03*
X253720000Y-102940000D03*
X253720000Y-101940000D03*
X253720000Y-100940000D03*
X253720000Y-99940000D03*
X253720000Y-98940000D03*
X253720000Y-97940000D03*
X253720000Y-96940000D03*
X253720000Y-95940000D03*
X253720000Y-94940000D03*
X253720000Y-93940000D03*
X253720000Y-92940000D03*
X253720000Y-91940000D03*
X253720000Y-90940000D03*
X253720000Y-89940000D03*
X253720000Y-88940000D03*
X253720000Y-87940000D03*
X253720000Y-86940000D03*
X253720000Y-85940000D03*
X253720000Y-84940000D03*
X253720000Y-83940000D03*
X253720000Y-82940000D03*
X253720000Y-81940000D03*
X253720000Y-80940000D03*
X253720000Y-79940000D03*
X253720000Y-78940000D03*
X253720000Y-77940000D03*
X253720000Y-76940000D03*
X253720000Y-75940000D03*
X253720000Y-74940000D03*
X253720000Y-73940000D03*
X253720000Y-72940000D03*
X253720000Y-71940000D03*
X253720000Y-70940000D03*
X253720000Y-69940000D03*
X253720000Y-68940000D03*
X253720000Y-67940000D03*
X253720000Y-66940000D03*
D36*
X251270000Y-108690000D03*
X251270000Y-64190000D03*
D37*
X72227400Y-131307800D03*
X74127400Y-131307800D03*
X201700000Y-80375000D03*
X203600000Y-80375000D03*
D16*
X222387500Y-119235000D03*
X220512500Y-119235000D03*
D12*
X97458500Y-62036300D03*
X97458500Y-63861300D03*
D37*
X72220000Y-126050000D03*
X74120000Y-126050000D03*
D21*
X202119000Y-136974000D03*
X200294000Y-136974000D03*
D20*
X177014500Y-123240800D03*
X178839500Y-123240800D03*
M02*
