M48
; DRILL file {KiCad 8.0.5} date 2024-10-23T12:55:34-0400
; FORMAT={-:-/ absolute / metric / decimal}
; #@! TF.CreationDate,2024-10-23T12:55:34-04:00
; #@! TF.GenerationSoftware,Kicad,Pcbnew,8.0.5
; #@! TF.FileFunction,Plated,1,2,PTH
FMAT,2
METRIC
; #@! TA.AperFunction,Plated,PTH,ViaDrill
T1C0.381
; #@! TA.AperFunction,Plated,PTH,ComponentDrill
T2C0.500
; #@! TA.AperFunction,Plated,PTH,ComponentDrill
T3C0.508
; #@! TA.AperFunction,Plated,PTH,ComponentDrill
T4C0.800
; #@! TA.AperFunction,Plated,PTH,ComponentDrill
T5C1.092
; #@! TA.AperFunction,Plated,PTH,ViaDrill
T6C1.118
; #@! TA.AperFunction,Plated,PTH,ComponentDrill
T7C1.500
%
G90
G05
T1
X69.98Y-151.29
X70.73Y-152.44
X77.89Y-130.85
X77.93Y-133.42
X78.708Y-134.983
X79.205Y-133.485
X79.21Y-130.86
X79.76Y-136.82
X79.82Y-135.09
X79.825Y-138.03
X85.975Y-126.926
X87.01Y-160.0
X89.81Y-141.2
X90.275Y-126.926
X91.06Y-154.05
X91.08Y-146.47
X100.559Y-93.726
X100.559Y-123.698
X102.959Y-107.124
X102.959Y-130.048
X105.2Y-131.65
X105.22Y-119.34
X113.551Y-126.766
X156.972Y-62.84
X159.69Y-114.63
X159.72Y-116.01
X160.757Y-108.56
X163.94Y-100.501
X164.07Y-82.4
X164.25Y-111.52
X165.52Y-125.03
X166.26Y-125.92
X167.13Y-126.73
X168.0Y-127.6
X168.1Y-112.15
X168.2Y-110.25
X168.65Y-95.95
X168.72Y-103.06
X169.81Y-103.08
X170.03Y-80.28
X170.03Y-95.99
X176.25Y-110.15
X176.25Y-111.312
X177.443Y-100.207
X179.629Y-103.48
X179.934Y-101.016
X180.05Y-110.15
X180.25Y-106.25
X180.25Y-108.0
X180.39Y-116.38
X182.99Y-98.71
X183.04Y-90.59
X184.28Y-105.6
X184.39Y-52.24
X185.41Y-81.44
X185.41Y-103.5
X186.82Y-111.21
X186.875Y-100.975
X186.88Y-105.06
X186.91Y-78.91
X201.8Y-82.02
X205.486Y-97.282
X205.49Y-98.67
X205.53Y-90.56
X229.04Y-155.28
X229.1Y-151.32
X235.8Y-91.63
X235.8Y-97.95
X236.89Y-94.37
X236.89Y-98.97
X238.55Y-92.78
X238.55Y-100.01
X239.95Y-93.55
X239.95Y-100.96
X241.48Y-95.59
X241.48Y-101.93
T2
X85.48Y-173.53
X86.73Y-173.53
X247.5Y-173.49
X248.75Y-173.49
T3
X85.91Y-133.61
T4
X98.258Y-194.409
X98.258Y-202.029
X98.268Y-216.799
X98.268Y-224.419
X133.268Y-134.409
X133.268Y-142.029
X133.278Y-164.409
X133.278Y-172.029
X133.278Y-194.419
X133.278Y-202.039
X133.298Y-224.419
X133.298Y-232.039
X163.258Y-134.419
X163.258Y-142.039
X163.268Y-224.409
X163.268Y-232.029
X163.279Y-164.394
X163.279Y-172.014
X163.298Y-194.409
X163.298Y-202.029
X193.278Y-134.419
X193.278Y-142.039
X193.278Y-164.399
X193.278Y-172.019
X193.278Y-224.409
X193.278Y-232.029
X193.288Y-194.399
X193.288Y-202.019
X223.258Y-224.399
X223.258Y-232.019
X223.278Y-134.409
X223.278Y-142.029
X223.278Y-164.399
X223.278Y-172.019
X223.288Y-194.399
X223.288Y-202.019
X239.228Y-194.409
X239.228Y-202.029
X239.258Y-216.789
X239.258Y-224.409
T5
X150.6Y-52.26
X150.6Y-54.8
X153.14Y-52.26
X153.14Y-54.8
X155.68Y-52.26
X155.68Y-54.8
X158.22Y-52.26
X158.22Y-54.8
X160.76Y-52.26
X160.76Y-54.8
T6
X74.143Y-119.964
X79.21Y-126.05
X80.701Y-75.189
X92.655Y-126.04
X156.921Y-115.519
X156.947Y-97.206
X156.997Y-81.458
X201.8Y-97.035
X201.8Y-114.66
T7
X84.944Y-196.951
X84.944Y-226.951
X91.294Y-194.411
X91.294Y-224.411
X119.944Y-136.951
X119.944Y-166.951
X119.944Y-196.951
X119.944Y-226.951
X126.294Y-134.411
X126.294Y-164.411
X126.294Y-194.411
X126.294Y-224.411
X149.944Y-136.951
X149.944Y-166.951
X149.944Y-196.951
X149.944Y-226.951
X156.294Y-134.411
X156.294Y-164.411
X156.294Y-194.411
X156.294Y-224.411
X179.944Y-136.951
X179.944Y-166.951
X179.944Y-196.951
X179.944Y-226.951
X186.294Y-134.411
X186.294Y-164.411
X186.294Y-194.411
X186.294Y-224.411
X209.944Y-136.951
X209.944Y-166.951
X209.944Y-196.951
X209.944Y-226.951
X216.294Y-134.411
X216.294Y-164.411
X216.294Y-194.411
X216.294Y-224.411
X244.944Y-196.951
X244.944Y-226.951
X251.294Y-194.411
X251.294Y-224.411
M30
